<svg width="20" height="20" viewBox="0 0 24 24" fill="green" xmlns="http://www.w3.org/2000/svg">
<path d="M14.5 23H9.5V18.0551H12H14.5V23Z" stroke="black"/>
<path d="M10.3657 6.39216C8.14695 6.67026 6.5 8.55515 6.5 11.5552" stroke="black" stroke-linecap="round"/>
<path d="M20.5 10.5551C20.5 13.2038 19.659 15.048 18.2253 16.242C16.7757 17.4492 14.6449 18.0551 11.9484 18.0551C9.25178 18.0551 7.14885 17.4492 5.72621 16.2446C4.31834 15.0526 3.5 13.2085 3.5 10.5551C3.5 7.89419 4.32517 5.5148 5.7832 3.80894C7.23501 2.11036 9.33325 1.05515 11.9484 1.05515C17.1315 1.05515 20.5 5.2402 20.5 10.5551Z" stroke="black"/>
<path d="M13 4.55515C15.5 4.55515 17.5 6.22279 17.9693 8.23127" stroke="black" stroke-linecap="round"/>
</svg>
