<svg width="802" height="805" viewBox="0 0 802 805" fill="none" xmlns="http://www.w3.org/2000/svg">
<path d="M41.575 468.518C31.2563 458.186 31.2563 441.435 41.575 431.103L335.672 136.628C345.991 126.296 362.721 126.296 373.039 136.628L667.137 431.103C677.455 441.435 677.455 458.186 667.137 468.518L373.039 762.992C362.721 773.324 345.991 773.324 335.672 762.992L41.575 468.518Z" fill="#008001" stroke="white" stroke-width="32.3941"/>
<path d="M370.719 116.211L792.601 116.211L593.127 334.763L370.719 116.211Z" fill="url(#paint0_linear_24_30)"/>
<path fill-rule="evenodd" clip-rule="evenodd" d="M383.434 576.24C440.047 561.842 482.836 495.555 482.836 415.958C482.836 325.834 427.982 252.775 360.317 252.775C292.651 252.775 237.798 325.834 237.798 415.958C237.798 495.555 280.587 561.842 337.2 576.24V657.839H383.434V576.24ZM383.434 576.24V575.669L377.227 561.686C375.223 557.17 374.187 552.284 374.187 547.343C374.187 545.398 374.347 543.457 374.667 541.538L376.499 530.533L380.379 513.577C386.24 487.969 395.602 463.29 408.2 440.237L422.732 413.644C400.66 439.555 384.598 470.031 375.7 502.885L370.719 521.275L368.408 420.587L366.096 286.338L360.317 375.452V433.318L347.467 410.673C336.804 391.882 324.046 374.36 309.438 358.442L292.122 339.575L314.096 370.911C324.849 386.246 334.07 402.6 341.626 419.738L358.583 458.2L347.554 446.137C330.046 426.99 308.827 411.603 285.187 400.913L303.687 413.543C308.296 416.689 312.6 420.26 316.544 424.209C323.335 431.009 328.986 438.859 333.28 447.457L342.979 466.88C347.54 476.014 349.914 486.083 349.914 496.291V528.562C349.914 537.523 348.35 546.415 345.291 554.837L337.2 575.669V576.24C344.686 578.144 352.414 579.14 360.317 579.14C368.22 579.14 375.947 578.144 383.434 576.24Z" fill="#D9D9D9"/>
<defs>
<linearGradient id="paint0_linear_24_30" x1="476.19" y1="10.6057" x2="696.812" y2="230.946" gradientUnits="userSpaceOnUse">
<stop stop-color="white"/>
<stop offset="0.108699" stop-color="white"/>
<stop offset="0.1187" stop-color="#FF0000"/>
<stop offset="0.230385" stop-color="#FF0000"/>
<stop offset="0.232052" stop-color="white"/>
<stop offset="0.365407" stop-color="white"/>
<stop offset="0.368741" stop-color="#FF0000"/>
<stop offset="0.497095" stop-color="#FF0000"/>
<stop offset="0.500429" stop-color="white"/>
<stop offset="0.625449" stop-color="white"/>
<stop offset="0.628783" stop-color="#FF0000"/>
<stop offset="0.793809" stop-color="#FF0000"/>
<stop offset="0.79881" stop-color="white"/>
<stop offset="1" stop-color="white"/>
</linearGradient>
</defs>
</svg>
