<svg width="1928" height="70" viewBox="0 0 1928 70" fill="none" xmlns="http://www.w3.org/2000/svg">
<g filter="url(#filter0_d_320_11)">
<g opacity="0.8">
<path d="M4 2L70 47H4V2Z" fill="#E5BE01"/>
<path d="M1924 47L1858 2H1924V47Z" fill="#E5BE01"/>
<path d="M98.1255 45.5L35.9033 3.5H63.8745L126.097 45.5H98.1255Z" fill="#E5BE01" stroke="#E5BE01" stroke-width="3"/>
<path d="M157.126 45.5L94.9033 3.5H122.874L185.097 45.5H157.126Z" fill="#E5BE01" stroke="#E5BE01" stroke-width="3"/>
<path d="M216.126 45.5L153.903 3.5H181.874L244.097 45.5H216.126Z" fill="#E5BE01" stroke="#E5BE01" stroke-width="3"/>
<path d="M275.126 45.5L212.903 3.5H240.874L303.097 45.5H275.126Z" fill="#E5BE01" stroke="#E5BE01" stroke-width="3"/>
<path d="M334.126 45.5L271.903 3.5H299.874L362.097 45.5H334.126Z" fill="#E5BE01" stroke="#E5BE01" stroke-width="3"/>
<path d="M393.126 45.5L330.903 3.5H358.874L421.097 45.5H393.126Z" fill="#E5BE01" stroke="#E5BE01" stroke-width="3"/>
<path d="M452.126 45.5L389.903 3.5H417.874L480.097 45.5H452.126Z" fill="#E5BE01" stroke="#E5BE01" stroke-width="3"/>
<path d="M511.126 45.5L448.903 3.5H476.874L539.097 45.5H511.126Z" fill="#E5BE01" stroke="#E5BE01" stroke-width="3"/>
<path d="M570.126 45.5L507.903 3.5H535.874L598.097 45.5H570.126Z" fill="#E5BE01" stroke="#E5BE01" stroke-width="3"/>
<path d="M629.126 45.5L566.903 3.5H594.874L657.097 45.5H629.126Z" fill="#E5BE01" stroke="#E5BE01" stroke-width="3"/>
<path d="M688.126 45.5L625.903 3.5H653.874L716.097 45.5H688.126Z" fill="#E5BE01" stroke="#E5BE01" stroke-width="3"/>
<path d="M747.126 45.5L684.903 3.5H712.874L775.097 45.5H747.126Z" fill="#E5BE01" stroke="#E5BE01" stroke-width="3"/>
<path d="M806.126 45.5L743.903 3.5H771.874L834.097 45.5H806.126Z" fill="#E5BE01" stroke="#E5BE01" stroke-width="3"/>
<path d="M865.126 45.5L802.903 3.5H830.874L893.097 45.5H865.126Z" fill="#E5BE01" stroke="#E5BE01" stroke-width="3"/>
<path d="M924.126 45.5L861.903 3.5H889.874L952.097 45.5H924.126Z" fill="#E5BE01" stroke="#E5BE01" stroke-width="3"/>
<path d="M983.126 45.5L920.903 3.5H948.874L1011.1 45.5H983.126Z" fill="#E5BE01" stroke="#E5BE01" stroke-width="3"/>
<path d="M1042.13 45.5L979.903 3.5H1007.87L1070.1 45.5H1042.13Z" fill="#E5BE01" stroke="#E5BE01" stroke-width="3"/>
<path d="M1101.13 45.5L1038.9 3.5H1066.87L1129.1 45.5H1101.13Z" fill="#E5BE01" stroke="#E5BE01" stroke-width="3"/>
<path d="M1160.13 45.5L1097.9 3.5H1125.87L1188.1 45.5H1160.13Z" fill="#E5BE01" stroke="#E5BE01" stroke-width="3"/>
<path d="M1219.13 45.5L1156.9 3.5H1184.87L1247.1 45.5H1219.13Z" fill="#E5BE01" stroke="#E5BE01" stroke-width="3"/>
<path d="M1278.13 45.5L1215.9 3.5H1243.87L1306.1 45.5H1278.13Z" fill="#E5BE01" stroke="#E5BE01" stroke-width="3"/>
<path d="M1337.13 45.5L1274.9 3.5H1302.87L1365.1 45.5H1337.13Z" fill="#E5BE01" stroke="#E5BE01" stroke-width="3"/>
<path d="M1396.13 45.5L1333.9 3.5H1361.87L1424.1 45.5H1396.13Z" fill="#E5BE01" stroke="#E5BE01" stroke-width="3"/>
<path d="M1455.13 45.5L1392.9 3.5H1420.87L1483.1 45.5H1455.13Z" fill="#E5BE01" stroke="#E5BE01" stroke-width="3"/>
<path d="M1514.13 45.5L1451.9 3.5H1479.87L1542.1 45.5H1514.13Z" fill="#E5BE01" stroke="#E5BE01" stroke-width="3"/>
<path d="M1573.13 45.5L1510.9 3.5H1538.87L1601.1 45.5H1573.13Z" fill="#E5BE01" stroke="#E5BE01" stroke-width="3"/>
<path d="M1632.13 45.5L1569.9 3.5H1597.87L1660.1 45.5H1632.13Z" fill="#E5BE01" stroke="#E5BE01" stroke-width="3"/>
<path d="M1691.13 45.5L1628.9 3.5H1656.87L1719.1 45.5H1691.13Z" fill="#E5BE01" stroke="#E5BE01" stroke-width="3"/>
<path d="M1750.13 45.5L1687.9 3.5H1715.87L1778.1 45.5H1750.13Z" fill="#E5BE01" stroke="#E5BE01" stroke-width="3"/>
<path d="M1809.13 45.5L1746.9 3.5H1774.87L1837.1 45.5H1809.13Z" fill="#E5BE01" stroke="#E5BE01" stroke-width="3"/>
<path d="M1868.13 45.5L1805.9 3.5H1833.87L1896.1 45.5H1868.13Z" fill="#E5BE01" stroke="#E5BE01" stroke-width="3"/>
</g>
<g opacity="0.9" filter="url(#filter1_f_320_11)">
<path d="M643.254 11.3855H653.916C656.513 11.3855 658.564 11.5632 660.067 11.9186C661.598 12.274 662.706 12.9028 663.389 13.805C664.1 14.6798 664.455 15.9101 664.455 17.4957V22.5398C664.455 24.2895 664.073 25.6564 663.307 26.6406C662.569 27.6248 661.38 28.322 659.739 28.7321C658.126 29.1422 655.939 29.3472 653.178 29.3472H649.651V38H643.254V11.3855ZM653.711 24.9593C655.379 24.9593 656.554 24.7679 657.238 24.3852C657.921 23.9751 658.263 23.2916 658.263 22.3347V18.0699C658.263 17.195 657.935 16.6209 657.279 16.3475C656.65 16.0741 655.434 15.9374 653.629 15.9374H649.651V24.9593H653.711ZM673.885 11.3855H694.185V15.9374H680.283V22.0477H692.831V26.5996H680.283V33.4481H694.595V38H673.885V11.3855ZM705.886 29.3062C706.761 27.6932 707.65 26.4629 708.552 25.6154C709.482 24.7679 710.63 24.1801 711.997 23.8521V23.77C710.931 23.36 710.083 22.8542 709.454 22.2527C708.825 21.6239 708.101 20.6671 707.281 19.3821L702.196 11.3855H709.29L713.678 18.603C714.498 19.9426 715.182 20.8448 715.729 21.3095C716.303 21.7743 717.027 22.0067 717.902 22.0067V11.3855H724.176V22.0067C725.051 22.0067 725.762 21.7743 726.309 21.3095C726.883 20.8448 727.58 19.9426 728.4 18.603L732.788 11.3855H739.883L734.797 19.3821C733.977 20.6671 733.253 21.6239 732.624 22.2527C731.995 22.8542 731.148 23.36 730.081 23.77V23.8521C731.448 24.1801 732.583 24.7679 733.485 25.6154C734.415 26.4629 735.317 27.6932 736.192 29.3062L740.908 38H733.813L729.466 30.1674C728.838 29.0191 728.318 28.199 727.908 27.7069C727.498 27.1874 727.02 26.832 726.473 26.6406C725.926 26.4219 725.16 26.3126 724.176 26.3126V38H717.902V26.3126C716.918 26.3126 716.152 26.4219 715.605 26.6406C715.059 26.832 714.58 27.1874 714.17 27.7069C713.76 28.199 713.241 29.0191 712.612 30.1674L708.265 38H701.17L705.886 29.3062ZM748.885 11.3855H755.282V29.5933L766.764 11.3855H773.162V38H766.764V19.5052L755.282 38H748.885V11.3855ZM783.841 11.3855H792.945L799.506 30.4134L805.986 11.3855H814.556V38H808.774V18.3159H808.651L801.926 38H796.8L789.869 18.3159H789.705V38H783.841V11.3855ZM839.577 11.3855H850.24C852.837 11.3855 854.887 11.5632 856.391 11.9186C857.922 12.274 859.029 12.9028 859.713 13.805C860.423 14.6798 860.779 15.9101 860.779 17.4957V22.5398C860.779 24.2895 860.396 25.6564 859.631 26.6406C858.892 27.6248 857.703 28.322 856.063 28.7321C854.45 29.1422 852.263 29.3472 849.501 29.3472H845.975V38H839.577V11.3855ZM850.035 24.9593C851.702 24.9593 852.878 24.7679 853.561 24.3852C854.245 23.9751 854.587 23.2916 854.587 22.3347V18.0699C854.587 17.195 854.258 16.6209 853.602 16.3475C852.974 16.0741 851.757 15.9374 849.953 15.9374H845.975V24.9593H850.035ZM870.209 11.3855H890.508V15.9374H876.606V22.0477H889.155V26.5996H876.606V33.4481H890.918V38H870.209V11.3855ZM897.904 33.4481H898.478C899.599 33.4481 900.501 33.0243 901.185 32.1768C901.896 31.3019 902.442 29.7163 902.825 27.4198C903.208 25.1233 903.399 21.87 903.399 17.6598V11.3855H922.755V33.4481H926.651V44.1923H920.91V38H903.645V44.1923H897.904V33.4481ZM916.358 33.4891V15.8964H909.14V19.1771C909.14 26.0939 908.252 30.8645 906.475 33.4891H916.358ZM942.41 11.3855H950.201L959.797 38H953.318L950.94 30.9875H941.221L938.883 38H932.568L942.41 11.3855ZM949.545 26.7227L946.183 16.7166H946.019L942.656 26.7227H949.545ZM967.67 11.3855H974.067V21.8837C975.27 21.8837 976.241 21.6649 976.979 21.2275C977.717 20.7628 978.523 19.8879 979.398 18.603L984.401 11.3855H991.578L985.836 19.3821C984.962 20.6124 984.155 21.5556 983.417 22.2117C982.706 22.8405 981.818 23.36 980.751 23.77V23.8521C982.118 24.1801 983.253 24.7679 984.155 25.6154C985.085 26.4629 985.987 27.6932 986.862 29.3062L991.578 38H984.401L980.054 30.1674C979.48 29.1285 978.92 28.3493 978.373 27.8299C977.854 27.2831 977.266 26.914 976.61 26.7227C975.953 26.5313 975.106 26.4356 974.067 26.4356V38H967.67V11.3855ZM1005.61 15.9374H997.412V11.3855H1020.17V15.9374H1012.01V38H1005.61V15.9374ZM1028.77 11.3855H1035.17V29.5933L1046.65 11.3855H1053.05V38H1046.65V19.5052L1035.17 38H1028.77V11.3855ZM1063.73 11.3855H1074.39C1076.99 11.3855 1079.04 11.5632 1080.54 11.9186C1082.07 12.274 1083.18 12.9028 1083.86 13.805C1084.57 14.6798 1084.93 15.9101 1084.93 17.4957V22.5398C1084.93 24.2895 1084.55 25.6564 1083.78 26.6406C1083.04 27.6248 1081.85 28.322 1080.21 28.7321C1078.6 29.1422 1076.41 29.3472 1073.65 29.3472H1070.13V38H1063.73V11.3855ZM1074.19 24.9593C1075.85 24.9593 1077.03 24.7679 1077.71 24.3852C1078.4 23.9751 1078.74 23.2916 1078.74 22.3347V18.0699C1078.74 17.195 1078.41 16.6209 1077.75 16.3475C1077.13 16.0741 1075.91 15.9374 1074.1 15.9374H1070.13V24.9593H1074.19ZM1106.38 38.4101C1104.9 38.4101 1103.53 38.3144 1102.28 38.123C1101.04 37.9317 1099.76 37.6036 1098.42 37.1388C1096.97 36.6467 1095.84 35.8539 1095.02 34.7603C1094.2 33.6394 1093.79 32.2861 1093.79 30.7005V19.0541C1093.79 17.7418 1094.07 16.5662 1094.65 15.5273C1095.25 14.4885 1096.01 13.6683 1096.94 13.0668C1097.76 12.5474 1098.78 12.11 1099.98 11.7546C1101.18 11.3991 1102.3 11.1804 1103.34 11.0984C1104.3 11.0164 1105.31 10.9754 1106.38 10.9754C1107.63 10.9754 1108.73 11.0301 1109.66 11.1394C1110.59 11.2214 1111.62 11.4128 1112.77 11.7135C1114.09 12.0963 1115.17 12.5611 1116.01 13.1078C1116.86 13.6546 1117.57 14.4201 1118.15 15.4043C1118.75 16.4159 1119.05 17.6324 1119.05 19.0541V30.7005C1119.05 32.1768 1118.65 33.4481 1117.86 34.5143C1117.09 35.5805 1116.03 36.387 1114.66 36.9338C1112.2 37.918 1109.44 38.4101 1106.38 38.4101ZM1106.46 33.8581C1107.36 33.8581 1108.11 33.8308 1108.71 33.7761C1109.34 33.6941 1109.98 33.5574 1110.64 33.366C1111.3 33.1747 1111.79 32.8603 1112.12 32.4228C1112.47 31.9581 1112.65 31.384 1112.65 30.7005V19.0131C1112.65 17.7555 1112.14 16.8669 1111.13 16.3475C1110.12 15.8007 1108.55 15.5273 1106.42 15.5273C1104.28 15.5273 1102.71 15.7871 1101.7 16.3065C1100.69 16.8259 1100.18 17.7281 1100.18 19.0131V30.7005C1100.18 31.384 1100.36 31.9581 1100.72 32.4228C1101.07 32.8603 1101.59 33.1747 1102.28 33.366C1102.93 33.5574 1103.56 33.6941 1104.16 33.7761C1104.79 33.8308 1105.56 33.8581 1106.46 33.8581ZM1129.12 11.3855H1139.9C1142.44 11.3855 1144.4 11.5769 1145.77 11.9596C1147.16 12.315 1148.14 12.9028 1148.72 13.723C1149.29 14.5158 1149.58 15.6367 1149.58 17.0857V20.3663C1149.58 21.1045 1149.28 21.8016 1148.68 22.4578C1148.1 23.1139 1147.42 23.565 1146.63 23.8111V24.0161C1147.67 24.1255 1148.61 24.5765 1149.46 25.3694C1150.33 26.1349 1150.77 26.9961 1150.77 27.9529V32.0538C1150.77 34.2135 1149.91 35.7445 1148.19 36.6467C1146.46 37.5489 1143.8 38 1140.19 38H1129.12V11.3855ZM1139.9 22.2117C1140.91 22.2117 1141.67 22.1297 1142.16 21.9657C1142.65 21.8016 1142.98 21.5419 1143.14 21.1865C1143.33 20.8038 1143.43 20.257 1143.43 19.5462V18.2339C1143.43 17.6051 1143.35 17.1403 1143.18 16.8396C1143.02 16.5115 1142.68 16.2792 1142.16 16.1425C1141.67 16.0058 1140.87 15.9374 1139.78 15.9374H1135.51V22.2117H1139.9ZM1140.07 33.4481C1141.62 33.4481 1142.73 33.2704 1143.39 32.9149C1144.04 32.5595 1144.37 31.9854 1144.37 31.1926V29.0601C1144.37 28.0759 1144.11 27.3788 1143.59 26.9687C1143.1 26.5586 1142.21 26.3536 1140.93 26.3536H1135.51V33.4481H1140.07ZM1167.12 11.3855H1174.91L1184.51 38H1178.03L1175.65 30.9875H1165.93L1163.6 38H1157.28L1167.12 11.3855ZM1174.26 26.7227L1170.89 16.7166H1170.73L1167.37 26.7227H1174.26ZM1192.38 11.3855H1198.78V22.0477H1210.1V11.3855H1216.49V38H1210.1V26.5996H1198.78V38H1192.38V11.3855ZM1227.14 11.3855H1233.54V29.5933L1245.02 11.3855H1251.42V38H1245.02V19.5052L1233.54 38H1227.14V11.3855ZM1267.02 27.6659C1265.29 27.4471 1264.01 26.9004 1263.16 26.0255C1262.31 25.1507 1261.89 23.9067 1261.89 22.2937V17.0036C1261.89 14.9806 1262.68 13.5453 1264.27 12.6977C1265.85 11.8229 1268.42 11.3855 1271.98 11.3855H1283.75V38H1277.35V28.158H1273.58L1267.34 38H1260.04L1267.02 27.6659ZM1277.35 23.9341V15.9374H1272.06C1270.64 15.9374 1269.63 16.1288 1269.03 16.5115C1268.45 16.8669 1268.16 17.5368 1268.16 18.521V21.0225C1268.16 22.1707 1268.44 22.9499 1268.98 23.36C1269.53 23.7427 1270.56 23.9341 1272.06 23.9341H1277.35Z" fill="#464646"/>
<path d="M643.254 11.3855V10.1428H642.011V11.3855H643.254ZM660.067 11.9186L659.782 13.128L659.786 13.1291L660.067 11.9186ZM663.389 13.805L662.399 14.5554L662.411 14.5722L662.425 14.5886L663.389 13.805ZM663.307 26.6406L662.326 25.8777L662.32 25.8863L662.313 25.895L663.307 26.6406ZM659.739 28.7321L659.438 27.5265L659.433 27.5277L659.739 28.7321ZM649.651 29.3472V28.1045H648.409V29.3472H649.651ZM649.651 38V39.2427H650.894V38H649.651ZM643.254 38H642.011V39.2427H643.254V38ZM657.238 24.3852L657.845 25.4694L657.861 25.4603L657.877 25.4508L657.238 24.3852ZM657.279 16.3475L656.783 17.4871L656.792 17.4909L656.801 17.4946L657.279 16.3475ZM649.651 15.9374V14.6947H648.409V15.9374H649.651ZM649.651 24.9593H648.409V26.202H649.651V24.9593ZM643.254 12.6282H653.916V10.1428H643.254V12.6282ZM653.916 12.6282C656.473 12.6282 658.414 12.8046 659.782 13.1279L660.353 10.7092C658.714 10.3218 656.554 10.1428 653.916 10.1428V12.6282ZM659.786 13.1291C661.143 13.4441 661.948 13.9606 662.399 14.5554L664.38 13.0546C663.463 11.845 662.053 11.1039 660.348 10.7081L659.786 13.1291ZM662.425 14.5886C662.895 15.1671 663.213 16.0813 663.213 17.4957H665.698C665.698 15.7389 665.305 14.1925 664.354 13.0214L662.425 14.5886ZM663.213 17.4957V22.5398H665.698V17.4957H663.213ZM663.213 22.5398C663.213 24.1223 662.865 25.1845 662.326 25.8777L664.288 27.4036C665.28 26.1284 665.698 24.4567 665.698 22.5398H663.213ZM662.313 25.895C661.8 26.5785 660.904 27.1599 659.438 27.5265L660.041 29.9377C661.855 29.4841 663.338 28.6712 664.301 27.3863L662.313 25.895ZM659.433 27.5277C657.964 27.9012 655.894 28.1045 653.178 28.1045V30.5899C655.984 30.5899 658.289 30.3831 660.046 29.9364L659.433 27.5277ZM653.178 28.1045H649.651V30.5899H653.178V28.1045ZM648.409 29.3472V38H650.894V29.3472H648.409ZM649.651 36.7573H643.254V39.2427H649.651V36.7573ZM644.497 38V11.3855H642.011V38H644.497ZM653.711 26.202C655.402 26.202 656.861 26.0204 657.845 25.4694L656.631 23.3009C656.248 23.5155 655.356 23.7166 653.711 23.7166V26.202ZM657.877 25.4508C659.015 24.7679 659.506 23.6256 659.506 22.3347H657.02C657.02 22.9577 656.827 23.1823 656.599 23.3196L657.877 25.4508ZM659.506 22.3347V18.0699H657.02V22.3347H659.506ZM659.506 18.0699C659.506 17.4838 659.397 16.8925 659.096 16.3666C658.785 15.8228 658.318 15.4343 657.757 15.2004L656.801 17.4946C656.896 17.5341 656.921 17.5694 656.938 17.5997C656.966 17.6479 657.02 17.781 657.02 18.0699H659.506ZM657.774 15.2079C657.291 14.9975 656.684 14.8782 656.034 14.805C655.363 14.7297 654.558 14.6947 653.629 14.6947V17.1801C654.504 17.1801 655.21 17.2135 655.756 17.2749C656.322 17.3384 656.638 17.4241 656.783 17.4871L657.774 15.2079ZM653.629 14.6947H649.651V17.1801H653.629V14.6947ZM648.409 15.9374V24.9593H650.894V15.9374H648.409ZM649.651 26.202H653.711V23.7166H649.651V26.202ZM673.885 11.3855V10.1428H672.643V11.3855H673.885ZM694.185 11.3855H695.427V10.1428H694.185V11.3855ZM694.185 15.9374V17.1801H695.427V15.9374H694.185ZM680.283 15.9374V14.6947H679.04V15.9374H680.283ZM680.283 22.0477H679.04V23.2904H680.283V22.0477ZM692.831 22.0477H694.074V20.805H692.831V22.0477ZM692.831 26.5996V27.8423H694.074V26.5996H692.831ZM680.283 26.5996V25.357H679.04V26.5996H680.283ZM680.283 33.4481H679.04V34.6907H680.283V33.4481ZM694.595 33.4481H695.837V32.2054H694.595V33.4481ZM694.595 38V39.2427H695.837V38H694.595ZM673.885 38H672.643V39.2427H673.885V38ZM673.885 12.6282H694.185V10.1428H673.885V12.6282ZM692.942 11.3855V15.9374H695.427V11.3855H692.942ZM694.185 14.6947H680.283V17.1801H694.185V14.6947ZM679.04 15.9374V22.0477H681.525V15.9374H679.04ZM680.283 23.2904H692.831V20.805H680.283V23.2904ZM691.589 22.0477V26.5996H694.074V22.0477H691.589ZM692.831 25.357H680.283V27.8423H692.831V25.357ZM679.04 26.5996V33.4481H681.525V26.5996H679.04ZM680.283 34.6907H694.595V32.2054H680.283V34.6907ZM693.352 33.4481V38H695.837V33.4481H693.352ZM694.595 36.7573H673.885V39.2427H694.595V36.7573ZM675.128 38V11.3855H672.643V38H675.128ZM705.886 29.3062L706.979 29.8987L706.979 29.8987L705.886 29.3062ZM708.552 25.6154L707.715 24.6971L707.708 24.7034L707.701 24.7097L708.552 25.6154ZM711.997 23.8521L712.287 25.0604L713.239 24.8318V23.8521H711.997ZM711.997 23.77H713.239V22.9166L712.443 22.6102L711.997 23.77ZM709.454 22.2527L708.576 23.1314L708.585 23.1412L708.595 23.1507L709.454 22.2527ZM707.281 19.3821L706.232 20.049L706.233 20.0507L707.281 19.3821ZM702.196 11.3855V10.1428H699.933L701.147 12.0523L702.196 11.3855ZM709.29 11.3855L710.352 10.7399L709.989 10.1428H709.29V11.3855ZM713.678 18.603L712.616 19.2485L712.618 19.2518L713.678 18.603ZM715.729 21.3095L714.924 22.2564L714.935 22.266L714.947 22.2754L715.729 21.3095ZM717.902 22.0067V23.2494H719.145V22.0067H717.902ZM717.902 11.3855V10.1428H716.659V11.3855H717.902ZM724.176 11.3855H725.419V10.1428H724.176V11.3855ZM724.176 22.0067H722.934V23.2494H724.176V22.0067ZM726.309 21.3095L725.527 20.3437L725.515 20.353L725.504 20.3627L726.309 21.3095ZM728.4 18.603L729.46 19.2518L729.462 19.2485L728.4 18.603ZM732.788 11.3855V10.1428H732.089L731.726 10.7399L732.788 11.3855ZM739.883 11.3855L740.931 12.0523L742.145 10.1428H739.883V11.3855ZM734.797 19.3821L735.845 20.0507L735.846 20.049L734.797 19.3821ZM732.624 22.2527L733.483 23.1507L733.493 23.1412L733.503 23.1314L732.624 22.2527ZM730.081 23.77L729.635 22.6102L728.839 22.9166V23.77H730.081ZM730.081 23.8521H728.839V24.8318L729.791 25.0604L730.081 23.8521ZM733.485 25.6154L732.634 26.5212L732.641 26.5275L732.648 26.5337L733.485 25.6154ZM736.192 29.3062L735.099 29.8987L735.099 29.8987L736.192 29.3062ZM740.908 38V39.2427H742.996L742 37.4075L740.908 38ZM733.813 38L732.727 38.603L733.082 39.2427H733.813V38ZM729.466 30.1674L728.376 30.7643L728.38 30.7704L729.466 30.1674ZM727.908 27.7069L726.933 28.4769L726.943 28.4898L726.953 28.5024L727.908 27.7069ZM726.473 26.6406L726.011 27.7944L726.037 27.8046L726.062 27.8136L726.473 26.6406ZM724.176 26.3126V25.0699H722.934V26.3126H724.176ZM724.176 38V39.2427H725.419V38H724.176ZM717.902 38H716.659V39.2427H717.902V38ZM717.902 26.3126H719.145V25.0699H717.902V26.3126ZM715.605 26.6406L716.016 27.8136L716.042 27.8046L716.067 27.7944L715.605 26.6406ZM714.17 27.7069L715.125 28.5024L715.135 28.4898L715.146 28.4769L714.17 27.7069ZM712.612 30.1674L713.698 30.7704L713.702 30.7643L712.612 30.1674ZM708.265 38V39.2427H708.997L709.352 38.603L708.265 38ZM701.17 38L700.078 37.4075L699.083 39.2427H701.17V38ZM706.979 29.8987C707.818 28.3516 708.632 27.2453 709.403 26.5212L707.701 24.7097C706.668 25.6806 705.705 27.0348 704.794 28.7137L706.979 29.8987ZM709.389 26.5337C710.146 25.8436 711.099 25.3454 712.287 25.0604L711.707 22.6437C710.16 23.0149 708.817 23.6923 707.715 24.6971L709.389 26.5337ZM713.239 23.8521V23.77H710.754V23.8521H713.239ZM712.443 22.6102C711.485 22.2416 710.792 21.8129 710.313 21.3547L708.595 23.1507C709.374 23.8955 710.377 24.4783 711.551 24.9299L712.443 22.6102ZM710.333 21.374C709.797 20.8383 709.129 19.9681 708.328 18.7135L706.233 20.0507C707.073 21.366 707.854 22.4096 708.576 23.1314L710.333 21.374ZM708.329 18.7153L703.244 10.7187L701.147 12.0523L706.232 20.049L708.329 18.7153ZM702.196 12.6282H709.29V10.1428H702.196V12.6282ZM708.228 12.031L712.616 19.2485L714.74 17.9574L710.352 10.7399L708.228 12.031ZM712.618 19.2518C713.445 20.6027 714.215 21.6538 714.924 22.2564L716.533 20.3627C716.149 20.0357 715.551 19.2825 714.738 17.9541L712.618 19.2518ZM714.947 22.2754C715.781 22.9509 716.797 23.2494 717.902 23.2494V20.764C717.257 20.764 716.824 20.5977 716.51 20.3437L714.947 22.2754ZM719.145 22.0067V11.3855H716.659V22.0067H719.145ZM717.902 12.6282H724.176V10.1428H717.902V12.6282ZM722.934 11.3855V22.0067H725.419V11.3855H722.934ZM724.176 23.2494C725.279 23.2494 726.296 22.9515 727.114 22.2564L725.504 20.3627C725.228 20.5971 724.823 20.764 724.176 20.764V23.2494ZM727.091 22.2754C727.841 21.6679 728.63 20.6075 729.46 19.2518L727.34 17.9541C726.53 19.2777 725.925 20.0217 725.527 20.3437L727.091 22.2754ZM729.462 19.2485L733.85 12.031L731.726 10.7399L727.338 17.9574L729.462 19.2485ZM732.788 12.6282H739.883V10.1428H732.788V12.6282ZM738.834 10.7187L733.749 18.7153L735.846 20.049L740.931 12.0523L738.834 10.7187ZM733.75 18.7135C732.949 19.9681 732.281 20.8383 731.745 21.374L733.503 23.1314C734.225 22.4096 735.005 21.366 735.845 20.0507L733.75 18.7135ZM731.765 21.3547C731.286 21.8129 730.594 22.2416 729.635 22.6102L730.528 24.9299C731.702 24.4783 732.704 23.8955 733.483 23.1507L731.765 21.3547ZM728.839 23.77V23.8521H731.324V23.77H728.839ZM729.791 25.0604C730.977 25.345 731.91 25.8407 732.634 26.5212L734.336 24.7097C733.256 23.6951 731.92 23.0152 730.372 22.6437L729.791 25.0604ZM732.648 26.5337C733.439 27.2553 734.263 28.3569 735.099 29.8987L737.284 28.7137C736.371 27.0295 735.39 25.6706 734.322 24.6971L732.648 26.5337ZM735.099 29.8987L739.815 38.5925L742 37.4075L737.284 28.7137L735.099 29.8987ZM740.908 36.7573H733.813V39.2427H740.908V36.7573ZM734.9 37.397L730.553 29.5644L728.38 30.7704L732.727 38.603L734.9 37.397ZM730.556 29.5705C729.92 28.4088 729.354 27.5004 728.863 26.9113L726.953 28.5024C727.283 28.8975 727.755 29.6295 728.376 30.7643L730.556 29.5705ZM728.883 26.9368C728.348 26.2592 727.683 25.7477 726.883 25.4677L726.062 27.8136C726.356 27.9163 726.647 28.1156 726.933 28.4769L728.883 26.9368ZM726.934 25.4868C726.174 25.1829 725.227 25.0699 724.176 25.0699V27.5553C725.094 27.5553 725.677 27.6609 726.011 27.7944L726.934 25.4868ZM722.934 26.3126V38H725.419V26.3126H722.934ZM724.176 36.7573H717.902V39.2427H724.176V36.7573ZM719.145 38V26.3126H716.659V38H719.145ZM717.902 25.0699C716.851 25.0699 715.904 25.1829 715.144 25.4868L716.067 27.7944C716.401 27.6609 716.984 27.5553 717.902 27.5553V25.0699ZM715.195 25.4677C714.395 25.7477 713.73 26.2592 713.195 26.9368L715.146 28.4769C715.431 28.1156 715.722 27.9163 716.016 27.8136L715.195 25.4677ZM713.216 26.9113C712.725 27.5004 712.158 28.4088 711.522 29.5705L713.702 30.7643C714.323 29.6295 714.796 28.8975 715.125 28.5024L713.216 26.9113ZM711.525 29.5644L707.178 37.397L709.352 38.603L713.698 30.7704L711.525 29.5644ZM708.265 36.7573H701.17V39.2427H708.265V36.7573ZM702.263 38.5925L706.979 29.8987L704.794 28.7137L700.078 37.4075L702.263 38.5925ZM748.885 11.3855V10.1428H747.642V11.3855H748.885ZM755.282 11.3855H756.525V10.1428H755.282V11.3855ZM755.282 29.5933H754.039V33.8934L756.333 30.2561L755.282 29.5933ZM766.764 11.3855V10.1428H766.079L765.713 10.7226L766.764 11.3855ZM773.162 11.3855H774.404V10.1428H773.162V11.3855ZM773.162 38V39.2427H774.404V38H773.162ZM766.764 38H765.522V39.2427H766.764V38ZM766.764 19.5052H768.007V15.1476L765.708 18.8497L766.764 19.5052ZM755.282 38V39.2427H755.973L756.338 38.6555L755.282 38ZM748.885 38H747.642V39.2427H748.885V38ZM748.885 12.6282H755.282V10.1428H748.885V12.6282ZM754.039 11.3855V29.5933H756.525V11.3855H754.039ZM756.333 30.2561L767.815 12.0483L765.713 10.7226L754.231 28.9304L756.333 30.2561ZM766.764 12.6282H773.162V10.1428H766.764V12.6282ZM771.919 11.3855V38H774.404V11.3855H771.919ZM773.162 36.7573H766.764V39.2427H773.162V36.7573ZM768.007 38V19.5052H765.522V38H768.007ZM765.708 18.8497L754.226 37.3445L756.338 38.6555L767.82 20.1606L765.708 18.8497ZM755.282 36.7573H748.885V39.2427H755.282V36.7573ZM750.127 38V11.3855H747.642V38H750.127ZM783.841 11.3855V10.1428H782.598V11.3855H783.841ZM792.945 11.3855L794.12 10.9804L793.831 10.1428H792.945V11.3855ZM799.506 30.4134L798.332 30.8185L799.514 34.2469L800.683 30.814L799.506 30.4134ZM805.986 11.3855V10.1428H805.096L804.809 10.9849L805.986 11.3855ZM814.556 11.3855H815.799V10.1428H814.556V11.3855ZM814.556 38V39.2427H815.799V38H814.556ZM808.774 38H807.532V39.2427H808.774V38ZM808.774 18.3159H810.017V17.0732H808.774V18.3159ZM808.651 18.3159V17.0732H807.763L807.475 17.9141L808.651 18.3159ZM801.926 38V39.2427H802.814L803.102 38.4018L801.926 38ZM796.8 38L795.628 38.4127L795.92 39.2427H796.8V38ZM789.869 18.3159L791.041 17.9032L790.749 17.0732H789.869V18.3159ZM789.705 18.3159V17.0732H788.463V18.3159H789.705ZM789.705 38V39.2427H790.948V38H789.705ZM783.841 38H782.598V39.2427H783.841V38ZM783.841 12.6282H792.945V10.1428H783.841V12.6282ZM791.77 11.7906L798.332 30.8185L800.681 30.0083L794.12 10.9804L791.77 11.7906ZM800.683 30.814L807.162 11.786L804.809 10.9849L798.33 30.0129L800.683 30.814ZM805.986 12.6282H814.556V10.1428H805.986V12.6282ZM813.314 11.3855V38H815.799V11.3855H813.314ZM814.556 36.7573H808.774V39.2427H814.556V36.7573ZM810.017 38V18.3159H807.532V38H810.017ZM808.774 17.0732H808.651V19.5586H808.774V17.0732ZM807.475 17.9141L800.75 37.5982L803.102 38.4018L809.827 18.7177L807.475 17.9141ZM801.926 36.7573H796.8V39.2427H801.926V36.7573ZM797.972 37.5873L791.041 17.9032L788.697 18.7286L795.628 38.4127L797.972 37.5873ZM789.869 17.0732H789.705V19.5586H789.869V17.0732ZM788.463 18.3159V38H790.948V18.3159H788.463ZM789.705 36.7573H783.841V39.2427H789.705V36.7573ZM785.084 38V11.3855H782.598V38H785.084ZM839.577 11.3855V10.1428H838.335V11.3855H839.577ZM856.391 11.9186L856.105 13.128L856.11 13.1291L856.391 11.9186ZM859.713 13.805L858.722 14.5554L858.735 14.5722L858.748 14.5886L859.713 13.805ZM859.631 26.6406L858.65 25.8777L858.643 25.8863L858.636 25.895L859.631 26.6406ZM856.063 28.7321L855.761 27.5265L855.757 27.5277L856.063 28.7321ZM845.975 29.3472V28.1045H844.732V29.3472H845.975ZM845.975 38V39.2427H847.217V38H845.975ZM839.577 38H838.335V39.2427H839.577V38ZM853.561 24.3852L854.168 25.4694L854.185 25.4603L854.201 25.4508L853.561 24.3852ZM853.602 16.3475L853.107 17.4871L853.116 17.4909L853.124 17.4946L853.602 16.3475ZM845.975 15.9374V14.6947H844.732V15.9374H845.975ZM845.975 24.9593H844.732V26.202H845.975V24.9593ZM839.577 12.6282H850.24V10.1428H839.577V12.6282ZM850.24 12.6282C852.796 12.6282 854.737 12.8046 856.105 13.1279L856.677 10.7092C855.037 10.3218 852.877 10.1428 850.24 10.1428V12.6282ZM856.11 13.1291C857.467 13.4441 858.271 13.9606 858.722 14.5554L860.703 13.0546C859.787 11.845 858.377 11.1039 856.672 10.7081L856.11 13.1291ZM858.748 14.5886C859.218 15.1671 859.536 16.0813 859.536 17.4957H862.021C862.021 15.7389 861.629 14.1925 860.677 13.0214L858.748 14.5886ZM859.536 17.4957V22.5398H862.021V17.4957H859.536ZM859.536 22.5398C859.536 24.1223 859.189 25.1845 858.65 25.8777L860.611 27.4036C861.603 26.1284 862.021 24.4567 862.021 22.5398H859.536ZM858.636 25.895C858.124 26.5785 857.228 27.1599 855.761 27.5265L856.364 29.9377C858.179 29.4841 859.661 28.6712 860.625 27.3863L858.636 25.895ZM855.757 27.5277C854.288 27.9012 852.218 28.1045 849.501 28.1045V30.5899C852.308 30.5899 854.612 30.3831 856.369 29.9364L855.757 27.5277ZM849.501 28.1045H845.975V30.5899H849.501V28.1045ZM844.732 29.3472V38H847.217V29.3472H844.732ZM845.975 36.7573H839.577V39.2427H845.975V36.7573ZM840.82 38V11.3855H838.335V38H840.82ZM850.035 26.202C851.725 26.202 853.185 26.0204 854.168 25.4694L852.954 23.3009C852.571 23.5155 851.679 23.7166 850.035 23.7166V26.202ZM854.201 25.4508C855.339 24.7679 855.829 23.6256 855.829 22.3347H853.344C853.344 22.9577 853.151 23.1823 852.922 23.3196L854.201 25.4508ZM855.829 22.3347V18.0699H853.344V22.3347H855.829ZM855.829 18.0699C855.829 17.4838 855.72 16.8925 855.419 16.3666C855.109 15.8228 854.642 15.4343 854.08 15.2004L853.124 17.4946C853.219 17.5341 853.244 17.5694 853.262 17.5997C853.289 17.6479 853.344 17.781 853.344 18.0699H855.829ZM854.098 15.2079C853.614 14.9975 853.008 14.8782 852.357 14.805C851.687 14.7297 850.882 14.6947 849.953 14.6947V17.1801C850.828 17.1801 851.533 17.2135 852.08 17.2749C852.645 17.3384 852.962 17.4241 853.107 17.4871L854.098 15.2079ZM849.953 14.6947H845.975V17.1801H849.953V14.6947ZM844.732 15.9374V24.9593H847.217V15.9374H844.732ZM845.975 26.202H850.035V23.7166H845.975V26.202ZM870.209 11.3855V10.1428H868.966V11.3855H870.209ZM890.508 11.3855H891.751V10.1428H890.508V11.3855ZM890.508 15.9374V17.1801H891.751V15.9374H890.508ZM876.606 15.9374V14.6947H875.363V15.9374H876.606ZM876.606 22.0477H875.363V23.2904H876.606V22.0477ZM889.155 22.0477H890.397V20.805H889.155V22.0477ZM889.155 26.5996V27.8423H890.397V26.5996H889.155ZM876.606 26.5996V25.357H875.363V26.5996H876.606ZM876.606 33.4481H875.363V34.6907H876.606V33.4481ZM890.918 33.4481H892.161V32.2054H890.918V33.4481ZM890.918 38V39.2427H892.161V38H890.918ZM870.209 38H868.966V39.2427H870.209V38ZM870.209 12.6282H890.508V10.1428H870.209V12.6282ZM889.265 11.3855V15.9374H891.751V11.3855H889.265ZM890.508 14.6947H876.606V17.1801H890.508V14.6947ZM875.363 15.9374V22.0477H877.849V15.9374H875.363ZM876.606 23.2904H889.155V20.805H876.606V23.2904ZM887.912 22.0477V26.5996H890.397V22.0477H887.912ZM889.155 25.357H876.606V27.8423H889.155V25.357ZM875.363 26.5996V33.4481H877.849V26.5996H875.363ZM876.606 34.6907H890.918V32.2054H876.606V34.6907ZM889.675 33.4481V38H892.161V33.4481H889.675ZM890.918 36.7573H870.209V39.2427H890.918V36.7573ZM871.452 38V11.3855H868.966V38H871.452ZM897.904 33.4481V32.2054H896.661V33.4481H897.904ZM901.185 32.1768L900.22 31.3932L900.217 31.3967L901.185 32.1768ZM902.825 27.4198L901.599 27.2155L901.599 27.2155L902.825 27.4198ZM903.399 11.3855V10.1428H902.156V11.3855H903.399ZM922.755 11.3855H923.998V10.1428H922.755V11.3855ZM922.755 33.4481H921.512V34.6907H922.755V33.4481ZM926.651 33.4481H927.894V32.2054H926.651V33.4481ZM926.651 44.1923V45.435H927.894V44.1923H926.651ZM920.91 44.1923H919.667V45.435H920.91V44.1923ZM920.91 38H922.152V36.7573H920.91V38ZM903.645 38V36.7573H902.403V38H903.645ZM903.645 44.1923V45.435H904.888V44.1923H903.645ZM897.904 44.1923H896.661V45.435H897.904V44.1923ZM916.358 33.4891V34.7317H917.601V33.4891H916.358ZM916.358 15.8964H917.601V14.6537H916.358V15.8964ZM909.14 15.8964V14.6537H907.898V15.8964H909.14ZM906.475 33.4891L905.446 32.7923L904.133 34.7317H906.475V33.4891ZM897.904 34.6907H898.478V32.2054H897.904V34.6907ZM898.478 34.6907C899.962 34.6907 901.225 34.1068 902.152 32.9569L900.217 31.3967C899.778 31.9418 899.236 32.2054 898.478 32.2054V34.6907ZM902.149 32.9604C903.078 31.8177 903.663 29.9515 904.051 27.6241L901.599 27.2155C901.222 29.4811 900.713 30.7862 900.22 31.3932L902.149 32.9604ZM904.051 27.6241C904.45 25.2267 904.642 21.8931 904.642 17.6598H902.156C902.156 21.8468 901.965 25.02 901.599 27.2155L904.051 27.6241ZM904.642 17.6598V11.3855H902.156V17.6598H904.642ZM903.399 12.6282H922.755V10.1428H903.399V12.6282ZM921.512 11.3855V33.4481H923.998V11.3855H921.512ZM922.755 34.6907H926.651V32.2054H922.755V34.6907ZM925.408 33.4481V44.1923H927.894V33.4481H925.408ZM926.651 42.9496H920.91V45.435H926.651V42.9496ZM922.152 44.1923V38H919.667V44.1923H922.152ZM920.91 36.7573H903.645V39.2427H920.91V36.7573ZM902.403 38V44.1923H904.888V38H902.403ZM903.645 42.9496H897.904V45.435H903.645V42.9496ZM899.147 44.1923V33.4481H896.661V44.1923H899.147ZM917.601 33.4891V15.8964H915.115V33.4891H917.601ZM916.358 14.6537H909.14V17.1391H916.358V14.6537ZM907.898 15.8964V19.1771H910.383V15.8964H907.898ZM907.898 19.1771C907.898 26.078 906.994 30.5059 905.446 32.7923L907.504 34.1858C909.51 31.2232 910.383 26.1097 910.383 19.1771H907.898ZM906.475 34.7317H916.358V32.2464H906.475V34.7317ZM942.41 11.3855V10.1428H941.544L941.244 10.9545L942.41 11.3855ZM950.201 11.3855L951.37 10.964L951.074 10.1428H950.201V11.3855ZM959.797 38V39.2427H961.566L960.966 37.5785L959.797 38ZM953.318 38L952.141 38.3992L952.427 39.2427H953.318V38ZM950.94 30.9875L952.116 30.5884L951.83 29.7449H950.94V30.9875ZM941.221 30.9875V29.7449H940.325L940.042 30.5946L941.221 30.9875ZM938.883 38V39.2427H939.779L940.062 38.393L938.883 38ZM932.568 38L931.402 37.569L930.783 39.2427H932.568V38ZM949.545 26.7227V27.9653H951.274L950.723 26.3268L949.545 26.7227ZM946.183 16.7166L947.361 16.3207L947.076 15.4739H946.183V16.7166ZM946.019 16.7166V15.4739H945.125L944.841 16.3207L946.019 16.7166ZM942.656 26.7227L941.478 26.3268L940.927 27.9653H942.656V26.7227ZM942.41 12.6282H950.201V10.1428H942.41V12.6282ZM949.032 11.807L958.628 38.4215L960.966 37.5785L951.37 10.964L949.032 11.807ZM959.797 36.7573H953.318V39.2427H959.797V36.7573ZM954.495 37.6008L952.116 30.5884L949.763 31.3867L952.141 38.3992L954.495 37.6008ZM950.94 29.7449H941.221V32.2302H950.94V29.7449ZM940.042 30.5946L937.704 37.607L940.062 38.393L942.399 31.3805L940.042 30.5946ZM938.883 36.7573H932.568V39.2427H938.883V36.7573ZM933.733 38.431L943.575 11.8165L941.244 10.9545L931.402 37.569L933.733 38.431ZM950.723 26.3268L947.361 16.3207L945.005 17.1124L948.367 27.1185L950.723 26.3268ZM946.183 15.4739H946.019V17.9593H946.183V15.4739ZM944.841 16.3207L941.478 26.3268L943.834 27.1185L947.196 17.1124L944.841 16.3207ZM942.656 27.9653H949.545V25.48H942.656V27.9653ZM967.67 11.3855V10.1428H966.427V11.3855H967.67ZM974.067 11.3855H975.31V10.1428H974.067V11.3855ZM974.067 21.8837H972.824V23.1263H974.067V21.8837ZM976.979 21.2275L977.612 22.2966L977.627 22.288L977.641 22.2791L976.979 21.2275ZM979.398 18.603L978.377 17.895L978.371 17.9036L979.398 18.603ZM984.401 11.3855V10.1428H983.751L983.38 10.6775L984.401 11.3855ZM991.578 11.3855L992.587 12.1102L994 10.1428H991.578V11.3855ZM985.836 19.3821L984.827 18.6574L984.824 18.662L985.836 19.3821ZM983.417 22.2117L984.24 23.1425L984.243 23.1405L983.417 22.2117ZM980.751 23.77L980.305 22.6102L979.509 22.9166V23.77H980.751ZM980.751 23.8521H979.509V24.8318L980.461 25.0604L980.751 23.8521ZM984.155 25.6154L983.304 26.5212L983.311 26.5275L983.318 26.5337L984.155 25.6154ZM986.862 29.3062L985.769 29.8987L985.769 29.8987L986.862 29.3062ZM991.578 38V39.2427H993.666L992.67 37.4075L991.578 38ZM984.401 38L983.315 38.603L983.67 39.2427H984.401V38ZM980.054 30.1674L978.967 30.7684L978.968 30.7704L980.054 30.1674ZM978.373 27.8299L977.472 28.6858L977.494 28.7089L977.517 28.7308L978.373 27.8299ZM976.61 26.7227L976.958 25.5297L976.958 25.5297L976.61 26.7227ZM974.067 26.4356V25.1929H972.824V26.4356H974.067ZM974.067 38V39.2427H975.31V38H974.067ZM967.67 38H966.427V39.2427H967.67V38ZM967.67 12.6282H974.067V10.1428H967.67V12.6282ZM972.824 11.3855V21.8837H975.31V11.3855H972.824ZM974.067 23.1263C975.408 23.1263 976.62 22.8844 977.612 22.2966L976.345 20.1585C975.861 20.4455 975.132 20.641 974.067 20.641V23.1263ZM977.641 22.2791C978.596 21.6779 979.518 20.6352 980.425 19.3023L978.371 17.9036C977.529 19.1406 976.838 19.8476 976.317 20.1759L977.641 22.2791ZM980.419 19.3109L985.423 12.0934L983.38 10.6775L978.377 17.895L980.419 19.3109ZM984.401 12.6282H991.578V10.1428H984.401V12.6282ZM990.568 10.6607L984.827 18.6574L986.846 20.1069L992.587 12.1102L990.568 10.6607ZM984.824 18.662C983.978 19.8514 983.233 20.7126 982.591 21.2829L984.243 23.1405C985.077 22.3986 985.945 21.3733 986.849 20.1023L984.824 18.662ZM982.594 21.281C982.014 21.7937 981.261 22.2428 980.305 22.6102L981.198 24.9299C982.375 24.4771 983.398 23.8873 984.24 23.1425L982.594 21.281ZM979.509 23.77V23.8521H981.994V23.77H979.509ZM980.461 25.0604C981.647 25.345 982.58 25.8407 983.304 26.5212L985.006 24.7097C983.926 23.6951 982.589 23.0152 981.041 22.6437L980.461 25.0604ZM983.318 26.5337C984.109 27.2553 984.933 28.3569 985.769 29.8987L987.954 28.7137C987.041 27.0295 986.06 25.6706 984.992 24.6971L983.318 26.5337ZM985.769 29.8987L990.485 38.5925L992.67 37.4075L987.954 28.7137L985.769 29.8987ZM991.578 36.7573H984.401V39.2427H991.578V36.7573ZM985.488 37.397L981.141 29.5644L978.968 30.7704L983.315 38.603L985.488 37.397ZM981.142 29.5663C980.537 28.4723 979.905 27.5712 979.229 26.9289L977.517 28.7308C977.935 29.1275 978.423 29.7847 978.967 30.7684L981.142 29.5663ZM979.274 26.974C978.619 26.2849 977.846 25.7888 976.958 25.5297L976.262 27.9156C976.686 28.0393 977.088 28.2813 977.472 28.6858L979.274 26.974ZM976.958 25.5297C976.146 25.293 975.169 25.1929 974.067 25.1929V27.6783C975.043 27.6783 975.761 27.7696 976.262 27.9156L976.958 25.5297ZM972.824 26.4356V38H975.31V26.4356H972.824ZM974.067 36.7573H967.67V39.2427H974.067V36.7573ZM968.912 38V11.3855H966.427V38H968.912ZM1005.61 15.9374H1006.86V14.6947H1005.61V15.9374ZM997.412 15.9374H996.169V17.1801H997.412V15.9374ZM997.412 11.3855V10.1428H996.169V11.3855H997.412ZM1020.17 11.3855H1021.41V10.1428H1020.17V11.3855ZM1020.17 15.9374V17.1801H1021.41V15.9374H1020.17ZM1012.01 15.9374V14.6947H1010.77V15.9374H1012.01ZM1012.01 38V39.2427H1013.25V38H1012.01ZM1005.61 38H1004.37V39.2427H1005.61V38ZM1005.61 14.6947H997.412V17.1801H1005.61V14.6947ZM998.655 15.9374V11.3855H996.169V15.9374H998.655ZM997.412 12.6282H1020.17V10.1428H997.412V12.6282ZM1018.93 11.3855V15.9374H1021.41V11.3855H1018.93ZM1020.17 14.6947H1012.01V17.1801H1020.17V14.6947ZM1010.77 15.9374V38H1013.25V15.9374H1010.77ZM1012.01 36.7573H1005.61V39.2427H1012.01V36.7573ZM1006.86 38V15.9374H1004.37V38H1006.86ZM1028.77 11.3855V10.1428H1027.53V11.3855H1028.77ZM1035.17 11.3855H1036.41V10.1428H1035.17V11.3855ZM1035.17 29.5933H1033.93V33.8934L1036.22 30.2561L1035.17 29.5933ZM1046.65 11.3855V10.1428H1045.97L1045.6 10.7226L1046.65 11.3855ZM1053.05 11.3855H1054.29V10.1428H1053.05V11.3855ZM1053.05 38V39.2427H1054.29V38H1053.05ZM1046.65 38H1045.41V39.2427H1046.65V38ZM1046.65 19.5052H1047.89V15.1476L1045.6 18.8497L1046.65 19.5052ZM1035.17 38V39.2427H1035.86L1036.23 38.6555L1035.17 38ZM1028.77 38H1027.53V39.2427H1028.77V38ZM1028.77 12.6282H1035.17V10.1428H1028.77V12.6282ZM1033.93 11.3855V29.5933H1036.41V11.3855H1033.93ZM1036.22 30.2561L1047.7 12.0483L1045.6 10.7226L1034.12 28.9304L1036.22 30.2561ZM1046.65 12.6282H1053.05V10.1428H1046.65V12.6282ZM1051.81 11.3855V38H1054.29V11.3855H1051.81ZM1053.05 36.7573H1046.65V39.2427H1053.05V36.7573ZM1047.89 38V19.5052H1045.41V38H1047.89ZM1045.6 18.8497L1034.11 37.3445L1036.23 38.6555L1047.71 20.1606L1045.6 18.8497ZM1035.17 36.7573H1028.77V39.2427H1035.17V36.7573ZM1030.02 38V11.3855H1027.53V38H1030.02ZM1063.73 11.3855V10.1428H1062.49V11.3855H1063.73ZM1080.54 11.9186L1080.26 13.128L1080.26 13.1291L1080.54 11.9186ZM1083.86 13.805L1082.87 14.5554L1082.89 14.5722L1082.9 14.5886L1083.86 13.805ZM1083.78 26.6406L1082.8 25.8777L1082.79 25.8863L1082.79 25.895L1083.78 26.6406ZM1080.21 28.7321L1079.91 27.5265L1079.91 27.5277L1080.21 28.7321ZM1070.13 29.3472V28.1045H1068.88V29.3472H1070.13ZM1070.13 38V39.2427H1071.37V38H1070.13ZM1063.73 38H1062.49V39.2427H1063.73V38ZM1077.71 24.3852L1078.32 25.4694L1078.34 25.4603L1078.35 25.4508L1077.71 24.3852ZM1077.75 16.3475L1077.26 17.4871L1077.27 17.4909L1077.28 17.4946L1077.75 16.3475ZM1070.13 15.9374V14.6947H1068.88V15.9374H1070.13ZM1070.13 24.9593H1068.88V26.202H1070.13V24.9593ZM1063.73 12.6282H1074.39V10.1428H1063.73V12.6282ZM1074.39 12.6282C1076.95 12.6282 1078.89 12.8046 1080.26 13.1279L1080.83 10.7092C1079.19 10.3218 1077.03 10.1428 1074.39 10.1428V12.6282ZM1080.26 13.1291C1081.62 13.4441 1082.42 13.9606 1082.87 14.5554L1084.85 13.0546C1083.94 11.845 1082.53 11.1039 1080.82 10.7081L1080.26 13.1291ZM1082.9 14.5886C1083.37 15.1671 1083.69 16.0813 1083.69 17.4957H1086.17C1086.17 15.7389 1085.78 14.1925 1084.83 13.0214L1082.9 14.5886ZM1083.69 17.4957V22.5398H1086.17V17.4957H1083.69ZM1083.69 22.5398C1083.69 24.1223 1083.34 25.1845 1082.8 25.8777L1084.76 27.4036C1085.75 26.1284 1086.17 24.4567 1086.17 22.5398H1083.69ZM1082.79 25.895C1082.28 26.5785 1081.38 27.1599 1079.91 27.5265L1080.52 29.9377C1082.33 29.4841 1083.81 28.6712 1084.78 27.3863L1082.79 25.895ZM1079.91 27.5277C1078.44 27.9012 1076.37 28.1045 1073.65 28.1045V30.5899C1076.46 30.5899 1078.76 30.3831 1080.52 29.9364L1079.91 27.5277ZM1073.65 28.1045H1070.13V30.5899H1073.65V28.1045ZM1068.88 29.3472V38H1071.37V29.3472H1068.88ZM1070.13 36.7573H1063.73V39.2427H1070.13V36.7573ZM1064.97 38V11.3855H1062.49V38H1064.97ZM1074.19 26.202C1075.88 26.202 1077.34 26.0204 1078.32 25.4694L1077.11 23.3009C1076.72 23.5155 1075.83 23.7166 1074.19 23.7166V26.202ZM1078.35 25.4508C1079.49 24.7679 1079.98 23.6256 1079.98 22.3347H1077.5C1077.5 22.9577 1077.3 23.1823 1077.07 23.3196L1078.35 25.4508ZM1079.98 22.3347V18.0699H1077.5V22.3347H1079.98ZM1079.98 18.0699C1079.98 17.4838 1079.87 16.8925 1079.57 16.3666C1079.26 15.8228 1078.79 15.4343 1078.23 15.2004L1077.28 17.4946C1077.37 17.5341 1077.4 17.5694 1077.41 17.5997C1077.44 17.6479 1077.5 17.781 1077.5 18.0699H1079.98ZM1078.25 15.2079C1077.77 14.9975 1077.16 14.8782 1076.51 14.805C1075.84 14.7297 1075.03 14.6947 1074.1 14.6947V17.1801C1074.98 17.1801 1075.68 17.2135 1076.23 17.2749C1076.8 17.3384 1077.11 17.4241 1077.26 17.4871L1078.25 15.2079ZM1074.1 14.6947H1070.13V17.1801H1074.1V14.6947ZM1068.88 15.9374V24.9593H1071.37V15.9374H1068.88ZM1070.13 26.202H1074.19V23.7166H1070.13V26.202ZM1102.28 38.123L1102.08 39.3509L1102.09 39.3516L1102.28 38.123ZM1098.42 37.1388L1098.83 35.9648L1098.82 35.9621L1098.42 37.1388ZM1095.02 34.7603L1094.01 35.4941L1094.02 35.5001L1094.02 35.5059L1095.02 34.7603ZM1094.65 15.5273L1093.57 14.9047L1093.57 14.9154L1093.56 14.9263L1094.65 15.5273ZM1096.94 13.0668L1096.28 12.0169L1096.27 12.0235L1096.94 13.0668ZM1099.98 11.7546L1100.33 12.9463L1100.33 12.9463L1099.98 11.7546ZM1103.34 11.0984L1103.44 12.3373L1103.45 12.3366L1103.34 11.0984ZM1109.66 11.1394L1109.51 12.3736L1109.53 12.3757L1109.55 12.3773L1109.66 11.1394ZM1112.77 11.7135L1113.12 10.5206L1113.1 10.5158L1113.09 10.5114L1112.77 11.7135ZM1116.01 13.1078L1116.69 12.0636L1116.69 12.0636L1116.01 13.1078ZM1118.15 15.4043L1117.07 16.0305L1117.08 16.0394L1118.15 15.4043ZM1117.86 34.5143L1116.86 33.7728L1116.85 33.7811L1116.85 33.7895L1117.86 34.5143ZM1114.66 36.9338L1114.2 35.78L1114.2 35.78L1114.66 36.9338ZM1108.71 33.7761L1108.83 35.0137L1108.85 35.0115L1108.87 35.0084L1108.71 33.7761ZM1110.64 33.366L1110.29 32.1731L1110.29 32.1731L1110.64 33.366ZM1112.12 32.4228L1111.13 31.6679L1111.12 31.6772L1112.12 32.4228ZM1111.13 16.3475L1110.54 17.4407L1110.55 17.447L1110.57 17.453L1111.13 16.3475ZM1100.72 32.4228L1099.73 33.1777L1099.74 33.1923L1099.75 33.2065L1100.72 32.4228ZM1102.28 33.366L1102.62 32.173L1102.61 32.1694L1102.28 33.366ZM1104.16 33.7761L1103.99 35.0074L1104.02 35.0115L1104.05 35.0141L1104.16 33.7761ZM1106.38 37.1674C1104.95 37.1674 1103.65 37.0751 1102.46 36.8945L1102.09 39.3516C1103.42 39.5537 1104.85 39.6528 1106.38 39.6528V37.1674ZM1102.47 36.8951C1101.32 36.7166 1100.11 36.4084 1098.83 35.9648L1098.01 38.3129C1099.41 38.7987 1100.77 39.1467 1102.08 39.3509L1102.47 36.8951ZM1098.82 35.9621C1097.58 35.5406 1096.66 34.8845 1096.01 34.0147L1094.02 35.5059C1095.01 36.8233 1096.36 37.7529 1098.02 38.3155L1098.82 35.9621ZM1096.02 34.0265C1095.38 33.1479 1095.03 32.0612 1095.03 30.7005H1092.54C1092.54 32.5111 1093.02 34.1309 1094.01 35.4941L1096.02 34.0265ZM1095.03 30.7005V19.0541H1092.54V30.7005H1095.03ZM1095.03 19.0541C1095.03 17.9294 1095.27 16.9644 1095.74 16.1284L1093.56 14.9263C1092.87 16.168 1092.54 17.5542 1092.54 19.0541H1095.03ZM1095.72 16.15C1096.23 15.2664 1096.87 14.5962 1097.62 14.1101L1096.27 12.0235C1095.16 12.7404 1094.26 13.7106 1093.57 14.9047L1095.72 16.15ZM1097.61 14.1167C1098.31 13.6737 1099.21 13.2781 1100.33 12.9463L1099.63 10.5628C1098.34 10.9418 1097.22 11.4211 1096.28 12.017L1097.61 14.1167ZM1100.33 12.9463C1101.47 12.6106 1102.5 12.4112 1103.44 12.3372L1103.24 9.85959C1102.1 9.94962 1100.9 10.1877 1099.63 10.5628L1100.33 12.9463ZM1103.45 12.3366C1104.37 12.2579 1105.34 12.2181 1106.38 12.2181V9.73271C1105.28 9.73271 1104.23 9.77493 1103.24 9.86028L1103.45 12.3366ZM1106.38 12.2181C1107.6 12.2181 1108.64 12.2715 1109.51 12.3736L1109.8 9.90526C1108.81 9.78869 1107.67 9.73271 1106.38 9.73271V12.2181ZM1109.55 12.3773C1110.39 12.4518 1111.36 12.6281 1112.46 12.9157L1113.09 10.5114C1111.89 10.1975 1110.78 9.99108 1109.77 9.90155L1109.55 12.3773ZM1112.43 12.9065C1113.66 13.2667 1114.62 13.6888 1115.34 14.1521L1116.69 12.0636C1115.71 11.4334 1114.51 10.9258 1113.12 10.5206L1112.43 12.9065ZM1115.34 14.1521C1116 14.5798 1116.58 15.193 1117.07 16.0305L1119.22 14.7782C1118.56 13.6472 1117.72 12.7294 1116.69 12.0636L1115.34 14.1521ZM1117.08 16.0394C1117.54 16.8224 1117.8 17.8094 1117.8 19.0541H1120.29C1120.29 17.4555 1119.95 16.0093 1119.21 14.7692L1117.08 16.0394ZM1117.8 19.0541V30.7005H1120.29V19.0541H1117.8ZM1117.8 30.7005C1117.8 31.9409 1117.48 32.9447 1116.86 33.7728L1118.86 35.2558C1119.83 33.9515 1120.29 32.4127 1120.29 30.7005H1117.8ZM1116.85 33.7895C1116.24 34.6407 1115.37 35.3101 1114.2 35.78L1115.12 38.0876C1116.68 37.4639 1117.95 36.5203 1118.87 35.239L1116.85 33.7895ZM1114.2 35.78C1111.91 36.6971 1109.3 37.1674 1106.38 37.1674V39.6528C1109.57 39.6528 1112.49 39.1389 1115.12 38.0876L1114.2 35.78ZM1106.46 35.1008C1107.38 35.1008 1108.17 35.073 1108.83 35.0137L1108.6 32.5385C1108.05 32.5886 1107.34 32.6155 1106.46 32.6155V35.1008ZM1108.87 35.0084C1109.57 34.9175 1110.28 34.7669 1110.99 34.559L1110.29 32.1731C1109.69 32.3479 1109.11 32.4707 1108.55 32.5439L1108.87 35.0084ZM1110.99 34.559C1111.84 34.3115 1112.59 33.8698 1113.11 33.1685L1111.12 31.6772C1110.99 31.8507 1110.76 32.0379 1110.29 32.1731L1110.99 34.559ZM1113.1 33.1777C1113.65 32.4611 1113.89 31.6091 1113.89 30.7005H1111.41C1111.41 31.1588 1111.29 31.455 1111.13 31.668L1113.1 33.1777ZM1113.89 30.7005V19.0131H1111.41V30.7005H1113.89ZM1113.89 19.0131C1113.89 18.2179 1113.73 17.4589 1113.35 16.7887C1112.97 16.1115 1112.4 15.5993 1111.7 15.2421L1110.57 17.453C1110.88 17.6152 1111.07 17.807 1111.19 18.0182C1111.32 18.2366 1111.41 18.5506 1111.41 19.0131H1113.89ZM1111.72 15.2543C1110.43 14.5572 1108.61 14.2847 1106.42 14.2847V16.77C1108.49 16.77 1109.81 17.0442 1110.54 17.4407L1111.72 15.2543ZM1106.42 14.2847C1104.23 14.2847 1102.41 14.543 1101.13 15.201L1102.27 17.4119C1103.01 17.0312 1104.34 16.77 1106.42 16.77V14.2847ZM1101.13 15.201C1100.43 15.5608 1099.86 16.0799 1099.48 16.765C1099.1 17.4416 1098.94 18.2087 1098.94 19.0131H1101.43C1101.43 18.5325 1101.52 18.206 1101.65 17.9804C1101.77 17.7634 1101.96 17.5716 1102.27 17.4119L1101.13 15.201ZM1098.94 19.0131V30.7005H1101.43V19.0131H1098.94ZM1098.94 30.7005C1098.94 31.6091 1099.18 32.4611 1099.73 33.1777L1101.7 31.668C1101.54 31.455 1101.43 31.1588 1101.43 30.7005H1098.94ZM1099.75 33.2065C1100.31 33.8897 1101.07 34.3201 1101.94 34.5627L1102.61 32.1694C1102.11 32.0292 1101.84 31.8308 1101.68 31.6392L1099.75 33.2065ZM1101.93 34.559C1102.63 34.7655 1103.32 34.9161 1103.99 35.0074L1104.33 32.5448C1103.8 32.4721 1103.23 32.3493 1102.62 32.1731L1101.93 34.559ZM1104.05 35.0141C1104.73 35.0729 1105.53 35.1008 1106.46 35.1008V32.6155C1105.58 32.6155 1104.85 32.5887 1104.27 32.5381L1104.05 35.0141ZM1129.12 11.3855V10.1428H1127.87V11.3855H1129.12ZM1145.77 11.9596L1145.43 13.1563L1145.45 13.1602L1145.46 13.1638L1145.77 11.9596ZM1148.72 13.723L1147.7 14.4356L1147.71 14.4437L1147.71 14.4518L1148.72 13.723ZM1148.68 22.4578L1147.76 21.6181L1147.75 21.6287L1147.74 21.6395L1148.68 22.4578ZM1146.63 23.8111L1146.26 22.6242L1145.38 22.8956V23.8111H1146.63ZM1146.63 24.0161H1145.38V25.1348L1146.5 25.252L1146.63 24.0161ZM1149.46 25.3694L1148.61 26.2769L1148.62 26.291L1148.64 26.3046L1149.46 25.3694ZM1148.19 36.6467L1147.61 35.5459L1147.61 35.5459L1148.19 36.6467ZM1129.12 38H1127.87V39.2427H1129.12V38ZM1142.16 21.9657L1141.76 20.7868L1141.76 20.7868L1142.16 21.9657ZM1143.14 21.1865L1142.03 20.6308L1142.02 20.6481L1142.01 20.6658L1143.14 21.1865ZM1143.18 16.8396L1142.07 17.3954L1142.08 17.4152L1142.09 17.4347L1143.18 16.8396ZM1142.16 16.1425L1141.82 17.3398L1141.83 17.3421L1141.84 17.3442L1142.16 16.1425ZM1135.51 15.9374V14.6947H1134.27V15.9374H1135.51ZM1135.51 22.2117H1134.27V23.4544H1135.51V22.2117ZM1143.39 32.9149L1142.8 31.8223L1142.8 31.8223L1143.39 32.9149ZM1143.59 26.9687L1142.8 27.9234L1142.81 27.9339L1142.82 27.9441L1143.59 26.9687ZM1135.51 26.3536V25.1109H1134.27V26.3536H1135.51ZM1135.51 33.4481H1134.27V34.6907H1135.51V33.4481ZM1129.12 12.6282H1139.9V10.1428H1129.12V12.6282ZM1139.9 12.6282C1142.41 12.6282 1144.23 12.8191 1145.43 13.1563L1146.1 10.7629C1144.57 10.3346 1142.48 10.1428 1139.9 10.1428V12.6282ZM1145.46 13.1638C1146.69 13.4773 1147.36 13.9466 1147.7 14.4356L1149.74 13.0103C1148.93 11.859 1147.63 11.1527 1146.07 10.7554L1145.46 13.1638ZM1147.71 14.4518C1148.08 14.9528 1148.34 15.7788 1148.34 17.0857H1150.82C1150.82 15.4946 1150.51 14.0788 1149.73 12.9941L1147.71 14.4518ZM1148.34 17.0857V20.3663H1150.82V17.0857H1148.34ZM1148.34 20.3663C1148.34 20.7321 1148.2 21.1414 1147.76 21.6181L1149.59 23.2975C1150.36 22.4619 1150.82 21.4769 1150.82 20.3663H1148.34ZM1147.74 21.6395C1147.31 22.1318 1146.82 22.4497 1146.26 22.6242L1147 24.9979C1148.02 24.6803 1148.9 24.096 1149.61 23.2761L1147.74 21.6395ZM1145.38 23.8111V24.0161H1147.87V23.8111H1145.38ZM1146.5 25.252C1147.24 25.3299 1147.93 25.6472 1148.61 26.2769L1150.31 24.4619C1149.28 23.5059 1148.1 22.9211 1146.76 22.7802L1146.5 25.252ZM1148.64 26.3046C1149.31 26.8894 1149.53 27.4305 1149.53 27.9529H1152.01C1152.01 26.5616 1151.36 25.3804 1150.28 24.4342L1148.64 26.3046ZM1149.53 27.9529V32.0538H1152.01V27.9529H1149.53ZM1149.53 32.0538C1149.53 32.9688 1149.34 33.6713 1149.04 34.2126C1148.74 34.7467 1148.28 35.1939 1147.61 35.5459L1148.76 37.7475C1149.81 37.1973 1150.65 36.428 1151.21 35.4311C1151.76 34.4414 1152.01 33.2985 1152.01 32.0538H1149.53ZM1147.61 35.5459C1146.16 36.3054 1143.74 36.7573 1140.19 36.7573V39.2427C1143.85 39.2427 1146.77 38.7924 1148.76 37.7475L1147.61 35.5459ZM1140.19 36.7573H1129.12V39.2427H1140.19V36.7573ZM1130.36 38V11.3855H1127.87V38H1130.36ZM1139.9 23.4544C1140.95 23.4544 1141.86 23.3741 1142.55 23.1446L1141.76 20.7868C1141.47 20.8853 1140.88 20.969 1139.9 20.969V23.4544ZM1142.55 23.1446C1143.26 22.909 1143.92 22.4662 1144.27 21.7073L1142.01 20.6658C1142.02 20.6542 1142.02 20.6562 1142 20.6735C1141.97 20.6951 1141.91 20.7399 1141.76 20.7868L1142.55 23.1446ZM1144.25 21.7423C1144.57 21.1089 1144.67 20.3379 1144.67 19.5462H1142.19C1142.19 20.1761 1142.1 20.4987 1142.03 20.6308L1144.25 21.7423ZM1144.67 19.5462V18.2339H1142.19V19.5462H1144.67ZM1144.67 18.2339C1144.67 17.5442 1144.59 16.8237 1144.27 16.2445L1142.09 17.4347C1142.09 17.4314 1142.12 17.4836 1142.14 17.6297C1142.17 17.7718 1142.19 17.9697 1142.19 18.2339H1144.67ZM1144.29 16.2839C1143.91 15.5109 1143.18 15.1253 1142.47 14.9407L1141.84 17.3442C1142 17.3869 1142.08 17.4298 1142.1 17.4469C1142.12 17.459 1142.1 17.4444 1142.07 17.3954L1144.29 16.2839ZM1142.49 14.9451C1141.82 14.7602 1140.89 14.6947 1139.78 14.6947V17.1801C1140.86 17.1801 1141.51 17.2513 1141.82 17.3398L1142.49 14.9451ZM1139.78 14.6947H1135.51V17.1801H1139.78V14.6947ZM1134.27 15.9374V22.2117H1136.76V15.9374H1134.27ZM1135.51 23.4544H1139.9V20.969H1135.51V23.4544ZM1140.07 34.6907C1141.65 34.6907 1143.03 34.5212 1143.98 34.0076L1142.8 31.8223C1142.43 32.0195 1141.6 32.2054 1140.07 32.2054V34.6907ZM1143.98 34.0076C1144.48 33.7342 1144.91 33.3473 1145.2 32.8343C1145.5 32.3254 1145.61 31.7622 1145.61 31.1926H1143.13C1143.13 31.4158 1143.08 31.5361 1143.05 31.6013C1143.01 31.6624 1142.95 31.7403 1142.8 31.8223L1143.98 34.0076ZM1145.61 31.1926V29.0601H1143.13V31.1926H1145.61ZM1145.61 29.0601C1145.61 27.8866 1145.3 26.7364 1144.36 25.9934L1142.82 27.9441C1142.92 28.0212 1143.13 28.2653 1143.13 29.0601H1145.61ZM1144.39 26.0141C1143.54 25.3048 1142.26 25.1109 1140.93 25.1109V27.5963C1142.17 27.5963 1142.66 27.8125 1142.8 27.9234L1144.39 26.0141ZM1140.93 25.1109H1135.51V27.5963H1140.93V25.1109ZM1134.27 26.3536V33.4481H1136.76V26.3536H1134.27ZM1135.51 34.6907H1140.07V32.2054H1135.51V34.6907ZM1167.12 11.3855V10.1428H1166.26L1165.96 10.9545L1167.12 11.3855ZM1174.91 11.3855L1176.08 10.964L1175.79 10.1428H1174.91V11.3855ZM1184.51 38V39.2427H1186.28L1185.68 37.5785L1184.51 38ZM1178.03 38L1176.85 38.3992L1177.14 39.2427H1178.03V38ZM1175.65 30.9875L1176.83 30.5884L1176.54 29.7449H1175.65V30.9875ZM1165.93 30.9875V29.7449H1165.04L1164.75 30.5946L1165.93 30.9875ZM1163.6 38V39.2427H1164.49L1164.77 38.393L1163.6 38ZM1157.28 38L1156.11 37.569L1155.5 39.2427H1157.28V38ZM1174.26 26.7227V27.9653H1175.99L1175.44 26.3268L1174.26 26.7227ZM1170.89 16.7166L1172.07 16.3207L1171.79 15.4739H1170.89V16.7166ZM1170.73 16.7166V15.4739H1169.84L1169.55 16.3207L1170.73 16.7166ZM1167.37 26.7227L1166.19 26.3268L1165.64 27.9653H1167.37V26.7227ZM1167.12 12.6282H1174.91V10.1428H1167.12V12.6282ZM1173.74 11.807L1183.34 38.4215L1185.68 37.5785L1176.08 10.964L1173.74 11.807ZM1184.51 36.7573H1178.03V39.2427H1184.51V36.7573ZM1179.21 37.6008L1176.83 30.5884L1174.47 31.3867L1176.85 38.3992L1179.21 37.6008ZM1175.65 29.7449H1165.93V32.2302H1175.65V29.7449ZM1164.75 30.5946L1162.42 37.607L1164.77 38.393L1167.11 31.3805L1164.75 30.5946ZM1163.6 36.7573H1157.28V39.2427H1163.6V36.7573ZM1158.45 38.431L1168.29 11.8165L1165.96 10.9545L1156.11 37.569L1158.45 38.431ZM1175.44 26.3268L1172.07 16.3207L1169.72 17.1124L1173.08 27.1185L1175.44 26.3268ZM1170.89 15.4739H1170.73V17.9593H1170.89V15.4739ZM1169.55 16.3207L1166.19 26.3268L1168.55 27.1185L1171.91 17.1124L1169.55 16.3207ZM1167.37 27.9653H1174.26V25.48H1167.37V27.9653ZM1192.38 11.3855V10.1428H1191.14V11.3855H1192.38ZM1198.78 11.3855H1200.02V10.1428H1198.78V11.3855ZM1198.78 22.0477H1197.54V23.2904H1198.78V22.0477ZM1210.1 22.0477V23.2904H1211.34V22.0477H1210.1ZM1210.1 11.3855V10.1428H1208.85V11.3855H1210.1ZM1216.49 11.3855H1217.74V10.1428H1216.49V11.3855ZM1216.49 38V39.2427H1217.74V38H1216.49ZM1210.1 38H1208.85V39.2427H1210.1V38ZM1210.1 26.5996H1211.34V25.357H1210.1V26.5996ZM1198.78 26.5996V25.357H1197.54V26.5996H1198.78ZM1198.78 38V39.2427H1200.02V38H1198.78ZM1192.38 38H1191.14V39.2427H1192.38V38ZM1192.38 12.6282H1198.78V10.1428H1192.38V12.6282ZM1197.54 11.3855V22.0477H1200.02V11.3855H1197.54ZM1198.78 23.2904H1210.1V20.805H1198.78V23.2904ZM1211.34 22.0477V11.3855H1208.85V22.0477H1211.34ZM1210.1 12.6282H1216.49V10.1428H1210.1V12.6282ZM1215.25 11.3855V38H1217.74V11.3855H1215.25ZM1216.49 36.7573H1210.1V39.2427H1216.49V36.7573ZM1211.34 38V26.5996H1208.85V38H1211.34ZM1210.1 25.357H1198.78V27.8423H1210.1V25.357ZM1197.54 26.5996V38H1200.02V26.5996H1197.54ZM1198.78 36.7573H1192.38V39.2427H1198.78V36.7573ZM1193.62 38V11.3855H1191.14V38H1193.62ZM1227.14 11.3855V10.1428H1225.9V11.3855H1227.14ZM1233.54 11.3855H1234.78V10.1428H1233.54V11.3855ZM1233.54 29.5933H1232.29V33.8934L1234.59 30.2561L1233.54 29.5933ZM1245.02 11.3855V10.1428H1244.33L1243.97 10.7226L1245.02 11.3855ZM1251.42 11.3855H1252.66V10.1428H1251.42V11.3855ZM1251.42 38V39.2427H1252.66V38H1251.42ZM1245.02 38H1243.78V39.2427H1245.02V38ZM1245.02 19.5052H1246.26V15.1476L1243.96 18.8497L1245.02 19.5052ZM1233.54 38V39.2427H1234.23L1234.59 38.6555L1233.54 38ZM1227.14 38H1225.9V39.2427H1227.14V38ZM1227.14 12.6282H1233.54V10.1428H1227.14V12.6282ZM1232.29 11.3855V29.5933H1234.78V11.3855H1232.29ZM1234.59 30.2561L1246.07 12.0483L1243.97 10.7226L1232.48 28.9304L1234.59 30.2561ZM1245.02 12.6282H1251.42V10.1428H1245.02V12.6282ZM1250.17 11.3855V38H1252.66V11.3855H1250.17ZM1251.42 36.7573H1245.02V39.2427H1251.42V36.7573ZM1246.26 38V19.5052H1243.78V38H1246.26ZM1243.96 18.8497L1232.48 37.3445L1234.59 38.6555L1246.07 20.1606L1243.96 18.8497ZM1233.54 36.7573H1227.14V39.2427H1233.54V36.7573ZM1228.38 38V11.3855H1225.9V38H1228.38ZM1267.02 27.6659L1268.05 28.3608L1269.17 26.6874L1267.17 26.4331L1267.02 27.6659ZM1263.16 26.0255L1264.05 25.1609L1264.05 25.1609L1263.16 26.0255ZM1264.27 12.6977L1264.85 13.7937L1264.86 13.7898L1264.87 13.7858L1264.27 12.6977ZM1283.75 11.3855H1284.99V10.1428H1283.75V11.3855ZM1283.75 38V39.2427H1284.99V38H1283.75ZM1277.35 38H1276.11V39.2427H1277.35V38ZM1277.35 28.158H1278.59V26.9153H1277.35V28.158ZM1273.58 28.158V26.9153H1272.89L1272.53 27.4931L1273.58 28.158ZM1267.34 38V39.2427H1268.03L1268.39 38.6649L1267.34 38ZM1260.04 38L1259.01 37.305L1257.71 39.2427H1260.04V38ZM1277.35 23.9341V25.1768H1278.59V23.9341H1277.35ZM1277.35 15.9374H1278.59V14.6947H1277.35V15.9374ZM1269.03 16.5115L1269.68 17.5681L1269.69 17.5641L1269.69 17.5599L1269.03 16.5115ZM1268.98 23.36L1268.24 24.3541L1268.25 24.3663L1268.27 24.378L1268.98 23.36ZM1267.17 26.4331C1265.61 26.2351 1264.64 25.7623 1264.05 25.1609L1262.27 26.8902C1263.38 28.0384 1264.97 28.6591 1266.86 28.8986L1267.17 26.4331ZM1264.05 25.1609C1263.5 24.5852 1263.13 23.6918 1263.13 22.2937H1260.65C1260.65 24.1216 1261.13 25.7161 1262.27 26.8902L1264.05 25.1609ZM1263.13 22.2937V17.0036H1260.65V22.2937H1263.13ZM1263.13 17.0036C1263.13 16.1537 1263.3 15.5061 1263.57 15.0107C1263.84 14.5232 1264.25 14.1157 1264.85 13.7937L1263.68 11.6018C1262.7 12.1273 1261.92 12.8612 1261.4 13.809C1260.88 14.7489 1260.65 15.8305 1260.65 17.0036H1263.13ZM1264.87 13.7858C1266.17 13.0701 1268.47 12.6282 1271.98 12.6282V10.1428C1268.38 10.1428 1265.54 10.5757 1263.67 11.6097L1264.87 13.7858ZM1271.98 12.6282H1283.75V10.1428H1271.98V12.6282ZM1282.5 11.3855V38H1284.99V11.3855H1282.5ZM1283.75 36.7573H1277.35V39.2427H1283.75V36.7573ZM1278.59 38V28.158H1276.11V38H1278.59ZM1277.35 26.9153H1273.58V29.4006H1277.35V26.9153ZM1272.53 27.4931L1266.29 37.3351L1268.39 38.6649L1274.63 28.8229L1272.53 27.4931ZM1267.34 36.7573H1260.04V39.2427H1267.34V36.7573ZM1261.07 38.695L1268.05 28.3608L1265.99 26.9709L1259.01 37.305L1261.07 38.695ZM1278.59 23.9341V15.9374H1276.11V23.9341H1278.59ZM1277.35 14.6947H1272.06V17.1801H1277.35V14.6947ZM1272.06 14.6947C1270.6 14.6947 1269.28 14.8791 1268.36 15.4631L1269.69 17.5599C1269.98 17.3785 1270.68 17.1801 1272.06 17.1801V14.6947ZM1268.37 15.4549C1267.28 16.1303 1266.92 17.3202 1266.92 18.521H1269.41C1269.41 17.7533 1269.62 17.6036 1269.68 17.5681L1268.37 15.4549ZM1266.92 18.521V21.0225H1269.41V18.521H1266.92ZM1266.92 21.0225C1266.92 22.2993 1267.22 23.5871 1268.24 24.3541L1269.73 22.3658C1269.66 22.3126 1269.41 22.0422 1269.41 21.0225H1266.92ZM1268.27 24.378C1268.75 24.7121 1269.34 24.9003 1269.94 25.0121C1270.55 25.1265 1271.26 25.1768 1272.06 25.1768V22.6914C1271.35 22.6914 1270.8 22.646 1270.39 22.569C1269.97 22.4894 1269.77 22.3906 1269.7 22.3419L1268.27 24.378ZM1272.06 25.1768H1277.35V22.6914H1272.06V25.1768Z" fill="#464646"/>
</g>
</g>
<defs>
<filter id="filter0_d_320_11" x="0" y="2" width="1928" height="68" filterUnits="userSpaceOnUse" color-interpolation-filters="sRGB">
<feFlood flood-opacity="0" result="BackgroundImageFix"/>
<feColorMatrix in="SourceAlpha" type="matrix" values="0 0 0 0 0 0 0 0 0 0 0 0 0 0 0 0 0 0 127 0" result="hardAlpha"/>
<feOffset dy="4"/>
<feGaussianBlur stdDeviation="2"/>
<feComposite in2="hardAlpha" operator="out"/>
<feColorMatrix type="matrix" values="0 0 0 0 0 0 0 0 0 0 0 0 0 0 0 0 0 0 0.25 0"/>
<feBlend mode="normal" in2="BackgroundImageFix" result="effect1_dropShadow_320_11"/>
<feBlend mode="normal" in="SourceGraphic" in2="effect1_dropShadow_320_11" result="shape"/>
</filter>
<filter id="filter1_f_320_11" x="642.633" y="10.354" width="641.736" height="34.4597" filterUnits="userSpaceOnUse" color-interpolation-filters="sRGB">
<feFlood flood-opacity="0" result="BackgroundImageFix"/>
<feBlend mode="normal" in="SourceGraphic" in2="BackgroundImageFix" result="shape"/>
<feGaussianBlur stdDeviation="0.31067" result="effect1_foregroundBlur_320_11"/>
</filter>
</defs>
</svg>
