<svg width="470" height="468" viewBox="0 0 470 468" fill="none" xmlns="http://www.w3.org/2000/svg">
<g filter="url(#filter0_d_311_174)">
<path opacity="0.7" d="M24.6294 454.66C22.6934 454.66 20.9554 454.572 19.4154 454.396C17.9194 454.22 16.2694 453.89 14.4654 453.406C12.4414 452.878 10.7694 452.196 9.44938 451.36C8.12938 450.48 7.02938 449.27 6.14938 447.73C5.22538 446.19 4.76338 444.364 4.76338 442.252V423.442C4.76338 414.818 11.3854 410.506 24.6294 410.506C28.0174 410.506 32.5494 410.99 38.2254 411.958V419.68C33.1214 418.448 28.6334 417.832 24.7614 417.832C23.1334 417.832 21.8574 417.876 20.9334 417.964C20.0534 418.052 19.1294 418.272 18.1614 418.624C16.0934 419.328 15.0594 420.89 15.0594 423.31V441.526C15.0594 445.398 18.6014 447.334 25.6854 447.334C28.7214 447.334 32.9894 446.696 38.4894 445.42V453.208C33.7814 454.176 29.1614 454.66 24.6294 454.66ZM72.6562 454.66C70.2802 454.66 68.0802 454.506 66.0562 454.198C64.0762 453.89 62.0082 453.362 59.8522 452.614C57.5202 451.822 55.6942 450.546 54.3742 448.786C53.0542 446.982 52.3942 444.804 52.3942 442.252V423.508C52.3942 421.396 52.8562 419.504 53.7802 417.832C54.7482 416.16 55.9802 414.84 57.4762 413.872C58.7962 413.036 60.4242 412.332 62.3602 411.76C64.2962 411.188 66.1002 410.836 67.7722 410.704C69.3122 410.572 70.9402 410.506 72.6562 410.506C74.6802 410.506 76.4402 410.594 77.9362 410.77C79.4322 410.902 81.1042 411.21 82.9522 411.694C85.0642 412.31 86.8022 413.058 88.1662 413.938C89.5302 414.818 90.6742 416.05 91.5982 417.634C92.5662 419.262 93.0502 421.22 93.0502 423.508V442.252C93.0502 444.628 92.4122 446.674 91.1362 448.39C89.9042 450.106 88.1882 451.404 85.9882 452.284C82.0282 453.868 77.5842 454.66 72.6562 454.66ZM72.7882 447.334C74.2402 447.334 75.4502 447.29 76.4182 447.202C77.4302 447.07 78.4642 446.85 79.5202 446.542C80.5762 446.234 81.3682 445.728 81.8962 445.024C82.4682 444.276 82.7542 443.352 82.7542 442.252V423.442C82.7542 421.418 81.9402 419.988 80.3122 419.152C78.6842 418.272 76.1542 417.832 72.7222 417.832C69.2902 417.832 66.7602 418.25 65.1322 419.086C63.5042 419.922 62.6902 421.374 62.6902 423.442V442.252C62.6902 443.352 62.9762 444.276 63.5482 445.024C64.1202 445.728 64.9562 446.234 66.0562 446.542C67.1122 446.85 68.1242 447.07 69.0922 447.202C70.1042 447.29 71.3362 447.334 72.7882 447.334ZM121.4 432.154L106.286 411.166H118.166L127.34 425.422L136.448 411.166H148.328L133.214 432.154L149.054 454H137.108L127.34 438.82L117.506 454H105.626L121.4 432.154ZM162.502 411.166H179.662C183.842 411.166 187.142 411.452 189.562 412.024C192.026 412.596 193.808 413.608 194.908 415.06C196.052 416.468 196.624 418.448 196.624 421V429.118C196.624 431.934 196.008 434.134 194.776 435.718C193.588 437.302 191.674 438.424 189.034 439.084C186.438 439.744 182.918 440.074 178.474 440.074H172.798V454H162.502V411.166ZM179.332 433.012C182.016 433.012 183.908 432.704 185.008 432.088C186.108 431.428 186.658 430.328 186.658 428.788V421.924C186.658 420.516 186.13 419.592 185.074 419.152C184.062 418.712 182.104 418.492 179.2 418.492H172.798V433.012H179.332ZM223.483 411.166H236.023L251.467 454H241.039L237.211 442.714H221.569L217.807 454H207.643L223.483 411.166ZM234.967 435.85L229.555 419.746H229.291L223.879 435.85H234.967ZM264.467 411.166H274.763V428.326H292.979V411.166H303.275V454H292.979V435.652H274.763V454H264.467V411.166ZM320.734 411.166H353.404V418.492H331.03V428.326H351.226V435.652H331.03V446.674H354.064V454H320.734V411.166ZM369.267 411.166H379.563V428.326H397.779V411.166H408.075V454H397.779V435.652H379.563V454H369.267V411.166ZM444.873 454.66C442.497 454.66 440.297 454.506 438.273 454.198C436.293 453.89 434.225 453.362 432.069 452.614C429.737 451.822 427.911 450.546 426.591 448.786C425.271 446.982 424.611 444.804 424.611 442.252V423.508C424.611 421.396 425.073 419.504 425.997 417.832C426.965 416.16 428.197 414.84 429.693 413.872C431.013 413.036 432.641 412.332 434.577 411.76C436.513 411.188 438.317 410.836 439.989 410.704C441.529 410.572 443.157 410.506 444.873 410.506C446.897 410.506 448.657 410.594 450.153 410.77C451.649 410.902 453.321 411.21 455.169 411.694C457.281 412.31 459.019 413.058 460.383 413.938C461.747 414.818 462.891 416.05 463.815 417.634C464.783 419.262 465.267 421.22 465.267 423.508V442.252C465.267 444.628 464.629 446.674 463.353 448.39C462.121 450.106 460.405 451.404 458.205 452.284C454.245 453.868 449.801 454.66 444.873 454.66ZM445.005 447.334C446.457 447.334 447.667 447.29 448.635 447.202C449.647 447.07 450.681 446.85 451.737 446.542C452.793 446.234 453.585 445.728 454.113 445.024C454.685 444.276 454.971 443.352 454.971 442.252V423.442C454.971 421.418 454.157 419.988 452.529 419.152C450.901 418.272 448.371 417.832 444.939 417.832C441.507 417.832 438.977 418.25 437.349 419.086C435.721 419.922 434.907 421.374 434.907 423.442V442.252C434.907 443.352 435.193 444.276 435.765 445.024C436.337 445.728 437.173 446.234 438.273 446.542C439.329 446.85 440.341 447.07 441.309 447.202C442.321 447.29 443.553 447.334 445.005 447.334Z" fill="#1C8E00"/>
<path opacity="0.7" fill-rule="evenodd" clip-rule="evenodd" d="M181.911 44.797C151.197 73.7096 108.266 85.7405 67 77L75.9726 169.386C82.887 240.581 123.982 303.97 186.155 339.341L229.5 364L272.845 339.341C335.018 303.97 376.113 240.581 383.027 169.386L392 77C350.734 85.7405 307.803 73.7096 277.089 44.797L229.5 0L181.911 44.797ZM187.422 74.4839C164.212 99.572 129.998 111.399 96.25 106L103.75 166.001C112.116 232.931 150.723 292.324 208.493 327.14L229.5 339.8L250.507 327.14C308.277 292.324 346.884 232.931 355.25 166.001L362.75 106C329.002 111.399 294.788 99.572 271.578 74.4839L229.5 29L187.422 74.4839Z" fill="url(#paint0_radial_311_174)"/>
<path opacity="0.7" fill-rule="evenodd" clip-rule="evenodd" d="M187.378 90.2287C167.871 112.563 138.323 123.409 109 119L123.012 180.484C135.525 235.393 168.619 283.413 215.478 314.652L229.5 324L243.522 314.652C290.381 283.413 323.475 235.393 335.988 180.484L350 119C320.677 123.409 291.129 112.563 271.623 90.2287L229.5 42L187.378 90.2287ZM230 250C246.569 250 260 236.569 260 220C260 204.961 248.934 192.506 234.5 190.335V152.418V133.407H245V125.802H234.5V122H248.5V114.5H234.5H225.5V190.335C211.066 192.506 200 204.961 200 220C200 236.569 213.432 250 230 250ZM230 240.579C218.635 240.579 209.421 231.365 209.421 220C209.421 208.635 218.635 199.421 230 199.421C241.365 199.421 250.579 208.635 250.579 220C250.579 231.365 241.365 240.579 230 240.579Z" fill="url(#paint1_radial_311_174)"/>
</g>
<defs>
<filter id="filter0_d_311_174" x="0.763428" y="0" width="468.504" height="462.66" filterUnits="userSpaceOnUse" color-interpolation-filters="sRGB">
<feFlood flood-opacity="0" result="BackgroundImageFix"/>
<feColorMatrix in="SourceAlpha" type="matrix" values="0 0 0 0 0 0 0 0 0 0 0 0 0 0 0 0 0 0 127 0" result="hardAlpha"/>
<feOffset dy="4"/>
<feGaussianBlur stdDeviation="2"/>
<feComposite in2="hardAlpha" operator="out"/>
<feColorMatrix type="matrix" values="0 0 0 0 0 0 0 0 0 0 0 0 0 0 0 0 0 0 0.25 0"/>
<feBlend mode="normal" in2="BackgroundImageFix" result="effect1_dropShadow_311_174"/>
<feBlend mode="normal" in="SourceGraphic" in2="effect1_dropShadow_311_174" result="shape"/>
</filter>
<radialGradient id="paint0_radial_311_174" cx="0" cy="0" r="1" gradientUnits="userSpaceOnUse" gradientTransform="translate(229.5 364) rotate(-90) scale(364 325)">
<stop stop-color="#006B0B"/>
<stop offset="1" stop-color="#20CB31"/>
</radialGradient>
<radialGradient id="paint1_radial_311_174" cx="0" cy="0" r="1" gradientUnits="userSpaceOnUse" gradientTransform="translate(230 324) rotate(-90) scale(282 241)">
<stop stop-color="#006B0B"/>
<stop offset="1" stop-color="#00FF19"/>
<stop offset="1" stop-color="#20CB31"/>
</radialGradient>
</defs>
</svg>
