<svg width="25" height="24" viewBox="0 0 25 24" fill="red" xmlns="http://www.w3.org/2000/svg">
<path d="M17.8313 14C17.8313 14.0573 17.797 14.1914 17.5503 14.3858C17.3093 14.5757 16.9296 14.7686 16.4159 14.9399C15.3935 15.2806 13.9494 15.5 12.3313 15.5C10.7133 15.5 9.26914 15.2806 8.24681 14.9399C7.73303 14.7686 7.35333 14.5757 7.11233 14.3858C6.8657 14.1914 6.83134 14.0573 6.83134 14C6.83134 13.9427 6.8657 13.8086 7.11233 13.6142C7.35333 13.4243 7.73303 13.2314 8.24681 13.0601C9.26914 12.7194 10.7133 12.5 12.3313 12.5C13.9494 12.5 15.3935 12.7194 16.4159 13.0601C16.9296 13.2314 17.3093 13.4243 17.5503 13.6142C17.797 13.8086 17.8313 13.9427 17.8313 14Z" stroke="black"/>
<path d="M6.83133 14V14C6.50275 16.3001 5.62976 18.4884 4.28497 20.3831L2.42759 23L4.70362 22.4252C4.99613 22.3513 5.30341 22.3602 5.59112 22.451L5.95389 22.5654C6.83008 22.8419 7.78264 22.7306 8.57154 22.2597L8.68217 22.1936C8.99536 22.0067 9.38288 21.9947 9.70702 22.1619L9.76402 22.1914C10.764 22.7073 11.9329 22.7866 12.9935 22.4104V22.4104C13.1744 22.3462 13.3699 22.3345 13.5572 22.3766L14.888 22.6756C15.836 22.8887 16.8216 22.8682 17.7599 22.6158V22.6158C18.5035 22.4158 19.282 22.382 20.0402 22.5166L22.7612 23L20.1257 20.6948C19.5993 20.2344 19.1481 19.6947 18.7884 19.0951V19.0951C18.1621 18.0513 17.8313 16.857 17.8313 15.6399V14" stroke="black" stroke-linecap="round" stroke-linejoin="round"/>
</svg>
