<svg width="420" height="372" viewBox="0 0 420 372" fill="none" xmlns="http://www.w3.org/2000/svg">
<path d="M396.403 1H26.4313C-0.108556 1 1.0067 12.3194 1.0067 36.725V325.095C1.0067 349.5 -0.108556 370.645 26.4313 370.645H370.705C397.245 370.645 418.76 375.299 418.76 350.893V36.725C418.76 12.3194 422.943 1 396.403 1Z" fill="white" stroke="#2FB464" stroke-width="2"/>
<path d="M60 119H58V120H60V119Z" fill="white"/>
<path d="M60 133H58V134H60V133Z" fill="white"/>
<path d="M362 119H360V120H362V119Z" fill="white"/>
<path d="M362 133H360V134H362V133Z" fill="white"/>
<path d="M81.314 306.06V294.74H75.174L75.074 297.68C75.034 298.667 74.9673 299.613 74.874 300.52C74.794 301.427 74.674 302.247 74.514 302.98C74.354 303.7 74.1273 304.293 73.834 304.76C73.554 305.227 73.194 305.513 72.754 305.62L70.594 305.26C71.114 305.3 71.5407 305.127 71.874 304.74C72.2207 304.34 72.4873 303.787 72.674 303.08C72.874 302.36 73.0207 301.527 73.114 300.58C73.2073 299.62 73.274 298.593 73.314 297.5L73.454 293H83.294V306.06H81.314ZM70.094 310.06L70.114 305.26H85.354V310.06H83.494V307H71.974L71.954 310.06H70.094ZM92.0738 307.12C91.0072 307.12 90.0605 306.887 89.2338 306.42C88.4072 305.953 87.7538 305.313 87.2738 304.5C86.7938 303.673 86.5538 302.74 86.5538 301.7C86.5538 300.647 86.7938 299.713 87.2738 298.9C87.7538 298.087 88.4072 297.453 89.2338 297C90.0605 296.533 91.0072 296.3 92.0738 296.3C93.1272 296.3 94.0672 296.533 94.8938 297C95.7338 297.453 96.3872 298.087 96.8538 298.9C97.3338 299.7 97.5738 300.633 97.5738 301.7C97.5738 302.753 97.3338 303.687 96.8538 304.5C96.3872 305.313 95.7338 305.953 94.8938 306.42C94.0672 306.887 93.1272 307.12 92.0738 307.12ZM92.0738 305.44C92.7538 305.44 93.3605 305.287 93.8938 304.98C94.4405 304.673 94.8672 304.24 95.1738 303.68C95.4805 303.107 95.6338 302.447 95.6338 301.7C95.6338 300.94 95.4805 300.287 95.1738 299.74C94.8672 299.18 94.4405 298.747 93.8938 298.44C93.3605 298.133 92.7538 297.98 92.0738 297.98C91.3938 297.98 90.7872 298.133 90.2538 298.44C89.7205 298.747 89.2938 299.18 88.9738 299.74C88.6538 300.287 88.4938 300.94 88.4938 301.7C88.4938 302.447 88.6538 303.107 88.9738 303.68C89.2938 304.24 89.7205 304.673 90.2538 304.98C90.7872 305.287 91.3938 305.44 92.0738 305.44ZM105.246 307.16C104.366 307.16 103.586 307.02 102.906 306.74C102.24 306.46 101.666 306.047 101.186 305.5C100.706 304.94 100.34 304.24 100.086 303.4C99.8463 302.547 99.7263 301.547 99.7263 300.4C99.7263 299.493 99.8063 298.68 99.9663 297.96C100.126 297.24 100.353 296.6 100.646 296.04C100.953 295.48 101.326 294.993 101.766 294.58C102.22 294.167 102.726 293.827 103.286 293.56C103.86 293.28 104.486 293.067 105.166 292.92L110.006 291.84L110.286 293.62L105.826 294.58C105.56 294.633 105.24 294.713 104.866 294.82C104.493 294.927 104.113 295.093 103.726 295.32C103.34 295.533 102.98 295.833 102.646 296.22C102.313 296.607 102.046 297.113 101.846 297.74C101.646 298.353 101.546 299.113 101.546 300.02C101.546 300.273 101.553 300.467 101.566 300.6C101.58 300.733 101.593 300.867 101.606 301C101.633 301.133 101.653 301.333 101.666 301.6L100.866 300.78C101.08 300.047 101.42 299.407 101.886 298.86C102.353 298.313 102.913 297.893 103.566 297.6C104.233 297.293 104.96 297.14 105.746 297.14C106.733 297.14 107.606 297.353 108.366 297.78C109.14 298.207 109.746 298.793 110.186 299.54C110.626 300.287 110.846 301.14 110.846 302.1C110.846 303.073 110.613 303.947 110.146 304.72C109.693 305.48 109.046 306.08 108.206 306.52C107.366 306.947 106.38 307.16 105.246 307.16ZM105.426 305.56C106.106 305.56 106.706 305.413 107.226 305.12C107.746 304.813 108.153 304.407 108.446 303.9C108.74 303.38 108.886 302.8 108.886 302.16C108.886 301.52 108.74 300.953 108.446 300.46C108.153 299.967 107.746 299.58 107.226 299.3C106.706 299.007 106.093 298.86 105.386 298.86C104.72 298.86 104.12 299 103.586 299.28C103.053 299.547 102.64 299.927 102.346 300.42C102.053 300.9 101.906 301.46 101.906 302.1C101.906 302.74 102.053 303.327 102.346 303.86C102.653 304.38 103.066 304.793 103.586 305.1C104.12 305.407 104.733 305.56 105.426 305.56ZM119.991 307V304.76L119.891 304.34V300.52C119.891 299.707 119.651 299.08 119.171 298.64C118.704 298.187 117.998 297.96 117.051 297.96C116.424 297.96 115.811 298.067 115.211 298.28C114.611 298.48 114.104 298.753 113.691 299.1L112.891 297.66C113.438 297.22 114.091 296.887 114.851 296.66C115.624 296.42 116.431 296.3 117.271 296.3C118.724 296.3 119.844 296.653 120.631 297.36C121.418 298.067 121.811 299.147 121.811 300.6V307H119.991ZM116.511 307.12C115.724 307.12 115.031 306.987 114.431 306.72C113.844 306.453 113.391 306.087 113.071 305.62C112.751 305.14 112.591 304.6 112.591 304C112.591 303.427 112.724 302.907 112.991 302.44C113.271 301.973 113.718 301.6 114.331 301.32C114.958 301.04 115.798 300.9 116.851 300.9H120.211V302.28H116.931C115.971 302.28 115.324 302.44 114.991 302.76C114.658 303.08 114.491 303.467 114.491 303.92C114.491 304.44 114.698 304.86 115.111 305.18C115.524 305.487 116.098 305.64 116.831 305.64C117.551 305.64 118.178 305.48 118.711 305.16C119.258 304.84 119.651 304.373 119.891 303.76L120.271 305.08C120.018 305.707 119.571 306.207 118.931 306.58C118.291 306.94 117.484 307.12 116.511 307.12ZM125.268 307V296.4H130.188C131.428 296.4 132.402 296.64 133.108 297.12C133.828 297.587 134.188 298.253 134.188 299.12C134.188 299.987 133.848 300.66 133.168 301.14C132.502 301.607 131.615 301.84 130.508 301.84L130.808 301.32C132.075 301.32 133.015 301.553 133.628 302.02C134.242 302.487 134.548 303.173 134.548 304.08C134.548 305 134.202 305.72 133.508 306.24C132.828 306.747 131.782 307 130.368 307H125.268ZM127.148 305.52H130.228C131.028 305.52 131.628 305.4 132.028 305.16C132.428 304.907 132.628 304.507 132.628 303.96C132.628 303.4 132.442 302.993 132.068 302.74C131.708 302.473 131.135 302.34 130.348 302.34H127.148V305.52ZM127.148 300.96H130.028C130.762 300.96 131.315 300.827 131.688 300.56C132.075 300.28 132.268 299.893 132.268 299.4C132.268 298.893 132.075 298.513 131.688 298.26C131.315 298.007 130.762 297.88 130.028 297.88H127.148V300.96ZM137.553 307V296.4H139.473V304.12L145.973 296.4H147.713V307H145.793V299.28L139.313 307H137.553ZM153.54 307V297.58L154.02 298.08H149.66V296.4H159.34V298.08H155L155.46 297.58V307H153.54ZM166.203 300C167.55 300.013 168.577 300.32 169.283 300.92C169.99 301.52 170.343 302.367 170.343 303.46C170.343 304.607 169.957 305.493 169.183 306.12C168.41 306.733 167.317 307.033 165.903 307.02L161.303 307V296.4H163.223V299.98L166.203 300ZM165.743 305.56C166.61 305.573 167.263 305.4 167.703 305.04C168.157 304.68 168.383 304.147 168.383 303.44C168.383 302.747 168.163 302.24 167.723 301.92C167.283 301.6 166.623 301.433 165.743 301.42L163.223 301.38V305.54L165.743 305.56ZM178.178 307V296.4H180.098V300.9H186.138V296.4H188.058V307H186.138V302.56H180.098V307H178.178ZM196.332 307.12C195.265 307.12 194.318 306.887 193.492 306.42C192.665 305.953 192.012 305.313 191.532 304.5C191.052 303.673 190.812 302.74 190.812 301.7C190.812 300.647 191.052 299.713 191.532 298.9C192.012 298.087 192.665 297.453 193.492 297C194.318 296.533 195.265 296.3 196.332 296.3C197.385 296.3 198.325 296.533 199.152 297C199.992 297.453 200.645 298.087 201.112 298.9C201.592 299.7 201.832 300.633 201.832 301.7C201.832 302.753 201.592 303.687 201.112 304.5C200.645 305.313 199.992 305.953 199.152 306.42C198.325 306.887 197.385 307.12 196.332 307.12ZM196.332 305.44C197.012 305.44 197.618 305.287 198.152 304.98C198.698 304.673 199.125 304.24 199.432 303.68C199.738 303.107 199.892 302.447 199.892 301.7C199.892 300.94 199.738 300.287 199.432 299.74C199.125 299.18 198.698 298.747 198.152 298.44C197.618 298.133 197.012 297.98 196.332 297.98C195.652 297.98 195.045 298.133 194.512 298.44C193.978 298.747 193.552 299.18 193.232 299.74C192.912 300.287 192.752 300.94 192.752 301.7C192.752 302.447 192.912 303.107 193.232 303.68C193.552 304.24 193.978 304.673 194.512 304.98C195.045 305.287 195.652 305.44 196.332 305.44ZM204.604 307V296.4H209.524C210.764 296.4 211.737 296.64 212.444 297.12C213.164 297.587 213.524 298.253 213.524 299.12C213.524 299.987 213.184 300.66 212.504 301.14C211.837 301.607 210.951 301.84 209.844 301.84L210.144 301.32C211.411 301.32 212.351 301.553 212.964 302.02C213.577 302.487 213.884 303.173 213.884 304.08C213.884 305 213.537 305.72 212.844 306.24C212.164 306.747 211.117 307 209.704 307H204.604ZM206.484 305.52H209.564C210.364 305.52 210.964 305.4 211.364 305.16C211.764 304.907 211.964 304.507 211.964 303.96C211.964 303.4 211.777 302.993 211.404 302.74C211.044 302.473 210.471 302.34 209.684 302.34H206.484V305.52ZM206.484 300.96H209.364C210.097 300.96 210.651 300.827 211.024 300.56C211.411 300.28 211.604 299.893 211.604 299.4C211.604 298.893 211.411 298.513 211.024 298.26C210.651 298.007 210.097 297.88 209.364 297.88H206.484V300.96ZM217.429 311C216.923 311 216.429 310.913 215.949 310.74C215.469 310.58 215.056 310.34 214.709 310.02L215.529 308.58C215.796 308.833 216.089 309.027 216.409 309.16C216.729 309.293 217.069 309.36 217.429 309.36C217.896 309.36 218.283 309.24 218.589 309C218.896 308.76 219.183 308.333 219.449 307.72L220.109 306.26L220.309 306.02L224.469 296.4H226.349L221.209 308.06C220.903 308.807 220.556 309.393 220.169 309.82C219.796 310.247 219.383 310.547 218.929 310.72C218.476 310.907 217.976 311 217.429 311ZM219.949 307.34L215.109 296.4H217.109L221.229 305.84L219.949 307.34ZM228.315 307V296.4H230.235V300.74H233.435V302.52H230.235V307H228.315ZM237.695 307.12C236.655 307.12 235.728 306.887 234.915 306.42C234.115 305.953 233.482 305.313 233.015 304.5C232.548 303.673 232.315 302.74 232.315 301.7C232.315 300.647 232.548 299.713 233.015 298.9C233.482 298.073 234.115 297.433 234.915 296.98C235.728 296.527 236.655 296.3 237.695 296.3C238.722 296.3 239.642 296.527 240.455 296.98C241.268 297.433 241.908 298.073 242.375 298.9C242.842 299.713 243.075 300.647 243.075 301.7C243.075 302.753 242.842 303.687 242.375 304.5C241.908 305.313 241.268 305.953 240.455 306.42C239.642 306.887 238.722 307.12 237.695 307.12ZM237.695 305.44C238.362 305.44 238.955 305.287 239.475 304.98C239.995 304.66 240.408 304.227 240.715 303.68C241.022 303.12 241.175 302.46 241.175 301.7C241.175 300.94 241.022 300.287 240.715 299.74C240.408 299.18 239.995 298.747 239.475 298.44C238.955 298.133 238.362 297.98 237.695 297.98C237.042 297.98 236.448 298.133 235.915 298.44C235.395 298.747 234.982 299.18 234.675 299.74C234.368 300.287 234.215 300.94 234.215 301.7C234.215 302.46 234.368 303.12 234.675 303.68C234.982 304.227 235.395 304.66 235.915 304.98C236.448 305.287 237.042 305.44 237.695 305.44ZM251.206 307V296.4H261.026V307H259.106V297.6L259.566 298.08H252.666L253.126 297.6V307H251.206ZM262.981 306.98L263.101 305.36C263.194 305.373 263.281 305.387 263.361 305.4C263.441 305.413 263.514 305.42 263.581 305.42C264.008 305.42 264.341 305.273 264.581 304.98C264.834 304.687 265.021 304.3 265.141 303.82C265.261 303.327 265.348 302.773 265.401 302.16C265.454 301.547 265.494 300.933 265.521 300.32L265.701 296.4H273.841V307H271.921V297.52L272.381 298.08H266.941L267.381 297.5L267.241 300.44C267.201 301.373 267.128 302.247 267.021 303.06C266.914 303.873 266.748 304.587 266.521 305.2C266.308 305.813 266.008 306.293 265.621 306.64C265.248 306.987 264.761 307.16 264.161 307.16C263.988 307.16 263.801 307.14 263.601 307.1C263.414 307.073 263.208 307.033 262.981 306.98ZM282.093 307.12C281.027 307.12 280.08 306.887 279.253 306.42C278.427 305.953 277.773 305.313 277.293 304.5C276.813 303.673 276.573 302.74 276.573 301.7C276.573 300.647 276.813 299.713 277.293 298.9C277.773 298.087 278.427 297.453 279.253 297C280.08 296.533 281.027 296.3 282.093 296.3C283.147 296.3 284.087 296.533 284.913 297C285.753 297.453 286.407 298.087 286.873 298.9C287.353 299.7 287.593 300.633 287.593 301.7C287.593 302.753 287.353 303.687 286.873 304.5C286.407 305.313 285.753 305.953 284.913 306.42C284.087 306.887 283.147 307.12 282.093 307.12ZM282.093 305.44C282.773 305.44 283.38 305.287 283.913 304.98C284.46 304.673 284.887 304.24 285.193 303.68C285.5 303.107 285.653 302.447 285.653 301.7C285.653 300.94 285.5 300.287 285.193 299.74C284.887 299.18 284.46 298.747 283.913 298.44C283.38 298.133 282.773 297.98 282.093 297.98C281.413 297.98 280.807 298.133 280.273 298.44C279.74 298.747 279.313 299.18 278.993 299.74C278.673 300.287 278.513 300.94 278.513 301.7C278.513 302.447 278.673 303.107 278.993 303.68C279.313 304.24 279.74 304.673 280.273 304.98C280.807 305.287 281.413 305.44 282.093 305.44ZM297.406 305.32L296.966 305.82V296.4H298.886V305.82L298.406 305.32H304.006L303.546 305.82V296.4H305.466V307H290.366V296.4H292.286V305.82L291.826 305.32H297.406ZM305.226 309.26V306.5L305.686 307H303.446V305.32H307.026V309.26H305.226ZM315.694 307V304.76L315.594 304.34V300.52C315.594 299.707 315.354 299.08 314.874 298.64C314.407 298.187 313.701 297.96 312.754 297.96C312.127 297.96 311.514 298.067 310.914 298.28C310.314 298.48 309.807 298.753 309.394 299.1L308.594 297.66C309.141 297.22 309.794 296.887 310.554 296.66C311.327 296.42 312.134 296.3 312.974 296.3C314.427 296.3 315.547 296.653 316.334 297.36C317.121 298.067 317.514 299.147 317.514 300.6V307H315.694ZM312.214 307.12C311.427 307.12 310.734 306.987 310.134 306.72C309.547 306.453 309.094 306.087 308.774 305.62C308.454 305.14 308.294 304.6 308.294 304C308.294 303.427 308.427 302.907 308.694 302.44C308.974 301.973 309.421 301.6 310.034 301.32C310.661 301.04 311.501 300.9 312.554 300.9H315.914V302.28H312.634C311.674 302.28 311.027 302.44 310.694 302.76C310.361 303.08 310.194 303.467 310.194 303.92C310.194 304.44 310.401 304.86 310.814 305.18C311.227 305.487 311.801 305.64 312.534 305.64C313.254 305.64 313.881 305.48 314.414 305.16C314.961 304.84 315.354 304.373 315.594 303.76L315.974 305.08C315.721 305.707 315.274 306.207 314.634 306.58C313.994 306.94 313.187 307.12 312.214 307.12ZM328.211 306.1V298.08H323.611L323.511 300.12C323.485 300.787 323.438 301.433 323.371 302.06C323.318 302.673 323.225 303.24 323.091 303.76C322.971 304.28 322.791 304.707 322.551 305.04C322.311 305.373 321.991 305.58 321.591 305.66L319.691 305.32C320.105 305.333 320.438 305.2 320.691 304.92C320.945 304.627 321.138 304.227 321.271 303.72C321.418 303.213 321.525 302.64 321.591 302C321.658 301.347 321.711 300.673 321.751 299.98L321.911 296.4H330.131V306.1H328.211ZM319.271 309.46V305.32H331.751V309.46H329.951V307H321.091V309.46H319.271ZM341.933 307L337.833 301.84L339.413 300.88L344.193 307H341.933ZM334.253 307V296.4H336.173V307H334.253ZM335.593 302.52V300.88H339.093V302.52H335.593ZM339.573 301.92L337.793 301.68L341.853 296.4H343.913L339.573 301.92ZM346.14 311C345.634 311 345.14 310.913 344.66 310.74C344.18 310.58 343.767 310.34 343.42 310.02L344.24 308.58C344.507 308.833 344.8 309.027 345.12 309.16C345.44 309.293 345.78 309.36 346.14 309.36C346.607 309.36 346.994 309.24 347.3 309C347.607 308.76 347.894 308.333 348.16 307.72L348.82 306.26L349.02 306.02L353.18 296.4H355.06L349.92 308.06C349.614 308.807 349.267 309.393 348.88 309.82C348.507 310.247 348.094 310.547 347.64 310.72C347.187 310.907 346.687 311 346.14 311ZM348.66 307.34L343.82 296.4H345.82L349.94 305.84L348.66 307.34Z" fill="black" fill-opacity="0.65"/>
<path d="M191 168H229M210 187V149M210 215.5C236.125 215.5 257.5 194.125 257.5 168C257.5 141.875 236.125 120.5 210 120.5C183.875 120.5 162.5 141.875 162.5 168C162.5 194.125 183.875 215.5 210 215.5Z" stroke="#2FB464" stroke-width="1.5" stroke-linecap="round" stroke-linejoin="round"/>
</svg>
