<svg width="35" height="35" viewBox="0 0 35 35" fill="none" xmlns="http://www.w3.org/2000/svg">
<path d="M17.8802 6.92391C17.7784 6.82655 17.643 6.77222 17.5022 6.77222C17.3613 6.77222 17.2259 6.82655 17.1241 6.92391L4.53918 18.9463C4.48574 18.9974 4.44322 19.0588 4.4142 19.1269C4.38517 19.1949 4.37025 19.2681 4.37034 19.3421L4.36829 30.6255C4.36829 31.2056 4.59875 31.762 5.00899 32.1723C5.41923 32.5825 5.97562 32.813 6.55579 32.813H13.1251C13.4152 32.813 13.6934 32.6977 13.8985 32.4926C14.1036 32.2875 14.2189 32.0093 14.2189 31.7192V22.4223C14.2189 22.2773 14.2765 22.1382 14.379 22.0356C14.4816 21.9331 14.6207 21.8755 14.7657 21.8755H20.2345C20.3795 21.8755 20.5186 21.9331 20.6212 22.0356C20.7238 22.1382 20.7814 22.2773 20.7814 22.4223V31.7192C20.7814 32.0093 20.8966 32.2875 21.1017 32.4926C21.3068 32.6977 21.585 32.813 21.8751 32.813H28.4417C29.0219 32.813 29.5783 32.5825 29.9885 32.1723C30.3987 31.762 30.6292 31.2056 30.6292 30.6255V19.3421C30.6293 19.2681 30.6144 19.1949 30.5854 19.1269C30.5563 19.0588 30.5138 18.9974 30.4604 18.9463L17.8802 6.92391Z" fill="white"/>
<path d="M33.5585 16.69L28.4452 11.7982V4.375C28.4452 4.08492 28.33 3.80672 28.1249 3.6016C27.9197 3.39649 27.6415 3.28125 27.3515 3.28125H24.0702C23.7801 3.28125 23.5019 3.39649 23.2968 3.6016C23.0917 3.80672 22.9765 4.08492 22.9765 4.375V6.5625L19.0171 2.77676C18.6466 2.40215 18.0956 2.1875 17.5002 2.1875C16.9068 2.1875 16.3572 2.40215 15.9867 2.77744L1.44669 16.6886C1.0215 17.0987 0.968178 17.7735 1.35509 18.2178C1.45225 18.3299 1.57122 18.4212 1.70475 18.4859C1.83828 18.5506 1.98358 18.5875 2.13182 18.5942C2.28005 18.601 2.42811 18.5776 2.567 18.5253C2.70588 18.473 2.83267 18.3931 2.93966 18.2903L17.1242 4.73594C17.226 4.63858 17.3614 4.58425 17.5023 4.58425C17.6431 4.58425 17.7785 4.63858 17.8803 4.73594L32.0662 18.2903C32.2752 18.4906 32.5551 18.6 32.8445 18.5944C33.134 18.5887 33.4094 18.4686 33.6105 18.2602C34.0302 17.8254 33.9953 17.1076 33.5585 16.69Z" fill="white"/>
</svg>
