<svg width="57" height="57" viewBox="0 0 57 57" fill="none" xmlns="http://www.w3.org/2000/svg">
<path d="M48.0938 5.34375V51.6562C48.0938 52.1287 47.9061 52.5817 47.572 52.9158C47.238 53.2498 46.7849 53.4375 46.3125 53.4375H10.6875C10.2151 53.4375 9.76202 53.2498 9.42797 52.9158C9.09392 52.5817 8.90625 52.1287 8.90625 51.6562V48.0938H12.4688V49.875H44.5312V7.125H12.4688V12.4688H8.90625V5.34375C8.90625 4.87133 9.09392 4.41827 9.42797 4.08422C9.76202 3.75017 10.2151 3.5625 10.6875 3.5625H46.3125C46.7849 3.5625 47.238 3.75017 47.572 4.08422C47.9061 4.41827 48.0938 4.87133 48.0938 5.34375ZM21.8916 36.1416L24.4209 38.6709L33.3272 29.7647C33.4941 29.5991 33.6267 29.4021 33.7171 29.185C33.8075 28.968 33.8541 28.7351 33.8541 28.5C33.8541 28.2649 33.8075 28.032 33.7171 27.815C33.6267 27.5979 33.4941 27.4009 33.3272 27.2353L24.4209 18.3291L21.8916 20.8584L27.7697 26.7188H8.90625V30.2812H27.7697L21.8916 36.1416Z" fill="white"/>
</svg>
