<svg width="501" height="501" viewBox="0 0 501 501" fill="none" xmlns="http://www.w3.org/2000/svg">
<rect x="5.5187" y="5.50045" width="489" height="489" fill="#3E8ED3" stroke="#3E8ED3" stroke-width="11"/>
<path d="M59.5141 257.501L126.697 257.503C127.525 257.503 128.311 257.867 128.847 258.499L187.354 327.504L62.3319 327.501C60.775 327.501 59.5129 326.239 59.5129 324.682L59.5141 257.501Z" stroke="#BADEFF" stroke-width="2"/>
<path d="M439.514 257.508L372.332 257.507C371.503 257.507 370.717 257.871 370.181 258.503L311.672 327.506L436.694 327.508C438.251 327.508 439.513 326.246 439.513 324.689L439.514 257.508Z" stroke="#BADEFF" stroke-width="2"/>
<path d="M124.144 224.119C124.643 223.72 125.263 223.503 125.902 223.503L373.127 223.507C373.767 223.507 374.387 223.724 374.886 224.123L399.659 243.902L372.412 243.901C370.994 243.901 369.647 244.526 368.732 245.609L308.338 317.054C307.991 317.464 307.801 317.984 307.801 318.521L307.8 327.506L191.863 327.504L191.863 318.523C191.863 317.982 191.67 317.458 191.319 317.047L130.293 245.587C129.378 244.514 128.039 243.897 126.629 243.897L99.3698 243.897L124.144 224.119Z" stroke="#BADEFF" stroke-width="2"/>
<path d="M59.5161 151.501L124.729 151.503L374.303 151.507L439.516 151.508L439.514 244.333L404.588 244.333L404.588 237.846C404.588 237.126 404.246 236.448 403.667 236.019L375.909 215.476C375.079 214.861 374.074 214.53 373.042 214.53L125.988 214.526C124.956 214.526 123.951 214.857 123.121 215.471L95.3621 236.014C94.7829 236.442 94.4412 237.12 94.4412 237.841L94.4411 244.327L59.5144 244.327L59.5161 151.501Z" stroke="#BADEFF" stroke-width="2"/>
<path d="M59.5182 35.3205C59.5183 33.7636 60.7804 32.5014 62.3373 32.5015L436.699 32.5082C438.256 32.5083 439.518 33.7704 439.518 35.3273L439.517 129.508L59.5165 129.501L59.5182 35.3205Z" stroke="#BADEFF" stroke-width="2"/>
<path d="M70.516 160.432C70.5161 158.875 71.7782 157.613 73.3351 157.613L154.808 157.614C156.365 157.614 157.627 158.876 157.627 160.433L157.626 206.262C157.626 207.819 156.364 209.081 154.807 209.081L73.3342 209.079C71.7773 209.079 70.5152 207.817 70.5152 206.26L70.516 160.432Z" stroke="#BADEFF" stroke-width="2"/>
<rect x="342.941" y="157.618" width="87.1111" height="51.4667" rx="2.81905" stroke="#BADEFF" stroke-width="2"/>
<path d="M167.265 160.434C167.265 158.877 168.527 157.615 170.084 157.615L219.732 157.615C221.289 157.615 222.551 158.878 222.551 160.435L222.55 206.263C222.55 207.82 221.288 209.082 219.731 209.082L170.083 209.081C168.527 209.081 167.264 207.819 167.264 206.262L167.265 160.434Z" stroke="#BADEFF" stroke-width="2"/>
<rect x="278.018" y="157.616" width="55.2857" height="51.4667" rx="2.81905" stroke="#BADEFF" stroke-width="2"/>
<rect x="160.902" y="57.5033" width="84.5651" height="55.2857" rx="2.81905" stroke="#BADEFF" stroke-width="2"/>
<rect x="255.105" y="57.505" width="84.5651" height="55.2857" rx="2.81905" stroke="#BADEFF" stroke-width="2"/>
<rect x="348.035" y="57.5066" width="82.0191" height="55.2857" rx="2.81905" stroke="#BADEFF" stroke-width="2"/>
<path d="M70.5178 60.3207C70.5178 58.7638 71.7799 57.5016 73.3369 57.5017L149.718 57.5031C151.275 57.5031 152.537 58.7652 152.537 60.3222L152.536 109.97C152.536 111.527 151.274 112.789 149.717 112.789L73.3358 112.787C71.7789 112.787 70.5168 111.525 70.5169 109.968L70.5178 60.3207Z" stroke="#BADEFF" stroke-width="2"/>
<path d="M248.521 156.505L248.52 211.881M248.521 156.505L268.253 156.505C268.956 156.505 269.526 157.075 269.526 157.778L269.525 211.245C269.525 211.948 268.955 212.518 268.252 212.518L228.788 212.517C228.085 212.517 227.515 211.947 227.515 211.244L227.516 157.777C227.516 157.074 228.086 156.504 228.789 156.504L248.521 156.505Z" stroke="#BADEFF" stroke-width="2"/>
<path d="M231.67 159.505L244.362 159.505C245 159.505 245.516 160.021 245.516 160.659L245.516 179.776C245.516 180.413 244.999 180.93 244.362 180.93L231.67 180.929C231.032 180.929 230.516 180.413 230.516 179.775L230.516 160.658C230.516 160.021 231.033 159.505 231.67 159.505Z" stroke="#BADEFF" stroke-width="2"/>
<path d="M252.67 159.505L265.362 159.505C266 159.505 266.516 160.022 266.516 160.659L266.516 179.776C266.516 180.413 265.999 180.93 265.362 180.93L252.67 180.93C252.032 180.93 251.516 180.413 251.516 179.776L251.516 160.659C251.516 160.021 252.033 159.505 252.67 159.505Z" stroke="#BADEFF" stroke-width="2"/>
<path d="M57.5182 35.8665C57.5182 32.9034 59.9203 30.5014 62.8834 30.5015L436.153 30.5082C439.116 30.5083 441.518 32.9104 441.518 35.8734L441.517 129.574L57.5165 129.567L57.5182 35.8665Z" stroke="#BADEFF" stroke-width="2"/>
<path d="M57.5131 324.136C57.513 327.099 59.915 329.501 62.878 329.501L436.148 329.508C439.111 329.508 441.513 327.106 441.513 324.143L441.516 151.508L57.5162 151.501L57.5131 324.136Z" stroke="#BADEFF" stroke-width="2"/>
<rect x="48.5166" y="129.501" width="403" height="22" stroke="#BADEFF" stroke-width="2"/>
<path d="M94.0461 430.002L94.0464 411.848L108.075 411.848L108.074 430.002L106.741 430.002L106.742 412.991L95.3794 412.99L95.3791 430.002L94.0461 430.002ZM112.93 430.002L112.93 411.848L120.547 411.848C124.085 411.848 125.854 413.511 125.854 416.838C125.854 420.113 123.023 422.199 117.36 423.096L117.132 421.877C121.956 421.209 124.368 419.563 124.368 416.939C124.368 414.332 123.023 413.029 120.331 413.029L114.263 413.029L114.263 430.002L112.93 430.002ZM142.579 430.003L142.579 413.854L131.216 430.003L129.756 430.003L129.757 411.848L131.09 411.848L131.09 427.997L142.452 411.849L143.912 411.849L143.912 430.003L142.579 430.003ZM160.688 411.849L160.688 412.992L150.1 412.991L150.1 420.228L160.256 420.228L160.256 421.37L150.1 421.37L150.1 428.86L160.866 428.861L160.866 430.003L148.767 430.003L148.767 411.849L160.688 411.849ZM165.391 430.003L165.391 411.849L166.724 411.849L174.912 428.442L182.593 411.849L183.799 411.849L183.799 430.004L182.593 430.004L182.593 414.3L175.382 430.004L174.29 430.004L166.597 414.172L166.597 430.003L165.391 430.003ZM188.641 430.004L188.642 411.849L189.975 411.849L189.975 420.101L201.337 420.102L201.337 411.85L202.67 411.85L202.67 430.004L201.337 430.004L201.337 421.244L189.975 421.244L189.974 430.004L188.641 430.004ZM207.36 430.004L205.938 430.004L214.152 411.85L215.739 411.85L223.991 430.004L222.404 430.004L219.713 423.911L211.575 423.91L211.968 422.768L219.217 422.768L214.863 412.891L207.36 430.004ZM237.403 430.005L237.403 413.031L231.461 413.031C229.024 413.031 227.805 414.123 227.805 416.306C227.805 418.676 229.667 420.136 233.391 420.686L233.391 421.588L227.361 430.004L225.532 430.004L231.664 421.549C228.101 420.5 226.32 418.718 226.32 416.205C226.32 413.302 227.962 411.85 231.246 411.85L238.736 411.85L238.736 430.005L237.403 430.005ZM261.611 430.005C258.742 425.435 256.935 422.764 256.19 421.994C255.445 421.216 254.574 420.826 253.575 420.826L253.575 419.899C255.268 419.899 256.804 418.558 258.184 415.875C259.572 413.192 261.061 411.851 262.652 411.851L264.011 411.851L264.011 412.993L263.008 412.993C261.671 412.993 260.393 414.144 259.174 416.446C257.955 418.74 256.817 420.052 255.759 420.382C256.393 420.492 257.092 420.97 257.853 421.817C258.615 422.654 260.477 425.384 263.439 430.005L261.611 430.005ZM252.052 411.851L252.051 430.005L250.718 430.005L250.719 411.851L252.052 411.851ZM267.964 420.877C267.964 426.285 270.516 428.99 275.62 428.99C280.63 428.99 283.135 426.286 283.135 420.878C283.135 415.537 280.63 412.867 275.62 412.867C270.516 412.867 267.965 415.537 267.964 420.877ZM266.504 420.953C266.505 414.8 269.543 411.724 275.62 411.724C281.604 411.724 284.595 414.801 284.595 420.954C284.595 427.073 281.603 430.132 275.62 430.132C269.543 430.132 266.504 427.073 266.504 420.953ZM288.816 430.006L288.816 411.851L290.149 411.851L298.337 428.444L306.018 411.852L307.224 411.852L307.224 430.006L306.018 430.006L306.018 414.302L298.807 430.006L297.715 430.006L290.022 414.175L290.022 430.006L288.816 430.006ZM324.889 430.006L324.889 413.858L313.526 430.006L312.066 430.006L312.067 411.852L313.4 411.852L313.399 428L324.762 411.852L326.222 411.852L326.222 430.006L324.889 430.006ZM345.042 429.372C343.391 429.88 341.698 430.133 339.963 430.133C333.616 430.133 330.442 426.981 330.442 420.675C330.442 414.708 333.616 411.725 339.964 411.725C341.699 411.725 343.392 411.979 345.042 412.487L345.042 413.63C343.391 413.122 341.783 412.868 340.218 412.868C334.589 412.868 331.775 415.47 331.775 420.675C331.775 426.219 334.589 428.991 340.217 428.991C341.783 428.991 343.391 428.737 345.042 428.229L345.042 429.372ZM363.671 429.372C362.021 429.88 360.328 430.134 358.593 430.134C352.245 430.134 349.072 426.981 349.072 420.676C349.072 414.709 352.246 411.725 358.593 411.726C360.328 411.726 362.021 411.98 363.671 412.487L363.671 413.63C362.021 413.122 360.413 412.868 358.847 412.868C353.219 412.868 350.405 415.471 350.405 420.676C350.405 426.219 353.219 428.991 358.847 428.991C360.413 428.991 362.021 428.737 363.671 428.23L363.671 429.372ZM381.158 430.007L381.159 413.859L369.796 430.007L368.336 430.007L368.336 411.853L369.669 411.853L369.669 428.001L381.032 411.853L382.492 411.853L382.491 430.007L381.158 430.007ZM397.503 430.008L397.503 413.034L391.562 413.034C389.124 413.034 387.905 414.126 387.905 416.309C387.905 418.679 389.767 420.139 393.491 420.689L393.491 421.59L387.461 430.007L385.633 430.007L391.765 421.552C388.201 420.503 386.42 418.721 386.42 416.208C386.42 413.305 388.062 411.853 391.346 411.853L398.836 411.853L398.836 430.008L397.503 430.008ZM100.826 458.367C99.176 458.875 97.4833 459.129 95.7483 459.129C89.4006 459.129 86.2268 455.976 86.227 449.671C86.2271 443.704 89.4009 440.721 95.7486 440.721C97.4836 440.721 99.1763 440.975 100.827 441.483L100.827 442.625C99.1763 442.117 97.5682 441.863 96.0025 441.863C90.3742 441.863 87.5601 444.466 87.56 449.671C87.5599 455.215 90.3739 457.986 96.0022 457.986C97.5679 457.986 99.176 457.733 100.826 457.225L100.826 458.367ZM105.491 459.002L105.491 440.848L116.321 440.848L116.321 441.991L106.824 441.991L106.824 459.002L105.491 459.002ZM130.888 440.848L130.888 441.991L124.667 441.991L124.667 459.003L123.334 459.003L123.334 441.991L117.24 441.991L117.24 440.848L130.888 440.848ZM148.083 440.849L141.824 455.601C140.859 457.869 139.213 459.003 136.885 459.003C135.802 459.003 134.803 458.707 133.889 458.114L133.889 456.972C134.786 457.564 135.772 457.86 136.847 457.86C138.658 457.86 139.83 457.094 140.364 455.562L132.442 440.848L133.902 440.848L141.1 454.306L146.661 440.849L148.083 440.849ZM171.174 459.003L171.174 442.855L159.811 459.003L158.351 459.003L158.352 440.849L159.685 440.849L159.684 456.997L171.047 440.849L172.507 440.849L172.507 459.003L171.174 459.003ZM177.362 459.004L177.362 440.849L178.695 440.849L186.883 457.442L194.564 440.85L195.77 440.85L195.77 459.004L194.564 459.004L194.564 443.3L187.353 459.004L186.261 459.004L178.568 443.173L178.568 459.004L177.362 459.004ZM201.692 457.417L201.692 459.004L199.978 459.004L199.978 457.417L201.692 457.417ZM213.04 459.004L213.04 440.85L223.869 440.85L223.869 441.993L214.373 441.993L214.373 459.004L213.04 459.004ZM226.528 459.004L225.106 459.004L233.32 440.85L234.907 440.85L243.159 459.005L241.572 459.005L238.88 452.911L230.743 452.911L231.136 451.768L238.385 451.768L234.031 441.891L226.528 459.004ZM246.414 459.005L246.415 440.851L257.244 440.851L257.244 441.993L247.748 441.993L247.747 459.005L246.414 459.005ZM259.902 459.005L258.48 459.005L266.695 440.851L268.281 440.851L276.533 459.005L274.946 459.005L272.255 452.912L264.117 452.911L264.511 451.769L271.76 451.769L267.405 441.892L259.902 459.005ZM279.789 459.005L279.789 440.851L287.406 440.851C290.944 440.851 292.713 442.514 292.713 445.841C292.713 449.116 289.882 451.202 284.219 452.099L283.991 450.88C288.815 450.212 291.227 448.566 291.227 445.942C291.227 443.335 289.882 442.032 287.19 442.032L281.122 442.032L281.122 459.005L279.789 459.005ZM309.438 459.006L309.438 442.858L298.075 459.006L296.616 459.006L296.616 440.851L297.949 440.851L297.949 457L309.311 440.852L310.771 440.852L310.771 459.006L309.438 459.006ZM315.626 459.006L315.626 440.852L316.959 440.852L316.959 449.104L328.322 449.104L328.322 440.852L329.655 440.852L329.654 459.006L328.321 459.006L328.321 450.247L316.959 450.246L316.959 459.006L315.626 459.006ZM334.344 459.006L332.923 459.006L341.137 440.852L342.724 440.852L350.975 459.007L349.388 459.007L346.697 452.913L338.559 452.913L338.953 451.77L346.202 451.77L341.848 441.893L334.344 459.006ZM361.359 459.007L361.359 440.853L362.679 440.853L362.679 449.232L368.963 449.232C369.166 443.561 371.604 440.726 376.276 440.726C381.159 440.726 383.601 443.76 383.601 449.829C383.601 456.032 381.159 459.134 376.276 459.134C371.519 459.134 369.077 456.214 368.951 450.374L362.679 450.374L362.679 459.007L361.359 459.007ZM376.276 457.992C380.186 457.992 382.141 455.288 382.141 449.879C382.141 444.539 380.186 441.869 376.276 441.868C372.273 441.868 370.271 444.539 370.271 449.879C370.271 455.287 372.272 457.991 376.276 457.992ZM388.761 457.42L388.761 459.007L387.047 459.007L387.047 457.42L388.761 457.42ZM392.816 459.007L391.394 459.007L399.608 440.853L401.195 440.853L409.447 459.008L407.86 459.008L405.169 452.914L397.031 452.914L397.425 451.771L404.674 451.771L400.319 441.894L392.816 459.007ZM413.782 457.421L413.782 459.008L412.068 459.008L412.068 457.421L413.782 457.421Z" fill="#BADEFF"/>
<path d="M94.0461 430.002L93.0461 430.002L93.0461 431.002L94.0461 431.002L94.0461 430.002ZM94.0464 411.848L94.0464 410.848L93.0464 410.848L93.0464 411.848L94.0464 411.848ZM108.075 411.848L109.075 411.848L109.075 410.848L108.075 410.848L108.075 411.848ZM108.074 430.002L108.074 431.002L109.074 431.002L109.074 430.002L108.074 430.002ZM106.741 430.002L105.741 430.002L105.741 431.002L106.741 431.002L106.741 430.002ZM106.742 412.991L107.742 412.991L107.742 411.991L106.742 411.991L106.742 412.991ZM95.3794 412.99L95.3794 411.99L94.3794 411.99L94.3794 412.99L95.3794 412.99ZM95.3791 430.002L95.3791 431.002L96.3791 431.002L96.3791 430.002L95.3791 430.002ZM95.0461 430.002L95.0464 411.848L93.0464 411.848L93.0461 430.002L95.0461 430.002ZM94.0464 412.848L108.075 412.848L108.075 410.848L94.0464 410.848L94.0464 412.848ZM107.075 411.848L107.074 430.002L109.074 430.002L109.075 411.848L107.075 411.848ZM108.074 429.002L106.741 429.002L106.741 431.002L108.074 431.002L108.074 429.002ZM107.741 430.002L107.742 412.991L105.742 412.991L105.741 430.002L107.741 430.002ZM106.742 411.991L95.3794 411.99L95.3794 413.99L106.742 413.991L106.742 411.991ZM94.3794 412.99L94.3791 430.002L96.3791 430.002L96.3794 412.99L94.3794 412.99ZM95.3791 429.002L94.0461 429.002L94.0461 431.002L95.3791 431.002L95.3791 429.002ZM112.93 430.002L111.93 430.002L111.93 431.002L112.93 431.002L112.93 430.002ZM112.93 411.848L112.93 410.848L111.93 410.848L111.93 411.848L112.93 411.848ZM117.36 423.096L116.378 423.28L116.557 424.236L117.517 424.084L117.36 423.096ZM117.132 421.877L116.995 420.887L115.956 421.031L116.149 422.062L117.132 421.877ZM114.263 413.029L114.263 412.029L113.263 412.029L113.263 413.029L114.263 413.029ZM114.263 430.002L114.263 431.002L115.263 431.002L115.263 430.002L114.263 430.002ZM113.93 430.002L113.93 411.848L111.93 411.848L111.93 430.002L113.93 430.002ZM112.93 412.848L120.547 412.848L120.547 410.848L112.93 410.848L112.93 412.848ZM120.547 412.848C122.177 412.848 123.213 413.232 123.842 413.824C124.46 414.405 124.854 415.345 124.854 416.838L126.854 416.838C126.854 415.004 126.363 413.449 125.212 412.367C124.073 411.296 122.455 410.848 120.547 410.848L120.547 412.848ZM124.854 416.838C124.854 418.131 124.319 419.183 123.137 420.054C121.907 420.96 119.965 421.671 117.204 422.109L117.517 424.084C120.418 423.624 122.722 422.844 124.324 421.664C125.973 420.448 126.854 418.819 126.854 416.838L124.854 416.838ZM118.343 422.912L118.115 421.693L116.149 422.062L116.378 423.28L118.343 422.912ZM117.269 422.868C119.745 422.525 121.731 421.917 123.123 420.967C124.566 419.983 125.368 418.623 125.368 416.939L123.368 416.939C123.368 417.879 122.965 418.654 121.995 419.315C120.975 420.012 119.343 420.561 116.995 420.887L117.269 422.868ZM125.368 416.939C125.368 415.473 124.988 414.192 124.055 413.288C123.127 412.39 121.823 412.029 120.331 412.029L120.331 414.029C121.531 414.029 122.245 414.32 122.663 414.725C123.076 415.124 123.368 415.798 123.368 416.939L125.368 416.939ZM120.331 412.029L114.263 412.029L114.263 414.029L120.331 414.029L120.331 412.029ZM113.263 413.029L113.263 430.002L115.263 430.002L115.263 413.029L113.263 413.029ZM114.263 429.002L112.93 429.002L112.93 431.002L114.263 431.002L114.263 429.002ZM142.579 430.003L141.579 430.003L141.579 431.003L142.579 431.003L142.579 430.003ZM142.579 413.854L143.579 413.855L143.579 410.695L141.761 413.279L142.579 413.854ZM131.216 430.003L131.216 431.003L131.736 431.003L132.034 430.578L131.216 430.003ZM129.756 430.003L128.756 430.003L128.756 431.003L129.756 431.003L129.756 430.003ZM129.757 411.848L129.757 410.848L128.757 410.848L128.757 411.848L129.757 411.848ZM131.09 411.848L132.09 411.848L132.09 410.848L131.09 410.848L131.09 411.848ZM131.09 427.997L130.09 427.997L130.089 431.156L131.907 428.572L131.09 427.997ZM142.452 411.849L142.452 410.849L141.933 410.849L141.634 411.273L142.452 411.849ZM143.912 411.849L144.912 411.849L144.912 410.849L143.912 410.849L143.912 411.849ZM143.912 430.003L143.912 431.003L144.912 431.003L144.912 430.003L143.912 430.003ZM143.579 430.003L143.579 413.855L141.579 413.854L141.579 430.003L143.579 430.003ZM141.761 413.279L130.399 429.427L132.034 430.578L143.397 414.43L141.761 413.279ZM131.216 429.003L129.756 429.003L129.756 431.003L131.216 431.003L131.216 429.003ZM130.756 430.003L130.757 411.848L128.757 411.848L128.756 430.003L130.756 430.003ZM129.757 412.848L131.09 412.848L131.09 410.848L129.757 410.848L129.757 412.848ZM130.09 411.848L130.09 427.997L132.09 427.997L132.09 411.848L130.09 411.848ZM131.907 428.572L143.27 412.424L141.634 411.273L130.272 427.421L131.907 428.572ZM142.452 412.849L143.912 412.849L143.912 410.849L142.452 410.849L142.452 412.849ZM142.912 411.849L142.912 430.003L144.912 430.003L144.912 411.849L142.912 411.849ZM143.912 429.003L142.579 429.003L142.579 431.003L143.912 431.003L143.912 429.003ZM160.688 411.849L161.688 411.849L161.688 410.849L160.688 410.849L160.688 411.849ZM160.688 412.992L160.688 413.992L161.688 413.992L161.688 412.992L160.688 412.992ZM150.1 412.991L150.1 411.991L149.1 411.991L149.1 412.991L150.1 412.991ZM150.1 420.228L149.1 420.228L149.1 421.228L150.1 421.228L150.1 420.228ZM160.256 420.228L161.256 420.228L161.256 419.228L160.256 419.228L160.256 420.228ZM160.256 421.37L160.256 422.37L161.256 422.37L161.256 421.37L160.256 421.37ZM150.1 421.37L150.1 420.37L149.1 420.37L149.1 421.37L150.1 421.37ZM150.1 428.86L149.1 428.86L149.1 429.86L150.1 429.86L150.1 428.86ZM160.866 428.861L161.866 428.861L161.866 427.861L160.866 427.861L160.866 428.861ZM160.866 430.003L160.866 431.003L161.866 431.003L161.866 430.003L160.866 430.003ZM148.767 430.003L147.767 430.003L147.767 431.003L148.767 431.003L148.767 430.003ZM148.767 411.849L148.767 410.849L147.767 410.849L147.767 411.849L148.767 411.849ZM159.688 411.849L159.688 412.992L161.688 412.992L161.688 411.849L159.688 411.849ZM160.688 411.992L150.1 411.991L150.1 413.991L160.688 413.992L160.688 411.992ZM149.1 412.991L149.1 420.228L151.1 420.228L151.1 412.991L149.1 412.991ZM150.1 421.228L160.256 421.228L160.256 419.228L150.1 419.228L150.1 421.228ZM159.256 420.228L159.256 421.37L161.256 421.37L161.256 420.228L159.256 420.228ZM160.256 420.37L150.1 420.37L150.1 422.37L160.256 422.37L160.256 420.37ZM149.1 421.37L149.1 428.86L151.1 428.861L151.1 421.37L149.1 421.37ZM150.1 429.86L160.866 429.861L160.866 427.861L150.1 427.86L150.1 429.86ZM159.866 428.861L159.866 430.003L161.866 430.003L161.866 428.861L159.866 428.861ZM160.866 429.003L148.767 429.003L148.767 431.003L160.866 431.003L160.866 429.003ZM149.767 430.003L149.767 411.849L147.767 411.849L147.767 430.003L149.767 430.003ZM148.767 412.849L160.688 412.849L160.688 410.849L148.767 410.849L148.767 412.849ZM165.391 430.003L164.391 430.003L164.391 431.003L165.391 431.003L165.391 430.003ZM165.391 411.849L165.391 410.849L164.391 410.849L164.391 411.849L165.391 411.849ZM166.724 411.849L167.621 411.407L167.346 410.849L166.724 410.849L166.724 411.849ZM174.912 428.442L174.015 428.885L174.941 430.76L175.82 428.862L174.912 428.442ZM182.593 411.849L182.593 410.849L181.954 410.849L181.686 411.429L182.593 411.849ZM183.799 411.849L184.799 411.849L184.799 410.849L183.799 410.849L183.799 411.849ZM183.799 430.004L183.799 431.004L184.799 431.004L184.799 430.004L183.799 430.004ZM182.593 430.004L181.593 430.004L181.593 431.004L182.593 431.004L182.593 430.004ZM182.593 414.3L183.593 414.3L181.684 413.882L182.593 414.3ZM175.382 430.004L175.382 431.004L176.023 431.004L176.291 430.421L175.382 430.004ZM174.29 430.004L173.391 430.441L173.664 431.003L174.29 431.004L174.29 430.004ZM166.597 414.172L167.496 413.735L165.597 414.172L166.597 414.172ZM166.597 430.003L166.597 431.003L167.597 431.003L167.597 430.003L166.597 430.003ZM166.391 430.003L166.391 411.849L164.391 411.849L164.391 430.003L166.391 430.003ZM165.391 412.849L166.724 412.849L166.724 410.849L165.391 410.849L165.391 412.849ZM165.827 412.292L174.015 428.885L175.809 427.999L167.621 411.407L165.827 412.292ZM175.82 428.862L183.501 412.269L181.686 411.429L174.005 428.022L175.82 428.862ZM182.593 412.849L183.799 412.849L183.799 410.849L182.593 410.849L182.593 412.849ZM182.799 411.849L182.799 430.004L184.799 430.004L184.799 411.849L182.799 411.849ZM183.799 429.004L182.593 429.004L182.593 431.004L183.799 431.004L183.799 429.004ZM183.593 430.004L183.593 414.3L181.593 414.3L181.593 430.004L183.593 430.004ZM181.684 413.882L174.473 429.586L176.291 430.421L183.502 414.717L181.684 413.882ZM175.382 429.004L174.29 429.004L174.29 431.004L175.382 431.004L175.382 429.004ZM175.19 429.566L167.496 413.735L165.698 414.609L173.391 430.441L175.19 429.566ZM165.597 414.172L165.597 430.003L167.597 430.003L167.597 414.172L165.597 414.172ZM166.597 429.003L165.391 429.003L165.391 431.003L166.597 431.003L166.597 429.003ZM188.641 430.004L187.641 430.004L187.641 431.004L188.641 431.004L188.641 430.004ZM188.642 411.849L188.642 410.849L187.642 410.849L187.642 411.849L188.642 411.849ZM189.975 411.849L190.975 411.85L190.975 410.85L189.975 410.849L189.975 411.849ZM189.975 420.101L188.975 420.101L188.975 421.101L189.975 421.101L189.975 420.101ZM201.337 420.102L201.337 421.102L202.337 421.102L202.337 420.102L201.337 420.102ZM201.337 411.85L201.337 410.85L200.337 410.85L200.337 411.85L201.337 411.85ZM202.67 411.85L203.67 411.85L203.67 410.85L202.67 410.85L202.67 411.85ZM202.67 430.004L202.67 431.004L203.67 431.004L203.67 430.004L202.67 430.004ZM201.337 430.004L200.337 430.004L200.337 431.004L201.337 431.004L201.337 430.004ZM201.337 421.244L202.337 421.244L202.337 420.244L201.337 420.244L201.337 421.244ZM189.975 421.244L189.975 420.244L188.975 420.244L188.975 421.244L189.975 421.244ZM189.974 430.004L189.974 431.004L190.974 431.004L190.974 430.004L189.974 430.004ZM189.641 430.004L189.642 411.849L187.642 411.849L187.641 430.004L189.641 430.004ZM188.642 412.849L189.975 412.849L189.975 410.849L188.642 410.849L188.642 412.849ZM188.975 411.849L188.975 420.101L190.975 420.101L190.975 411.85L188.975 411.849ZM189.975 421.101L201.337 421.102L201.337 419.102L189.975 419.101L189.975 421.101ZM202.337 420.102L202.337 411.85L200.337 411.85L200.337 420.102L202.337 420.102ZM201.337 412.85L202.67 412.85L202.67 410.85L201.337 410.85L201.337 412.85ZM201.67 411.85L201.67 430.004L203.67 430.004L203.67 411.85L201.67 411.85ZM202.67 429.004L201.337 429.004L201.337 431.004L202.67 431.004L202.67 429.004ZM202.337 430.004L202.337 421.244L200.337 421.244L200.337 430.004L202.337 430.004ZM201.337 420.244L189.975 420.244L189.975 422.244L201.337 422.244L201.337 420.244ZM188.975 421.244L188.974 430.004L190.974 430.004L190.975 421.244L188.975 421.244ZM189.974 429.004L188.641 429.004L188.641 431.004L189.974 431.004L189.974 429.004ZM207.36 430.004L207.36 431.004L208.013 431.004L208.276 430.406L207.36 430.004ZM205.938 430.004L205.027 429.592L204.388 431.004L205.938 431.004L205.938 430.004ZM214.152 411.85L214.152 410.85L213.507 410.85L213.241 411.438L214.152 411.85ZM215.739 411.85L216.649 411.436L216.383 410.85L215.739 410.85L215.739 411.85ZM223.991 430.004L223.991 431.004L225.544 431.004L224.901 429.591L223.991 430.004ZM222.404 430.004L221.489 430.408L221.752 431.004L222.404 431.004L222.404 430.004ZM219.713 423.911L220.627 423.507L220.364 422.911L219.713 422.911L219.713 423.911ZM211.575 423.91L210.629 423.585L210.173 424.91L211.575 424.91L211.575 423.91ZM211.968 422.768L211.968 421.768L211.255 421.768L211.023 422.442L211.968 422.768ZM219.217 422.768L219.217 423.768L220.751 423.768L220.132 422.365L219.217 422.768ZM214.863 412.891L215.778 412.488L214.861 410.406L213.947 412.489L214.863 412.891ZM207.36 429.004L205.938 429.004L205.938 431.004L207.36 431.004L207.36 429.004ZM206.849 430.416L215.063 412.262L213.241 411.438L205.027 429.592L206.849 430.416ZM214.152 412.85L215.739 412.85L215.739 410.85L214.152 410.85L214.152 412.85ZM214.829 412.264L223.08 430.418L224.901 429.591L216.649 411.436L214.829 412.264ZM223.991 429.004L222.404 429.004L222.404 431.004L223.991 431.004L223.991 429.004ZM223.319 429.6L220.627 423.507L218.798 424.315L221.489 430.408L223.319 429.6ZM219.713 422.911L211.575 422.91L211.575 424.91L219.713 424.911L219.713 422.911ZM212.52 424.236L212.914 423.094L211.023 422.442L210.629 423.585L212.52 424.236ZM211.968 423.768L219.217 423.768L219.217 421.768L211.968 421.768L211.968 423.768ZM220.132 422.365L215.778 412.488L213.948 413.294L218.302 423.171L220.132 422.365ZM213.947 412.489L206.444 429.603L208.276 430.406L215.779 413.293L213.947 412.489ZM237.403 430.005L236.403 430.005L236.403 431.005L237.403 431.005L237.403 430.005ZM237.403 413.031L238.403 413.031L238.403 412.031L237.403 412.031L237.403 413.031ZM233.391 420.686L234.391 420.686L234.391 419.823L233.537 419.697L233.391 420.686ZM233.391 421.588L234.204 422.17L234.391 421.909L234.391 421.588L233.391 421.588ZM227.361 430.004L227.361 431.004L227.874 431.004L228.173 430.587L227.361 430.004ZM225.532 430.004L224.723 429.417L223.572 431.004L225.532 431.004L225.532 430.004ZM231.664 421.549L232.474 422.137L233.305 420.99L231.947 420.59L231.664 421.549ZM238.736 411.85L239.736 411.85L239.736 410.85L238.736 410.85L238.736 411.85ZM238.736 430.005L238.736 431.005L239.736 431.005L239.736 430.005L238.736 430.005ZM238.403 430.005L238.403 413.031L236.403 413.031L236.403 430.005L238.403 430.005ZM237.403 412.031L231.462 412.031L231.461 414.031L237.403 414.031L237.403 412.031ZM231.462 412.031C230.114 412.031 228.917 412.33 228.052 413.105C227.166 413.898 226.805 415.03 226.805 416.306L228.805 416.306C228.805 415.399 229.053 414.893 229.387 414.595C229.741 414.277 230.371 414.031 231.461 414.031L231.462 412.031ZM226.805 416.306C226.805 417.798 227.411 419.046 228.585 419.965C229.71 420.848 231.303 421.389 233.245 421.675L233.537 419.697C231.755 419.434 230.555 418.969 229.819 418.392C229.13 417.852 228.805 417.184 228.805 416.306L226.805 416.306ZM232.391 420.686L232.391 421.588L234.391 421.588L234.391 420.686L232.391 420.686ZM232.578 421.005L226.548 429.422L228.173 430.587L234.204 422.17L232.578 421.005ZM227.361 429.004L225.532 429.004L225.532 431.004L227.361 431.004L227.361 429.004ZM226.342 430.592L232.474 422.137L230.855 420.962L224.723 429.417L226.342 430.592ZM231.947 420.59C230.255 420.092 229.093 419.449 228.363 418.719C227.659 418.015 227.32 417.196 227.32 416.205L225.32 416.205C225.32 417.727 225.871 419.055 226.949 420.133C228.001 421.185 229.511 421.957 231.382 422.509L231.947 420.59ZM227.32 416.205C227.32 414.941 227.671 414.167 228.214 413.688C228.779 413.188 229.73 412.85 231.246 412.85L231.246 410.85C229.478 410.85 227.965 411.238 226.889 412.19C225.789 413.162 225.32 414.565 225.32 416.205L227.32 416.205ZM231.246 412.85L238.736 412.85L238.736 410.85L231.246 410.85L231.246 412.85ZM237.736 411.85L237.736 430.005L239.736 430.005L239.736 411.85L237.736 411.85ZM238.736 429.005L237.403 429.005L237.403 431.005L238.736 431.005L238.736 429.005ZM261.611 430.005L260.764 430.537L261.058 431.005L261.611 431.005L261.611 430.005ZM256.19 421.994L255.468 422.685L255.471 422.689L256.19 421.994ZM253.575 420.826L252.575 420.826L252.575 421.826L253.575 421.826L253.575 420.826ZM253.575 419.899L253.575 418.899L252.575 418.899L252.575 419.899L253.575 419.899ZM258.184 415.875L257.295 415.416L257.294 415.418L258.184 415.875ZM264.011 411.851L265.011 411.851L265.011 410.851L264.011 410.851L264.011 411.851ZM264.011 412.993L264.011 413.993L265.011 413.993L265.011 412.993L264.011 412.993ZM259.174 416.446L260.057 416.916L260.058 416.914L259.174 416.446ZM255.759 420.382L255.461 419.427L255.588 421.367L255.759 420.382ZM257.853 421.817L257.11 422.485L257.113 422.489L257.853 421.817ZM263.439 430.005L263.439 431.005L265.268 431.005L264.281 429.465L263.439 430.005ZM252.052 411.851L253.052 411.851L253.052 410.851L252.052 410.851L252.052 411.851ZM252.051 430.005L252.051 431.005L253.051 431.005L253.051 430.005L252.051 430.005ZM250.718 430.005L249.718 430.005L249.718 431.005L250.718 431.005L250.718 430.005ZM250.719 411.851L250.719 410.851L249.719 410.851L249.719 411.851L250.719 411.851ZM262.458 429.473C261.021 427.184 259.845 425.363 258.932 424.014C258.037 422.691 257.352 421.757 256.909 421.299L255.471 422.689C255.773 423.001 256.364 423.787 257.276 425.135C258.17 426.457 259.332 428.256 260.764 430.537L262.458 429.473ZM256.913 421.303C255.996 420.344 254.87 419.826 253.575 419.826L253.575 421.826C254.278 421.826 254.895 422.087 255.468 422.685L256.913 421.303ZM254.575 420.826L254.575 419.899L252.575 419.899L252.575 420.826L254.575 420.826ZM253.575 420.899C255.87 420.9 257.66 419.081 259.073 416.332L257.294 415.418C255.948 418.035 254.666 418.899 253.575 418.899L253.575 420.899ZM259.072 416.335C260.441 413.687 261.68 412.851 262.652 412.851L262.652 410.851C260.443 410.851 258.702 412.697 257.295 415.416L259.072 416.335ZM262.652 412.851L264.011 412.851L264.011 410.851L262.652 410.851L262.652 412.851ZM263.011 411.851L263.011 412.993L265.011 412.993L265.011 411.851L263.011 411.851ZM264.011 411.993L263.008 411.993L263.008 413.993L264.011 413.993L264.011 411.993ZM263.008 411.993C261.051 411.993 259.522 413.652 258.29 415.979L260.058 416.914C261.263 414.637 262.29 413.993 263.008 413.993L263.008 411.993ZM258.291 415.977C257.701 417.087 257.152 417.917 256.651 418.495C256.14 419.084 255.739 419.341 255.461 419.427L256.056 421.337C256.837 421.093 257.533 420.529 258.161 419.806C258.798 419.072 259.428 418.1 260.057 416.916L258.291 415.977ZM255.588 421.367C255.887 421.419 256.396 421.692 257.11 422.485L258.597 421.148C257.788 420.249 256.9 419.565 255.929 419.397L255.588 421.367ZM257.113 422.489C257.44 422.848 258.058 423.682 258.995 425.056C259.918 426.409 261.118 428.238 262.597 430.545L264.281 429.465C262.798 427.151 261.586 425.305 260.647 423.929C259.722 422.572 259.029 421.623 258.593 421.144L257.113 422.489ZM263.439 429.005L261.611 429.005L261.611 431.005L263.439 431.005L263.439 429.005ZM251.052 411.851L251.051 430.005L253.051 430.005L253.052 411.851L251.052 411.851ZM252.051 429.005L250.718 429.005L250.718 431.005L252.051 431.005L252.051 429.005ZM251.718 430.005L251.719 411.851L249.719 411.851L249.718 430.005L251.718 430.005ZM250.719 412.851L252.052 412.851L252.052 410.851L250.719 410.851L250.719 412.851ZM266.964 420.877C266.964 423.722 267.634 426.041 269.151 427.648C270.678 429.266 272.898 429.99 275.62 429.99L275.62 427.99C273.237 427.99 271.63 427.361 270.605 426.275C269.57 425.178 268.964 423.441 268.964 420.877L266.964 420.877ZM275.62 429.99C278.299 429.99 280.487 429.263 281.99 427.641C283.479 426.034 284.135 423.718 284.135 420.878L282.135 420.878C282.135 423.446 281.539 425.185 280.523 426.282C279.52 427.364 277.95 427.99 275.62 427.99L275.62 429.99ZM284.135 420.878C284.135 418.068 283.478 415.776 281.986 414.185C280.483 412.583 278.296 411.867 275.62 411.867L275.62 413.867C277.954 413.867 279.525 414.486 280.527 415.554C281.54 416.634 282.135 418.346 282.135 420.878L284.135 420.878ZM275.62 411.867C272.902 411.867 270.683 412.58 269.155 414.178C267.636 415.768 266.964 418.064 266.964 420.877L268.964 420.877C268.964 418.35 269.569 416.64 270.601 415.56C271.626 414.488 273.234 413.867 275.62 413.867L275.62 411.867ZM267.504 420.953C267.505 418.028 268.227 416.018 269.495 414.734C270.761 413.452 272.739 412.724 275.62 412.724L275.62 410.724C272.424 410.724 269.844 411.534 268.072 413.329C266.302 415.121 265.505 417.726 265.504 420.953L267.504 420.953ZM275.62 412.724C278.45 412.724 280.391 413.45 281.635 414.729C282.883 416.012 283.595 418.024 283.595 420.954L285.595 420.954C285.595 417.73 284.812 415.127 283.068 413.334C281.32 411.536 278.773 410.724 275.62 410.724L275.62 412.724ZM283.595 420.954C283.595 423.865 282.884 425.863 281.636 427.139C280.393 428.41 278.452 429.132 275.62 429.132L275.62 431.132C278.771 431.132 281.317 430.325 283.066 428.537C284.811 426.753 285.595 424.162 285.595 420.954L283.595 420.954ZM275.62 429.132C272.737 429.132 270.758 428.407 269.493 427.133C268.226 425.857 267.504 423.861 267.504 420.953L265.504 420.953C265.504 424.165 266.302 426.758 268.074 428.542C269.846 430.327 272.425 431.132 275.62 431.132L275.62 429.132ZM288.816 430.006L287.816 430.006L287.816 431.006L288.816 431.006L288.816 430.006ZM288.816 411.851L288.816 410.851L287.816 410.851L287.816 411.851L288.816 411.851ZM290.149 411.851L291.046 411.409L290.771 410.851L290.149 410.851L290.149 411.851ZM298.337 428.444L297.44 428.887L298.366 430.762L299.245 428.864L298.337 428.444ZM306.018 411.852L306.018 410.852L305.379 410.852L305.111 411.432L306.018 411.852ZM307.224 411.852L308.224 411.852L308.224 410.852L307.224 410.852L307.224 411.852ZM307.224 430.006L307.224 431.006L308.224 431.006L308.224 430.006L307.224 430.006ZM306.018 430.006L305.018 430.006L305.018 431.006L306.018 431.006L306.018 430.006ZM306.018 414.302L307.018 414.302L305.109 413.884L306.018 414.302ZM298.807 430.006L298.807 431.006L299.448 431.006L299.716 430.423L298.807 430.006ZM297.715 430.006L296.816 430.443L297.089 431.006L297.715 431.006L297.715 430.006ZM290.022 414.175L290.921 413.737L289.022 414.175L290.022 414.175ZM290.022 430.006L290.022 431.006L291.022 431.006L291.022 430.006L290.022 430.006ZM289.816 430.006L289.816 411.851L287.816 411.851L287.816 430.006L289.816 430.006ZM288.816 412.851L290.149 412.851L290.149 410.851L288.816 410.851L288.816 412.851ZM289.252 412.294L297.44 428.887L299.234 428.002L291.046 411.409L289.252 412.294ZM299.245 428.864L306.926 412.272L305.111 411.432L297.43 428.024L299.245 428.864ZM306.018 412.852L307.224 412.852L307.224 410.852L306.018 410.852L306.018 412.852ZM306.224 411.852L306.224 430.006L308.224 430.006L308.224 411.852L306.224 411.852ZM307.224 429.006L306.018 429.006L306.018 431.006L307.224 431.006L307.224 429.006ZM307.018 430.006L307.018 414.302L305.018 414.302L305.018 430.006L307.018 430.006ZM305.109 413.884L297.898 429.588L299.716 430.423L306.927 414.719L305.109 413.884ZM298.807 429.006L297.715 429.006L297.715 431.006L298.807 431.006L298.807 429.006ZM298.614 429.569L290.921 413.737L289.122 414.612L296.816 430.443L298.614 429.569ZM289.022 414.175L289.022 430.006L291.022 430.006L291.022 414.175L289.022 414.175ZM290.022 429.006L288.816 429.006L288.816 431.006L290.022 431.006L290.022 429.006ZM324.889 430.006L323.889 430.006L323.888 431.006L324.888 431.006L324.889 430.006ZM324.889 413.858L325.889 413.858L325.889 410.699L324.071 413.282L324.889 413.858ZM313.526 430.006L313.526 431.006L314.045 431.006L314.344 430.581L313.526 430.006ZM312.066 430.006L311.066 430.006L311.066 431.006L312.066 431.006L312.066 430.006ZM312.067 411.852L312.067 410.852L311.067 410.852L311.067 411.852L312.067 411.852ZM313.4 411.852L314.4 411.852L314.4 410.852L313.4 410.852L313.4 411.852ZM313.399 428L312.399 428L312.399 431.159L314.217 428.576L313.399 428ZM324.762 411.852L324.762 410.852L324.243 410.852L323.944 411.276L324.762 411.852ZM326.222 411.852L327.222 411.852L327.222 410.852L326.222 410.852L326.222 411.852ZM326.222 430.006L326.221 431.006L327.221 431.006L327.222 430.006L326.222 430.006ZM325.889 430.006L325.889 413.858L323.889 413.858L323.889 430.006L325.889 430.006ZM324.071 413.282L312.708 429.431L314.344 430.581L325.707 414.433L324.071 413.282ZM313.526 429.006L312.066 429.006L312.066 431.006L313.526 431.006L313.526 429.006ZM313.066 430.006L313.067 411.852L311.067 411.852L311.066 430.006L313.066 430.006ZM312.067 412.852L313.4 412.852L313.4 410.852L312.067 410.852L312.067 412.852ZM312.4 411.852L312.399 428L314.399 428L314.4 411.852L312.4 411.852ZM314.217 428.576L325.58 412.427L323.944 411.276L312.581 427.425L314.217 428.576ZM324.762 412.852L326.222 412.852L326.222 410.852L324.762 410.852L324.762 412.852ZM325.222 411.852L325.222 430.006L327.222 430.006L327.222 411.852L325.222 411.852ZM326.222 429.006L324.889 429.006L324.888 431.006L326.221 431.006L326.222 429.006ZM345.042 429.372L345.336 430.328L346.042 430.11L346.042 429.372L345.042 429.372ZM345.042 412.487L346.042 412.487L346.042 411.749L345.336 411.531L345.042 412.487ZM345.042 413.63L344.748 414.585L346.042 414.984L346.042 413.63L345.042 413.63ZM345.042 428.229L346.042 428.229L346.042 426.875L344.748 427.273L345.042 428.229ZM344.748 428.416C343.193 428.894 341.599 429.133 339.963 429.133L339.963 431.133C341.798 431.133 343.59 430.865 345.336 430.328L344.748 428.416ZM339.963 429.133C336.942 429.133 334.86 428.384 333.527 427.059C332.195 425.736 331.442 423.672 331.442 420.675L329.442 420.675C329.442 423.984 330.276 426.648 332.118 428.478C333.958 430.307 336.637 431.133 339.963 431.133L339.963 429.133ZM331.442 420.675C331.442 417.862 332.187 415.932 333.508 414.691C334.839 413.439 336.929 412.725 339.964 412.725L339.964 410.725C336.651 410.725 333.98 411.503 332.138 413.234C330.284 414.976 329.442 417.521 329.442 420.675L331.442 420.675ZM339.964 412.725C341.6 412.725 343.193 412.964 344.748 413.443L345.336 411.531C343.59 410.994 341.798 410.725 339.964 410.725L339.964 412.725ZM344.042 412.487L344.042 413.63L346.042 413.63L346.042 412.487L344.042 412.487ZM345.336 412.674C343.6 412.14 341.893 411.868 340.218 411.868L340.218 413.868C341.674 413.868 343.183 414.104 344.748 414.585L345.336 412.674ZM340.218 411.868C337.268 411.868 334.869 412.548 333.207 414.085C331.53 415.636 330.775 417.898 330.775 420.675L332.775 420.675C332.775 418.248 333.428 416.605 334.565 415.554C335.717 414.489 337.539 413.868 340.218 413.868L340.218 411.868ZM330.775 420.675C330.775 423.605 331.52 425.985 333.184 427.624C334.845 429.261 337.253 429.991 340.217 429.991L340.217 427.991C337.554 427.991 335.74 427.335 334.587 426.199C333.437 425.067 332.775 423.289 332.775 420.675L330.775 420.675ZM340.217 429.991C341.892 429.991 343.6 429.719 345.336 429.185L344.748 427.273C343.183 427.755 341.674 427.991 340.217 427.991L340.217 429.991ZM344.042 428.229L344.042 429.372L346.042 429.372L346.042 428.229L344.042 428.229ZM363.671 429.372L363.965 430.328L364.671 430.111L364.671 429.372L363.671 429.372ZM363.671 412.487L364.671 412.487L364.671 411.749L363.966 411.532L363.671 412.487ZM363.671 413.63L363.377 414.586L364.671 414.984L364.671 413.63L363.671 413.63ZM363.671 428.23L364.671 428.23L364.671 426.876L363.377 427.274L363.671 428.23ZM363.377 428.416C361.822 428.895 360.229 429.134 358.593 429.134L358.593 431.134C360.427 431.134 362.219 430.865 363.965 430.328L363.377 428.416ZM358.593 429.134C355.572 429.134 353.49 428.384 352.157 427.06C350.825 425.737 350.072 423.672 350.072 420.676L348.072 420.676C348.072 423.984 348.905 426.649 350.747 428.479C352.588 430.307 355.267 431.134 358.593 431.134L358.593 429.134ZM350.072 420.676C350.072 417.863 350.817 415.933 352.137 414.692C353.469 413.44 355.559 412.726 358.593 412.726L358.593 410.726C355.28 410.726 352.609 411.503 350.767 413.234C348.914 414.977 348.072 417.522 348.072 420.676L350.072 420.676ZM358.593 412.726C360.229 412.726 361.823 412.965 363.377 413.443L363.966 411.532C362.219 410.994 360.428 410.726 358.593 410.726L358.593 412.726ZM362.671 412.487L362.671 413.63L364.671 413.63L364.671 412.487L362.671 412.487ZM363.966 412.674C362.23 412.14 360.522 411.868 358.847 411.868L358.847 413.868C360.304 413.868 361.813 414.104 363.377 414.586L363.966 412.674ZM358.847 411.868C355.898 411.868 353.499 412.548 351.836 414.086C350.159 415.637 349.405 417.898 349.405 420.676L351.405 420.676C351.405 418.248 352.057 416.606 353.194 415.554C354.346 414.489 356.169 413.868 358.847 413.868L358.847 411.868ZM349.405 420.676C349.405 423.605 350.149 425.986 351.813 427.625C353.475 429.261 355.882 429.991 358.847 429.991L358.847 427.991C356.183 427.991 354.37 427.335 353.217 426.2C352.067 425.067 351.405 423.289 351.405 420.676L349.405 420.676ZM358.847 429.991C360.522 429.991 362.229 429.719 363.965 429.185L363.377 427.274C361.812 427.755 360.303 427.991 358.847 427.991L358.847 429.991ZM362.671 428.23L362.671 429.372L364.671 429.372L364.671 428.23L362.671 428.23ZM381.158 430.007L380.158 430.007L380.158 431.007L381.158 431.007L381.158 430.007ZM381.159 413.859L382.159 413.859L382.159 410.7L380.341 413.283L381.159 413.859ZM369.796 430.007L369.796 431.007L370.315 431.007L370.614 430.582L369.796 430.007ZM368.336 430.007L367.336 430.007L367.336 431.007L368.336 431.007L368.336 430.007ZM368.336 411.853L368.336 410.853L367.336 410.853L367.336 411.853L368.336 411.853ZM369.669 411.853L370.669 411.853L370.669 410.853L369.669 410.853L369.669 411.853ZM369.669 428.001L368.669 428.001L368.669 431.16L370.487 428.577L369.669 428.001ZM381.032 411.853L381.032 410.853L380.513 410.853L380.214 411.277L381.032 411.853ZM382.492 411.853L383.492 411.853L383.492 410.853L382.492 410.853L382.492 411.853ZM382.491 430.007L382.491 431.007L383.491 431.007L383.491 430.007L382.491 430.007ZM382.158 430.007L382.159 413.859L380.159 413.859L380.158 430.007L382.158 430.007ZM380.341 413.283L368.978 429.432L370.614 430.582L381.976 414.434L380.341 413.283ZM369.796 429.007L368.336 429.007L368.336 431.007L369.796 431.007L369.796 429.007ZM369.336 430.007L369.336 411.853L367.336 411.853L367.336 430.007L369.336 430.007ZM368.336 412.853L369.669 412.853L369.669 410.853L368.336 410.853L368.336 412.853ZM368.669 411.853L368.669 428.001L370.669 428.001L370.669 411.853L368.669 411.853ZM370.487 428.577L381.849 412.428L380.214 411.277L368.851 427.426L370.487 428.577ZM381.032 412.853L382.492 412.853L382.492 410.853L381.032 410.853L381.032 412.853ZM381.492 411.853L381.491 430.007L383.491 430.007L383.492 411.853L381.492 411.853ZM382.491 429.007L381.158 429.007L381.158 431.007L382.491 431.007L382.491 429.007ZM397.503 430.008L396.503 430.008L396.503 431.008L397.503 431.008L397.503 430.008ZM397.503 413.034L398.503 413.034L398.503 412.034L397.503 412.034L397.503 413.034ZM393.491 420.689L394.491 420.689L394.491 419.826L393.637 419.7L393.491 420.689ZM393.491 421.59L394.304 422.173L394.491 421.912L394.491 421.59L393.491 421.59ZM387.461 430.007L387.461 431.007L387.974 431.007L388.274 430.59L387.461 430.007ZM385.633 430.007L384.823 429.42L383.672 431.007L385.633 431.007L385.633 430.007ZM391.765 421.552L392.574 422.139L393.405 420.993L392.047 420.593L391.765 421.552ZM398.836 411.853L399.836 411.853L399.836 410.853L398.836 410.853L398.836 411.853ZM398.836 430.008L398.836 431.008L399.836 431.008L399.836 430.008L398.836 430.008ZM398.503 430.008L398.503 413.034L396.503 413.034L396.503 430.008L398.503 430.008ZM397.503 412.034L391.562 412.034L391.562 414.034L397.503 414.034L397.503 412.034ZM391.562 412.034C390.214 412.034 389.017 412.333 388.152 413.108C387.266 413.901 386.905 415.033 386.905 416.309L388.905 416.309C388.905 415.402 389.153 414.896 389.487 414.597C389.841 414.28 390.471 414.034 391.562 414.034L391.562 412.034ZM386.905 416.309C386.905 417.801 387.511 419.048 388.685 419.968C389.81 420.851 391.403 421.391 393.345 421.678L393.637 419.7C391.855 419.437 390.655 418.972 389.919 418.395C389.23 417.854 388.905 417.187 388.905 416.309L386.905 416.309ZM392.491 420.689L392.491 421.59L394.491 421.59L394.491 420.689L392.491 420.689ZM392.678 421.008L386.648 429.425L388.274 430.59L394.304 422.173L392.678 421.008ZM387.461 429.007L385.633 429.007L385.633 431.007L387.461 431.007L387.461 429.007ZM386.442 430.594L392.574 422.139L390.955 420.965L384.823 429.42L386.442 430.594ZM392.047 420.593C390.355 420.095 389.193 419.452 388.463 418.722C387.759 418.018 387.42 417.198 387.42 416.208L385.42 416.208C385.42 417.73 385.971 419.058 387.049 420.136C388.101 421.188 389.611 421.96 391.482 422.512L392.047 420.593ZM387.42 416.208C387.42 414.944 387.772 414.17 388.314 413.691C388.879 413.191 389.83 412.853 391.346 412.853L391.346 410.853C389.578 410.853 388.065 411.241 386.989 412.192C385.889 413.165 385.42 414.568 385.42 416.208L387.42 416.208ZM391.346 412.853L398.836 412.853L398.836 410.853L391.346 410.853L391.346 412.853ZM397.836 411.853L397.836 430.008L399.836 430.008L399.836 411.853L397.836 411.853ZM398.836 429.008L397.503 429.008L397.503 431.008L398.836 431.008L398.836 429.008ZM100.826 458.367L101.12 459.323L101.826 459.106L101.826 458.367L100.826 458.367ZM100.827 441.483L101.827 441.483L101.827 440.744L101.121 440.527L100.827 441.483ZM100.827 442.625L100.533 443.581L101.827 443.979L101.827 442.625L100.827 442.625ZM100.826 457.225L101.826 457.225L101.826 455.871L100.532 456.269L100.826 457.225ZM100.532 457.412C98.9777 457.89 97.3841 458.129 95.7483 458.129L95.7482 460.129C97.5825 460.129 99.3743 459.86 101.12 459.323L100.532 457.412ZM95.7483 458.129C92.7269 458.129 90.6449 457.379 89.3119 456.055C87.9802 454.732 87.2269 452.668 87.227 449.671L85.227 449.671C85.2269 452.979 86.0604 455.644 87.9024 457.474C89.7432 459.302 92.422 460.129 95.7482 460.129L95.7483 458.129ZM87.227 449.671C87.227 446.858 87.9722 444.928 89.2923 443.687C90.6241 442.435 92.714 441.721 95.7486 441.721L95.7486 439.721C92.4355 439.721 89.7646 440.498 87.9225 442.23C86.0688 443.972 85.227 446.517 85.227 449.671L87.227 449.671ZM95.7486 441.721C97.3844 441.721 98.978 441.96 100.533 442.438L101.121 440.527C99.3747 439.99 97.5828 439.721 95.7486 439.721L95.7486 441.721ZM99.8267 441.483L99.8267 442.625L101.827 442.625L101.827 441.483L99.8267 441.483ZM101.121 441.669C99.3848 441.135 97.6776 440.863 96.0025 440.863L96.0025 442.863C97.4589 442.863 98.9678 443.099 100.533 443.581L101.121 441.669ZM96.0025 440.863C93.0528 440.863 90.6541 441.544 88.9917 443.081C87.3146 444.632 86.56 446.893 86.56 449.671L88.56 449.671C88.56 447.243 89.2126 445.601 90.3496 444.549C91.5014 443.484 93.3239 442.863 96.0025 442.863L96.0025 440.863ZM86.56 449.671C86.5599 452.601 87.3047 454.981 88.9687 456.62C90.6299 458.256 93.0377 458.986 96.0022 458.986L96.0022 456.986C93.3384 456.986 91.5251 456.331 90.3722 455.195C89.2221 454.062 88.5599 452.285 88.56 449.671L86.56 449.671ZM96.0022 458.986C97.6773 458.986 99.3845 458.715 101.12 458.181L100.532 456.269C98.9675 456.751 97.4586 456.986 96.0022 456.986L96.0022 458.986ZM99.8264 457.225L99.8264 458.367L101.826 458.367L101.826 457.225L99.8264 457.225ZM105.491 459.002L104.491 459.002L104.491 460.002L105.491 460.002L105.491 459.002ZM105.491 440.848L105.492 439.848L104.492 439.848L104.491 440.848L105.491 440.848ZM116.321 440.848L117.321 440.848L117.321 439.848L116.321 439.848L116.321 440.848ZM116.321 441.991L116.321 442.991L117.321 442.991L117.321 441.991L116.321 441.991ZM106.824 441.991L106.824 440.991L105.824 440.991L105.824 441.991L106.824 441.991ZM106.824 459.002L106.824 460.002L107.824 460.002L107.824 459.002L106.824 459.002ZM106.491 459.002L106.491 440.848L104.491 440.848L104.491 459.002L106.491 459.002ZM105.491 441.848L116.321 441.848L116.321 439.848L105.492 439.848L105.491 441.848ZM115.321 440.848L115.321 441.991L117.321 441.991L117.321 440.848L115.321 440.848ZM116.321 440.991L106.824 440.991L106.824 442.991L116.321 442.991L116.321 440.991ZM105.824 441.991L105.824 459.002L107.824 459.002L107.824 441.991L105.824 441.991ZM106.824 458.002L105.491 458.002L105.491 460.002L106.824 460.002L106.824 458.002ZM130.888 440.848L131.888 440.848L131.888 439.848L130.888 439.848L130.888 440.848ZM130.888 441.991L130.888 442.991L131.888 442.991L131.888 441.991L130.888 441.991ZM124.667 441.991L124.667 440.991L123.667 440.991L123.667 441.991L124.667 441.991ZM124.667 459.003L124.667 460.003L125.667 460.003L125.667 459.003L124.667 459.003ZM123.334 459.003L122.334 459.003L122.334 460.003L123.334 460.003L123.334 459.003ZM123.334 441.991L124.334 441.991L124.334 440.991L123.334 440.991L123.334 441.991ZM117.24 441.991L116.24 441.991L116.24 442.991L117.24 442.991L117.24 441.991ZM117.24 440.848L117.24 439.848L116.24 439.848L116.24 440.848L117.24 440.848ZM129.888 440.848L129.888 441.991L131.888 441.991L131.888 440.848L129.888 440.848ZM130.888 440.991L124.667 440.991L124.667 442.991L130.888 442.991L130.888 440.991ZM123.667 441.991L123.667 459.003L125.667 459.003L125.667 441.991L123.667 441.991ZM124.667 458.003L123.334 458.003L123.334 460.003L124.667 460.003L124.667 458.003ZM124.334 459.003L124.334 441.991L122.334 441.991L122.334 459.003L124.334 459.003ZM123.334 440.991L117.24 440.991L117.24 442.991L123.334 442.991L123.334 440.991ZM118.24 441.991L118.24 440.848L116.24 440.848L116.24 441.991L118.24 441.991ZM117.24 441.848L130.888 441.848L130.888 439.848L117.24 439.848L117.24 441.848ZM148.083 440.849L149.003 441.239L149.593 439.849L148.083 439.849L148.083 440.849ZM141.824 455.601L142.744 455.992L142.744 455.991L141.824 455.601ZM133.889 458.114L132.889 458.114L132.889 458.658L133.345 458.953L133.889 458.114ZM133.889 456.972L134.44 456.137L132.889 455.113L132.889 456.972L133.889 456.972ZM140.364 455.562L141.308 455.891L141.453 455.476L141.244 455.088L140.364 455.562ZM132.442 440.848L132.442 439.848L130.768 439.848L131.562 441.322L132.442 440.848ZM133.902 440.848L134.784 440.377L134.501 439.848L133.902 439.848L133.902 440.848ZM141.1 454.306L140.218 454.777L141.216 456.643L142.024 454.688L141.1 454.306ZM146.661 440.849L146.661 439.849L145.992 439.849L145.737 440.467L146.661 440.849ZM147.162 440.458L140.903 455.21L142.744 455.991L149.003 441.239L147.162 440.458ZM140.903 455.209C140.478 456.209 139.932 456.892 139.298 457.329C138.668 457.763 137.88 458.003 136.885 458.003L136.885 460.003C138.217 460.003 139.417 459.676 140.433 458.976C141.445 458.278 142.204 457.26 142.744 455.992L140.903 455.209ZM136.885 458.003C135.996 458.003 135.186 457.763 134.433 457.275L133.345 458.953C134.42 459.65 135.608 460.003 136.885 460.003L136.885 458.003ZM134.889 458.114L134.889 456.972L132.889 456.972L132.889 458.114L134.889 458.114ZM133.338 457.806C134.399 458.506 135.576 458.86 136.847 458.86L136.847 456.86C135.968 456.86 135.174 456.622 134.44 456.137L133.338 457.806ZM136.847 458.86C137.891 458.86 138.841 458.639 139.632 458.123C140.431 457.601 140.981 456.831 141.308 455.891L139.419 455.234C139.213 455.825 138.91 456.205 138.538 456.449C138.156 456.698 137.615 456.86 136.847 456.86L136.847 458.86ZM141.244 455.088L133.323 440.374L131.562 441.322L139.483 456.037L141.244 455.088ZM132.442 441.848L133.902 441.848L133.902 439.848L132.442 439.848L132.442 441.848ZM133.02 441.32L140.218 454.777L141.982 453.834L134.784 440.377L133.02 441.32ZM142.024 454.688L147.585 441.231L145.737 440.467L140.176 453.924L142.024 454.688ZM146.661 441.849L148.083 441.849L148.083 439.849L146.661 439.849L146.661 441.849ZM171.174 459.003L170.174 459.003L170.174 460.003L171.174 460.003L171.174 459.003ZM171.174 442.855L172.174 442.855L172.174 439.696L170.356 442.28L171.174 442.855ZM159.811 459.003L159.811 460.003L160.33 460.003L160.629 459.579L159.811 459.003ZM158.351 459.003L157.351 459.003L157.351 460.003L158.351 460.003L158.351 459.003ZM158.352 440.849L158.352 439.849L157.352 439.849L157.352 440.849L158.352 440.849ZM159.685 440.849L160.685 440.849L160.685 439.849L159.685 439.849L159.685 440.849ZM159.684 456.997L158.684 456.997L158.684 460.156L160.502 457.573L159.684 456.997ZM171.047 440.849L171.047 439.849L170.528 439.849L170.229 440.274L171.047 440.849ZM172.507 440.849L173.507 440.849L173.507 439.849L172.507 439.849L172.507 440.849ZM172.507 459.003L172.507 460.003L173.507 460.003L173.507 459.003L172.507 459.003ZM172.174 459.003L172.174 442.855L170.174 442.855L170.174 459.003L172.174 459.003ZM170.356 442.28L158.994 458.428L160.629 459.579L171.992 443.43L170.356 442.28ZM159.811 458.003L158.351 458.003L158.351 460.003L159.811 460.003L159.811 458.003ZM159.351 459.003L159.352 440.849L157.352 440.849L157.351 459.003L159.351 459.003ZM158.352 441.849L159.685 441.849L159.685 439.849L158.352 439.849L158.352 441.849ZM158.685 440.849L158.684 456.997L160.684 456.997L160.685 440.849L158.685 440.849ZM160.502 457.573L171.865 441.425L170.229 440.274L158.867 456.422L160.502 457.573ZM171.047 441.849L172.507 441.849L172.507 439.849L171.047 439.849L171.047 441.849ZM171.507 440.849L171.507 459.003L173.507 459.003L173.507 440.849L171.507 440.849ZM172.507 458.003L171.174 458.003L171.174 460.003L172.507 460.003L172.507 458.003ZM177.362 459.004L176.362 459.004L176.362 460.004L177.362 460.004L177.362 459.004ZM177.362 440.849L177.362 439.849L176.362 439.849L176.362 440.849L177.362 440.849ZM178.695 440.849L179.592 440.407L179.317 439.849L178.695 439.849L178.695 440.849ZM186.883 457.442L185.987 457.885L186.912 459.76L187.791 457.862L186.883 457.442ZM194.564 440.85L194.564 439.85L193.925 439.85L193.657 440.429L194.564 440.85ZM195.77 440.85L196.77 440.85L196.77 439.85L195.77 439.85L195.77 440.85ZM195.77 459.004L195.77 460.004L196.77 460.004L196.77 459.004L195.77 459.004ZM194.564 459.004L193.564 459.004L193.564 460.004L194.564 460.004L194.564 459.004ZM194.564 443.3L195.564 443.3L193.656 442.882L194.564 443.3ZM187.353 459.004L187.353 460.004L187.994 460.004L188.262 459.421L187.353 459.004ZM186.261 459.004L185.362 459.441L185.635 460.004L186.261 460.004L186.261 459.004ZM178.568 443.173L179.468 442.735L177.568 443.173L178.568 443.173ZM178.568 459.004L178.568 460.004L179.568 460.004L179.568 459.004L178.568 459.004ZM178.362 459.004L178.362 440.849L176.362 440.849L176.362 459.004L178.362 459.004ZM177.362 441.849L178.695 441.849L178.695 439.849L177.362 439.849L177.362 441.849ZM177.798 441.292L185.987 457.885L187.78 457L179.592 440.407L177.798 441.292ZM187.791 457.862L195.472 441.27L193.657 440.429L185.976 457.022L187.791 457.862ZM194.564 441.85L195.77 441.85L195.77 439.85L194.564 439.85L194.564 441.85ZM194.77 440.85L194.77 459.004L196.77 459.004L196.77 440.85L194.77 440.85ZM195.77 458.004L194.564 458.004L194.564 460.004L195.77 460.004L195.77 458.004ZM195.564 459.004L195.564 443.3L193.564 443.3L193.564 459.004L195.564 459.004ZM193.656 442.882L186.444 458.586L188.262 459.421L195.473 443.717L193.656 442.882ZM187.353 458.004L186.261 458.004L186.261 460.004L187.353 460.004L187.353 458.004ZM187.161 458.567L179.468 442.735L177.669 443.61L185.362 459.441L187.161 458.567ZM177.568 443.173L177.568 459.004L179.568 459.004L179.568 443.173L177.568 443.173ZM178.568 458.004L177.362 458.004L177.362 460.004L178.568 460.004L178.568 458.004ZM201.692 457.417L202.692 457.417L202.692 456.417L201.692 456.417L201.692 457.417ZM201.692 459.004L201.692 460.004L202.692 460.004L202.692 459.004L201.692 459.004ZM199.978 459.004L198.978 459.004L198.978 460.004L199.978 460.004L199.978 459.004ZM199.978 457.417L199.978 456.417L198.978 456.417L198.978 457.417L199.978 457.417ZM200.692 457.417L200.692 459.004L202.692 459.004L202.692 457.417L200.692 457.417ZM201.692 458.004L199.978 458.004L199.978 460.004L201.692 460.004L201.692 458.004ZM200.978 459.004L200.978 457.417L198.978 457.417L198.978 459.004L200.978 459.004ZM199.978 458.417L201.692 458.417L201.692 456.417L199.978 456.417L199.978 458.417ZM213.04 459.004L212.04 459.004L212.04 460.004L213.04 460.004L213.04 459.004ZM213.04 440.85L213.04 439.85L212.04 439.85L212.04 440.85L213.04 440.85ZM223.869 440.85L224.869 440.85L224.869 439.85L223.869 439.85L223.869 440.85ZM223.869 441.993L223.869 442.993L224.869 442.993L224.869 441.993L223.869 441.993ZM214.373 441.993L214.373 440.993L213.373 440.992L213.373 441.992L214.373 441.993ZM214.373 459.004L214.373 460.004L215.373 460.004L215.373 459.004L214.373 459.004ZM214.04 459.004L214.04 440.85L212.04 440.85L212.04 459.004L214.04 459.004ZM213.04 441.85L223.869 441.85L223.869 439.85L213.04 439.85L213.04 441.85ZM222.869 440.85L222.869 441.993L224.869 441.993L224.869 440.85L222.869 440.85ZM223.869 440.993L214.373 440.993L214.373 442.993L223.869 442.993L223.869 440.993ZM213.373 441.992L213.373 459.004L215.373 459.004L215.373 441.993L213.373 441.992ZM214.373 458.004L213.04 458.004L213.04 460.004L214.373 460.004L214.373 458.004ZM226.528 459.004L226.528 460.004L227.181 460.004L227.444 459.406L226.528 459.004ZM225.106 459.004L224.195 458.592L223.556 460.004L225.106 460.004L225.106 459.004ZM233.32 440.85L233.32 439.85L232.675 439.85L232.409 440.438L233.32 440.85ZM234.907 440.85L235.817 440.437L235.551 439.85L234.907 439.85L234.907 440.85ZM243.159 459.005L243.159 460.005L244.712 460.005L244.069 458.591L243.159 459.005ZM241.572 459.005L240.657 459.409L240.92 460.005L241.572 460.005L241.572 459.005ZM238.88 452.911L239.795 452.507L239.532 451.911L238.88 451.911L238.88 452.911ZM230.743 452.911L229.797 452.585L229.341 453.911L230.743 453.911L230.743 452.911ZM231.136 451.768L231.136 450.768L230.423 450.768L230.191 451.443L231.136 451.768ZM238.385 451.768L238.385 452.768L239.919 452.768L239.3 451.365L238.385 451.768ZM234.031 441.891L234.946 441.488L234.028 439.407L233.115 441.49L234.031 441.891ZM226.528 458.004L225.106 458.004L225.106 460.004L226.528 460.004L226.528 458.004ZM226.017 459.417L234.231 441.263L232.409 440.438L224.195 458.592L226.017 459.417ZM233.32 441.85L234.907 441.85L234.907 439.85L233.32 439.85L233.32 441.85ZM233.997 441.264L242.248 459.419L244.069 458.591L235.817 440.437L233.997 441.264ZM243.159 458.005L241.572 458.005L241.572 460.005L243.159 460.005L243.159 458.005ZM242.486 458.601L239.795 452.507L237.966 453.315L240.657 459.409L242.486 458.601ZM238.88 451.911L230.743 451.911L230.743 453.911L238.88 453.911L238.88 451.911ZM231.688 453.236L232.082 452.094L230.191 451.443L229.797 452.585L231.688 453.236ZM231.136 452.768L238.385 452.768L238.385 450.768L231.136 450.768L231.136 452.768ZM239.3 451.365L234.946 441.488L233.116 442.295L237.47 452.172L239.3 451.365ZM233.115 441.49L225.612 458.603L227.444 459.406L234.947 442.293L233.115 441.49ZM246.414 459.005L245.414 459.005L245.414 460.005L246.414 460.005L246.414 459.005ZM246.415 440.851L246.415 439.851L245.415 439.85L245.415 440.85L246.415 440.851ZM257.244 440.851L258.244 440.851L258.244 439.851L257.244 439.851L257.244 440.851ZM257.244 441.993L257.244 442.993L258.244 442.993L258.244 441.993L257.244 441.993ZM247.748 441.993L247.748 440.993L246.748 440.993L246.748 441.993L247.748 441.993ZM247.747 459.005L247.747 460.005L248.747 460.005L248.747 459.005L247.747 459.005ZM247.414 459.005L247.415 440.851L245.415 440.85L245.414 459.005L247.414 459.005ZM246.415 441.851L257.244 441.851L257.244 439.851L246.415 439.851L246.415 441.851ZM256.244 440.851L256.244 441.993L258.244 441.993L258.244 440.851L256.244 440.851ZM257.244 440.993L247.748 440.993L247.748 442.993L257.244 442.993L257.244 440.993ZM246.748 441.993L246.747 459.005L248.747 459.005L248.748 441.993L246.748 441.993ZM247.747 458.005L246.414 458.005L246.414 460.005L247.747 460.005L247.747 458.005ZM259.902 459.005L259.902 460.005L260.556 460.005L260.818 459.407L259.902 459.005ZM258.48 459.005L257.569 458.593L256.93 460.005L258.48 460.005L258.48 459.005ZM266.695 440.851L266.695 439.851L266.049 439.851L265.783 440.439L266.695 440.851ZM268.281 440.851L269.192 440.437L268.925 439.851L268.281 439.851L268.281 440.851ZM276.533 459.005L276.533 460.005L278.086 460.005L277.443 458.592L276.533 459.005ZM274.946 459.005L274.031 459.409L274.295 460.005L274.946 460.005L274.946 459.005ZM272.255 452.912L273.17 452.508L272.906 451.912L272.255 451.912L272.255 452.912ZM264.117 452.911L263.172 452.586L262.715 453.911L264.117 453.911L264.117 452.911ZM264.511 451.769L264.511 450.769L263.798 450.769L263.565 451.443L264.511 451.769ZM271.76 451.769L271.76 452.769L273.293 452.769L272.675 451.366L271.76 451.769ZM267.405 441.892L268.32 441.489L267.403 439.407L266.49 441.49L267.405 441.892ZM259.902 458.005L258.48 458.005L258.48 460.005L259.902 460.005L259.902 458.005ZM259.391 459.417L267.606 441.263L265.783 440.439L257.569 458.593L259.391 459.417ZM266.695 441.851L268.281 441.851L268.281 439.851L266.695 439.851L266.695 441.851ZM267.371 441.265L275.623 459.419L277.443 458.592L269.192 440.437L267.371 441.265ZM276.533 458.005L274.946 458.005L274.946 460.005L276.533 460.005L276.533 458.005ZM275.861 458.601L273.17 452.508L271.34 453.316L274.031 459.409L275.861 458.601ZM272.255 451.912L264.117 451.911L264.117 453.911L272.255 453.912L272.255 451.912ZM265.063 453.237L265.456 452.094L263.565 451.443L263.172 452.586L265.063 453.237ZM264.511 452.769L271.76 452.769L271.76 450.769L264.511 450.769L264.511 452.769ZM272.675 451.366L268.32 441.489L266.49 442.295L270.845 452.172L272.675 451.366ZM266.49 441.49L258.986 458.604L260.818 459.407L268.321 442.293L266.49 441.49ZM279.789 459.005L278.789 459.005L278.789 460.005L279.789 460.005L279.789 459.005ZM279.789 440.851L279.789 439.851L278.789 439.851L278.789 440.851L279.789 440.851ZM284.219 452.099L283.237 452.284L283.416 453.239L284.376 453.087L284.219 452.099ZM283.991 450.88L283.854 449.89L282.815 450.034L283.008 451.065L283.991 450.88ZM281.122 442.032L281.122 441.032L280.122 441.032L280.122 442.032L281.122 442.032ZM281.122 459.005L281.122 460.005L282.122 460.005L282.122 459.005L281.122 459.005ZM280.789 459.005L280.789 440.851L278.789 440.851L278.789 459.005L280.789 459.005ZM279.789 441.851L287.406 441.851L287.406 439.851L279.789 439.851L279.789 441.851ZM287.406 441.851C289.036 441.851 290.072 442.236 290.701 442.827C291.319 443.408 291.713 444.348 291.713 445.841L293.713 445.841C293.713 444.007 293.222 442.452 292.071 441.37C290.932 440.299 289.314 439.851 287.406 439.851L287.406 441.851ZM291.713 445.841C291.713 447.134 291.178 448.186 289.996 449.057C288.766 449.963 286.824 450.674 284.063 451.112L284.376 453.087C287.277 452.627 289.581 451.847 291.183 450.667C292.832 449.451 293.713 447.822 293.713 445.841L291.713 445.841ZM285.202 451.915L284.974 450.696L283.008 451.065L283.237 452.284L285.202 451.915ZM284.128 451.871C286.604 451.528 288.59 450.92 289.982 449.97C291.425 448.986 292.227 447.626 292.227 445.942L290.227 445.942C290.227 446.882 289.824 447.657 288.855 448.319C287.834 449.015 286.202 449.564 283.854 449.89L284.128 451.871ZM292.227 445.942C292.227 444.476 291.847 443.195 290.914 442.291C289.986 441.393 288.682 441.032 287.19 441.032L287.19 443.032C288.39 443.032 289.104 443.323 289.522 443.728C289.935 444.127 290.227 444.801 290.227 445.942L292.227 445.942ZM287.19 441.032L281.122 441.032L281.122 443.032L287.19 443.032L287.19 441.032ZM280.122 442.032L280.122 459.005L282.122 459.005L282.122 442.032L280.122 442.032ZM281.122 458.005L279.789 458.005L279.789 460.005L281.122 460.005L281.122 458.005ZM309.438 459.006L308.438 459.006L308.438 460.006L309.438 460.006L309.438 459.006ZM309.438 442.858L310.438 442.858L310.438 439.699L308.62 442.282L309.438 442.858ZM298.075 459.006L298.075 460.006L298.595 460.006L298.893 459.581L298.075 459.006ZM296.616 459.006L295.616 459.006L295.615 460.006L296.615 460.006L296.616 459.006ZM296.616 440.851L296.616 439.851L295.616 439.851L295.616 440.851L296.616 440.851ZM297.949 440.851L298.949 440.851L298.949 439.851L297.949 439.851L297.949 440.851ZM297.949 457L296.949 457L296.949 460.159L298.766 457.575L297.949 457ZM309.311 440.852L309.311 439.852L308.792 439.852L308.493 440.276L309.311 440.852ZM310.771 440.852L311.771 440.852L311.771 439.852L310.771 439.852L310.771 440.852ZM310.771 459.006L310.771 460.006L311.771 460.006L311.771 459.006L310.771 459.006ZM310.438 459.006L310.438 442.858L308.438 442.857L308.438 459.006L310.438 459.006ZM308.62 442.282L297.258 458.43L298.893 459.581L310.256 443.433L308.62 442.282ZM298.075 458.006L296.616 458.006L296.615 460.006L298.075 460.006L298.075 458.006ZM297.616 459.006L297.616 440.851L295.616 440.851L295.616 459.006L297.616 459.006ZM296.616 441.851L297.949 441.851L297.949 439.851L296.616 439.851L296.616 441.851ZM296.949 440.851L296.949 457L298.949 457L298.949 440.851L296.949 440.851ZM298.766 457.575L310.129 441.427L308.493 440.276L297.131 456.424L298.766 457.575ZM309.311 441.852L310.771 441.852L310.771 439.852L309.311 439.852L309.311 441.852ZM309.771 440.852L309.771 459.006L311.771 459.006L311.771 440.852L309.771 440.852ZM310.771 458.006L309.438 458.006L309.438 460.006L310.771 460.006L310.771 458.006ZM315.626 459.006L314.626 459.006L314.626 460.006L315.626 460.006L315.626 459.006ZM315.626 440.852L315.626 439.852L314.626 439.852L314.626 440.852L315.626 440.852ZM316.959 440.852L317.959 440.852L317.959 439.852L316.959 439.852L316.959 440.852ZM316.959 449.104L315.959 449.104L315.959 450.104L316.959 450.104L316.959 449.104ZM328.322 449.104L328.321 450.104L329.321 450.104L329.322 449.104L328.322 449.104ZM328.322 440.852L328.322 439.852L327.322 439.852L327.322 440.852L328.322 440.852ZM329.655 440.852L330.655 440.852L330.655 439.852L329.655 439.852L329.655 440.852ZM329.654 459.006L329.654 460.006L330.654 460.006L330.654 459.006L329.654 459.006ZM328.321 459.006L327.321 459.006L327.321 460.006L328.321 460.006L328.321 459.006ZM328.321 450.247L329.321 450.247L329.322 449.247L328.322 449.247L328.321 450.247ZM316.959 450.246L316.959 449.246L315.959 449.246L315.959 450.246L316.959 450.246ZM316.959 459.006L316.959 460.006L317.959 460.006L317.959 459.006L316.959 459.006ZM316.626 459.006L316.626 440.852L314.626 440.852L314.626 459.006L316.626 459.006ZM315.626 441.852L316.959 441.852L316.959 439.852L315.626 439.852L315.626 441.852ZM315.959 440.852L315.959 449.104L317.959 449.104L317.959 440.852L315.959 440.852ZM316.959 450.104L328.321 450.104L328.322 448.104L316.959 448.104L316.959 450.104ZM329.322 449.104L329.322 440.852L327.322 440.852L327.322 449.104L329.322 449.104ZM328.322 441.852L329.655 441.852L329.655 439.852L328.322 439.852L328.322 441.852ZM328.655 440.852L328.654 459.006L330.654 459.006L330.655 440.852L328.655 440.852ZM329.654 458.006L328.321 458.006L328.321 460.006L329.654 460.006L329.654 458.006ZM329.321 459.006L329.321 450.247L327.321 450.247L327.321 459.006L329.321 459.006ZM328.322 449.247L316.959 449.246L316.959 451.246L328.321 451.247L328.322 449.247ZM315.959 450.246L315.959 459.006L317.959 459.006L317.959 450.246L315.959 450.246ZM316.959 458.006L315.626 458.006L315.626 460.006L316.959 460.006L316.959 458.006ZM334.344 459.006L334.344 460.006L334.998 460.006L335.26 459.408L334.344 459.006ZM332.923 459.006L332.012 458.594L331.373 460.006L332.923 460.006L332.923 459.006ZM341.137 440.852L341.137 439.852L340.492 439.852L340.226 440.44L341.137 440.852ZM342.724 440.852L343.634 440.438L343.368 439.852L342.724 439.852L342.724 440.852ZM350.975 459.007L350.975 460.007L352.528 460.007L351.886 458.593L350.975 459.007ZM349.388 459.007L348.474 459.411L348.737 460.007L349.388 460.007L349.388 459.007ZM346.697 452.913L347.612 452.509L347.349 451.913L346.697 451.913L346.697 452.913ZM338.559 452.913L337.614 452.587L337.157 453.913L338.559 453.913L338.559 452.913ZM338.953 451.77L338.953 450.77L338.24 450.77L338.007 451.444L338.953 451.77ZM346.202 451.77L346.202 452.77L347.736 452.77L347.117 451.367L346.202 451.77ZM341.848 441.893L342.763 441.49L341.845 439.409L340.932 441.492L341.848 441.893ZM334.344 458.006L332.923 458.006L332.923 460.006L334.344 460.006L334.344 458.006ZM333.834 459.419L342.048 441.264L340.226 440.44L332.012 458.594L333.834 459.419ZM341.137 441.852L342.724 441.852L342.724 439.852L341.137 439.852L341.137 441.852ZM341.813 441.266L350.065 459.42L351.886 458.593L343.634 440.438L341.813 441.266ZM350.975 458.007L349.388 458.007L349.388 460.007L350.975 460.007L350.975 458.007ZM350.303 458.603L347.612 452.509L345.782 453.317L348.474 459.411L350.303 458.603ZM346.697 451.913L338.559 451.913L338.559 453.913L346.697 453.913L346.697 451.913ZM339.505 453.238L339.898 452.096L338.007 451.444L337.614 452.587L339.505 453.238ZM338.953 452.77L346.202 452.77L346.202 450.77L338.953 450.77L338.953 452.77ZM347.117 451.367L342.763 441.49L340.933 442.297L345.287 452.174L347.117 451.367ZM340.932 441.492L333.429 458.605L335.26 459.408L342.764 442.295L340.932 441.492ZM361.359 459.007L360.359 459.007L360.359 460.007L361.359 460.007L361.359 459.007ZM361.359 440.853L361.359 439.853L360.359 439.853L360.359 440.853L361.359 440.853ZM362.679 440.853L363.679 440.853L363.679 439.853L362.679 439.853L362.679 440.853ZM362.679 449.232L361.679 449.231L361.679 450.231L362.679 450.232L362.679 449.232ZM368.963 449.232L368.963 450.232L369.928 450.232L369.963 449.267L368.963 449.232ZM368.951 450.374L369.95 450.352L369.929 449.374L368.951 449.374L368.951 450.374ZM362.679 450.374L362.679 449.374L361.679 449.374L361.679 450.374L362.679 450.374ZM362.679 459.007L362.679 460.007L363.679 460.007L363.679 459.007L362.679 459.007ZM362.359 459.007L362.359 440.853L360.359 440.853L360.359 459.007L362.359 459.007ZM361.359 441.853L362.679 441.853L362.679 439.853L361.359 439.853L361.359 441.853ZM361.679 440.853L361.679 449.231L363.679 449.232L363.679 440.853L361.679 440.853ZM362.679 450.232L368.963 450.232L368.963 448.232L362.679 448.232L362.679 450.232ZM369.963 449.267C370.06 446.547 370.691 444.681 371.702 443.504C372.685 442.361 374.153 441.726 376.276 441.726L376.276 439.726C373.727 439.726 371.64 440.508 370.186 442.2C368.759 443.859 368.07 446.246 367.964 449.196L369.963 449.267ZM376.276 441.726C378.499 441.726 380.007 442.406 380.991 443.629C382.008 444.893 382.601 446.902 382.601 449.829L384.601 449.829C384.601 446.687 383.973 444.145 382.549 442.375C381.091 440.563 378.936 439.726 376.276 439.726L376.276 441.726ZM382.601 449.829C382.601 452.826 382.006 454.89 380.984 456.189C379.997 457.443 378.491 458.134 376.276 458.134L376.276 460.134C378.944 460.134 381.1 459.275 382.555 457.426C383.974 455.623 384.601 453.035 384.601 449.829L382.601 449.829ZM376.276 458.134C374.113 458.134 372.629 457.48 371.644 456.303C370.629 455.088 370.011 453.161 369.95 450.352L367.951 450.396C368.017 453.428 368.683 455.88 370.11 457.586C371.567 459.328 373.682 460.134 376.276 460.134L376.276 458.134ZM368.951 449.374L362.679 449.374L362.679 451.374L368.951 451.374L368.951 449.374ZM361.679 450.374L361.679 459.007L363.679 459.007L363.679 450.374L361.679 450.374ZM362.679 458.007L361.359 458.007L361.359 460.007L362.679 460.007L362.679 458.007ZM376.276 458.992C378.489 458.992 380.285 458.209 381.485 456.549C382.641 454.95 383.141 452.674 383.141 449.879L381.141 449.879C381.141 452.493 380.663 454.273 379.864 455.378C379.109 456.423 377.973 456.992 376.276 456.992L376.276 458.992ZM383.141 449.879C383.141 447.117 382.641 444.864 381.482 443.281C380.28 441.639 378.484 440.869 376.276 440.868L376.276 442.868C377.978 442.869 379.114 443.433 379.868 444.462C380.664 445.549 381.141 447.302 381.141 449.879L383.141 449.879ZM376.276 440.868C374.03 440.868 372.2 441.633 370.972 443.271C369.784 444.856 369.271 447.113 369.271 449.879L371.271 449.879C371.271 447.305 371.758 445.557 372.572 444.471C373.346 443.439 374.518 442.868 376.276 442.868L376.276 440.868ZM369.271 449.879C369.271 452.677 369.783 454.958 370.968 456.558C372.195 458.215 374.025 458.991 376.276 458.992L376.276 456.992C374.523 456.991 373.351 456.416 372.576 455.368C371.759 454.265 371.271 452.489 371.271 449.879L369.271 449.879ZM388.761 457.42L389.761 457.42L389.761 456.42L388.761 456.42L388.761 457.42ZM388.761 459.007L388.761 460.007L389.761 460.007L389.761 459.007L388.761 459.007ZM387.047 459.007L386.047 459.007L386.047 460.007L387.047 460.007L387.047 459.007ZM387.047 457.42L387.047 456.42L386.047 456.42L386.047 457.42L387.047 457.42ZM387.761 457.42L387.761 459.007L389.761 459.007L389.761 457.42L387.761 457.42ZM388.761 458.007L387.047 458.007L387.047 460.007L388.761 460.007L388.761 458.007ZM388.047 459.007L388.047 457.42L386.047 457.42L386.047 459.007L388.047 459.007ZM387.047 458.42L388.761 458.42L388.761 456.42L387.047 456.42L387.047 458.42ZM392.816 459.007L392.816 460.007L393.47 460.007L393.732 459.409L392.816 459.007ZM391.394 459.007L390.483 458.595L389.844 460.007L391.394 460.007L391.394 459.007ZM399.608 440.853L399.608 439.853L398.963 439.853L398.697 440.441L399.608 440.853ZM401.195 440.853L402.106 440.44L401.839 439.853L401.195 439.853L401.195 440.853ZM409.447 459.008L409.447 460.008L411 460.008L410.357 458.594L409.447 459.008ZM407.86 459.008L406.945 459.412L407.208 460.008L407.86 460.008L407.86 459.008ZM405.169 452.914L406.083 452.51L405.82 451.914L405.169 451.914L405.169 452.914ZM397.031 452.914L396.086 452.588L395.629 453.914L397.031 453.914L397.031 452.914ZM397.425 451.771L397.425 450.771L396.711 450.771L396.479 451.446L397.425 451.771ZM404.674 451.771L404.674 452.771L406.207 452.771L405.589 451.368L404.674 451.771ZM400.319 441.894L401.234 441.491L400.317 439.41L399.403 441.493L400.319 441.894ZM392.816 458.007L391.394 458.007L391.394 460.007L392.816 460.007L392.816 458.007ZM392.305 459.42L400.519 441.266L398.697 440.441L390.483 458.595L392.305 459.42ZM399.608 441.853L401.195 441.853L401.195 439.853L399.608 439.853L399.608 441.853ZM400.285 441.267L408.537 459.422L410.357 458.594L402.106 440.44L400.285 441.267ZM409.447 458.008L407.86 458.008L407.86 460.008L409.447 460.008L409.447 458.008ZM408.775 458.604L406.083 452.51L404.254 453.318L406.945 459.412L408.775 458.604ZM405.169 451.914L397.031 451.914L397.031 453.914L405.169 453.914L405.169 451.914ZM397.976 453.239L398.37 452.097L396.479 451.446L396.086 452.588L397.976 453.239ZM397.425 452.771L404.674 452.771L404.674 450.771L397.425 450.771L397.425 452.771ZM405.589 451.368L401.234 441.491L399.404 442.298L403.759 452.175L405.589 451.368ZM399.403 441.493L391.9 458.606L393.732 459.409L401.235 442.296L399.403 441.493ZM413.782 457.421L414.782 457.421L414.782 456.421L413.782 456.421L413.782 457.421ZM413.782 459.008L413.782 460.008L414.782 460.008L414.782 459.008L413.782 459.008ZM412.068 459.008L411.068 459.008L411.068 460.008L412.068 460.008L412.068 459.008ZM412.068 457.421L412.068 456.421L411.068 456.421L411.068 457.421L412.068 457.421ZM412.782 457.421L412.782 459.008L414.782 459.008L414.782 457.421L412.782 457.421ZM413.782 458.008L412.068 458.008L412.068 460.008L413.782 460.008L413.782 458.008ZM413.068 459.008L413.068 457.421L411.068 457.421L411.068 459.008L413.068 459.008ZM412.068 458.421L413.782 458.421L413.782 456.421L412.068 456.421L412.068 458.421Z" fill="#BADEFF"/>
</svg>
