<svg width="501" height="501" viewBox="0 0 501 501" fill="none" xmlns="http://www.w3.org/2000/svg">
<rect x="0.990234" y="0.000366211" width="500" height="500" fill="#3E8ED3"/>
<path d="M212.986 222.004L212.986 219.504L142.986 219.503L142.985 270.003M212.986 222.004L142.985 270.003M212.986 222.004L220.486 248.004M142.985 270.003L197.984 311.504M197.984 311.504L220.486 248.004M197.984 311.504L307.485 311.006M220.486 248.004L275.986 248.505M220.486 248.004L307.485 311.006M275.986 248.505L307.485 311.006M275.986 248.505L282.986 238.505M307.485 311.006L358.985 266.507M358.985 266.507L282.986 238.505M358.985 266.507L358.987 199.007M282.986 238.505L358.987 199.007M282.986 238.505L282.987 199.005M358.987 199.007L282.987 199.005M358.987 199.007L358.987 156.507M282.987 199.005L358.987 156.507M282.987 199.005L282.987 156.505M282.987 199.005L219.987 156.504M282.987 199.005L219.987 199.504M358.987 156.507L282.987 156.505M358.987 156.507L358.987 155.007M282.987 156.505L219.987 199.504M282.987 156.505L219.987 156.504M282.987 156.505L282.988 119.505M219.987 199.504L219.987 156.504M282.988 119.505L358.987 155.007M282.988 119.505L358.488 91.0068M282.988 119.505L282.988 116.005M358.987 155.007L358.488 91.0068M358.488 91.0068L311.989 48.006M282.988 116.005L311.989 48.006M282.988 116.005L218.488 116.004M282.988 116.005L197.489 48.0039M311.989 48.006L298.489 48.0057M218.488 116.004L298.489 48.0057M218.488 116.004L197.489 48.0039M218.488 116.004L142.988 91.5029M218.488 116.004L142.988 139.503M218.488 116.004L211.988 139.504L142.988 139.503M197.489 48.0039L298.489 48.0057M197.489 48.0039L142.988 91.5029M142.988 91.5029L142.988 139.503" stroke="#BADEFF" stroke-width="4"/>
<path d="M48.0281 423.367C46.3777 423.874 44.685 424.128 42.95 424.128C36.6023 424.128 33.4286 420.975 33.4287 414.67C33.4288 408.703 36.6027 405.72 42.9503 405.72C44.6853 405.72 46.3781 405.974 48.0284 406.482L48.0284 407.624C46.378 407.116 44.77 406.863 43.2042 406.863C37.576 406.862 34.7618 409.465 34.7617 414.67C34.7616 420.214 37.5757 422.985 43.2039 422.986C44.7697 422.986 46.3778 422.732 48.0282 422.224L48.0281 423.367ZM53.5182 414.873C53.5181 420.282 56.0699 422.986 61.1734 422.986C66.1838 422.986 68.689 420.282 68.6891 414.874C68.6892 409.533 66.1841 406.863 61.1737 406.863C56.0701 406.863 53.5183 409.533 53.5182 414.873ZM52.0583 414.95C52.0584 408.797 55.0969 405.72 61.1737 405.72C67.1574 405.72 70.1492 408.797 70.1491 414.95C70.149 421.069 67.1571 424.129 61.1734 424.128C55.0965 424.128 52.0582 421.069 52.0583 414.95ZM74.3694 424.002L74.3697 405.847L75.7027 405.847L75.7024 422.859L86.1379 422.859L86.1383 405.848L87.4713 405.848L87.471 422.859L89.8196 422.859L89.8195 428.826L88.4865 428.826L88.4866 424.002L74.3694 424.002ZM106.735 424.002L106.736 407.854L95.373 424.002L93.913 424.002L93.9134 405.848L95.2464 405.848L95.2461 421.996L106.609 405.848L108.069 405.848L108.068 424.002L106.735 424.002ZM112.758 424.002L111.337 424.002L119.551 405.848L121.138 405.848L129.389 424.003L127.802 424.003L125.111 417.909L116.973 417.909L117.367 416.766L124.616 416.766L120.262 406.889L112.758 424.002ZM130.614 422.86C134.118 422.86 135.87 419.856 135.87 413.847L135.87 405.849L146.788 405.849L146.787 424.003L145.454 424.003L145.455 406.991L137.203 406.991L137.203 413.847C137.203 420.617 135.006 424.003 130.614 424.003L130.614 422.86ZM152.963 405.849L152.963 422.822L159.285 422.823C161.977 422.823 163.322 421.515 163.322 418.9C163.323 416.124 161.748 414.736 158.6 414.736L155.071 414.736L155.071 413.593L158.587 413.593C162.65 413.593 164.681 415.316 164.681 418.76C164.681 422.256 162.912 424.003 159.374 424.003L151.63 424.003L151.63 405.849L152.963 405.849ZM168.762 424.003L168.762 405.849L170.095 405.849L170.095 414.101L181.457 414.101L181.457 405.849L182.79 405.849L182.79 424.004L181.457 424.004L181.457 415.244L170.095 415.244L170.095 424.003L168.762 424.003ZM188.47 414.876C188.47 420.284 191.022 422.988 196.126 422.988C201.136 422.988 203.641 420.284 203.641 414.876C203.641 409.536 201.136 406.865 196.126 406.865C191.022 406.865 188.471 409.535 188.47 414.876ZM187.01 414.952C187.011 408.799 190.049 405.723 196.126 405.723C202.11 405.723 205.101 408.799 205.101 414.952C205.101 421.071 202.109 424.131 196.126 424.131C190.049 424.131 187.01 421.071 187.01 414.952ZM215.035 416.768L215.035 417.911L208.687 417.91L208.687 416.768L215.035 416.768ZM218.798 422.1C220.364 422.693 222.056 422.989 223.876 422.989C229.056 422.989 231.773 420.45 232.027 415.372L219.712 415.372L219.712 414.229L232.039 414.229C231.845 409.32 229.124 406.866 223.876 406.866C222.057 406.866 220.364 407.162 218.798 407.754L218.798 406.485C220.364 405.977 222.057 405.723 223.876 405.723C230.224 405.723 233.398 408.707 233.398 414.674C233.398 420.979 230.224 424.132 223.876 424.131C222.056 424.131 220.364 423.877 218.798 423.37L218.798 422.1ZM248.384 424.005C245.514 419.435 243.708 416.764 242.963 415.994C242.218 415.215 241.346 414.826 240.348 414.826L240.348 413.899C242.04 413.899 243.576 412.558 244.956 409.875C246.344 407.192 247.834 405.851 249.425 405.851L250.783 405.851L250.783 406.993L249.78 406.993C248.443 406.993 247.165 408.144 245.946 410.446C244.727 412.74 243.589 414.052 242.531 414.382C243.166 414.492 243.864 414.97 244.626 415.816C245.388 416.654 247.249 419.384 250.212 424.005L248.384 424.005ZM238.824 405.85L238.824 424.005L237.491 424.005L237.491 405.85L238.824 405.85ZM254.737 414.877C254.737 420.285 257.289 422.989 262.392 422.99C267.402 422.99 269.908 420.286 269.908 414.877C269.908 409.537 267.403 406.867 262.392 406.866C257.289 406.866 254.737 409.537 254.737 414.877ZM253.277 414.953C253.277 408.8 256.316 405.724 262.392 405.724C268.376 405.724 271.368 408.801 271.368 414.954C271.368 421.073 268.376 424.132 262.392 424.132C256.315 424.132 253.277 421.072 253.277 414.953ZM275.588 424.005L275.588 405.851L276.921 405.851L276.921 414.103L288.284 414.103L288.284 405.851L289.617 405.851L289.616 424.006L288.283 424.006L288.284 415.246L276.921 415.246L276.921 424.005L275.588 424.005ZM295.297 414.878C295.297 420.286 297.849 422.99 302.952 422.99C307.962 422.99 310.468 420.286 310.468 414.878C310.468 409.538 307.963 406.867 302.952 406.867C297.849 406.867 295.297 409.537 295.297 414.878ZM293.837 414.954C293.837 408.801 296.876 405.725 302.952 405.725C308.936 405.725 311.928 408.801 311.928 414.954C311.928 421.073 308.936 424.133 302.952 424.133C296.875 424.133 293.837 421.073 293.837 414.954ZM316.148 424.006L316.148 405.852L317.481 405.852L325.67 422.445L333.351 405.852L334.557 405.852L334.556 424.006L333.35 424.006L333.35 408.302L326.139 424.006L325.047 424.006L317.354 408.175L317.354 424.006L316.148 424.006ZM352.221 424.007L352.221 407.858L340.859 424.007L339.399 424.007L339.399 405.852L340.732 405.852L340.732 422.001L352.094 405.852L353.554 405.852L353.554 424.007L352.221 424.007ZM371.079 405.853L371.079 424.007L369.746 424.007L369.746 415.958C368.087 416.923 366.272 417.405 364.3 417.405C360.077 417.405 357.965 415.37 357.965 411.299L357.965 405.853L359.298 405.853L359.298 411.337C359.298 414.587 360.987 416.212 364.363 416.212C366.471 416.212 368.265 415.649 369.746 414.524L369.746 405.853L371.079 405.853ZM387.843 405.853L387.843 406.996L377.255 406.995L377.255 414.232L387.411 414.232L387.411 415.375L377.255 415.374L377.255 422.865L388.02 422.865L388.02 424.007L375.922 424.007L375.922 405.853L387.843 405.853ZM406.51 423.373C404.86 423.881 403.167 424.135 401.432 424.135C395.084 424.134 391.911 420.982 391.911 414.676C391.911 408.71 395.085 405.726 401.432 405.726C403.167 405.726 404.86 405.98 406.511 406.488L406.511 407.631C404.86 407.123 403.252 406.869 401.686 406.869C396.058 406.869 393.244 409.471 393.244 414.676C393.244 420.22 396.058 422.992 401.686 422.992C403.252 422.992 404.86 422.738 406.51 422.23L406.51 423.373ZM422.068 424.008C419.199 419.438 417.392 416.767 416.647 415.997C415.902 415.219 415.03 414.829 414.032 414.829L414.032 413.902C415.724 413.902 417.26 412.561 418.64 409.878C420.028 407.195 421.518 405.854 423.109 405.854L424.467 405.854L424.467 406.996L423.464 406.996C422.127 406.996 420.849 408.147 419.63 410.449C418.412 412.743 417.273 414.055 416.215 414.385C416.85 414.495 417.548 414.973 418.31 415.819C419.072 416.657 420.934 419.387 423.896 424.008L422.068 424.008ZM412.508 405.854L412.508 424.008L411.175 424.008L411.175 405.854L412.508 405.854ZM440.418 424.008L440.418 407.86L429.056 424.008L427.596 424.008L427.596 405.854L428.929 405.854L428.929 422.002L440.291 405.854L441.751 405.854L441.751 424.008L440.418 424.008ZM450.542 401.36L451.621 401.36C451.621 402.884 452.341 403.645 453.779 403.645C455.218 403.645 455.938 402.884 455.938 401.36L457.017 401.36C457.017 403.561 455.937 404.661 453.779 404.661C451.621 404.661 450.542 403.561 450.542 401.36ZM459.428 424.009L459.429 407.86L448.066 424.008L446.606 424.008L446.606 405.854L447.939 405.854L447.939 422.003L459.302 405.854L460.762 405.854L460.761 424.009L459.428 424.009ZM197.725 453.004L197.725 436.856L186.362 453.004L184.902 453.004L184.903 434.849L186.236 434.849L186.235 450.998L197.598 434.85L199.058 434.85L199.058 453.004L197.725 453.004ZM203.913 453.004L203.913 434.85L205.246 434.85L205.246 443.102L216.608 443.102L216.608 434.85L217.941 434.85L217.941 453.004L216.608 453.004L216.608 444.245L205.246 444.244L205.246 453.004L203.913 453.004ZM236.761 452.37C235.111 452.878 233.418 453.132 231.683 453.132C225.335 453.131 222.162 449.979 222.162 443.673C222.162 437.707 225.336 434.723 231.683 434.723C233.418 434.723 235.111 434.977 236.761 435.485L236.761 436.628C235.111 436.12 233.503 435.866 231.937 435.866C226.309 435.866 223.495 438.468 223.495 443.673C223.495 449.217 226.309 451.989 231.937 451.989C233.503 451.989 235.111 451.735 236.761 451.227L236.761 452.37ZM253.169 434.851L253.169 435.993L246.949 435.993L246.948 453.005L245.615 453.005L245.616 435.993L239.522 435.993L239.522 434.85L253.169 434.851ZM268.942 453.005L268.943 436.857L257.58 453.005L256.12 453.005L256.12 434.851L257.453 434.851L257.453 450.999L268.816 434.851L270.276 434.851L270.275 453.005L268.942 453.005ZM286.874 434.851L286.874 435.994L280.653 435.994L280.653 453.005L279.32 453.005L279.32 435.994L273.226 435.994L273.227 434.851L286.874 434.851ZM304.069 434.852L297.81 449.603C296.845 451.872 295.199 453.006 292.871 453.006C291.788 453.006 290.789 452.709 289.875 452.117L289.875 450.974C290.772 451.567 291.758 451.863 292.833 451.863C294.645 451.863 295.817 451.097 296.35 449.565L288.428 434.851L289.888 434.851L297.086 448.309L302.647 434.852L304.069 434.852ZM318.953 434.852L318.953 435.994L312.733 435.994L312.732 453.006L311.399 453.006L311.4 435.994L305.306 435.994L305.306 434.852L318.953 434.852Z" fill="#BADEFF"/>
<path d="M48.0281 423.367L48.3222 424.322L49.0281 424.105L49.0281 423.367L48.0281 423.367ZM48.0284 406.482L49.0284 406.482L49.0284 405.743L48.3225 405.526L48.0284 406.482ZM48.0284 407.624L47.7343 408.58L49.0284 408.978L49.0284 407.624L48.0284 407.624ZM48.0282 422.224L49.0282 422.224L49.0282 420.87L47.7341 421.268L48.0282 422.224ZM47.7341 422.411C46.1794 422.889 44.5858 423.128 42.95 423.128L42.95 425.128C44.7842 425.128 46.5761 424.86 48.3222 424.322L47.7341 422.411ZM42.95 423.128C39.9286 423.128 37.8467 422.378 36.5137 421.054C35.1819 419.731 34.4286 417.667 34.4287 414.67L32.4287 414.67C32.4286 417.978 33.2622 420.643 35.1042 422.473C36.945 424.302 39.6237 425.128 42.95 425.128L42.95 423.128ZM34.4287 414.67C34.4287 411.857 35.1739 409.927 36.4941 408.686C37.8259 407.434 39.9157 406.72 42.9503 406.72L42.9503 404.72C39.6372 404.72 36.9664 405.497 35.1243 407.229C33.2706 408.971 32.4287 411.516 32.4287 414.67L34.4287 414.67ZM42.9503 406.72C44.5861 406.72 46.1797 406.959 47.7343 407.438L48.3225 405.526C46.5764 404.989 44.7846 404.72 42.9503 404.72L42.9503 406.72ZM47.0284 406.482L47.0284 407.624L49.0284 407.624L49.0284 406.482L47.0284 406.482ZM48.3225 406.669C46.5866 406.134 44.8793 405.863 43.2042 405.863L43.2042 407.863C44.6606 407.863 46.1695 408.099 47.7343 408.58L48.3225 406.669ZM43.2042 405.863C40.2545 405.862 37.8558 406.543 36.1934 408.08C34.5163 409.631 33.7617 411.892 33.7617 414.67L35.7617 414.67C35.7617 412.243 36.4143 410.6 37.5513 409.548C38.7031 408.483 40.5256 407.862 43.2042 407.863L43.2042 405.863ZM33.7617 414.67C33.7616 417.6 34.5064 419.98 36.1704 421.619C37.8316 423.255 40.2394 423.986 43.2039 423.986L43.2039 421.986C40.5402 421.986 38.7268 421.33 37.5739 420.194C36.4238 419.061 35.7616 417.284 35.7617 414.67L33.7617 414.67ZM43.2039 423.986C44.879 423.986 46.5862 423.714 48.3222 423.18L47.7341 421.268C46.1693 421.75 44.6603 421.986 43.2039 421.986L43.2039 423.986ZM47.0282 422.224L47.0281 423.366L49.0281 423.367L49.0282 422.224L47.0282 422.224ZM52.5182 414.873C52.5182 417.718 53.1881 420.037 54.7046 421.644C56.2315 423.262 58.4522 423.986 61.1734 423.986L61.1734 421.986C58.7911 421.986 57.1841 421.357 56.1593 420.271C55.1241 419.174 54.5182 417.437 54.5182 414.873L52.5182 414.873ZM61.1734 423.986C63.8531 423.986 66.0412 423.259 67.5437 421.638C69.0328 420.03 69.6891 417.714 69.6891 414.874L67.6891 414.874C67.6891 417.442 67.0927 419.182 66.0766 420.278C65.0738 421.361 63.504 421.986 61.1734 421.986L61.1734 423.986ZM69.6891 414.874C69.6892 412.065 69.0316 409.772 67.5396 408.181C66.0364 406.579 63.8499 405.863 61.1737 405.863L61.1736 407.863C63.5078 407.863 65.0791 408.482 66.081 409.55C67.0942 410.63 67.6892 412.342 67.6891 414.874L69.6891 414.874ZM61.1737 405.863C58.4559 405.863 56.2368 406.576 54.7092 408.175C53.1897 409.765 52.5183 412.06 52.5182 414.873L54.5182 414.873C54.5183 412.346 55.1228 410.637 56.1551 409.556C57.1793 408.485 58.7879 407.863 61.1736 407.863L61.1737 405.863ZM53.0583 414.95C53.0583 412.024 53.7804 410.014 55.0487 408.73C56.3147 407.448 58.2926 406.72 61.1737 406.72L61.1737 404.72C57.978 404.72 55.3982 405.53 53.6257 407.325C51.8555 409.117 51.0583 411.722 51.0583 414.95L53.0583 414.95ZM61.1737 406.72C64.0042 406.72 65.9451 407.446 67.1884 408.725C68.4368 410.009 69.1492 412.021 69.1491 414.95L71.1491 414.95C71.1492 411.726 70.3657 409.123 68.6222 407.331C66.8738 405.533 64.3269 404.72 61.1737 404.72L61.1737 406.72ZM69.1491 414.95C69.149 417.861 68.4373 419.859 67.1901 421.135C65.947 422.406 64.0053 423.129 61.1734 423.128L61.1733 425.128C64.3251 425.129 66.8713 424.321 68.62 422.533C70.3648 420.749 71.149 418.158 71.1491 414.95L69.1491 414.95ZM61.1734 423.128C58.2909 423.128 56.3123 422.404 55.0465 421.129C53.7795 419.853 53.0582 417.857 53.0583 414.95L51.0583 414.95C51.0582 418.162 51.8561 420.755 53.6274 422.538C55.4 424.323 57.979 425.128 61.1733 425.128L61.1734 423.128ZM74.3694 424.002L73.3694 424.002L73.3694 425.002L74.3694 425.002L74.3694 424.002ZM74.3697 405.847L74.3697 404.847L73.3697 404.847L73.3697 405.847L74.3697 405.847ZM75.7027 405.847L76.7027 405.847L76.7027 404.847L75.7027 404.847L75.7027 405.847ZM75.7024 422.859L74.7024 422.859L74.7024 423.859L75.7024 423.859L75.7024 422.859ZM86.1379 422.859L86.1379 423.859L87.1379 423.859L87.1379 422.859L86.1379 422.859ZM86.1383 405.848L86.1383 404.848L85.1383 404.848L85.1383 405.848L86.1383 405.848ZM87.4713 405.848L88.4713 405.848L88.4713 404.848L87.4713 404.848L87.4713 405.848ZM87.471 422.859L86.471 422.859L86.4709 423.859L87.4709 423.859L87.471 422.859ZM89.8196 422.859L90.8196 422.859L90.8196 421.859L89.8196 421.859L89.8196 422.859ZM89.8195 428.826L89.8195 429.826L90.8195 429.826L90.8195 428.826L89.8195 428.826ZM88.4865 428.826L87.4865 428.826L87.4865 429.826L88.4865 429.826L88.4865 428.826ZM88.4866 424.002L89.4866 424.002L89.4866 423.002L88.4866 423.002L88.4866 424.002ZM75.3694 424.002L75.3697 405.847L73.3697 405.847L73.3694 424.002L75.3694 424.002ZM74.3697 406.847L75.7027 406.847L75.7027 404.847L74.3697 404.847L74.3697 406.847ZM74.7027 405.847L74.7024 422.859L76.7024 422.859L76.7027 405.847L74.7027 405.847ZM75.7024 423.859L86.1379 423.859L86.138 421.859L75.7024 421.859L75.7024 423.859ZM87.1379 422.859L87.1383 405.848L85.1383 405.848L85.1379 422.859L87.1379 422.859ZM86.1382 406.848L87.4712 406.848L87.4713 404.848L86.1383 404.848L86.1382 406.848ZM86.4713 405.848L86.471 422.859L88.471 422.859L88.4713 405.848L86.4713 405.848ZM87.4709 423.859L89.8196 423.859L89.8196 421.859L87.471 421.859L87.4709 423.859ZM88.8196 422.859L88.8195 428.826L90.8195 428.826L90.8196 422.859L88.8196 422.859ZM89.8195 427.826L88.4865 427.826L88.4865 429.826L89.8195 429.826L89.8195 427.826ZM89.4865 428.826L89.4866 424.002L87.4866 424.002L87.4865 428.826L89.4865 428.826ZM88.4866 423.002L74.3694 423.002L74.3694 425.002L88.4865 425.002L88.4866 423.002ZM106.735 424.002L105.735 424.002L105.735 425.002L106.735 425.002L106.735 424.002ZM106.736 407.854L107.736 407.854L107.736 404.695L105.918 407.278L106.736 407.854ZM95.373 424.002L95.373 425.002L95.8921 425.002L96.1908 424.578L95.373 424.002ZM93.913 424.002L92.913 424.002L92.913 425.002L93.913 425.002L93.913 424.002ZM93.9134 405.848L93.9134 404.848L92.9134 404.848L92.9134 405.848L93.9134 405.848ZM95.2464 405.848L96.2464 405.848L96.2464 404.848L95.2464 404.848L95.2464 405.848ZM95.2461 421.996L94.2461 421.996L94.246 425.155L96.0639 422.572L95.2461 421.996ZM106.609 405.848L106.609 404.848L106.09 404.848L105.791 405.273L106.609 405.848ZM108.069 405.848L109.069 405.848L109.069 404.848L108.069 404.848L108.069 405.848ZM108.068 424.002L108.068 425.002L109.068 425.002L109.068 424.002L108.068 424.002ZM107.735 424.002L107.736 407.854L105.736 407.854L105.735 424.002L107.735 424.002ZM105.918 407.278L94.5552 423.427L96.1908 424.578L107.553 408.429L105.918 407.278ZM95.373 423.002L93.9131 423.002L93.913 425.002L95.373 425.002L95.373 423.002ZM94.913 424.002L94.9134 405.848L92.9134 405.848L92.913 424.002L94.913 424.002ZM93.9134 406.848L95.2464 406.848L95.2464 404.848L93.9134 404.848L93.9134 406.848ZM94.2464 405.848L94.2461 421.996L96.2461 421.996L96.2464 405.848L94.2464 405.848ZM96.0639 422.572L107.427 406.423L105.791 405.273L94.4283 421.421L96.0639 422.572ZM106.609 406.848L108.069 406.848L108.069 404.848L106.609 404.848L106.609 406.848ZM107.069 405.848L107.068 424.002L109.068 424.002L109.069 405.848L107.069 405.848ZM108.068 423.002L106.735 423.002L106.735 425.002L108.068 425.002L108.068 423.002ZM112.758 424.002L112.758 425.002L113.412 425.002L113.674 424.404L112.758 424.002ZM111.337 424.002L110.426 423.59L109.787 425.002L111.337 425.002L111.337 424.002ZM119.551 405.848L119.551 404.848L118.906 404.848L118.64 405.436L119.551 405.848ZM121.138 405.848L122.048 405.435L121.782 404.848L121.138 404.848L121.138 405.848ZM129.389 424.003L129.389 425.003L130.942 425.003L130.3 423.589L129.389 424.003ZM127.802 424.003L126.888 424.407L127.151 425.003L127.802 425.003L127.802 424.003ZM125.111 417.909L126.026 417.505L125.763 416.909L125.111 416.909L125.111 417.909ZM116.973 417.909L116.028 417.583L115.571 418.909L116.973 418.909L116.973 417.909ZM117.367 416.766L117.367 415.766L116.654 415.766L116.422 416.441L117.367 416.766ZM124.616 416.766L124.616 417.766L126.15 417.766L125.531 416.363L124.616 416.766ZM120.262 406.889L121.177 406.486L120.259 404.405L119.346 406.488L120.262 406.889ZM112.758 423.002L111.337 423.002L111.337 425.002L112.758 425.002L112.758 423.002ZM112.248 424.415L120.462 406.26L118.64 405.436L110.426 423.59L112.248 424.415ZM119.551 406.848L121.138 406.848L121.138 404.848L119.551 404.848L119.551 406.848ZM120.227 406.262L128.479 424.417L130.3 423.589L122.048 405.435L120.227 406.262ZM129.389 423.003L127.802 423.003L127.802 425.003L129.389 425.003L129.389 423.003ZM128.717 423.599L126.026 417.505L124.196 418.313L126.888 424.407L128.717 423.599ZM125.111 416.909L116.973 416.909L116.973 418.909L125.111 418.909L125.111 416.909ZM117.919 418.234L118.312 417.092L116.422 416.441L116.028 417.583L117.919 418.234ZM117.367 417.766L124.616 417.766L124.616 415.766L117.367 415.766L117.367 417.766ZM125.531 416.363L121.177 406.486L119.347 407.293L123.701 417.17L125.531 416.363ZM119.346 406.488L111.843 423.601L113.674 424.404L121.178 407.291L119.346 406.488ZM130.614 422.86L130.614 421.86L129.614 421.86L129.614 422.86L130.614 422.86ZM135.87 405.849L135.87 404.849L134.87 404.849L134.87 405.849L135.87 405.849ZM146.788 405.849L147.788 405.849L147.788 404.849L146.788 404.849L146.788 405.849ZM146.787 424.003L146.787 425.003L147.787 425.003L147.787 424.003L146.787 424.003ZM145.454 424.003L144.454 424.003L144.454 425.003L145.454 425.003L145.454 424.003ZM145.455 406.991L146.455 406.991L146.455 405.991L145.455 405.991L145.455 406.991ZM137.203 406.991L137.203 405.991L136.203 405.991L136.203 406.991L137.203 406.991ZM130.614 424.003L129.614 424.003L129.614 425.003L130.614 425.003L130.614 424.003ZM130.614 423.86C132.718 423.86 134.363 422.923 135.419 421.111C136.428 419.381 136.87 416.916 136.87 413.847L134.87 413.847C134.87 416.787 134.435 418.828 133.692 420.103C132.997 421.295 132.013 421.86 130.614 421.86L130.614 423.86ZM136.87 413.847L136.87 405.849L134.87 405.849L134.87 413.847L136.87 413.847ZM135.87 406.849L146.788 406.849L146.788 404.849L135.87 404.849L135.87 406.849ZM145.788 405.849L145.787 424.003L147.787 424.003L147.788 405.849L145.788 405.849ZM146.788 423.003L145.455 423.003L145.454 425.003L146.787 425.003L146.788 423.003ZM146.454 424.003L146.455 406.991L144.455 406.991L144.454 424.003L146.454 424.003ZM145.455 405.991L137.203 405.991L137.203 407.991L145.455 407.991L145.455 405.991ZM136.203 406.991L136.203 413.847L138.203 413.847L138.203 406.991L136.203 406.991ZM136.203 413.847C136.203 417.156 135.66 419.465 134.716 420.92C133.821 422.299 132.507 423.003 130.614 423.003L130.614 425.003C133.113 425.003 135.093 424.014 136.394 422.008C137.647 420.077 138.203 417.308 138.203 413.847L136.203 413.847ZM131.614 424.003L131.614 422.86L129.614 422.86L129.614 424.003L131.614 424.003ZM152.963 405.849L153.963 405.849L153.963 404.849L152.963 404.849L152.963 405.849ZM152.963 422.822L151.963 422.822L151.963 423.822L152.963 423.822L152.963 422.822ZM155.071 414.736L154.071 414.736L154.071 415.736L155.071 415.736L155.071 414.736ZM155.071 413.593L155.071 412.593L154.071 412.593L154.071 413.593L155.071 413.593ZM151.63 424.003L150.63 424.003L150.63 425.003L151.63 425.003L151.63 424.003ZM151.63 405.849L151.63 404.849L150.63 404.849L150.63 405.849L151.63 405.849ZM151.963 405.849L151.963 422.822L153.963 422.823L153.963 405.849L151.963 405.849ZM152.963 423.822L159.285 423.823L159.285 421.823L152.963 421.822L152.963 423.822ZM159.285 423.823C160.778 423.823 162.083 423.46 163.01 422.559C163.943 421.653 164.322 420.369 164.322 418.9L162.322 418.9C162.322 420.046 162.029 420.723 161.616 421.125C161.198 421.531 160.484 421.823 159.285 421.823L159.285 423.823ZM164.322 418.9C164.322 417.323 163.87 415.967 162.803 415.027C161.761 414.108 160.299 413.736 158.6 413.736L158.6 415.736C160.049 415.736 160.949 416.058 161.48 416.527C161.988 416.975 162.322 417.701 162.322 418.9L164.322 418.9ZM158.6 413.736L155.071 413.736L155.071 415.736L158.6 415.736L158.6 413.736ZM156.071 414.736L156.071 413.593L154.071 413.593L154.071 414.736L156.071 414.736ZM155.071 414.593L158.587 414.593L158.587 412.593L155.071 412.593L155.071 414.593ZM158.587 414.593C160.501 414.593 161.75 415.002 162.511 415.648C163.24 416.266 163.681 417.239 163.681 418.76L165.681 418.76C165.681 416.837 165.106 415.226 163.804 414.122C162.534 413.045 160.736 412.593 158.587 412.593L158.587 414.593ZM163.681 418.76C163.681 420.351 163.279 421.361 162.651 421.981C162.021 422.604 160.992 423.003 159.374 423.003L159.374 425.003C161.294 425.003 162.918 424.529 164.057 423.404C165.198 422.277 165.681 420.665 165.681 418.76L163.681 418.76ZM159.374 423.003L151.63 423.003L151.63 425.003L159.374 425.003L159.374 423.003ZM152.63 424.003L152.63 405.849L150.63 405.849L150.63 424.003L152.63 424.003ZM151.63 406.849L152.963 406.849L152.963 404.849L151.63 404.849L151.63 406.849ZM168.762 424.003L167.762 424.003L167.762 425.003L168.762 425.003L168.762 424.003ZM168.762 405.849L168.762 404.849L167.762 404.849L167.762 405.849L168.762 405.849ZM170.095 405.849L171.095 405.849L171.095 404.849L170.095 404.849L170.095 405.849ZM170.095 414.101L169.095 414.101L169.095 415.101L170.095 415.101L170.095 414.101ZM181.457 414.101L181.457 415.101L182.457 415.101L182.457 414.101L181.457 414.101ZM181.457 405.849L181.457 404.849L180.457 404.849L180.457 405.849L181.457 405.849ZM182.79 405.849L183.79 405.849L183.79 404.849L182.79 404.849L182.79 405.849ZM182.79 424.004L182.79 425.004L183.79 425.004L183.79 424.004L182.79 424.004ZM181.457 424.004L180.457 424.004L180.457 425.004L181.457 425.004L181.457 424.004ZM181.457 415.244L182.457 415.244L182.457 414.244L181.457 414.244L181.457 415.244ZM170.095 415.244L170.095 414.244L169.095 414.244L169.095 415.244L170.095 415.244ZM170.095 424.003L170.095 425.003L171.095 425.003L171.095 424.003L170.095 424.003ZM169.762 424.003L169.762 405.849L167.762 405.849L167.762 424.003L169.762 424.003ZM168.762 406.849L170.095 406.849L170.095 404.849L168.762 404.849L168.762 406.849ZM169.095 405.849L169.095 414.101L171.095 414.101L171.095 405.849L169.095 405.849ZM170.095 415.101L181.457 415.101L181.457 413.101L170.095 413.101L170.095 415.101ZM182.457 414.101L182.457 405.849L180.457 405.849L180.457 414.101L182.457 414.101ZM181.457 406.849L182.79 406.849L182.79 404.849L181.457 404.849L181.457 406.849ZM181.79 405.849L181.79 424.004L183.79 424.004L183.79 405.849L181.79 405.849ZM182.79 423.004L181.457 423.004L181.457 425.004L182.79 425.004L182.79 423.004ZM182.457 424.004L182.457 415.244L180.457 415.244L180.457 424.004L182.457 424.004ZM181.457 414.244L170.095 414.244L170.095 416.244L181.457 416.244L181.457 414.244ZM169.095 415.244L169.095 424.003L171.095 424.003L171.095 415.244L169.095 415.244ZM170.095 423.003L168.762 423.003L168.762 425.003L170.095 425.003L170.095 423.003ZM187.47 414.876C187.47 417.72 188.14 420.039 189.657 421.646C191.184 423.265 193.404 423.988 196.126 423.988L196.126 421.988C193.743 421.988 192.136 421.36 191.111 420.274C190.076 419.177 189.47 417.44 189.47 414.876L187.47 414.876ZM196.126 423.988C198.805 423.988 200.993 423.262 202.496 421.64C203.985 420.033 204.641 417.716 204.641 414.876L202.641 414.876C202.641 417.444 202.045 419.184 201.029 420.281C200.026 421.363 198.456 421.988 196.126 421.988L196.126 423.988ZM204.641 414.876C204.641 412.067 203.984 409.774 202.492 408.184C200.989 406.582 198.802 405.865 196.126 405.865L196.126 407.865C198.46 407.865 200.031 408.484 201.033 409.552C202.046 410.632 202.641 412.345 202.641 414.876L204.641 414.876ZM196.126 405.865C193.408 405.865 191.189 406.578 189.661 408.177C188.142 409.767 187.47 412.063 187.47 414.876L189.47 414.876C189.47 412.349 190.075 410.639 191.107 409.559C192.132 408.487 193.74 407.865 196.126 407.865L196.126 405.865ZM188.01 414.952C188.011 412.027 188.733 410.017 190.001 408.733C191.267 407.451 193.245 406.723 196.126 406.723L196.126 404.723C192.93 404.723 190.35 405.533 188.578 407.327C186.808 409.12 186.011 411.724 186.01 414.952L188.01 414.952ZM196.126 406.723C198.956 406.723 200.897 407.449 202.141 408.727C203.389 410.011 204.101 412.023 204.101 414.952L206.101 414.952C206.101 411.729 205.318 409.126 203.574 407.333C201.826 405.535 199.279 404.723 196.126 404.723L196.126 406.723ZM204.101 414.952C204.101 417.863 203.39 419.862 202.142 421.137C200.899 422.408 198.958 423.131 196.126 423.131L196.126 425.131C199.277 425.131 201.823 424.324 203.572 422.536C205.317 420.751 206.101 418.161 206.101 414.952L204.101 414.952ZM196.126 423.131C193.243 423.131 191.264 422.406 189.999 421.131C188.732 419.856 188.01 417.859 188.01 414.952L186.01 414.952C186.01 418.164 186.808 420.757 188.58 422.541C190.352 424.326 192.931 425.131 196.126 425.131L196.126 423.131ZM215.035 416.768L216.035 416.768L216.035 415.768L215.035 415.768L215.035 416.768ZM215.035 417.911L215.035 418.911L216.035 418.911L216.035 417.911L215.035 417.911ZM208.687 417.91L207.687 417.91L207.687 418.91L208.687 418.91L208.687 417.91ZM208.687 416.768L208.687 415.768L207.687 415.768L207.687 416.768L208.687 416.768ZM214.035 416.768L214.035 417.911L216.035 417.911L216.035 416.768L214.035 416.768ZM215.035 416.911L208.687 416.91L208.687 418.91L215.035 418.911L215.035 416.911ZM209.687 417.91L209.687 416.768L207.687 416.768L207.687 417.91L209.687 417.91ZM208.687 417.768L215.035 417.768L215.035 415.768L208.687 415.768L208.687 417.768ZM218.798 422.1L219.152 421.165L217.798 420.652L217.798 422.1L218.798 422.1ZM232.027 415.372L233.025 415.422L233.078 414.372L232.027 414.372L232.027 415.372ZM219.712 415.372L218.712 415.372L218.712 416.372L219.712 416.372L219.712 415.372ZM219.712 414.229L219.712 413.229L218.712 413.229L218.712 414.229L219.712 414.229ZM232.039 414.229L232.039 415.229L233.08 415.229L233.038 414.19L232.039 414.229ZM218.798 407.754L217.798 407.754L217.798 409.202L219.152 408.69L218.798 407.754ZM218.798 406.485L218.49 405.534L217.798 405.758L217.798 406.485L218.798 406.485ZM218.798 423.37L217.798 423.37L217.798 424.097L218.489 424.321L218.798 423.37ZM218.444 423.035C220.132 423.674 221.946 423.989 223.876 423.989L223.876 421.989C222.167 421.989 220.595 421.711 219.152 421.165L218.444 423.035ZM223.876 423.989C226.619 423.989 228.875 423.316 230.481 421.815C232.09 420.312 232.89 418.123 233.025 415.422L231.028 415.322C230.909 417.699 230.224 419.319 229.116 420.354C228.005 421.392 226.313 421.989 223.876 421.989L223.876 423.989ZM232.027 414.372L219.712 414.372L219.712 416.372L232.027 416.372L232.027 414.372ZM220.712 415.372L220.712 414.229L218.712 414.229L218.712 415.372L220.712 415.372ZM219.712 415.229L232.039 415.229L232.039 413.229L219.712 413.229L219.712 415.229ZM233.038 414.19C232.934 411.561 232.144 409.427 230.522 407.964C228.912 406.512 226.641 405.866 223.876 405.866L223.876 407.866C226.358 407.866 228.072 408.447 229.183 409.449C230.282 410.441 230.95 411.989 231.04 414.269L233.038 414.19ZM223.876 405.866C221.946 405.866 220.133 406.18 218.444 406.819L219.152 408.69C220.595 408.144 222.167 407.866 223.876 407.866L223.876 405.866ZM219.798 407.754L219.798 406.485L217.798 406.485L217.798 407.754L219.798 407.754ZM219.107 407.436C220.563 406.964 222.15 406.723 223.876 406.723L223.876 404.723C221.963 404.723 220.165 404.99 218.49 405.534L219.107 407.436ZM223.876 406.723C226.911 406.723 229.001 407.438 230.332 408.689C231.653 409.93 232.398 411.861 232.398 414.674L234.398 414.674C234.398 411.52 233.556 408.975 231.702 407.232C229.86 405.501 227.189 404.723 223.876 404.723L223.876 406.723ZM232.398 414.674C232.398 417.67 231.644 419.735 230.312 421.058C228.979 422.382 226.897 423.131 223.876 423.131L223.876 425.131C227.202 425.131 229.881 424.305 231.722 422.477C233.564 420.647 234.398 417.982 234.398 414.674L232.398 414.674ZM223.876 423.131C222.15 423.131 220.563 422.891 219.106 422.418L218.489 424.321C220.165 424.864 221.963 425.131 223.876 425.131L223.876 423.131ZM219.798 423.37L219.798 422.1L217.798 422.1L217.798 423.37L219.798 423.37ZM248.384 424.005L247.537 424.537L247.831 425.005L248.383 425.005L248.384 424.005ZM242.963 415.994L242.24 416.685L242.244 416.689L242.963 415.994ZM240.348 414.826L239.348 414.826L239.348 415.826L240.348 415.826L240.348 414.826ZM240.348 413.899L240.348 412.899L239.348 412.899L239.348 413.899L240.348 413.899ZM244.956 409.875L244.068 409.415L244.067 409.418L244.956 409.875ZM250.783 405.851L251.783 405.851L251.783 404.851L250.783 404.851L250.783 405.851ZM250.783 406.993L250.783 407.993L251.783 407.993L251.783 406.993L250.783 406.993ZM245.946 410.446L246.829 410.916L246.83 410.914L245.946 410.446ZM242.531 414.382L242.233 413.427L242.36 415.367L242.531 414.382ZM244.626 415.816L243.883 416.485L243.886 416.489L244.626 415.816ZM250.212 424.005L250.212 425.005L252.04 425.005L251.054 423.465L250.212 424.005ZM238.824 405.85L239.824 405.85L239.824 404.85L238.824 404.85L238.824 405.85ZM238.824 424.005L238.824 425.005L239.824 425.005L239.824 424.005L238.824 424.005ZM237.491 424.005L236.491 424.005L236.491 425.005L237.491 425.005L237.491 424.005ZM237.491 405.85L237.491 404.85L236.491 404.85L236.491 405.85L237.491 405.85ZM249.23 423.473C247.793 421.184 246.617 419.363 245.705 418.014C244.81 416.691 244.125 415.757 243.682 415.299L242.244 416.689C242.546 417.001 243.136 417.787 244.048 419.135C244.943 420.456 246.105 422.256 247.537 424.537L249.23 423.473ZM243.685 415.303C242.769 414.344 241.642 413.826 240.348 413.826L240.348 415.826C241.05 415.826 241.667 416.087 242.24 416.685L243.685 415.303ZM241.348 414.826L241.348 413.899L239.348 413.899L239.348 414.826L241.348 414.826ZM240.348 414.899C242.642 414.899 244.432 413.081 245.845 410.332L244.067 409.418C242.721 412.035 241.438 412.899 240.348 412.899L240.348 414.899ZM245.844 410.334C247.214 407.687 248.452 406.851 249.425 406.851L249.425 404.851C247.215 404.851 245.474 406.697 244.068 409.415L245.844 410.334ZM249.425 406.851L250.783 406.851L250.783 404.851L249.425 404.851L249.425 406.851ZM249.783 405.851L249.783 406.993L251.783 406.993L251.783 405.851L249.783 405.851ZM250.783 405.993L249.78 405.993L249.78 407.993L250.783 407.993L250.783 405.993ZM249.78 405.993C247.824 405.993 246.294 407.652 245.062 409.978L246.83 410.914C248.036 408.636 249.062 407.993 249.78 407.993L249.78 405.993ZM245.063 409.977C244.474 411.086 243.925 411.917 243.423 412.495C242.912 413.083 242.511 413.34 242.233 413.427L242.829 415.336C243.609 415.093 244.306 414.529 244.934 413.806C245.57 413.072 246.2 412.1 246.829 410.915L245.063 409.977ZM242.36 415.367C242.66 415.419 243.168 415.692 243.883 416.485L245.369 415.147C244.56 414.248 243.672 413.565 242.702 413.396L242.36 415.367ZM243.886 416.489C244.212 416.848 244.831 417.682 245.767 419.055C246.691 420.409 247.891 422.238 249.37 424.545L251.054 423.465C249.57 421.151 248.358 419.304 247.42 417.928C246.495 416.572 245.801 415.622 245.366 415.144L243.886 416.489ZM250.212 423.005L248.384 423.005L248.383 425.005L250.212 425.005L250.212 423.005ZM237.824 405.85L237.824 424.005L239.824 424.005L239.824 405.85L237.824 405.85ZM238.824 423.005L237.491 423.005L237.491 425.005L238.824 425.005L238.824 423.005ZM238.491 424.005L238.491 405.85L236.491 405.85L236.491 424.005L238.491 424.005ZM237.491 406.85L238.824 406.85L238.824 404.85L237.491 404.85L237.491 406.85ZM253.737 414.877C253.737 417.721 254.407 420.04 255.923 421.648C257.45 423.266 259.671 423.989 262.392 423.99L262.392 421.99C260.01 421.989 258.403 421.361 257.378 420.275C256.343 419.178 255.737 417.441 255.737 414.877L253.737 414.877ZM262.392 423.99C265.072 423.99 267.26 423.263 268.762 421.641C270.252 420.034 270.908 417.717 270.908 414.877L268.908 414.877C268.908 417.445 268.311 419.185 267.295 420.282C266.292 421.364 264.723 421.99 262.392 421.99L262.392 423.99ZM270.908 414.877C270.908 412.068 270.25 409.775 268.758 408.185C267.255 406.583 265.069 405.867 262.392 405.866L262.392 407.866C264.726 407.867 266.298 408.485 267.3 409.553C268.313 410.633 268.908 412.346 268.908 414.877L270.908 414.877ZM262.392 405.866C259.675 405.866 257.455 406.58 255.928 408.178C254.408 409.768 253.737 412.064 253.737 414.877L255.737 414.877C255.737 412.35 256.341 410.64 257.374 409.56C258.398 408.488 260.007 407.866 262.392 407.866L262.392 405.866ZM254.277 414.953C254.277 412.028 254.999 410.018 256.267 408.734C257.533 407.452 259.511 406.724 262.392 406.724L262.392 404.724C259.197 404.724 256.617 405.534 254.844 407.328C253.074 409.121 252.277 411.726 252.277 414.953L254.277 414.953ZM262.392 406.724C265.223 406.724 267.164 407.45 268.407 408.729C269.655 410.012 270.368 412.024 270.368 414.954L272.368 414.954C272.368 411.73 271.584 409.127 269.841 407.334C268.092 405.536 265.546 404.724 262.392 404.724L262.392 406.724ZM270.368 414.954C270.368 417.865 269.656 419.863 268.409 421.138C267.166 422.41 265.224 423.132 262.392 423.132L262.392 425.132C265.544 425.132 268.09 424.325 269.839 422.537C271.583 420.753 272.368 418.162 272.368 414.954L270.368 414.954ZM262.392 423.132C259.51 423.132 257.531 422.407 256.265 421.133C254.998 419.857 254.277 417.86 254.277 414.953L252.277 414.953C252.277 418.165 253.075 420.758 254.846 422.542C256.619 424.327 259.198 425.132 262.392 425.132L262.392 423.132ZM275.588 424.005L274.588 424.005L274.588 425.005L275.588 425.005L275.588 424.005ZM275.588 405.851L275.588 404.851L274.588 404.851L274.588 405.851L275.588 405.851ZM276.921 405.851L277.921 405.851L277.921 404.851L276.921 404.851L276.921 405.851ZM276.921 414.103L275.921 414.103L275.921 415.103L276.921 415.103L276.921 414.103ZM288.284 414.103L288.283 415.103L289.283 415.103L289.284 414.103L288.284 414.103ZM288.284 405.851L288.284 404.851L287.284 404.851L287.284 405.851L288.284 405.851ZM289.617 405.851L290.617 405.851L290.617 404.851L289.617 404.851L289.617 405.851ZM289.616 424.006L289.616 425.006L290.616 425.006L290.616 424.006L289.616 424.006ZM288.283 424.006L287.283 424.006L287.283 425.006L288.283 425.006L288.283 424.006ZM288.283 415.246L289.283 415.246L289.284 414.246L288.284 414.246L288.283 415.246ZM276.921 415.246L276.921 414.246L275.921 414.246L275.921 415.246L276.921 415.246ZM276.921 424.005L276.921 425.005L277.921 425.005L277.921 424.005L276.921 424.005ZM276.588 424.005L276.588 405.851L274.588 405.851L274.588 424.005L276.588 424.005ZM275.588 406.851L276.921 406.851L276.921 404.851L275.588 404.851L275.588 406.851ZM275.921 405.851L275.921 414.103L277.921 414.103L277.921 405.851L275.921 405.851ZM276.921 415.103L288.283 415.103L288.284 413.103L276.921 413.103L276.921 415.103ZM289.284 414.103L289.284 405.851L287.284 405.851L287.284 414.103L289.284 414.103ZM288.284 406.851L289.617 406.851L289.617 404.851L288.284 404.851L288.284 406.851ZM288.617 405.851L288.616 424.006L290.616 424.006L290.617 405.851L288.617 405.851ZM289.616 423.006L288.283 423.006L288.283 425.006L289.616 425.006L289.616 423.006ZM289.283 424.006L289.283 415.246L287.284 415.246L287.283 424.006L289.283 424.006ZM288.284 414.246L276.921 414.246L276.921 416.246L288.283 416.246L288.284 414.246ZM275.921 415.246L275.921 424.005L277.921 424.005L277.921 415.246L275.921 415.246ZM276.921 423.005L275.588 423.005L275.588 425.005L276.921 425.005L276.921 423.005ZM294.297 414.878C294.297 417.722 294.967 420.041 296.483 421.648C298.01 423.266 300.231 423.99 302.952 423.99L302.952 421.99C300.57 421.99 298.963 421.362 297.938 420.276C296.903 419.179 296.297 417.442 296.297 414.878L294.297 414.878ZM302.952 423.99C305.632 423.99 307.82 423.264 309.322 421.642C310.812 420.035 311.468 417.718 311.468 414.878L309.468 414.878C309.468 417.446 308.871 419.186 307.855 420.283C306.853 421.365 305.283 421.99 302.952 421.99L302.952 423.99ZM311.468 414.878C311.468 412.069 310.81 409.776 309.318 408.186C307.815 406.583 305.629 405.867 302.952 405.867L302.952 407.867C305.286 407.867 306.858 408.486 307.86 409.554C308.873 410.634 309.468 412.347 309.468 414.878L311.468 414.878ZM302.952 405.867C300.235 405.867 298.015 406.58 296.488 408.179C294.968 409.769 294.297 412.064 294.297 414.878L296.297 414.878C296.297 412.351 296.901 410.641 297.934 409.561C298.958 408.489 300.567 407.867 302.952 407.867L302.952 405.867ZM294.837 414.954C294.837 412.029 295.559 410.019 296.827 408.735C298.093 407.453 300.071 406.725 302.952 406.725L302.952 404.725C299.757 404.725 297.177 405.535 295.404 407.329C293.634 409.121 292.837 411.726 292.837 414.954L294.837 414.954ZM302.952 406.725C305.783 406.725 307.724 407.451 308.967 408.729C310.216 410.013 310.928 412.025 310.928 414.954L312.928 414.954C312.928 411.731 312.144 409.128 310.401 407.335C308.652 405.537 306.106 404.725 302.952 404.725L302.952 406.725ZM310.928 414.954C310.928 417.865 310.216 419.864 308.969 421.139C307.726 422.41 305.784 423.133 302.952 423.133L302.952 425.133C306.104 425.133 308.65 424.326 310.399 422.537C312.143 420.753 312.928 418.162 312.928 414.954L310.928 414.954ZM302.952 423.133C300.07 423.133 298.091 422.408 296.825 421.133C295.558 419.857 294.837 417.861 294.837 414.954L292.837 414.954C292.837 418.166 293.635 420.759 295.406 422.543C297.179 424.328 299.758 425.133 302.952 425.133L302.952 423.133ZM316.148 424.006L315.148 424.006L315.148 425.006L316.148 425.006L316.148 424.006ZM316.148 405.852L316.148 404.852L315.148 404.852L315.148 405.852L316.148 405.852ZM317.481 405.852L318.378 405.409L318.103 404.852L317.481 404.852L317.481 405.852ZM325.67 422.445L324.773 422.887L325.698 424.763L326.577 422.865L325.67 422.445ZM333.351 405.852L333.351 404.852L332.712 404.852L332.443 405.432L333.351 405.852ZM334.557 405.852L335.557 405.852L335.557 404.852L334.557 404.852L334.557 405.852ZM334.556 424.006L334.556 425.006L335.556 425.006L335.556 424.006L334.556 424.006ZM333.35 424.006L332.35 424.006L332.35 425.006L333.35 425.006L333.35 424.006ZM333.35 408.302L334.35 408.302L332.442 407.885L333.35 408.302ZM326.139 424.006L326.139 425.006L326.78 425.006L327.048 424.424L326.139 424.006ZM325.047 424.006L324.148 424.443L324.422 425.006L325.047 425.006L325.047 424.006ZM317.354 408.175L318.254 407.738L316.354 408.175L317.354 408.175ZM317.354 424.006L317.354 425.006L318.354 425.006L318.354 424.006L317.354 424.006ZM317.148 424.006L317.148 405.852L315.148 405.852L315.148 424.006L317.148 424.006ZM316.148 406.852L317.481 406.852L317.481 404.852L316.148 404.852L316.148 406.852ZM316.585 406.294L324.773 422.887L326.566 422.002L318.378 405.409L316.585 406.294ZM326.577 422.865L334.258 406.272L332.443 405.432L324.762 422.025L326.577 422.865ZM333.351 406.852L334.557 406.852L334.557 404.852L333.351 404.852L333.351 406.852ZM333.557 405.852L333.556 424.006L335.556 424.006L335.557 405.852L333.557 405.852ZM334.556 423.006L333.35 423.006L333.35 425.006L334.556 425.006L334.556 423.006ZM334.35 424.006L334.35 408.302L332.35 408.302L332.35 424.006L334.35 424.006ZM332.442 407.885L325.23 423.589L327.048 424.424L334.259 408.72L332.442 407.885ZM326.139 423.006L325.047 423.006L325.047 425.006L326.139 425.006L326.139 423.006ZM325.947 423.569L318.254 407.738L316.455 408.612L324.148 424.443L325.947 423.569ZM316.354 408.175L316.354 424.006L318.354 424.006L318.354 408.175L316.354 408.175ZM317.354 423.006L316.148 423.006L316.148 425.006L317.354 425.006L317.354 423.006ZM352.221 424.007L351.221 424.007L351.221 425.007L352.221 425.007L352.221 424.007ZM352.221 407.858L353.221 407.858L353.221 404.699L351.403 407.283L352.221 407.858ZM340.859 424.007L340.859 425.007L341.378 425.007L341.677 424.582L340.859 424.007ZM339.399 424.007L338.399 424.007L338.399 425.007L339.399 425.007L339.399 424.007ZM339.399 405.852L339.399 404.852L338.399 404.852L338.399 405.852L339.399 405.852ZM340.732 405.852L341.732 405.852L341.732 404.852L340.732 404.852L340.732 405.852ZM340.732 422.001L339.732 422.001L339.732 425.16L341.55 422.576L340.732 422.001ZM352.094 405.852L352.094 404.852L351.575 404.852L351.277 405.277L352.094 405.852ZM353.554 405.852L354.554 405.853L354.554 404.853L353.554 404.852L353.554 405.852ZM353.554 424.007L353.554 425.007L354.554 425.007L354.554 424.007L353.554 424.007ZM353.221 424.007L353.221 407.858L351.221 407.858L351.221 424.007L353.221 424.007ZM351.403 407.283L340.041 423.431L341.677 424.582L353.039 408.434L351.403 407.283ZM340.859 423.007L339.399 423.007L339.399 425.007L340.859 425.007L340.859 423.007ZM340.399 424.007L340.399 405.852L338.399 405.852L338.399 424.007L340.399 424.007ZM339.399 406.852L340.732 406.852L340.732 404.852L339.399 404.852L339.399 406.852ZM339.732 405.852L339.732 422.001L341.732 422.001L341.732 405.852L339.732 405.852ZM341.55 422.576L352.912 406.428L351.277 405.277L339.914 421.425L341.55 422.576ZM352.094 406.852L353.554 406.852L353.554 404.852L352.094 404.852L352.094 406.852ZM352.554 405.852L352.554 424.007L354.554 424.007L354.554 405.853L352.554 405.852ZM353.554 423.007L352.221 423.007L352.221 425.007L353.554 425.007L353.554 423.007ZM371.079 405.853L372.079 405.853L372.079 404.853L371.079 404.853L371.079 405.853ZM371.079 424.007L371.079 425.007L372.079 425.007L372.079 424.007L371.079 424.007ZM369.746 424.007L368.746 424.007L368.746 425.007L369.746 425.007L369.746 424.007ZM369.746 415.958L370.746 415.958L370.746 414.22L369.244 415.094L369.746 415.958ZM357.965 405.853L357.965 404.853L356.965 404.853L356.965 405.853L357.965 405.853ZM359.298 405.853L360.298 405.853L360.298 404.853L359.298 404.853L359.298 405.853ZM369.746 414.524L370.351 415.32L370.746 415.02L370.746 414.524L369.746 414.524ZM369.746 405.853L369.746 404.853L368.746 404.853L368.746 405.853L369.746 405.853ZM370.079 405.853L370.079 424.007L372.079 424.007L372.079 405.853L370.079 405.853ZM371.079 423.007L369.746 423.007L369.746 425.007L371.079 425.007L371.079 423.007ZM370.746 424.007L370.746 415.958L368.746 415.958L368.746 424.007L370.746 424.007ZM369.244 415.094C367.742 415.967 366.1 416.405 364.3 416.405L364.3 418.405C366.443 418.405 368.433 417.879 370.249 416.823L369.244 415.094ZM364.3 416.405C362.333 416.405 361.044 415.931 360.243 415.159C359.449 414.393 358.965 413.171 358.965 411.299L356.965 411.299C356.965 413.498 357.537 415.329 358.855 416.599C360.165 417.862 362.043 418.405 364.3 418.405L364.3 416.405ZM358.965 411.299L358.965 405.853L356.965 405.853L356.965 411.299L358.965 411.299ZM357.965 406.853L359.298 406.853L359.298 404.853L357.965 404.853L357.965 406.853ZM358.298 405.853L358.298 411.337L360.298 411.337L360.298 405.853L358.298 405.853ZM358.298 411.337C358.298 413.126 358.765 414.649 359.871 415.714C360.97 416.771 362.53 417.212 364.363 417.212L364.363 415.212C362.82 415.212 361.847 414.84 361.258 414.273C360.676 413.712 360.298 412.798 360.298 411.337L358.298 411.337ZM364.363 417.212C366.659 417.212 368.673 416.595 370.351 415.32L369.141 413.728C367.857 414.704 366.283 415.212 364.363 415.212L364.363 417.212ZM370.746 414.524L370.746 405.853L368.746 405.853L368.746 414.524L370.746 414.524ZM369.746 406.853L371.079 406.853L371.079 404.853L369.746 404.853L369.746 406.853ZM387.843 405.853L388.843 405.853L388.843 404.853L387.843 404.853L387.843 405.853ZM387.843 406.996L387.843 407.996L388.843 407.996L388.843 406.996L387.843 406.996ZM377.255 406.995L377.255 405.995L376.255 405.995L376.255 406.995L377.255 406.995ZM377.255 414.232L376.255 414.232L376.255 415.232L377.255 415.232L377.255 414.232ZM387.411 414.232L388.411 414.232L388.411 413.232L387.411 413.232L387.411 414.232ZM387.411 415.375L387.411 416.375L388.411 416.375L388.411 415.375L387.411 415.375ZM377.255 415.374L377.255 414.374L376.255 414.374L376.255 415.374L377.255 415.374ZM377.255 422.865L376.255 422.865L376.255 423.865L377.255 423.865L377.255 422.865ZM388.02 422.865L389.02 422.865L389.02 421.865L388.02 421.865L388.02 422.865ZM388.02 424.007L388.02 425.007L389.02 425.007L389.02 424.007L388.02 424.007ZM375.922 424.007L374.922 424.007L374.922 425.007L375.922 425.007L375.922 424.007ZM375.922 405.853L375.922 404.853L374.922 404.853L374.922 405.853L375.922 405.853ZM386.843 405.853L386.843 406.996L388.843 406.996L388.843 405.853L386.843 405.853ZM387.843 405.996L377.255 405.995L377.255 407.995L387.843 407.996L387.843 405.996ZM376.255 406.995L376.255 414.232L378.255 414.232L378.255 406.996L376.255 406.995ZM377.255 415.232L387.411 415.232L387.411 413.232L377.255 413.232L377.255 415.232ZM386.411 414.232L386.411 415.375L388.411 415.375L388.411 414.232L386.411 414.232ZM387.411 414.375L377.255 414.374L377.255 416.374L387.411 416.375L387.411 414.375ZM376.255 415.374L376.255 422.865L378.255 422.865L378.255 415.374L376.255 415.374ZM377.255 423.865L388.02 423.865L388.02 421.865L377.255 421.865L377.255 423.865ZM387.02 422.865L387.02 424.007L389.02 424.007L389.02 422.865L387.02 422.865ZM388.02 423.007L375.922 423.007L375.922 425.007L388.02 425.007L388.02 423.007ZM376.922 424.007L376.922 405.853L374.922 405.853L374.922 424.007L376.922 424.007ZM375.922 406.853L387.843 406.853L387.843 404.853L375.922 404.853L375.922 406.853ZM406.51 423.373L406.804 424.329L407.51 424.112L407.51 423.373L406.51 423.373ZM406.511 406.488L407.511 406.488L407.511 405.75L406.805 405.532L406.511 406.488ZM406.511 407.631L406.216 408.587L407.511 408.985L407.511 407.631L406.511 407.631ZM406.51 422.23L407.51 422.23L407.51 420.876L406.216 421.275L406.51 422.23ZM406.216 422.417C404.662 422.896 403.068 423.135 401.432 423.135L401.432 425.135C403.266 425.135 405.058 424.866 406.804 424.329L406.216 422.417ZM401.432 423.135C398.411 423.135 396.329 422.385 394.996 421.061C393.664 419.738 392.911 417.673 392.911 414.676L390.911 414.676C390.911 417.985 391.744 420.65 393.586 422.479C395.427 424.308 398.106 425.135 401.432 425.135L401.432 423.135ZM392.911 414.676C392.911 411.864 393.656 409.933 394.976 408.692C396.308 407.441 398.398 406.726 401.432 406.726L401.432 404.726C398.119 404.726 395.448 405.504 393.606 407.235C391.753 408.978 390.911 411.522 390.911 414.676L392.911 414.676ZM401.432 406.726C403.068 406.726 404.662 406.966 406.216 407.444L406.805 405.532C405.059 404.995 403.267 404.726 401.432 404.726L401.432 406.726ZM405.511 406.488L405.511 407.631L407.511 407.631L407.511 406.488L405.511 406.488ZM406.805 406.675C405.069 406.141 403.361 405.869 401.686 405.869L401.686 407.869C403.143 407.869 404.652 408.105 406.216 408.587L406.805 406.675ZM401.686 405.869C398.737 405.869 396.338 406.549 394.676 408.087C392.998 409.638 392.244 411.899 392.244 414.676L394.244 414.676C394.244 412.249 394.896 410.606 396.033 409.555C397.185 408.49 399.008 407.869 401.686 407.869L401.686 405.869ZM392.244 414.676C392.244 417.606 392.989 419.986 394.653 421.625C396.314 423.262 398.722 423.992 401.686 423.992L401.686 421.992C399.022 421.992 397.209 421.336 396.056 420.201C394.906 419.068 394.244 417.29 394.244 414.676L392.244 414.676ZM401.686 423.992C403.361 423.992 405.068 423.72 406.804 423.186L406.216 421.275C404.651 421.756 403.142 421.992 401.686 421.992L401.686 423.992ZM405.51 422.23L405.51 423.373L407.51 423.373L407.51 422.23L405.51 422.23ZM422.068 424.008L421.221 424.54L421.515 425.008L422.068 425.008L422.068 424.008ZM416.647 415.997L415.924 416.688L415.928 416.692L416.647 415.997ZM414.032 414.829L413.032 414.829L413.032 415.829L414.032 415.829L414.032 414.829ZM414.032 413.902L414.032 412.902L413.032 412.902L413.032 413.902L414.032 413.902ZM418.64 409.878L417.752 409.419L417.751 409.421L418.64 409.878ZM424.467 405.854L425.467 405.854L425.467 404.854L424.467 404.854L424.467 405.854ZM424.467 406.996L424.467 407.996L425.467 407.996L425.467 406.996L424.467 406.996ZM419.63 410.449L420.513 410.919L420.514 410.917L419.63 410.449ZM416.215 414.385L415.917 413.43L416.044 415.37L416.215 414.385ZM418.31 415.819L417.567 416.488L417.57 416.492L418.31 415.819ZM423.896 424.008L423.896 425.008L425.725 425.008L424.738 423.468L423.896 424.008ZM412.508 405.854L413.508 405.854L413.508 404.854L412.508 404.854L412.508 405.854ZM412.508 424.008L412.508 425.008L413.508 425.008L413.508 424.008L412.508 424.008ZM411.175 424.008L410.175 424.008L410.175 425.008L411.175 425.008L411.175 424.008ZM411.175 405.854L411.175 404.854L410.175 404.854L410.175 405.854L411.175 405.854ZM422.915 423.476C421.477 421.187 420.301 419.366 419.389 418.017C418.494 416.694 417.809 415.76 417.366 415.302L415.928 416.692C416.23 417.004 416.82 417.79 417.732 419.138C418.627 420.459 419.789 422.259 421.221 424.54L422.915 423.476ZM417.369 415.306C416.453 414.347 415.326 413.829 414.032 413.829L414.032 415.829C414.734 415.829 415.351 416.09 415.924 416.688L417.369 415.306ZM415.032 414.829L415.032 413.902L413.032 413.902L413.032 414.829L415.032 414.829ZM414.032 414.902C416.326 414.902 418.116 413.084 419.529 410.335L417.751 409.421C416.405 412.038 415.122 412.902 414.032 412.902L414.032 414.902ZM419.528 410.338C420.898 407.69 422.136 406.854 423.109 406.854L423.109 404.854C420.899 404.854 419.158 406.7 417.752 409.419L419.528 410.338ZM423.109 406.854L424.467 406.854L424.467 404.854L423.109 404.854L423.109 406.854ZM423.467 405.854L423.467 406.996L425.467 406.996L425.467 405.854L423.467 405.854ZM424.467 405.996L423.464 405.996L423.464 407.996L424.467 407.996L424.467 405.996ZM423.464 405.996C421.508 405.996 419.978 407.655 418.747 409.981L420.514 410.917C421.72 408.64 422.746 407.996 423.464 407.996L423.464 405.996ZM418.747 409.98C418.158 411.09 417.609 411.92 417.107 412.498C416.597 413.087 416.195 413.344 415.917 413.43L416.513 415.339C417.293 415.096 417.99 414.532 418.618 413.809C419.254 413.075 419.884 412.103 420.513 410.919L418.747 409.98ZM416.044 415.37C416.344 415.422 416.852 415.695 417.567 416.488L419.053 415.151C418.244 414.252 417.356 413.568 416.386 413.4L416.044 415.37ZM417.57 416.492C417.896 416.851 418.515 417.685 419.452 419.059C420.375 420.412 421.575 422.241 423.054 424.548L424.738 423.468C423.254 421.154 422.042 419.308 421.104 417.932C420.179 416.575 419.485 415.626 419.05 415.147L417.57 416.492ZM423.896 423.008L422.068 423.008L422.068 425.008L423.896 425.008L423.896 423.008ZM411.508 405.854L411.508 424.008L413.508 424.008L413.508 405.854L411.508 405.854ZM412.508 423.008L411.175 423.008L411.175 425.008L412.508 425.008L412.508 423.008ZM412.175 424.008L412.175 405.854L410.175 405.854L410.175 424.008L412.175 424.008ZM411.175 406.854L412.508 406.854L412.508 404.854L411.175 404.854L411.175 406.854ZM440.418 424.008L439.418 424.008L439.418 425.008L440.418 425.008L440.418 424.008ZM440.418 407.86L441.418 407.86L441.418 404.701L439.6 407.284L440.418 407.86ZM429.056 424.008L429.056 425.008L429.575 425.008L429.873 424.584L429.056 424.008ZM427.596 424.008L426.596 424.008L426.596 425.008L427.596 425.008L427.596 424.008ZM427.596 405.854L427.596 404.854L426.596 404.854L426.596 405.854L427.596 405.854ZM428.929 405.854L429.929 405.854L429.929 404.854L428.929 404.854L428.929 405.854ZM428.929 422.002L427.929 422.002L427.929 425.161L429.746 422.578L428.929 422.002ZM440.291 405.854L440.291 404.854L439.772 404.854L439.473 405.279L440.291 405.854ZM441.751 405.854L442.751 405.854L442.751 404.854L441.751 404.854L441.751 405.854ZM441.751 424.008L441.751 425.008L442.751 425.008L442.751 424.008L441.751 424.008ZM441.418 424.008L441.418 407.86L439.418 407.86L439.418 424.008L441.418 424.008ZM439.6 407.284L428.238 423.433L429.873 424.584L441.236 408.435L439.6 407.284ZM429.056 423.008L427.596 423.008L427.596 425.008L429.056 425.008L429.056 423.008ZM428.596 424.008L428.596 405.854L426.596 405.854L426.596 424.008L428.596 424.008ZM427.596 406.854L428.929 406.854L428.929 404.854L427.596 404.854L427.596 406.854ZM427.929 405.854L427.929 422.002L429.929 422.002L429.929 405.854L427.929 405.854ZM429.746 422.578L441.109 406.43L439.473 405.279L428.111 421.427L429.746 422.578ZM440.291 406.854L441.751 406.854L441.751 404.854L440.291 404.854L440.291 406.854ZM440.751 405.854L440.751 424.008L442.751 424.008L442.751 405.854L440.751 405.854ZM441.751 423.008L440.418 423.008L440.418 425.008L441.751 425.008L441.751 423.008ZM450.542 401.36L450.542 400.36L449.542 400.36L449.542 401.36L450.542 401.36ZM451.621 401.36L452.621 401.36L452.621 400.36L451.621 400.36L451.621 401.36ZM455.938 401.36L455.938 400.36L454.938 400.36L454.938 401.36L455.938 401.36ZM457.017 401.36L458.017 401.36L458.017 400.36L457.017 400.36L457.017 401.36ZM459.428 424.009L458.428 424.009L458.428 425.009L459.428 425.009L459.428 424.009ZM459.429 407.86L460.429 407.86L460.429 404.701L458.611 407.285L459.429 407.86ZM448.066 424.008L448.066 425.008L448.585 425.009L448.884 424.584L448.066 424.008ZM446.606 424.008L445.606 424.008L445.606 425.008L446.606 425.008L446.606 424.008ZM446.606 405.854L446.606 404.854L445.606 404.854L445.606 405.854L446.606 405.854ZM447.939 405.854L448.939 405.854L448.939 404.854L447.939 404.854L447.939 405.854ZM447.939 422.003L446.939 422.003L446.939 425.162L448.757 422.578L447.939 422.003ZM459.302 405.854L459.302 404.854L458.783 404.854L458.484 405.279L459.302 405.854ZM460.762 405.854L461.762 405.854L461.762 404.854L460.762 404.854L460.762 405.854ZM460.761 424.009L460.761 425.009L461.761 425.009L461.761 424.009L460.761 424.009ZM450.542 402.36L451.621 402.36L451.621 400.36L450.542 400.36L450.542 402.36ZM450.621 401.36C450.621 402.262 450.833 403.125 451.434 403.761C452.044 404.407 452.891 404.645 453.779 404.645L453.779 402.645C453.229 402.645 452.996 402.502 452.888 402.387C452.769 402.262 452.621 401.982 452.621 401.36L450.621 401.36ZM453.779 404.645C454.668 404.645 455.514 404.407 456.125 403.761C456.726 403.125 456.938 402.262 456.938 401.36L454.938 401.36C454.938 401.982 454.79 402.262 454.671 402.387C454.562 402.502 454.33 402.645 453.779 402.645L453.779 404.645ZM455.938 402.36L457.017 402.36L457.017 400.36L455.938 400.36L455.938 402.36ZM456.017 401.36C456.017 402.311 455.784 402.84 455.493 403.136C455.207 403.428 454.699 403.661 453.779 403.661L453.779 405.661C455.017 405.661 456.129 405.344 456.921 404.536C457.71 403.732 458.017 402.61 458.017 401.36L456.017 401.36ZM453.779 403.661C452.859 403.661 452.352 403.428 452.065 403.136C451.775 402.84 451.542 402.311 451.542 401.36L449.542 401.36C449.542 402.61 449.848 403.731 450.637 404.536C451.43 405.344 452.541 405.661 453.779 405.661L453.779 403.661ZM460.428 424.009L460.429 407.86L458.429 407.86L458.428 424.009L460.428 424.009ZM458.611 407.285L447.248 423.433L448.884 424.584L460.246 408.436L458.611 407.285ZM448.066 423.008L446.606 423.008L446.606 425.008L448.066 425.008L448.066 423.008ZM447.606 424.008L447.606 405.854L445.606 405.854L445.606 424.008L447.606 424.008ZM446.606 406.854L447.939 406.854L447.939 404.854L446.606 404.854L446.606 406.854ZM446.939 405.854L446.939 422.003L448.939 422.003L448.939 405.854L446.939 405.854ZM448.757 422.578L460.12 406.43L458.484 405.279L447.121 421.427L448.757 422.578ZM459.302 406.854L460.762 406.854L460.762 404.854L459.302 404.854L459.302 406.854ZM459.762 405.854L459.761 424.009L461.761 424.009L461.762 405.854L459.762 405.854ZM460.761 423.009L459.428 423.009L459.428 425.009L460.761 425.009L460.761 423.009ZM197.725 453.004L196.725 453.004L196.725 454.004L197.725 454.004L197.725 453.004ZM197.725 436.856L198.725 436.856L198.725 433.697L196.907 436.28L197.725 436.856ZM186.362 453.004L186.362 454.004L186.881 454.004L187.18 453.579L186.362 453.004ZM184.902 453.004L183.902 453.004L183.902 454.004L184.902 454.004L184.902 453.004ZM184.903 434.849L184.903 433.849L183.903 433.849L183.903 434.849L184.903 434.849ZM186.236 434.849L187.236 434.849L187.236 433.849L186.236 433.849L186.236 434.849ZM186.235 450.998L185.235 450.998L185.235 454.157L187.053 451.573L186.235 450.998ZM197.598 434.85L197.598 433.85L197.079 433.85L196.78 434.274L197.598 434.85ZM199.058 434.85L200.058 434.85L200.058 433.85L199.058 433.85L199.058 434.85ZM199.058 453.004L199.058 454.004L200.058 454.004L200.058 453.004L199.058 453.004ZM198.725 453.004L198.725 436.856L196.725 436.856L196.725 453.004L198.725 453.004ZM196.907 436.28L185.544 452.428L187.18 453.579L198.543 437.431L196.907 436.28ZM186.362 452.004L184.902 452.004L184.902 454.004L186.362 454.004L186.362 452.004ZM185.902 453.004L185.903 434.849L183.903 434.849L183.902 453.004L185.902 453.004ZM184.903 435.849L186.236 435.849L186.236 433.849L184.903 433.849L184.903 435.849ZM185.236 434.849L185.235 450.998L187.235 450.998L187.236 434.849L185.236 434.849ZM187.053 451.573L198.416 435.425L196.78 434.274L185.418 450.422L187.053 451.573ZM197.598 435.85L199.058 435.85L199.058 433.85L197.598 433.85L197.598 435.85ZM198.058 434.85L198.058 453.004L200.058 453.004L200.058 434.85L198.058 434.85ZM199.058 452.004L197.725 452.004L197.725 454.004L199.058 454.004L199.058 452.004ZM203.913 453.004L202.913 453.004L202.913 454.004L203.913 454.004L203.913 453.004ZM203.913 434.85L203.913 433.85L202.913 433.85L202.913 434.85L203.913 434.85ZM205.246 434.85L206.246 434.85L206.246 433.85L205.246 433.85L205.246 434.85ZM205.246 443.102L204.246 443.102L204.246 444.102L205.246 444.102L205.246 443.102ZM216.608 443.102L216.608 444.102L217.608 444.102L217.608 443.102L216.608 443.102ZM216.608 434.85L216.608 433.85L215.608 433.85L215.608 434.85L216.608 434.85ZM217.941 434.85L218.941 434.85L218.941 433.85L217.941 433.85L217.941 434.85ZM217.941 453.004L217.941 454.004L218.941 454.004L218.941 453.004L217.941 453.004ZM216.608 453.004L215.608 453.004L215.608 454.004L216.608 454.004L216.608 453.004ZM216.608 444.245L217.608 444.245L217.608 443.245L216.608 443.245L216.608 444.245ZM205.246 444.244L205.246 443.244L204.246 443.244L204.246 444.244L205.246 444.244ZM205.246 453.004L205.246 454.004L206.246 454.004L206.246 453.004L205.246 453.004ZM204.913 453.004L204.913 434.85L202.913 434.85L202.913 453.004L204.913 453.004ZM203.913 435.85L205.246 435.85L205.246 433.85L203.913 433.85L203.913 435.85ZM204.246 434.85L204.246 443.102L206.246 443.102L206.246 434.85L204.246 434.85ZM205.246 444.102L216.608 444.102L216.608 442.102L205.246 442.102L205.246 444.102ZM217.608 443.102L217.608 434.85L215.608 434.85L215.608 443.102L217.608 443.102ZM216.608 435.85L217.941 435.85L217.941 433.85L216.608 433.85L216.608 435.85ZM216.941 434.85L216.941 453.004L218.941 453.004L218.941 434.85L216.941 434.85ZM217.941 452.004L216.608 452.004L216.608 454.004L217.941 454.004L217.941 452.004ZM217.608 453.004L217.608 444.245L215.608 444.245L215.608 453.004L217.608 453.004ZM216.608 443.245L205.246 443.244L205.246 445.244L216.608 445.245L216.608 443.245ZM204.246 444.244L204.246 453.004L206.246 453.004L206.246 444.244L204.246 444.244ZM205.246 452.004L203.913 452.004L203.913 454.004L205.246 454.004L205.246 452.004ZM236.761 452.37L237.055 453.326L237.761 453.109L237.761 452.37L236.761 452.37ZM236.761 435.485L237.761 435.485L237.762 434.747L237.056 434.529L236.761 435.485ZM236.761 436.628L236.467 437.583L237.761 437.982L237.761 436.628L236.761 436.628ZM236.761 451.227L237.761 451.227L237.761 449.873L236.467 450.272L236.761 451.227ZM236.467 451.414C234.912 451.892 233.319 452.132 231.683 452.132L231.683 454.132C233.517 454.132 235.309 453.863 237.055 453.326L236.467 451.414ZM231.683 452.132C228.662 452.131 226.58 451.382 225.247 450.057C223.915 448.735 223.162 446.67 223.162 443.673L221.162 443.673C221.162 446.982 221.995 449.647 223.837 451.476C225.678 453.305 228.357 454.131 231.683 454.132L231.683 452.132ZM223.162 443.673C223.162 440.86 223.907 438.93 225.227 437.689C226.559 436.438 228.649 435.723 231.683 435.723L231.683 433.723C228.37 433.723 225.699 434.501 223.857 436.232C222.004 437.975 221.162 440.519 221.162 443.673L223.162 443.673ZM231.683 435.723C233.319 435.723 234.913 435.963 236.467 436.441L237.056 434.529C235.309 433.992 233.518 433.723 231.683 433.723L231.683 435.723ZM235.761 435.485L235.761 436.628L237.761 436.628L237.761 435.485L235.761 435.485ZM237.056 435.672C235.32 435.138 233.612 434.866 231.937 434.866L231.937 436.866C233.394 436.866 234.903 437.102 236.467 437.583L237.056 435.672ZM231.937 434.866C228.988 434.866 226.589 435.546 224.926 437.084C223.249 438.635 222.495 440.896 222.495 443.673L224.495 443.673C224.495 441.246 225.147 439.603 226.284 438.552C227.436 437.487 229.259 436.866 231.937 436.866L231.937 434.866ZM222.495 443.673C222.495 446.603 223.239 448.983 224.903 450.622C226.565 452.259 228.972 452.989 231.937 452.989L231.937 450.989C229.273 450.989 227.46 450.333 226.307 449.198C225.157 448.065 224.495 446.287 224.495 443.673L222.495 443.673ZM231.937 452.989C233.612 452.989 235.319 452.717 237.055 452.183L236.467 450.272C234.902 450.753 233.393 450.989 231.937 450.989L231.937 452.989ZM235.761 451.227L235.761 452.37L237.761 452.37L237.761 451.227L235.761 451.227ZM253.169 434.851L254.169 434.851L254.169 433.851L253.169 433.851L253.169 434.851ZM253.169 435.993L253.169 436.993L254.169 436.993L254.169 435.993L253.169 435.993ZM246.949 435.993L246.949 434.993L245.949 434.993L245.949 435.993L246.949 435.993ZM246.948 453.005L246.948 454.005L247.948 454.005L247.948 453.005L246.948 453.005ZM245.615 453.005L244.615 453.005L244.615 454.005L245.615 454.005L245.615 453.005ZM245.616 435.993L246.616 435.993L246.616 434.993L245.616 434.993L245.616 435.993ZM239.522 435.993L238.522 435.993L238.522 436.993L239.522 436.993L239.522 435.993ZM239.522 434.85L239.522 433.85L238.522 433.85L238.522 434.85L239.522 434.85ZM252.169 434.851L252.169 435.993L254.169 435.993L254.169 434.851L252.169 434.851ZM253.169 434.993L246.949 434.993L246.949 436.993L253.169 436.993L253.169 434.993ZM245.949 435.993L245.948 453.005L247.948 453.005L247.949 435.993L245.949 435.993ZM246.948 452.005L245.615 452.005L245.615 454.005L246.948 454.005L246.948 452.005ZM246.615 453.005L246.616 435.993L244.616 435.993L244.615 453.005L246.615 453.005ZM245.616 434.993L239.522 434.993L239.522 436.993L245.616 436.993L245.616 434.993ZM240.522 435.993L240.522 434.85L238.522 434.85L238.522 435.993L240.522 435.993ZM239.522 435.85L253.169 435.851L253.169 433.851L239.522 433.85L239.522 435.85ZM268.942 453.005L267.942 453.005L267.942 454.005L268.942 454.005L268.942 453.005ZM268.943 436.857L269.943 436.857L269.943 433.698L268.125 436.281L268.943 436.857ZM257.58 453.005L257.58 454.005L258.099 454.005L258.398 453.581L257.58 453.005ZM256.12 453.005L255.12 453.005L255.12 454.005L256.12 454.005L256.12 453.005ZM256.12 434.851L256.12 433.851L255.12 433.851L255.12 434.851L256.12 434.851ZM257.453 434.851L258.453 434.851L258.453 433.851L257.453 433.851L257.453 434.851ZM257.453 450.999L256.453 450.999L256.453 454.158L258.271 451.575L257.453 450.999ZM268.816 434.851L268.816 433.851L268.297 433.851L267.998 434.275L268.816 434.851ZM270.276 434.851L271.276 434.851L271.276 433.851L270.276 433.851L270.276 434.851ZM270.275 453.005L270.275 454.005L271.275 454.005L271.275 453.005L270.275 453.005ZM269.942 453.005L269.943 436.857L267.943 436.857L267.942 453.005L269.942 453.005ZM268.125 436.281L256.762 452.43L258.398 453.581L269.76 437.432L268.125 436.281ZM257.58 452.005L256.12 452.005L256.12 454.005L257.58 454.005L257.58 452.005ZM257.12 453.005L257.12 434.851L255.12 434.851L255.12 453.005L257.12 453.005ZM256.12 435.851L257.453 435.851L257.453 433.851L256.12 433.851L256.12 435.851ZM256.453 434.851L256.453 450.999L258.453 450.999L258.453 434.851L256.453 434.851ZM258.271 451.575L269.633 435.426L267.998 434.275L256.635 450.424L258.271 451.575ZM268.816 435.851L270.276 435.851L270.276 433.851L268.816 433.851L268.816 435.851ZM269.276 434.851L269.275 453.005L271.275 453.005L271.276 434.851L269.276 434.851ZM270.275 452.005L268.942 452.005L268.942 454.005L270.275 454.005L270.275 452.005ZM286.874 434.851L287.874 434.851L287.874 433.851L286.874 433.851L286.874 434.851ZM286.874 435.994L286.874 436.994L287.874 436.994L287.874 435.994L286.874 435.994ZM280.653 435.994L280.653 434.994L279.653 434.994L279.653 435.994L280.653 435.994ZM280.653 453.005L280.653 454.005L281.653 454.005L281.653 453.005L280.653 453.005ZM279.32 453.005L278.32 453.005L278.32 454.005L279.32 454.005L279.32 453.005ZM279.32 435.994L280.32 435.994L280.32 434.994L279.32 434.994L279.32 435.994ZM273.226 435.994L272.226 435.994L272.226 436.994L273.226 436.994L273.226 435.994ZM273.227 434.851L273.227 433.851L272.227 433.851L272.227 434.851L273.227 434.851ZM285.874 434.851L285.874 435.994L287.874 435.994L287.874 434.851L285.874 434.851ZM286.874 434.994L280.653 434.994L280.653 436.994L286.874 436.994L286.874 434.994ZM279.653 435.994L279.653 453.005L281.653 453.005L281.653 435.994L279.653 435.994ZM280.653 452.005L279.32 452.005L279.32 454.005L280.653 454.005L280.653 452.005ZM280.32 453.005L280.32 435.994L278.32 435.994L278.32 453.005L280.32 453.005ZM279.32 434.994L273.226 434.994L273.226 436.994L279.32 436.994L279.32 434.994ZM274.226 435.994L274.227 434.851L272.227 434.851L272.226 435.994L274.226 435.994ZM273.226 435.851L286.874 435.851L286.874 433.851L273.227 433.851L273.226 435.851ZM304.069 434.852L304.99 435.242L305.58 433.852L304.069 433.852L304.069 434.852ZM297.81 449.603L298.73 449.995L298.73 449.994L297.81 449.603ZM289.875 452.117L288.875 452.117L288.875 452.66L289.331 452.956L289.875 452.117ZM289.875 450.974L290.426 450.14L288.875 449.116L288.875 450.974L289.875 450.974ZM296.35 449.565L297.294 449.894L297.439 449.479L297.23 449.091L296.35 449.565ZM288.428 434.851L288.428 433.851L286.754 433.851L287.548 435.325L288.428 434.851ZM289.888 434.851L290.77 434.38L290.488 433.851L289.888 433.851L289.888 434.851ZM297.086 448.309L296.205 448.78L297.202 450.646L298.011 448.69L297.086 448.309ZM302.647 434.852L302.647 433.852L301.978 433.852L301.723 434.47L302.647 434.852ZM303.148 434.461L296.889 449.213L298.73 449.994L304.99 435.242L303.148 434.461ZM296.89 449.212C296.464 450.212 295.918 450.895 295.284 451.332C294.654 451.766 293.867 452.006 292.871 452.006L292.871 454.006C294.204 454.006 295.403 453.679 296.419 452.979C297.431 452.281 298.191 451.263 298.73 449.995L296.89 449.212ZM292.871 452.006C291.982 452.006 291.172 451.766 290.419 451.278L289.331 452.956C290.406 453.653 291.594 454.006 292.871 454.006L292.871 452.006ZM290.875 452.117L290.875 450.974L288.875 450.974L288.875 452.117L290.875 452.117ZM289.324 451.809C290.385 452.509 291.562 452.863 292.833 452.863L292.833 450.863C291.954 450.863 291.16 450.624 290.426 450.14L289.324 451.809ZM292.833 452.863C293.877 452.863 294.828 452.642 295.618 452.126C296.417 451.603 296.967 450.834 297.294 449.894L295.406 449.237C295.2 449.828 294.897 450.208 294.524 450.452C294.142 450.701 293.601 450.863 292.833 450.863L292.833 452.863ZM297.23 449.091L289.309 434.377L287.548 435.325L295.469 450.039L297.23 449.091ZM288.428 435.851L289.888 435.851L289.888 433.851L288.428 433.851L288.428 435.851ZM289.007 435.323L296.205 448.78L297.968 447.837L290.77 434.38L289.007 435.323ZM298.011 448.69L303.571 435.233L301.723 434.47L296.162 447.927L298.011 448.69ZM302.647 435.852L304.069 435.852L304.069 433.852L302.647 433.852L302.647 435.852ZM318.953 434.852L319.953 434.852L319.954 433.852L318.954 433.852L318.953 434.852ZM318.953 435.994L318.953 436.994L319.953 436.994L319.953 435.994L318.953 435.994ZM312.733 435.994L312.733 434.994L311.733 434.994L311.733 435.994L312.733 435.994ZM312.732 453.006L312.732 454.006L313.732 454.006L313.732 453.006L312.732 453.006ZM311.399 453.006L310.399 453.006L310.399 454.006L311.399 454.006L311.399 453.006ZM311.4 435.994L312.4 435.994L312.4 434.994L311.4 434.994L311.4 435.994ZM305.306 435.994L304.306 435.994L304.306 436.994L305.306 436.994L305.306 435.994ZM305.306 434.852L305.306 433.852L304.306 433.852L304.306 434.852L305.306 434.852ZM317.953 434.852L317.953 435.994L319.953 435.994L319.953 434.852L317.953 434.852ZM318.953 434.994L312.733 434.994L312.733 436.994L318.953 436.994L318.953 434.994ZM311.733 435.994L311.732 453.006L313.732 453.006L313.733 435.994L311.733 435.994ZM312.732 452.006L311.399 452.006L311.399 454.006L312.732 454.006L312.732 452.006ZM312.399 453.006L312.4 435.994L310.4 435.994L310.399 453.006L312.399 453.006ZM311.4 434.994L305.306 434.994L305.306 436.994L311.4 436.994L311.4 434.994ZM306.306 435.994L306.306 434.852L304.306 434.852L304.306 435.994L306.306 435.994ZM305.306 435.852L318.953 435.852L318.954 433.852L305.306 433.852L305.306 435.852Z" fill="#BADEFF"/>
</svg>
