<svg width="501" height="501" viewBox="0 0 501 501" fill="none" xmlns="http://www.w3.org/2000/svg">
<mask id="path-1-inside-1_336_559" fill="white">
<path d="M11.22 345.042L96.3186 345.044C97.665 345.044 98.9433 345.636 99.814 346.663L174.56 434.821L15.8012 434.818C13.2702 434.818 11.2184 432.766 11.2184 430.235L11.22 345.042Z"/>
</mask>
<path d="M11.22 345.042L96.3186 345.044C97.665 345.044 98.9433 345.636 99.814 346.663L174.56 434.821L15.8012 434.818C13.2702 434.818 11.2184 432.766 11.2184 430.235L11.22 345.042Z" stroke="#BADEFF" stroke-width="14" mask="url(#path-1-inside-1_336_559)"/>
<mask id="path-2-inside-2_336_559" fill="white">
<path d="M487.53 345.051L402.431 345.049C401.084 345.049 399.806 345.641 398.935 346.668L324.186 434.824L482.945 434.826C485.476 434.826 487.528 432.775 487.528 430.244L487.53 345.051Z"/>
</mask>
<path d="M487.53 345.051L402.431 345.049C401.084 345.049 399.806 345.641 398.935 346.668L324.186 434.824L482.945 434.826C485.476 434.826 487.528 432.775 487.528 430.244L487.53 345.051Z" stroke="#BADEFF" stroke-width="14" mask="url(#path-2-inside-2_336_559)"/>
<mask id="path-3-inside-3_336_559" fill="white">
<path d="M92.3223 303.651C93.1343 303.003 94.1426 302.65 95.1816 302.65L403.568 302.655C404.607 302.655 405.615 303.009 406.427 303.657L440.147 330.579L402.53 330.579C401.181 330.578 399.9 331.173 399.03 332.203L323.658 421.366C323.425 421.641 323.297 421.991 323.297 422.352L323.297 434.824L176.243 434.821L176.243 422.354C176.243 421.99 176.113 421.638 175.877 421.362L99.7175 332.18C98.8468 331.16 97.5733 330.573 96.2326 330.573L58.6011 330.572L92.3223 303.651Z"/>
</mask>
<path d="M92.3223 303.651C93.1343 303.003 94.1426 302.65 95.1816 302.65L403.568 302.655C404.607 302.655 405.615 303.009 406.427 303.657L440.147 330.579L402.53 330.579C401.181 330.578 399.9 331.173 399.03 332.203L323.658 421.366C323.425 421.641 323.297 421.991 323.297 422.352L323.297 434.824L176.243 434.821L176.243 422.354C176.243 421.99 176.113 421.638 175.877 421.362L99.7175 332.18C98.8468 331.16 97.5733 330.573 96.2326 330.573L58.6011 330.572L92.3223 303.651Z" stroke="#BADEFF" stroke-width="14" mask="url(#path-3-inside-3_336_559)"/>
<mask id="path-4-inside-4_336_559" fill="white">
<path d="M11.2223 212.873L93.7825 212.874L404.971 212.88L487.531 212.881L487.529 331.117L441.486 331.116L441.486 321.752C441.486 321.267 441.257 320.812 440.867 320.524L406.184 294.855C405.395 294.271 404.44 293.956 403.458 293.956L95.2924 293.95C94.3109 293.95 93.3552 294.265 92.5662 294.849L57.8824 320.517C57.4932 320.805 57.2635 321.261 57.2635 321.745L57.2634 331.109L11.2202 331.109L11.2223 212.873Z"/>
</mask>
<path d="M11.2223 212.873L93.7825 212.874L404.971 212.88L487.531 212.881L487.529 331.117L441.486 331.116L441.486 321.752C441.486 321.267 441.257 320.812 440.867 320.524L406.184 294.855C405.395 294.271 404.44 293.956 403.458 293.956L95.2924 293.95C94.3109 293.95 93.3552 294.265 92.5662 294.849L57.8824 320.517C57.4932 320.805 57.2635 321.261 57.2635 321.745L57.2634 331.109L11.2202 331.109L11.2223 212.873Z" stroke="#BADEFF" stroke-width="14" mask="url(#path-4-inside-4_336_559)"/>
<mask id="path-5-inside-5_336_559" fill="white">
<path d="M11.2244 85.0073C11.2245 82.4763 13.2763 80.4245 15.8073 80.4245L482.951 80.433C485.482 80.433 487.533 82.4849 487.533 85.0159L487.532 187.944L11.2225 187.935L11.2244 85.0073Z"/>
</mask>
<path d="M11.2244 85.0073C11.2245 82.4763 13.2763 80.4245 15.8073 80.4245L482.951 80.433C485.482 80.433 487.533 82.4849 487.533 85.0159L487.532 187.944L11.2225 187.935L11.2244 85.0073Z" stroke="#BADEFF" stroke-width="14" mask="url(#path-5-inside-5_336_559)"/>
<mask id="path-6-inside-6_336_559" fill="white">
<path d="M24.9384 229.583C24.9384 227.052 26.9903 225 29.5213 225L131.467 225.002C133.998 225.002 136.05 227.054 136.049 229.585L136.049 277.412C136.048 279.943 133.997 281.995 131.466 281.995L29.5202 281.993C26.9892 281.993 24.9374 279.941 24.9375 277.41L24.9384 229.583Z"/>
</mask>
<path d="M24.9384 229.583C24.9384 227.052 26.9903 225 29.5213 225L131.467 225.002C133.998 225.002 136.05 227.054 136.049 229.585L136.049 277.412C136.048 279.943 133.997 281.995 131.466 281.995L29.5202 281.993C26.9892 281.993 24.9374 279.941 24.9375 277.41L24.9384 229.583Z" stroke="#BADEFF" stroke-width="14" mask="url(#path-6-inside-6_336_559)"/>
<mask id="path-7-inside-7_336_559" fill="white">
<path d="M145.573 229.585C145.573 227.054 147.625 225.002 150.156 225.002L212.419 225.003C214.95 225.003 217.001 227.055 217.001 229.586L217 277.413C217 279.944 214.949 281.996 212.418 281.996L150.155 281.995C147.624 281.995 145.572 279.943 145.572 277.412L145.573 229.585Z"/>
</mask>
<path d="M145.573 229.585C145.573 227.054 147.625 225.002 150.156 225.002L212.419 225.003C214.95 225.003 217.001 227.055 217.001 229.586L217 277.413C217 279.944 214.949 281.996 212.418 281.996L150.155 281.995C147.624 281.995 145.572 279.943 145.572 277.412L145.573 229.585Z" stroke="#BADEFF" stroke-width="14" mask="url(#path-7-inside-7_336_559)"/>
<mask id="path-8-inside-8_336_559" fill="white">
<path d="M474.063 229.583C474.063 227.052 472.011 225 469.48 225L367.535 225.002C365.004 225.002 362.952 227.054 362.952 229.585L362.953 277.412C362.953 279.943 365.005 281.995 367.536 281.995L469.481 281.993C472.012 281.993 474.064 279.941 474.064 277.41L474.063 229.583Z"/>
</mask>
<path d="M474.063 229.583C474.063 227.052 472.011 225 469.48 225L367.535 225.002C365.004 225.002 362.952 227.054 362.952 229.585L362.953 277.412C362.953 279.943 365.005 281.995 367.536 281.995L469.481 281.993C472.012 281.993 474.064 279.941 474.064 277.41L474.063 229.583Z" stroke="#BADEFF" stroke-width="14" mask="url(#path-8-inside-8_336_559)"/>
<mask id="path-9-inside-9_336_559" fill="white">
<path d="M353.429 229.585C353.429 227.054 351.377 225.002 348.846 225.002L286.583 225.003C284.052 225.003 282 227.055 282 229.586L282.001 277.413C282.001 279.945 284.053 281.996 286.584 281.996L348.847 281.995C351.378 281.995 353.43 279.943 353.43 277.412L353.429 229.585Z"/>
</mask>
<path d="M353.429 229.585C353.429 227.054 351.377 225.002 348.846 225.002L286.583 225.003C284.052 225.003 282 227.055 282 229.586L282.001 277.413C282.001 279.945 284.053 281.996 286.584 281.996L348.847 281.995C351.378 281.995 353.43 279.943 353.43 277.412L353.429 229.585Z" stroke="#BADEFF" stroke-width="14" mask="url(#path-9-inside-9_336_559)"/>
<mask id="path-10-inside-10_336_559" fill="white">
<path d="M24.9406 114.583C24.9406 112.052 26.9925 110 29.5235 110L125.12 110.001C127.651 110.001 129.703 112.053 129.703 114.584L129.701 162.515C129.701 165.046 127.65 167.098 125.118 167.098L29.5222 167.096C26.9912 167.096 24.9394 165.045 24.9395 162.514L24.9406 114.583Z"/>
</mask>
<path d="M24.9406 114.583C24.9406 112.052 26.9925 110 29.5235 110L125.12 110.001C127.651 110.001 129.703 112.053 129.703 114.584L129.701 162.515C129.701 165.046 127.65 167.098 125.118 167.098L29.5222 167.096C26.9912 167.096 24.9394 165.045 24.9395 162.514L24.9406 114.583Z" stroke="#BADEFF" stroke-width="14" mask="url(#path-10-inside-10_336_559)"/>
<mask id="path-11-inside-11_336_559" fill="white">
<path d="M24.0012 114.583C24.0013 112.052 26.0532 110 28.5842 110L124.18 110.001C126.711 110.001 128.763 112.053 128.763 114.584L128.762 162.515C128.762 165.046 126.71 167.098 124.179 167.098L28.5829 167.096C26.0519 167.096 24.0001 165.045 24.0002 162.514L24.0012 114.583Z"/>
</mask>
<path d="M24.0012 114.583C24.0013 112.052 26.0532 110 28.5842 110L124.18 110.001C126.711 110.001 128.763 112.053 128.763 114.584L128.762 162.515C128.762 165.046 126.71 167.098 124.179 167.098L28.5829 167.096C26.0519 167.096 24.0001 165.045 24.0002 162.514L24.0012 114.583Z" stroke="#BADEFF" stroke-width="14" mask="url(#path-11-inside-11_336_559)"/>
<mask id="path-12-inside-12_336_559" fill="white">
<path d="M369 114.583C369 112.052 371.052 110 373.583 110L469.179 110.001C471.71 110.001 473.762 112.053 473.762 114.584L473.761 162.515C473.761 165.046 471.709 167.098 469.178 167.098L373.582 167.096C371.051 167.096 368.999 165.045 368.999 162.514L369 114.583Z"/>
</mask>
<path d="M369 114.583C369 112.052 371.052 110 373.583 110L469.179 110.001C471.71 110.001 473.762 112.053 473.762 114.584L473.761 162.515C473.761 165.046 471.709 167.098 469.178 167.098L373.582 167.096C371.051 167.096 368.999 165.045 368.999 162.514L369 114.583Z" stroke="#BADEFF" stroke-width="14" mask="url(#path-12-inside-12_336_559)"/>
<mask id="path-13-inside-13_336_559" fill="white">
<path d="M254 114.583C254 112.052 256.052 110 258.583 110L354.179 110.001C356.71 110.001 358.762 112.053 358.762 114.584L358.761 162.515C358.761 165.046 356.709 167.098 354.178 167.098L258.582 167.096C256.051 167.096 253.999 165.045 253.999 162.514L254 114.583Z"/>
</mask>
<path d="M254 114.583C254 112.052 256.052 110 258.583 110L354.179 110.001C356.71 110.001 358.762 112.053 358.762 114.584L358.761 162.515C358.761 165.046 356.709 167.098 354.178 167.098L258.582 167.096C256.051 167.096 253.999 165.045 253.999 162.514L254 114.583Z" stroke="#BADEFF" stroke-width="14" mask="url(#path-13-inside-13_336_559)"/>
<mask id="path-14-inside-14_336_559" fill="white">
<path d="M139 114.583C139 112.052 141.052 110 143.583 110L239.179 110.001C241.71 110.001 243.762 112.053 243.762 114.584L243.761 162.515C243.761 165.046 241.709 167.098 239.178 167.098L143.582 167.096C141.051 167.096 138.999 165.045 138.999 162.514L139 114.583Z"/>
</mask>
<path d="M139 114.583C139 112.052 141.052 110 143.583 110L239.179 110.001C241.71 110.001 243.762 112.053 243.762 114.584L243.761 162.515C243.761 165.046 241.709 167.098 239.178 167.098L143.582 167.096C141.051 167.096 138.999 165.045 138.999 162.514L139 114.583Z" stroke="#BADEFF" stroke-width="14" mask="url(#path-14-inside-14_336_559)"/>
<mask id="path-15-inside-15_336_559" fill="white">
<path d="M272.019 222.001L249.701 222L227.383 222C226.62 222 226.001 222.619 226.001 223.382L226 283.818C226 284.581 226.619 285.2 227.382 285.2L272.018 285.201C272.781 285.201 273.4 284.582 273.4 283.818L273.401 223.383C273.401 222.62 272.782 222.001 272.019 222.001Z"/>
</mask>
<path d="M248.344 222L248.343 284.482L251.057 284.482L251.058 222L248.344 222ZM249.701 224.715L272.019 224.716L272.019 219.286L249.701 219.286L249.701 224.715ZM270.686 223.383L270.685 283.818L276.115 283.818L276.116 223.383L270.686 223.383ZM272.018 282.486L227.382 282.485L227.382 287.915L272.018 287.915L272.018 282.486ZM228.715 283.818L228.716 223.382L223.286 223.382L223.285 283.818L228.715 283.818ZM227.383 224.715L249.701 224.715L249.701 219.286L227.384 219.285L227.383 224.715ZM228.716 223.382C228.716 224.118 228.119 224.715 227.383 224.715L227.384 219.285C225.121 219.285 223.286 221.12 223.286 223.382L228.716 223.382ZM227.382 282.485C228.118 282.485 228.715 283.082 228.715 283.818L223.285 283.818C223.285 286.08 225.12 287.915 227.382 287.915L227.382 282.485ZM270.685 283.818C270.685 283.083 271.282 282.486 272.018 282.486L272.018 287.915C274.28 287.916 276.115 286.081 276.115 283.818L270.685 283.818ZM272.019 224.716C271.283 224.716 270.686 224.119 270.686 223.383L276.116 223.383C276.116 221.12 274.282 219.286 272.019 219.286L272.019 224.716Z" fill="#BADEFF" mask="url(#path-15-inside-15_336_559)"/>
<mask id="path-17-inside-16_336_559" fill="white">
<path d="M230.64 225.385L245.059 225.385C245.751 225.385 246.312 225.946 246.312 226.638L246.312 248.306C246.312 248.998 245.751 249.559 245.059 249.559L230.64 249.559C229.948 249.559 229.387 248.998 229.387 248.306L229.387 226.638C229.387 225.946 229.948 225.385 230.64 225.385Z"/>
</mask>
<path d="M230.64 225.385L245.059 225.385C245.751 225.385 246.312 225.946 246.312 226.638L246.312 248.306C246.312 248.998 245.751 249.559 245.059 249.559L230.64 249.559C229.948 249.559 229.387 248.998 229.387 248.306L229.387 226.638C229.387 225.946 229.948 225.385 230.64 225.385Z" stroke="#BADEFF" stroke-width="5.42946" mask="url(#path-17-inside-16_336_559)"/>
<mask id="path-18-inside-17_336_559" fill="white">
<path d="M254.335 225.385L268.754 225.386C269.446 225.386 270.007 225.947 270.007 226.639L270.006 248.307C270.006 248.999 269.445 249.56 268.753 249.56L254.335 249.559C253.643 249.559 253.082 248.998 253.082 248.306L253.082 226.638C253.082 225.946 253.643 225.385 254.335 225.385Z"/>
</mask>
<path d="M254.335 225.385L268.754 225.386C269.446 225.386 270.007 225.947 270.007 226.639L270.006 248.307C270.006 248.999 269.445 249.56 268.753 249.56L254.335 249.559C253.643 249.559 253.082 248.998 253.082 248.306L253.082 226.638C253.082 225.946 253.643 225.385 254.335 225.385Z" stroke="#BADEFF" stroke-width="5.42946" mask="url(#path-18-inside-17_336_559)"/>
<path d="M16.3685 83.9284L482.389 83.9369C484.674 83.9369 486.527 85.7896 486.527 88.075L486.525 184.526L12.2286 184.517L12.2303 88.0664C12.2304 85.781 14.0831 83.9284 16.3685 83.9284Z" stroke="#BADEFF" stroke-width="7"/>
<path d="M16.3624 433.811L482.383 433.82C484.668 433.82 486.521 431.967 486.521 429.682L486.525 216.381L12.2282 216.372L12.2244 429.673C12.2243 431.959 14.077 433.811 16.3624 433.811Z" stroke="#BADEFF" stroke-width="7"/>
<rect x="3.50043" y="191.435" width="493" height="17.9377" stroke="#BADEFF" stroke-width="7"/>
</svg>
