<svg width="501" height="501" viewBox="0 0 501 501" fill="none" xmlns="http://www.w3.org/2000/svg">
<path d="M179.655 327.968L179.655 323.34L50.0641 323.338L50.0624 416.828M179.655 327.968L50.0624 416.828M179.655 327.968L193.539 376.102M50.0624 416.828L151.883 493.659M151.883 493.659L193.539 376.102M151.883 493.659L354.6 492.737M193.539 376.102L296.286 377.03M193.539 376.102L354.6 492.737M296.286 377.03L354.6 492.737M296.286 377.03L309.245 358.517M354.6 492.737L449.943 410.356M449.943 410.356L309.245 358.517M449.943 410.356L449.946 285.393M309.245 358.517L449.946 285.393M309.245 358.517L309.247 285.391M449.946 285.393L309.247 285.391M449.946 285.393L449.947 206.713M309.247 285.391L449.947 206.713M309.247 285.391L309.248 206.71M309.247 285.391L192.616 206.708M309.247 285.391L192.615 286.314M449.947 206.713L309.248 206.71M449.947 206.713L449.947 203.936M309.248 206.71L192.615 286.314M309.248 206.71L192.616 206.708M309.248 206.71L309.249 138.212M192.615 286.314L192.616 206.708M309.249 138.212L449.947 203.936M309.249 138.212L449.024 85.4528M309.249 138.212L309.25 131.733M449.947 203.936L449.024 85.4528M449.024 85.4528L362.94 5.84537M309.25 131.733L362.94 5.84537M309.25 131.733L189.841 131.731M309.25 131.733L150.966 5.84154M362.94 5.84537L337.947 5.84492M189.841 131.731L337.947 5.84492M189.841 131.731L150.966 5.84154M189.841 131.731L50.0684 86.3713M189.841 131.731L50.0668 175.234M189.841 131.731L177.806 175.236L50.0668 175.234M150.966 5.84154L337.947 5.84492M150.966 5.84154L50.0684 86.3713M50.0684 86.3713L50.0668 175.234" stroke="#BADEFF" stroke-width="7.92"/>
</svg>
