<svg width="501" height="501" viewBox="0 0 501 501" fill="none" xmlns="http://www.w3.org/2000/svg">
<mask id="path-1-inside-1_336_621" fill="white">
<path d="M1.0481 120.931L498.968 120.94L498.963 410.639L1.04286 410.63L1.0481 120.931Z"/>
</mask>
<path d="M1.0481 120.931L498.968 120.94L498.963 410.639L1.04286 410.63L1.0481 120.931Z" stroke="#BADEFF" stroke-width="16" mask="url(#path-1-inside-1_336_621)"/>
<mask id="path-2-inside-2_336_621" fill="white">
<path d="M47.9075 90.8467C48.84 90.293 49.9044 90.0009 50.9888 90.0009L449.029 90.0081C450.113 90.0081 451.178 90.3003 452.11 90.854L498.968 118.677L1.04843 118.668L47.9075 90.8467Z"/>
</mask>
<path d="M47.9075 90.8467C48.84 90.293 49.9044 90.0009 50.9888 90.0009L449.029 90.0081C450.113 90.0081 451.178 90.3003 452.11 90.854L498.968 118.677L1.04843 118.668L47.9075 90.8467Z" stroke="#BADEFF" stroke-width="16" mask="url(#path-2-inside-2_336_621)"/>
<mask id="path-3-inside-3_336_621" fill="white">
<rect x="19.1508" y="323.117" width="37.7212" height="52.8097" rx="1.50885"/>
</mask>
<rect x="19.1508" y="323.117" width="37.7212" height="52.8097" rx="1.50885" stroke="#BADEFF" stroke-width="16" mask="url(#path-3-inside-3_336_621)"/>
<mask id="path-4-inside-4_336_621" fill="white">
<rect x="81.0135" y="323.118" width="37.7212" height="52.8097" rx="1.50885"/>
</mask>
<rect x="81.0135" y="323.118" width="37.7212" height="52.8097" rx="1.50885" stroke="#BADEFF" stroke-width="16" mask="url(#path-4-inside-4_336_621)"/>
<mask id="path-5-inside-5_336_621" fill="white">
<rect x="142.876" y="323.12" width="37.7212" height="52.8097" rx="1.50885"/>
</mask>
<rect x="142.876" y="323.12" width="37.7212" height="52.8097" rx="1.50885" stroke="#BADEFF" stroke-width="16" mask="url(#path-5-inside-5_336_621)"/>
<mask id="path-6-inside-6_336_621" fill="white">
<rect x="317.902" y="323.123" width="37.7212" height="52.8097" rx="1.50885"/>
</mask>
<rect x="317.902" y="323.123" width="37.7212" height="52.8097" rx="1.50885" stroke="#BADEFF" stroke-width="16" mask="url(#path-6-inside-6_336_621)"/>
<mask id="path-7-inside-7_336_621" fill="white">
<rect x="379.765" y="323.124" width="37.7212" height="52.8097" rx="1.50885"/>
</mask>
<rect x="379.765" y="323.124" width="37.7212" height="52.8097" rx="1.50885" stroke="#BADEFF" stroke-width="16" mask="url(#path-7-inside-7_336_621)"/>
<mask id="path-8-inside-8_336_621" fill="white">
<rect x="441.628" y="323.125" width="37.7212" height="52.8097" rx="1.50885"/>
</mask>
<rect x="441.628" y="323.125" width="37.7212" height="52.8097" rx="1.50885" stroke="#BADEFF" stroke-width="16" mask="url(#path-8-inside-8_336_621)"/>
<mask id="path-9-inside-9_336_621" fill="white">
<rect x="19.1525" y="231.077" width="37.7212" height="52.8097" rx="1.50885"/>
</mask>
<rect x="19.1525" y="231.077" width="37.7212" height="52.8097" rx="1.50885" stroke="#BADEFF" stroke-width="16" mask="url(#path-9-inside-9_336_621)"/>
<mask id="path-10-inside-10_336_621" fill="white">
<rect x="81.0153" y="231.079" width="37.7212" height="52.8097" rx="1.50885"/>
</mask>
<rect x="81.0153" y="231.079" width="37.7212" height="52.8097" rx="1.50885" stroke="#BADEFF" stroke-width="16" mask="url(#path-10-inside-10_336_621)"/>
<mask id="path-11-inside-11_336_621" fill="white">
<rect x="142.878" y="231.08" width="37.7212" height="52.8097" rx="1.50885"/>
</mask>
<rect x="142.878" y="231.08" width="37.7212" height="52.8097" rx="1.50885" stroke="#BADEFF" stroke-width="16" mask="url(#path-11-inside-11_336_621)"/>
<mask id="path-12-inside-12_336_621" fill="white">
<rect x="201.723" y="231.081" width="37.7212" height="52.8097" rx="1.50885"/>
</mask>
<rect x="201.723" y="231.081" width="37.7212" height="52.8097" rx="1.50885" stroke="#BADEFF" stroke-width="16" mask="url(#path-12-inside-12_336_621)"/>
<mask id="path-13-inside-13_336_621" fill="white">
<rect x="259.059" y="231.082" width="37.7212" height="52.8097" rx="1.50885"/>
</mask>
<rect x="259.059" y="231.082" width="37.7212" height="52.8097" rx="1.50885" stroke="#BADEFF" stroke-width="16" mask="url(#path-13-inside-13_336_621)"/>
<mask id="path-14-inside-14_336_621" fill="white">
<rect x="201.725" y="139.041" width="37.7212" height="52.8097" rx="1.50885"/>
</mask>
<rect x="201.725" y="139.041" width="37.7212" height="52.8097" rx="1.50885" stroke="#BADEFF" stroke-width="16" mask="url(#path-14-inside-14_336_621)"/>
<mask id="path-15-inside-15_336_621" fill="white">
<rect x="259.061" y="139.042" width="37.7212" height="52.8097" rx="1.50885"/>
</mask>
<rect x="259.061" y="139.042" width="37.7212" height="52.8097" rx="1.50885" stroke="#BADEFF" stroke-width="16" mask="url(#path-15-inside-15_336_621)"/>
<mask id="path-16-inside-16_336_621" fill="white">
<rect x="317.904" y="231.083" width="37.7212" height="52.8097" rx="1.50885"/>
</mask>
<rect x="317.904" y="231.083" width="37.7212" height="52.8097" rx="1.50885" stroke="#BADEFF" stroke-width="16" mask="url(#path-16-inside-16_336_621)"/>
<mask id="path-17-inside-17_336_621" fill="white">
<rect x="379.767" y="231.084" width="37.7212" height="52.8097" rx="1.50885"/>
</mask>
<rect x="379.767" y="231.084" width="37.7212" height="52.8097" rx="1.50885" stroke="#BADEFF" stroke-width="16" mask="url(#path-17-inside-17_336_621)"/>
<mask id="path-18-inside-18_336_621" fill="white">
<rect x="441.63" y="231.085" width="37.7212" height="52.8097" rx="1.50885"/>
</mask>
<rect x="441.63" y="231.085" width="37.7212" height="52.8097" rx="1.50885" stroke="#BADEFF" stroke-width="16" mask="url(#path-18-inside-18_336_621)"/>
<mask id="path-19-inside-19_336_621" fill="white">
<rect x="19.1541" y="139.037" width="37.7212" height="52.8097" rx="1.50885"/>
</mask>
<rect x="19.1541" y="139.037" width="37.7212" height="52.8097" rx="1.50885" stroke="#BADEFF" stroke-width="16" mask="url(#path-19-inside-19_336_621)"/>
<mask id="path-20-inside-20_336_621" fill="white">
<rect x="81.0168" y="139.039" width="37.7212" height="52.8097" rx="1.50885"/>
</mask>
<rect x="81.0168" y="139.039" width="37.7212" height="52.8097" rx="1.50885" stroke="#BADEFF" stroke-width="16" mask="url(#path-20-inside-20_336_621)"/>
<mask id="path-21-inside-21_336_621" fill="white">
<rect x="142.88" y="139.04" width="37.7212" height="52.8097" rx="1.50885"/>
</mask>
<rect x="142.88" y="139.04" width="37.7212" height="52.8097" rx="1.50885" stroke="#BADEFF" stroke-width="16" mask="url(#path-21-inside-21_336_621)"/>
<mask id="path-22-inside-22_336_621" fill="white">
<rect x="317.906" y="139.043" width="37.7212" height="52.8097" rx="1.50885"/>
</mask>
<rect x="317.906" y="139.043" width="37.7212" height="52.8097" rx="1.50885" stroke="#BADEFF" stroke-width="16" mask="url(#path-22-inside-22_336_621)"/>
<mask id="path-23-inside-23_336_621" fill="white">
<rect x="379.769" y="139.044" width="37.7212" height="52.8097" rx="1.50885"/>
</mask>
<rect x="379.769" y="139.044" width="37.7212" height="52.8097" rx="1.50885" stroke="#BADEFF" stroke-width="16" mask="url(#path-23-inside-23_336_621)"/>
<mask id="path-24-inside-24_336_621" fill="white">
<rect x="441.631" y="139.045" width="37.7212" height="52.8097" rx="1.50885"/>
</mask>
<rect x="441.631" y="139.045" width="37.7212" height="52.8097" rx="1.50885" stroke="#BADEFF" stroke-width="16" mask="url(#path-24-inside-24_336_621)"/>
<path d="M247.741 312.559L280.182 312.56C281.015 312.56 281.69 313.236 281.69 314.069L281.689 392.529M247.741 312.559L215.301 312.559C214.468 312.559 213.792 313.234 213.792 314.068L213.791 391.019C213.791 391.852 214.466 392.528 215.3 392.528L281.689 392.529M247.741 312.559L247.74 391.02C247.74 391.853 248.415 392.529 249.249 392.529L281.689 392.529" stroke="#BADEFF" stroke-width="8"/>
<path d="M219.827 317.085L242.46 317.086C243.293 317.086 243.969 317.761 243.969 318.595L243.968 350.281C243.968 351.114 243.293 351.789 242.46 351.789L219.827 351.789C218.994 351.789 218.318 351.113 218.318 350.28L218.319 318.594C218.319 317.761 218.994 317.085 219.827 317.085Z" stroke="#BADEFF" stroke-width="8"/>
<path d="M251.513 350.281L251.513 318.595C251.513 317.762 252.189 317.086 253.022 317.086L275.655 317.086C276.488 317.087 277.164 317.762 277.164 318.595L277.163 350.281C277.163 351.115 276.487 351.79 275.654 351.79L253.021 351.79C252.188 351.79 251.513 351.114 251.513 350.281Z" stroke="#BADEFF" stroke-width="8"/>
<rect x="182.859" y="403.844" width="132.779" height="4.52655" stroke="#BADEFF" stroke-width="4.52655"/>
<rect x="207.001" y="394.791" width="86.0043" height="4.52655" stroke="#BADEFF" stroke-width="4.52655"/>
</svg>
