<svg width="501" height="501" viewBox="0 0 501 501" fill="none" xmlns="http://www.w3.org/2000/svg">
<mask id="path-1-inside-1_336_586" fill="white">
<path d="M26.4338 101.912C26.2698 101.112 26.8809 100.363 27.6976 100.363L36.559 100.363L36.559 60.2567L243.893 39.0046L257.049 39.0049L464.757 60.2569L464.757 100.371L472.354 100.371C473.158 100.371 473.766 101.098 473.624 101.889L464.948 150.222C464.837 150.837 464.303 151.285 463.678 151.284L37.6112 151.277C36.9987 151.277 36.4706 150.846 36.3476 150.246L26.4338 101.912Z"/>
</mask>
<path d="M36.559 104.363L208.473 104.363L208.473 96.3629L36.559 96.3629L36.559 104.363ZM464.757 96.3707L291.457 96.3707L291.457 104.371L464.757 104.371L464.757 96.3707ZM36.559 64.2567L464.757 64.2569L464.757 56.2569L36.559 56.2567L36.559 64.2567ZM36.559 100.363L36.5588 108.363L44.559 100.363L36.559 100.363ZM464.757 100.371L456.757 100.371L464.757 108.371L464.757 100.371ZM464.757 60.2569L472.757 60.2569L465.571 52.2985L464.757 60.2569ZM36.559 60.2567L35.7432 52.2984L28.559 60.2567L36.559 60.2567ZM243.893 39.0046L243.893 31.0046L243.077 31.0463L243.893 39.0046ZM257.049 39.0049L257.863 31.0464L257.049 31.0049L257.049 39.0049ZM464.948 150.222L472.822 151.636L464.948 150.222ZM473.624 101.889L481.498 103.302L473.624 101.889ZM472.354 100.371L472.354 92.3708L472.354 100.371ZM27.6976 100.363L27.6974 108.363L27.6976 100.363ZM465.75 100.475L457.074 148.809L472.822 151.636L481.498 103.302L465.75 100.475ZM463.678 143.284L37.6114 143.277L37.6111 159.277L463.678 159.284L463.678 143.284ZM44.1844 148.639L34.2707 100.305L18.597 103.519L28.5107 151.853L44.1844 148.639ZM27.6974 108.363L36.5588 108.363L36.5592 92.3629L27.6977 92.3627L27.6974 108.363ZM464.757 108.371L472.354 108.371L472.354 92.3708L464.757 92.3707L464.757 108.371ZM456.757 60.2569L456.757 100.371L472.757 100.371L472.757 60.2569L456.757 60.2569ZM44.559 100.363L44.559 60.2567L28.559 60.2567L28.559 100.363L44.559 100.363ZM37.3747 68.215L244.708 46.9629L243.077 31.0463L35.7432 52.2984L37.3747 68.215ZM243.892 47.0046L257.048 47.0049L257.049 31.0049L243.893 31.0046L243.892 47.0046ZM256.234 46.9633L463.943 68.2154L465.571 52.2985L257.863 31.0464L256.234 46.9633ZM37.6114 143.277C40.7975 143.277 43.5442 145.517 44.1844 148.639L28.5107 151.853C29.397 156.175 33.1999 159.277 37.6111 159.277L37.6114 143.277ZM457.074 148.809C457.648 145.611 460.43 143.284 463.678 143.284L463.678 159.284C468.175 159.285 472.027 156.063 472.822 151.636L457.074 148.809ZM481.498 103.302C482.521 97.6056 478.142 92.3708 472.354 92.3708L472.354 108.371C468.174 108.371 465.011 104.59 465.75 100.475L481.498 103.302ZM34.2707 100.305C35.1242 104.466 31.9452 108.363 27.6974 108.363L27.6977 92.3627C21.8166 92.3626 17.4153 97.7582 18.597 103.519L34.2707 100.305Z" fill="#BADEFF" mask="url(#path-1-inside-1_336_586)"/>
<rect x="-3.99993" y="-4.00007" width="257.013" height="12.8877" transform="matrix(1.8069e-05 -1 -1 -1.8069e-05 68.548 410.854)" stroke="#BADEFF" stroke-width="8"/>
<rect x="-3.99993" y="-4.00007" width="257.013" height="12.8877" transform="matrix(1.8069e-05 -1 -1 -1.8069e-05 92.0472 410.854)" stroke="#BADEFF" stroke-width="8"/>
<rect x="-3.99993" y="-4.00007" width="257.013" height="12.8877" transform="matrix(1.8069e-05 -1 -1 -1.8069e-05 126.095 410.855)" stroke="#BADEFF" stroke-width="8"/>
<rect x="-3.99993" y="-4.00007" width="257.013" height="12.8877" transform="matrix(1.8069e-05 -1 -1 -1.8069e-05 149.595 410.856)" stroke="#BADEFF" stroke-width="8"/>
<rect x="-3.99993" y="-4.00007" width="257.013" height="12.8877" transform="matrix(1.8069e-05 -1 -1 -1.8069e-05 355.682 410.374)" stroke="#BADEFF" stroke-width="8"/>
<rect x="-3.99993" y="-4.00007" width="257.013" height="12.8877" transform="matrix(1.8069e-05 -1 -1 -1.8069e-05 379.18 410.374)" stroke="#BADEFF" stroke-width="8"/>
<rect x="-3.99993" y="-4.00007" width="257.013" height="12.8877" transform="matrix(1.8069e-05 -1 -1 -1.8069e-05 413.229 410.375)" stroke="#BADEFF" stroke-width="8"/>
<rect x="-3.99993" y="-4.00007" width="257.013" height="12.8877" transform="matrix(1.8069e-05 -1 -1 -1.8069e-05 436.727 410.375)" stroke="#BADEFF" stroke-width="8"/>
<rect x="30.1102" y="423.518" width="439.78" height="12.8877" stroke="#BADEFF" stroke-width="8"/>
<rect x="4.00005" y="443.789" width="492" height="12.8877" stroke="#BADEFF" stroke-width="8"/>
<path d="M250.008 78.2619L255.528 95.2532L256.426 98.0172L259.332 98.0172L277.198 98.0176L262.744 108.518L260.393 110.227L261.291 112.991L266.812 129.982L252.358 119.48L250.007 117.772L247.656 119.48L233.202 129.981L238.723 112.99L239.621 110.226L237.27 108.518L222.817 98.0166L240.682 98.0169L243.589 98.017L244.487 95.253L250.008 78.2619Z" stroke="#BADEFF" stroke-width="8"/>
<g filter="url(#filter0_d_336_586)">
<mask id="path-14-inside-2_336_586" fill="white">
<path d="M204.941 260.885C201.249 260.885 197.593 261.544 194.181 262.826C190.77 264.107 187.671 265.985 185.06 268.352C182.449 270.72 180.378 273.53 178.965 276.624C177.552 279.717 176.824 283.032 176.824 286.38C176.824 289.728 177.551 293.044 178.964 296.137C180.377 299.23 182.448 302.041 185.059 304.408C187.67 306.776 190.769 308.654 194.181 309.935C197.592 311.217 201.248 311.876 204.94 311.876L237.6 311.877L250.003 294.226L204.941 294.226C203.804 294.226 202.679 294.023 201.63 293.628C200.58 293.234 199.626 292.656 198.823 291.928C198.02 291.199 197.383 290.335 196.948 289.383C196.513 288.431 196.289 287.411 196.289 286.381C196.289 285.35 196.513 284.33 196.948 283.378C197.383 282.427 198.02 281.562 198.823 280.833C199.627 280.105 200.58 279.527 201.63 279.133C202.68 278.739 203.805 278.536 204.941 278.536L243.476 278.536L243.476 260.886L204.941 260.885Z"/>
</mask>
<path d="M204.941 260.885C201.249 260.885 197.593 261.544 194.181 262.826C190.77 264.107 187.671 265.985 185.06 268.352C182.449 270.72 180.378 273.53 178.965 276.624C177.552 279.717 176.824 283.032 176.824 286.38C176.824 289.728 177.551 293.044 178.964 296.137C180.377 299.23 182.448 302.041 185.059 304.408C187.67 306.776 190.769 308.654 194.181 309.935C197.592 311.217 201.248 311.876 204.94 311.876L237.6 311.877L250.003 294.226L204.941 294.226C203.804 294.226 202.679 294.023 201.63 293.628C200.58 293.234 199.626 292.656 198.823 291.928C198.02 291.199 197.383 290.335 196.948 289.383C196.513 288.431 196.289 287.411 196.289 286.381C196.289 285.35 196.513 284.33 196.948 283.378C197.383 282.427 198.02 281.562 198.823 280.833C199.627 280.105 200.58 279.527 201.63 279.133C202.68 278.739 203.805 278.536 204.941 278.536L243.476 278.536L243.476 260.886L204.941 260.885Z" fill="#BADEFF" stroke="#BADEFF" stroke-width="2.58" mask="url(#path-14-inside-2_336_586)"/>
<mask id="path-15-inside-3_336_586" fill="white">
<path d="M249.499 261.124L266.417 261.124L266.417 266.843L259.507 266.843L259.506 278.663L249.499 278.663L249.499 266.749L249.499 261.124Z"/>
</mask>
<path d="M249.499 261.124L266.417 261.124L266.417 266.843L259.507 266.843L259.506 278.663L249.499 278.663L249.499 266.749L249.499 261.124Z" fill="#BADEFF" stroke="#BADEFF" stroke-width="2.58" mask="url(#path-15-inside-3_336_586)"/>
<mask id="path-16-inside-4_336_586" fill="white">
<path d="M269.172 261.124L300.79 261.125L300.79 266.854L300.789 278.664L292.18 278.663L292.18 266.854L289.193 266.854L289.193 278.663L280.461 278.663L280.461 266.854L277.692 266.854L277.692 278.663L269.172 278.663L269.172 266.749L269.172 261.124Z"/>
</mask>
<path d="M269.172 261.124L300.79 261.125L300.79 266.854L300.789 278.664L292.18 278.663L292.18 266.854L289.193 266.854L289.193 278.663L280.461 278.663L280.461 266.854L277.692 266.854L277.692 278.663L269.172 278.663L269.172 266.749L269.172 261.124Z" fill="#BADEFF" stroke="#BADEFF" stroke-width="2.58" mask="url(#path-16-inside-4_336_586)"/>
<mask id="path-17-inside-5_336_586" fill="white">
<path d="M320.794 261.098L329.71 261.098L317.654 278.446L308.767 278.446L320.794 261.098Z"/>
</mask>
<path d="M320.794 261.098L329.71 261.098L317.654 278.446L308.767 278.446L320.794 261.098Z" fill="#BADEFF" stroke="#BADEFF" stroke-width="2.58" mask="url(#path-17-inside-5_336_586)"/>
<mask id="path-18-inside-6_336_586" fill="white">
<path d="M302.803 261.124L319.074 261.125L308.832 276.148L302.803 261.124Z"/>
</mask>
<path d="M302.803 261.124L319.074 261.125L308.832 276.148L302.803 261.124Z" fill="#BADEFF" stroke="#BADEFF" stroke-width="2.58" mask="url(#path-18-inside-6_336_586)"/>
<mask id="path-19-inside-7_336_586" fill="white">
<path d="M303.228 280.746L317.235 280.747L295.557 311.954L281.551 311.953L303.228 280.746Z"/>
</mask>
<path d="M303.228 280.746L317.235 280.747L295.557 311.954L281.551 311.953L303.228 280.746Z" fill="#BADEFF" stroke="#BADEFF" stroke-width="2.58346" mask="url(#path-19-inside-7_336_586)"/>
<mask id="path-20-inside-8_336_586" fill="white">
<path d="M283.865 280.902L297.872 280.902L276.194 312.109L262.188 312.109L283.865 280.902Z"/>
</mask>
<path d="M283.865 280.902L297.872 280.902L276.194 312.109L262.188 312.109L283.865 280.902Z" fill="#BADEFF" stroke="#BADEFF" stroke-width="2.58346" mask="url(#path-20-inside-8_336_586)"/>
<mask id="path-21-inside-9_336_586" fill="white">
<path d="M264.5 280.524L278.506 280.524L256.829 311.731L242.823 311.731L264.5 280.524Z"/>
</mask>
<path d="M264.5 280.524L278.506 280.524L256.829 311.731L242.823 311.731L264.5 280.524Z" fill="#BADEFF" stroke="#BADEFF" stroke-width="2.58346" mask="url(#path-21-inside-9_336_586)"/>
</g>
<defs>
<filter id="filter0_d_336_586" x="171.664" y="260.885" width="163.206" height="61.5442" filterUnits="userSpaceOnUse" color-interpolation-filters="sRGB">
<feFlood flood-opacity="0" result="BackgroundImageFix"/>
<feColorMatrix in="SourceAlpha" type="matrix" values="0 0 0 0 0 0 0 0 0 0 0 0 0 0 0 0 0 0 127 0" result="hardAlpha"/>
<feOffset dy="5.16"/>
<feGaussianBlur stdDeviation="2.58"/>
<feComposite in2="hardAlpha" operator="out"/>
<feColorMatrix type="matrix" values="0 0 0 0 0 0 0 0 0 0 0 0 0 0 0 0 0 0 0.25 0"/>
<feBlend mode="normal" in2="BackgroundImageFix" result="effect1_dropShadow_336_586"/>
<feBlend mode="normal" in="SourceGraphic" in2="effect1_dropShadow_336_586" result="shape"/>
</filter>
</defs>
</svg>
