<svg width="501" height="501" viewBox="0 0 501 501" fill="none" xmlns="http://www.w3.org/2000/svg">
<rect x="0.00927734" y="0.000366211" width="500" height="500" fill="#3E8ED3"/>
<path d="M60.9049 424.001C58.0358 419.431 56.2289 416.761 55.4841 415.991C54.7393 415.212 53.8676 414.823 52.8689 414.823L52.8689 413.896C54.5616 413.896 56.0978 412.554 57.4774 409.872C58.8654 407.189 60.3551 405.847 61.9462 405.847L63.3046 405.847L63.3046 406.99L62.3016 406.99C60.9644 406.99 59.6864 408.141 58.4676 410.443C57.2488 412.736 56.1104 414.048 55.0525 414.378C55.6873 414.488 56.3855 414.967 57.1472 415.813C57.9089 416.651 59.7708 419.38 62.733 424.001L60.9049 424.001ZM51.3456 405.847L51.3453 424.001L50.0123 424.001L50.0126 405.847L51.3456 405.847ZM67.2583 414.874C67.2582 420.282 69.8099 422.986 74.9134 422.986C79.9238 422.986 82.4291 420.282 82.4292 414.874C82.4293 409.533 79.9241 406.863 74.9137 406.863C69.8102 406.863 67.2584 409.533 67.2583 414.874ZM65.7983 414.95C65.7984 408.797 68.8369 405.72 74.9137 405.72C80.8974 405.721 83.8892 408.797 83.8891 414.95C83.889 421.069 80.8971 424.129 74.9134 424.129C68.8365 424.129 65.7982 421.069 65.7983 414.95ZM88.1094 424.002L88.1097 405.848L95.7269 405.848C99.2647 405.848 101.034 407.511 101.033 410.837C101.033 414.113 98.2023 416.199 92.5402 417.096L92.3117 415.877C97.1359 415.208 99.5481 413.562 99.5481 410.939C99.5482 408.332 98.2025 407.028 95.5111 407.028L89.4427 407.028L89.4424 424.002L88.1094 424.002ZM104.936 424.002L104.937 405.848L118.965 405.848L118.965 424.003L117.632 424.002L117.632 406.991L106.27 406.991L106.269 424.002L104.936 424.002ZM138.064 405.849L131.805 420.6C130.84 422.869 129.194 424.003 126.867 424.003C125.783 424.003 124.785 423.706 123.871 423.114L123.871 421.971C124.768 422.564 125.754 422.86 126.829 422.86C128.64 422.86 129.812 422.094 130.345 420.562L122.424 405.848L123.884 405.848L131.082 419.305L136.642 405.849L138.064 405.849ZM155.17 423.368C153.52 423.876 151.827 424.13 150.092 424.13C143.744 424.13 140.571 420.977 140.571 414.672C140.571 408.705 143.745 405.722 150.092 405.722C151.827 405.722 153.52 405.976 155.17 406.484L155.17 407.626C153.52 407.118 151.912 406.864 150.346 406.864C144.718 406.864 141.904 409.467 141.904 414.672C141.904 420.215 144.718 422.987 150.346 422.987C151.912 422.987 153.52 422.734 155.17 422.226L155.17 423.368ZM159.67 424.003L158.248 424.003L166.462 405.849L168.049 405.849L176.301 424.004L174.714 424.004L172.022 417.91L163.885 417.91L164.278 416.767L171.527 416.767L167.173 406.89L159.67 424.003ZM200.649 423.369C198.998 423.877 197.306 424.131 195.571 424.131C189.223 424.131 186.049 420.978 186.049 414.673C186.049 408.706 189.223 405.723 195.571 405.723C197.306 405.723 198.999 405.977 200.649 406.484L200.649 407.627C198.999 407.119 197.391 406.865 195.825 406.865C190.197 406.865 187.382 409.468 187.382 414.673C187.382 420.216 190.196 422.988 195.825 422.988C197.39 422.988 198.998 422.734 200.649 422.227L200.649 423.369ZM205.314 424.004L205.314 405.85L216.143 405.85L216.143 406.993L206.647 406.992L206.647 424.004L205.314 424.004ZM230.71 405.85L230.71 406.993L224.489 406.993L224.489 424.004L223.156 424.004L223.156 406.993L217.063 406.993L217.063 405.85L230.71 405.85ZM247.905 405.851L241.646 420.602C240.681 422.871 239.035 424.005 236.708 424.005C235.624 424.005 234.625 423.708 233.711 423.116L233.711 421.973C234.609 422.566 235.595 422.862 236.669 422.862C238.481 422.862 239.653 422.096 240.186 420.564L232.264 405.85L233.724 405.85L240.922 419.307L246.483 405.851L247.905 405.851ZM270.996 424.005L270.996 407.857L259.634 424.005L258.174 424.005L258.174 405.851L259.507 405.851L259.507 421.999L270.869 405.851L272.329 405.851L272.329 424.005L270.996 424.005ZM277.184 424.005L277.185 405.851L278.518 405.851L286.706 422.444L294.387 405.851L295.593 405.851L295.592 424.006L294.386 424.006L294.387 408.302L287.175 424.006L286.084 424.006L278.391 408.174L278.39 424.005L277.184 424.005ZM301.514 422.419L301.514 424.006L299.8 424.006L299.8 422.419L301.514 422.419ZM312.862 424.006L312.862 405.852L323.692 405.852L323.692 406.994L314.195 406.994L314.195 424.006L312.862 424.006ZM326.35 424.006L324.928 424.006L333.142 405.852L334.729 405.852L342.981 424.007L341.394 424.007L338.703 417.913L330.565 417.913L330.959 416.77L338.208 416.77L333.853 406.893L326.35 424.006ZM346.237 424.007L346.237 405.852L357.066 405.853L357.066 406.995L347.57 406.995L347.57 424.007L346.237 424.007ZM359.725 424.007L358.303 424.007L366.517 405.853L368.104 405.853L376.355 424.007L374.769 424.007L372.077 417.913L363.94 417.913L364.333 416.771L371.582 416.771L367.228 406.894L359.725 424.007ZM379.611 424.007L379.611 405.853L387.229 405.853C390.766 405.853 392.535 407.516 392.535 410.842C392.535 414.118 389.704 416.204 384.042 417.101L383.813 415.882C388.638 415.214 391.05 413.568 391.05 410.944C391.05 408.337 389.704 407.034 387.013 407.034L380.944 407.034L380.944 424.007L379.611 424.007ZM409.26 424.008L409.26 407.859L397.898 424.008L396.438 424.008L396.438 405.853L397.771 405.853L397.771 422.002L409.134 405.853L410.594 405.853L410.593 424.008L409.26 424.008ZM415.448 424.008L415.449 405.854L416.782 405.854L416.782 414.106L428.144 414.106L428.144 405.854L429.477 405.854L429.477 424.008L428.144 424.008L428.144 415.248L416.782 415.248L416.781 424.008L415.448 424.008ZM434.167 424.008L432.745 424.008L440.959 405.854L442.546 405.854L450.798 424.009L449.211 424.008L446.52 417.915L438.382 417.915L438.775 416.772L446.024 416.772L441.67 406.895L434.167 424.008ZM224.101 453.004L224.101 434.85L225.421 434.85L225.421 443.229L231.705 443.229C231.908 437.559 234.346 434.723 239.018 434.723C243.901 434.724 246.343 437.758 246.343 443.826C246.343 450.03 243.901 453.132 239.018 453.132C234.261 453.132 231.819 450.212 231.692 444.372L225.421 444.372L225.421 453.004L224.101 453.004ZM239.018 451.989C242.928 451.989 244.883 449.285 244.883 443.877C244.883 438.536 242.928 435.866 239.018 435.866C235.015 435.866 233.013 438.536 233.013 443.877C233.013 449.285 235.014 451.989 239.018 451.989ZM251.503 451.418L251.503 453.005L249.789 453.005L249.789 451.418L251.503 451.418ZM255.558 453.005L254.136 453.005L262.35 434.851L263.937 434.851L272.189 453.005L270.602 453.005L267.911 446.911L259.773 446.911L260.167 445.769L267.416 445.769L263.061 435.892L255.558 453.005ZM276.524 451.418L276.524 453.005L274.81 453.005L274.81 451.418L276.524 451.418Z" fill="#BADEFF"/>
<path d="M60.9049 424.001L60.0579 424.533L60.3519 425.001L60.9048 425.001L60.9049 424.001ZM55.4841 415.991L54.7614 416.682L54.7652 416.686L55.4841 415.991ZM52.8689 414.823L51.8689 414.823L51.8689 415.823L52.8689 415.823L52.8689 414.823ZM52.8689 413.896L52.8689 412.896L51.8689 412.896L51.8689 413.896L52.8689 413.896ZM57.4774 409.872L56.5892 409.412L56.5881 409.414L57.4774 409.872ZM63.3046 405.847L64.3046 405.847L64.3046 404.847L63.3046 404.847L63.3046 405.847ZM63.3046 406.99L63.3046 407.99L64.3046 407.99L64.3046 406.99L63.3046 406.99ZM58.4676 410.443L59.3507 410.912L59.3514 410.911L58.4676 410.443ZM55.0525 414.378L54.7547 413.424L54.8817 415.364L55.0525 414.378ZM57.1472 415.813L56.4039 416.482L56.4072 416.486L57.1472 415.813ZM62.733 424.001L62.733 425.001L64.5618 425.002L63.5749 423.462L62.733 424.001ZM51.3456 405.847L52.3456 405.847L52.3456 404.847L51.3456 404.847L51.3456 405.847ZM51.3453 424.001L51.3453 425.001L52.3453 425.001L52.3453 424.001L51.3453 424.001ZM50.0123 424.001L49.0123 424.001L49.0123 425.001L50.0123 425.001L50.0123 424.001ZM50.0126 405.847L50.0126 404.847L49.0126 404.847L49.0126 405.847L50.0126 405.847ZM61.7518 423.47C60.3146 421.18 59.1388 419.359 58.2261 418.011C57.331 416.688 56.646 415.754 56.203 415.295L54.7652 416.686C55.0669 416.998 55.6578 417.784 56.5697 419.131C57.4639 420.453 58.626 422.252 60.0579 424.533L61.7518 423.47ZM56.2068 415.299C55.2899 414.341 54.1636 413.823 52.8689 413.823L52.8689 415.823C53.5716 415.823 54.1888 416.083 54.7615 416.682L56.2068 415.299ZM53.8689 414.823L53.8689 413.896L51.8689 413.896L51.8689 414.823L53.8689 414.823ZM52.8689 414.896C55.1636 414.896 56.9534 413.077 58.3667 410.329L56.5881 409.414C55.2422 412.032 53.9596 412.896 52.8689 412.896L52.8689 414.896ZM58.3655 410.331C59.7352 407.684 60.9737 406.847 61.9462 406.847L61.9462 404.847C59.7364 404.847 57.9957 406.694 56.5892 409.412L58.3655 410.331ZM61.9462 406.847L63.3046 406.847L63.3046 404.847L61.9462 404.847L61.9462 406.847ZM62.3046 405.847L62.3046 406.99L64.3046 406.99L64.3046 405.847L62.3046 405.847ZM63.3046 405.99L62.3017 405.99L62.3016 407.99L63.3046 407.99L63.3046 405.99ZM62.3017 405.99C60.3453 405.99 58.8155 407.649 57.5838 409.975L59.3514 410.911C60.5573 408.633 61.5835 407.99 62.3016 407.99L62.3017 405.99ZM57.5845 409.974C56.995 411.083 56.4463 411.913 55.9445 412.491C55.4338 413.08 55.0326 413.337 54.7547 413.424L55.3503 415.333C56.1304 415.09 56.8273 414.526 57.455 413.802C58.0915 413.069 58.7215 412.096 59.3507 410.912L57.5845 409.974ZM54.8817 415.364C55.1811 415.416 55.6895 415.688 56.4039 416.482L57.8905 415.144C57.0815 414.245 56.1934 413.561 55.2233 413.393L54.8817 415.364ZM56.4072 416.486C56.7337 416.845 57.352 417.679 58.2888 419.052C59.2121 420.405 60.4123 422.234 61.8911 424.541L63.5749 423.462C62.0915 421.148 60.8797 419.301 59.941 417.925C59.0159 416.569 58.3224 415.619 57.8871 415.14L56.4072 416.486ZM62.733 423.001L60.9049 423.001L60.9048 425.001L62.733 425.001L62.733 423.001ZM50.3456 405.847L50.3453 424.001L52.3453 424.001L52.3456 405.847L50.3456 405.847ZM51.3453 423.001L50.0123 423.001L50.0123 425.001L51.3453 425.001L51.3453 423.001ZM51.0123 424.001L51.0126 405.847L49.0126 405.847L49.0123 424.001L51.0123 424.001ZM50.0126 406.847L51.3456 406.847L51.3456 404.847L50.0126 404.847L50.0126 406.847ZM66.2583 414.874C66.2582 417.718 66.9281 420.037 68.4447 421.644C69.9715 423.262 72.1922 423.986 74.9134 423.986L74.9134 421.986C72.5311 421.986 70.9241 421.358 69.8993 420.272C68.8641 419.175 68.2582 417.438 68.2583 414.874L66.2583 414.874ZM74.9134 423.986C77.5932 423.986 79.7812 423.259 81.2837 421.638C82.7728 420.03 83.4291 417.714 83.4292 414.874L81.4292 414.874C81.4291 417.442 80.8327 419.182 79.8166 420.278C78.8138 421.361 77.244 421.986 74.9134 421.986L74.9134 423.986ZM83.4292 414.874C83.4292 412.065 82.7716 409.772 81.2797 408.182C79.7764 406.579 77.59 405.863 74.9137 405.863L74.9137 407.863C77.2478 407.863 78.8191 408.482 79.8211 409.55C80.8343 410.63 81.4292 412.342 81.4292 414.874L83.4292 414.874ZM74.9137 405.863C72.1959 405.863 69.9768 406.576 68.4492 408.175C66.9297 409.765 66.2583 412.06 66.2583 414.874L68.2583 414.874C68.2583 412.347 68.8628 410.637 69.8951 409.557C70.9194 408.485 72.5279 407.863 74.9137 407.863L74.9137 405.863ZM66.7983 414.95C66.7984 412.024 67.5204 410.015 68.7887 408.73C70.0547 407.449 72.0326 406.72 74.9137 406.72L74.9137 404.72C71.718 404.72 69.1382 405.53 67.3657 407.325C65.5956 409.117 64.7984 411.722 64.7983 414.95L66.7983 414.95ZM74.9137 406.72C77.7442 406.721 79.6851 407.447 80.9284 408.725C82.1768 410.009 82.8892 412.021 82.8891 414.95L84.8891 414.95C84.8892 411.726 84.1057 409.124 82.3623 407.331C80.6138 405.533 78.0669 404.721 74.9137 404.72L74.9137 406.72ZM82.8891 414.95C82.8891 417.861 82.1773 419.86 80.9301 421.135C79.687 422.406 77.7454 423.129 74.9134 423.129L74.9134 425.129C78.0651 425.129 80.6113 424.322 82.3601 422.533C84.1048 420.749 84.8891 418.158 84.8891 414.95L82.8891 414.95ZM74.9134 423.129C72.0309 423.129 70.0523 422.404 68.7866 421.129C67.5195 419.853 66.7982 417.857 66.7983 414.95L64.7983 414.95C64.7982 418.162 65.5961 420.755 67.3674 422.538C69.14 424.324 71.719 425.129 74.9134 425.129L74.9134 423.129ZM88.1094 424.002L87.1094 424.002L87.1094 425.002L88.1094 425.002L88.1094 424.002ZM88.1097 405.848L88.1097 404.848L87.1097 404.848L87.1097 405.848L88.1097 405.848ZM92.5402 417.096L91.5573 417.28L91.7364 418.236L92.6967 418.083L92.5402 417.096ZM92.3117 415.877L92.1744 414.886L91.1355 415.03L91.3288 416.061L92.3117 415.877ZM89.4427 407.028L89.4427 406.028L88.4427 406.028L88.4427 407.028L89.4427 407.028ZM89.4424 424.002L89.4424 425.002L90.4424 425.002L90.4424 424.002L89.4424 424.002ZM89.1094 424.002L89.1097 405.848L87.1097 405.848L87.1094 424.002L89.1094 424.002ZM88.1097 406.848L95.7269 406.848L95.7269 404.848L88.1097 404.848L88.1097 406.848ZM95.7269 406.848C97.3565 406.848 98.3926 407.232 99.0219 407.824C99.6396 408.404 100.033 409.344 100.033 410.837L102.033 410.837C102.033 409.004 101.543 407.449 100.392 406.367C99.2523 405.295 97.6351 404.848 95.7269 404.848L95.7269 406.848ZM100.033 410.837C100.033 412.131 99.4986 413.182 98.3169 414.053C97.0869 414.96 95.1451 415.671 92.3837 416.108L92.6967 418.083C95.5974 417.624 97.9022 416.843 99.5033 415.663C101.153 414.448 102.033 412.819 102.033 410.837L100.033 410.837ZM93.5231 416.912L93.2946 415.693L91.3288 416.061L91.5573 417.28L93.5231 416.912ZM92.449 416.868C94.9245 416.525 96.911 415.917 98.3026 414.967C99.7456 413.982 100.548 412.623 100.548 410.939L98.5481 410.939C98.5481 411.879 98.1445 412.654 97.1753 413.315C96.1548 414.011 94.5231 414.561 92.1744 414.886L92.449 416.868ZM100.548 410.939C100.548 409.473 100.168 408.192 99.2346 407.288C98.3072 406.389 97.0031 406.028 95.5111 406.028L95.511 408.028C96.7105 408.028 97.4249 408.319 97.8431 408.724C98.2554 409.124 98.5481 409.798 98.5481 410.939L100.548 410.939ZM95.5111 406.028L89.4427 406.028L89.4427 408.028L95.511 408.028L95.5111 406.028ZM88.4427 407.028L88.4424 424.002L90.4424 424.002L90.4427 407.028L88.4427 407.028ZM89.4424 423.002L88.1094 423.002L88.1094 425.002L89.4424 425.002L89.4424 423.002ZM104.936 424.002L103.936 424.002L103.936 425.002L104.936 425.002L104.936 424.002ZM104.937 405.848L104.937 404.848L103.937 404.848L103.937 405.848L104.937 405.848ZM118.965 405.848L119.965 405.848L119.965 404.848L118.965 404.848L118.965 405.848ZM118.965 424.003L118.965 425.003L119.965 425.003L119.965 424.003L118.965 424.003ZM117.632 424.002L116.632 424.002L116.632 425.002L117.632 425.002L117.632 424.002ZM117.632 406.991L118.632 406.991L118.632 405.991L117.632 405.991L117.632 406.991ZM106.27 406.991L106.27 405.991L105.27 405.991L105.27 406.991L106.27 406.991ZM106.269 424.002L106.269 425.002L107.269 425.002L107.269 424.002L106.269 424.002ZM105.936 424.002L105.937 405.848L103.937 405.848L103.936 424.002L105.936 424.002ZM104.937 406.848L118.965 406.848L118.965 404.848L104.937 404.848L104.937 406.848ZM117.965 405.848L117.965 424.002L119.965 424.003L119.965 405.848L117.965 405.848ZM118.965 423.003L117.632 423.002L117.632 425.002L118.965 425.003L118.965 423.003ZM118.632 424.002L118.632 406.991L116.632 406.991L116.632 424.002L118.632 424.002ZM117.632 405.991L106.27 405.991L106.27 407.991L117.632 407.991L117.632 405.991ZM105.27 406.991L105.269 424.002L107.269 424.002L107.27 406.991L105.27 406.991ZM106.269 423.002L104.936 423.002L104.936 425.002L106.269 425.002L106.269 423.002ZM138.064 405.849L138.985 406.239L139.575 404.849L138.064 404.849L138.064 405.849ZM131.805 420.6L132.725 420.992L132.726 420.991L131.805 420.6ZM123.871 423.114L122.871 423.114L122.871 423.657L123.327 423.953L123.871 423.114ZM123.871 421.971L124.422 421.137L122.871 420.113L122.871 421.971L123.871 421.971ZM130.345 420.562L131.29 420.891L131.434 420.476L131.226 420.088L130.345 420.562ZM122.424 405.848L122.424 404.848L120.75 404.848L121.543 406.322L122.424 405.848ZM123.884 405.848L124.765 405.377L124.483 404.848L123.884 404.848L123.884 405.848ZM131.082 419.305L130.2 419.777L131.198 421.643L132.006 419.687L131.082 419.305ZM136.642 405.849L136.642 404.849L135.974 404.849L135.718 405.467L136.642 405.849ZM137.144 405.458L130.885 420.21L132.726 420.991L138.985 406.239L137.144 405.458ZM130.885 420.209C130.459 421.209 129.914 421.892 129.28 422.329C128.649 422.763 127.862 423.003 126.867 423.003L126.867 425.003C128.199 425.003 129.398 424.676 130.414 423.976C131.426 423.278 132.186 422.26 132.725 420.992L130.885 420.209ZM126.867 423.003C125.977 423.003 125.168 422.763 124.414 422.275L123.327 423.953C124.402 424.65 125.589 425.003 126.867 425.003L126.867 423.003ZM124.871 423.114L124.871 421.971L122.871 421.971L122.871 423.114L124.871 423.114ZM123.32 422.806C124.38 423.506 125.558 423.86 126.829 423.86L126.829 421.86C125.95 421.86 125.155 421.621 124.422 421.137L123.32 422.806ZM126.829 423.86C127.872 423.86 128.823 423.639 129.613 423.123C130.413 422.6 130.962 421.831 131.29 420.891L129.401 420.234C129.195 420.825 128.892 421.205 128.519 421.449C128.137 421.698 127.596 421.86 126.829 421.86L126.829 423.86ZM131.226 420.088L123.304 405.374L121.543 406.322L129.465 421.036L131.226 420.088ZM122.424 406.848L123.884 406.848L123.884 404.848L122.424 404.848L122.424 406.848ZM123.002 406.32L130.2 419.777L131.963 418.834L124.765 405.377L123.002 406.32ZM132.006 419.687L137.567 406.23L135.718 405.467L130.157 418.924L132.006 419.687ZM136.642 406.849L138.064 406.849L138.064 404.849L136.642 404.849L136.642 406.849ZM155.17 423.368L155.464 424.324L156.17 424.107L156.17 423.368L155.17 423.368ZM155.17 406.484L156.17 406.484L156.17 405.745L155.465 405.528L155.17 406.484ZM155.17 407.626L154.876 408.582L156.17 408.98L156.17 407.626L155.17 407.626ZM155.17 422.226L156.17 422.226L156.17 420.872L154.876 421.27L155.17 422.226ZM154.876 422.413C153.321 422.891 151.728 423.13 150.092 423.13L150.092 425.13C151.926 425.13 153.718 424.861 155.464 424.324L154.876 422.413ZM150.092 423.13C147.071 423.13 144.989 422.38 143.656 421.056C142.324 419.733 141.571 417.669 141.571 414.672L139.571 414.672C139.571 417.98 140.404 420.645 142.246 422.475C144.087 424.303 146.766 425.13 150.092 425.13L150.092 423.13ZM141.571 414.672C141.571 411.859 142.316 409.929 143.636 408.688C144.968 407.436 147.058 406.722 150.092 406.722L150.092 404.722C146.779 404.722 144.108 405.499 142.266 407.231C140.413 408.973 139.571 411.518 139.571 414.672L141.571 414.672ZM150.092 406.722C151.728 406.722 153.322 406.961 154.876 407.439L155.465 405.528C153.718 404.991 151.927 404.722 150.092 404.722L150.092 406.722ZM154.17 406.484L154.17 407.626L156.17 407.626L156.17 406.484L154.17 406.484ZM155.464 406.67C153.729 406.136 152.021 405.864 150.346 405.864L150.346 407.864C151.803 407.864 153.311 408.1 154.876 408.582L155.464 406.67ZM150.346 405.864C147.396 405.864 144.998 406.545 143.335 408.082C141.658 409.633 140.904 411.894 140.904 414.672L142.904 414.672C142.904 412.244 143.556 410.602 144.693 409.55C145.845 408.485 147.668 407.864 150.346 407.864L150.346 405.864ZM140.904 414.672C140.904 417.602 141.648 419.982 143.312 421.621C144.974 423.257 147.381 423.987 150.346 423.987L150.346 421.987C147.682 421.987 145.869 421.332 144.716 420.196C143.566 419.063 142.904 417.286 142.904 414.672L140.904 414.672ZM150.346 423.987C152.021 423.987 153.728 423.716 155.464 423.182L154.876 421.27C153.311 421.751 151.802 421.987 150.346 421.987L150.346 423.987ZM154.17 422.226L154.17 423.368L156.17 423.368L156.17 422.226L154.17 422.226ZM159.67 424.003L159.67 425.003L160.323 425.003L160.586 424.405L159.67 424.003ZM158.248 424.003L157.337 423.591L156.698 425.003L158.248 425.003L158.248 424.003ZM166.462 405.849L166.462 404.849L165.817 404.849L165.551 405.437L166.462 405.849ZM168.049 405.849L168.959 405.435L168.693 404.849L168.049 404.849L168.049 405.849ZM176.301 424.004L176.301 425.004L177.854 425.004L177.211 423.59L176.301 424.004ZM174.714 424.004L173.799 424.408L174.062 425.004L174.714 425.004L174.714 424.004ZM172.022 417.91L172.937 417.506L172.674 416.91L172.022 416.91L172.022 417.91ZM163.885 417.91L162.939 417.584L162.483 418.91L163.885 418.91L163.885 417.91ZM164.278 416.767L164.278 415.767L163.565 415.767L163.333 416.441L164.278 416.767ZM171.527 416.767L171.527 417.767L173.061 417.767L172.442 416.364L171.527 416.767ZM167.173 406.89L168.088 406.487L167.171 404.405L166.257 406.489L167.173 406.89ZM159.67 423.003L158.248 423.003L158.248 425.003L159.67 425.003L159.67 423.003ZM159.159 424.415L167.373 406.261L165.551 405.437L157.337 423.591L159.159 424.415ZM166.462 406.849L168.049 406.849L168.049 404.849L166.462 404.849L166.462 406.849ZM167.139 406.263L175.39 424.417L177.211 423.59L168.959 405.435L167.139 406.263ZM176.301 423.004L174.714 423.004L174.714 425.004L176.301 425.004L176.301 423.004ZM175.629 423.6L172.937 417.506L171.108 418.314L173.799 424.408L175.629 423.6ZM172.022 416.91L163.885 416.91L163.885 418.91L172.022 418.91L172.022 416.91ZM164.83 418.235L165.224 417.093L163.333 416.441L162.939 417.584L164.83 418.235ZM164.278 417.767L171.527 417.767L171.527 415.767L164.278 415.767L164.278 417.767ZM172.442 416.364L168.088 406.487L166.258 407.293L170.612 417.171L172.442 416.364ZM166.257 406.489L158.754 423.602L160.586 424.405L168.089 407.292L166.257 406.489ZM200.649 423.369L200.943 424.325L201.649 424.108L201.649 423.369L200.649 423.369ZM200.649 406.484L201.649 406.484L201.649 405.746L200.943 405.529L200.649 406.484ZM200.649 407.627L200.355 408.583L201.649 408.981L201.649 407.627L200.649 407.627ZM200.649 422.227L201.649 422.227L201.649 420.873L200.355 421.271L200.649 422.227ZM200.355 422.413C198.8 422.892 197.206 423.131 195.571 423.131L195.571 425.131C197.405 425.131 199.197 424.862 200.943 424.325L200.355 422.413ZM195.571 423.131C192.549 423.131 190.467 422.381 189.134 421.057C187.803 419.734 187.049 417.67 187.049 414.673L185.049 414.673C185.049 417.981 185.883 420.646 187.725 422.476C189.566 424.304 192.244 425.131 195.571 425.131L195.571 423.131ZM187.049 414.673C187.049 411.86 187.795 409.93 189.115 408.689C190.447 407.437 192.536 406.723 195.571 406.723L195.571 404.723C192.258 404.723 189.587 405.5 187.745 407.231C185.891 408.974 185.049 411.519 185.049 414.673L187.049 414.673ZM195.571 406.723C197.207 406.723 198.8 406.962 200.355 407.44L200.943 405.529C199.197 404.991 197.405 404.723 195.571 404.723L195.571 406.723ZM199.649 406.484L199.649 407.627L201.649 407.627L201.649 406.484L199.649 406.484ZM200.943 406.671C199.207 406.137 197.5 405.865 195.825 405.865L195.825 407.865C197.281 407.865 198.79 408.101 200.355 408.583L200.943 406.671ZM195.825 405.865C192.875 405.865 190.476 406.545 188.814 408.083C187.137 409.634 186.382 411.895 186.382 414.673L188.382 414.673C188.382 412.245 189.035 410.603 190.172 409.551C191.324 408.486 193.146 407.865 195.825 407.865L195.825 405.865ZM186.382 414.673C186.382 417.602 187.127 419.983 188.791 421.622C190.452 423.258 192.86 423.988 195.825 423.988L195.825 421.988C193.161 421.988 191.347 421.332 190.195 420.197C189.044 419.064 188.382 417.287 188.382 414.673L186.382 414.673ZM195.825 423.988C197.5 423.988 199.207 423.717 200.943 423.182L200.355 421.271C198.79 421.752 197.281 421.988 195.825 421.988L195.825 423.988ZM199.649 422.227L199.649 423.369L201.649 423.369L201.649 422.227L199.649 422.227ZM205.314 424.004L204.314 424.004L204.314 425.004L205.314 425.004L205.314 424.004ZM205.314 405.85L205.314 404.85L204.314 404.85L204.314 405.85L205.314 405.85ZM216.143 405.85L217.143 405.85L217.143 404.85L216.143 404.85L216.143 405.85ZM216.143 406.993L216.143 407.993L217.143 407.993L217.143 406.993L216.143 406.993ZM206.647 406.992L206.647 405.992L205.647 405.992L205.647 406.992L206.647 406.992ZM206.647 424.004L206.647 425.004L207.647 425.004L207.647 424.004L206.647 424.004ZM206.314 424.004L206.314 405.85L204.314 405.85L204.314 424.004L206.314 424.004ZM205.314 406.85L216.143 406.85L216.143 404.85L205.314 404.85L205.314 406.85ZM215.143 405.85L215.143 406.993L217.143 406.993L217.143 405.85L215.143 405.85ZM216.143 405.993L206.647 405.992L206.647 407.992L216.143 407.993L216.143 405.993ZM205.647 406.992L205.647 424.004L207.647 424.004L207.647 406.992L205.647 406.992ZM206.647 423.004L205.314 423.004L205.314 425.004L206.647 425.004L206.647 423.004ZM230.71 405.85L231.71 405.85L231.71 404.85L230.71 404.85L230.71 405.85ZM230.71 406.993L230.71 407.993L231.71 407.993L231.71 406.993L230.71 406.993ZM224.489 406.993L224.489 405.993L223.489 405.993L223.489 406.993L224.489 406.993ZM224.489 424.004L224.489 425.004L225.489 425.004L225.489 424.004L224.489 424.004ZM223.156 424.004L222.156 424.004L222.156 425.004L223.156 425.004L223.156 424.004ZM223.156 406.993L224.156 406.993L224.156 405.993L223.156 405.993L223.156 406.993ZM217.063 406.993L216.063 406.993L216.063 407.993L217.063 407.993L217.063 406.993ZM217.063 405.85L217.063 404.85L216.063 404.85L216.063 405.85L217.063 405.85ZM229.71 405.85L229.71 406.993L231.71 406.993L231.71 405.85L229.71 405.85ZM230.71 405.993L224.489 405.993L224.489 407.993L230.71 407.993L230.71 405.993ZM223.489 406.993L223.489 424.004L225.489 424.004L225.489 406.993L223.489 406.993ZM224.489 423.004L223.156 423.004L223.156 425.004L224.489 425.004L224.489 423.004ZM224.156 424.004L224.156 406.993L222.156 406.993L222.156 424.004L224.156 424.004ZM223.156 405.993L217.063 405.993L217.063 407.993L223.156 407.993L223.156 405.993ZM218.063 406.993L218.063 405.85L216.063 405.85L216.063 406.993L218.063 406.993ZM217.063 406.85L230.71 406.85L230.71 404.85L217.063 404.85L217.063 406.85ZM247.905 405.851L248.826 406.241L249.416 404.851L247.905 404.851L247.905 405.851ZM241.646 420.602L242.566 420.994L242.567 420.993L241.646 420.602ZM233.711 423.116L232.711 423.116L232.711 423.659L233.168 423.955L233.711 423.116ZM233.711 421.973L234.263 421.139L232.711 420.115L232.711 421.973L233.711 421.973ZM240.186 420.564L241.131 420.893L241.275 420.478L241.067 420.09L240.186 420.564ZM232.264 405.85L232.265 404.85L230.59 404.85L231.384 406.324L232.264 405.85ZM233.724 405.85L234.606 405.379L234.324 404.85L233.724 404.85L233.724 405.85ZM240.922 419.307L240.041 419.779L241.039 421.645L241.847 419.689L240.922 419.307ZM246.483 405.851L246.483 404.851L245.814 404.851L245.559 405.469L246.483 405.851ZM246.985 405.46L240.725 420.212L242.567 420.993L248.826 406.241L246.985 405.46ZM240.726 420.211C240.3 421.211 239.754 421.894 239.12 422.331C238.49 422.765 237.703 423.005 236.708 423.005L236.707 425.005C238.04 425.005 239.239 424.678 240.255 423.978C241.267 423.28 242.027 422.262 242.566 420.994L240.726 420.211ZM236.708 423.005C235.818 423.005 235.008 422.765 234.255 422.277L233.168 423.955C234.243 424.652 235.43 425.005 236.707 425.005L236.708 423.005ZM234.711 423.116L234.711 421.973L232.711 421.973L232.711 423.116L234.711 423.116ZM233.16 422.808C234.221 423.508 235.399 423.862 236.669 423.862L236.669 421.862C235.791 421.862 234.996 421.623 234.263 421.139L233.16 422.808ZM236.669 423.862C237.713 423.862 238.664 423.641 239.454 423.125C240.254 422.602 240.803 421.833 241.131 420.893L239.242 420.236C239.036 420.827 238.733 421.207 238.36 421.45C237.978 421.7 237.437 421.862 236.669 421.862L236.669 423.862ZM241.067 420.09L233.145 405.376L231.384 406.324L239.306 421.038L241.067 420.09ZM232.264 406.85L233.724 406.85L233.724 404.85L232.265 404.85L232.264 406.85ZM232.843 406.322L240.041 419.779L241.804 418.836L234.606 405.379L232.843 406.322ZM241.847 419.689L247.407 406.232L245.559 405.469L239.998 418.926L241.847 419.689ZM246.483 406.851L247.905 406.851L247.905 404.851L246.483 404.851L246.483 406.851ZM270.996 424.005L269.996 424.005L269.996 425.005L270.996 425.005L270.996 424.005ZM270.996 407.857L271.996 407.857L271.996 404.698L270.178 407.281L270.996 407.857ZM259.634 424.005L259.634 425.005L260.153 425.005L260.452 424.581L259.634 424.005ZM258.174 424.005L257.174 424.005L257.174 425.005L258.174 425.005L258.174 424.005ZM258.174 405.851L258.174 404.851L257.174 404.851L257.174 405.851L258.174 405.851ZM259.507 405.851L260.507 405.851L260.507 404.851L259.507 404.851L259.507 405.851ZM259.507 421.999L258.507 421.999L258.507 425.158L260.325 422.575L259.507 421.999ZM270.869 405.851L270.869 404.851L270.35 404.851L270.052 405.275L270.869 405.851ZM272.329 405.851L273.329 405.851L273.329 404.851L272.329 404.851L272.329 405.851ZM272.329 424.005L272.329 425.005L273.329 425.005L273.329 424.005L272.329 424.005ZM271.996 424.005L271.996 407.857L269.996 407.857L269.996 424.005L271.996 424.005ZM270.178 407.281L258.816 423.43L260.452 424.581L271.814 408.432L270.178 407.281ZM259.634 423.005L258.174 423.005L258.174 425.005L259.634 425.005L259.634 423.005ZM259.174 424.005L259.174 405.851L257.174 405.851L257.174 424.005L259.174 424.005ZM258.174 406.851L259.507 406.851L259.507 404.851L258.174 404.851L258.174 406.851ZM258.507 405.851L258.507 421.999L260.507 421.999L260.507 405.851L258.507 405.851ZM260.325 422.575L271.687 406.426L270.052 405.275L258.689 421.424L260.325 422.575ZM270.869 406.851L272.329 406.851L272.329 404.851L270.869 404.851L270.869 406.851ZM271.329 405.851L271.329 424.005L273.329 424.005L273.329 405.851L271.329 405.851ZM272.329 423.005L270.996 423.005L270.996 425.005L272.329 425.005L272.329 423.005ZM277.184 424.005L276.184 424.005L276.184 425.005L277.184 425.005L277.184 424.005ZM277.185 405.851L277.185 404.851L276.185 404.851L276.185 405.851L277.185 405.851ZM278.518 405.851L279.414 405.409L279.139 404.851L278.518 404.851L278.518 405.851ZM286.706 422.444L285.809 422.887L286.735 424.762L287.613 422.864L286.706 422.444ZM294.387 405.851L294.387 404.851L293.748 404.851L293.479 405.431L294.387 405.851ZM295.593 405.851L296.593 405.851L296.593 404.851L295.593 404.851L295.593 405.851ZM295.592 424.006L295.592 425.006L296.592 425.006L296.592 424.006L295.592 424.006ZM294.386 424.006L293.386 424.006L293.386 425.006L294.386 425.006L294.386 424.006ZM294.387 408.302L295.387 408.302L293.478 407.884L294.387 408.302ZM287.175 424.006L287.175 425.006L287.817 425.006L288.084 424.423L287.175 424.006ZM286.084 424.006L285.184 424.443L285.458 425.006L286.084 425.006L286.084 424.006ZM278.391 408.174L279.29 407.737L277.391 408.174L278.391 408.174ZM278.39 424.005L278.39 425.005L279.39 425.005L279.39 424.005L278.39 424.005ZM278.184 424.005L278.185 405.851L276.185 405.851L276.184 424.005L278.184 424.005ZM277.185 406.851L278.518 406.851L278.518 404.851L277.185 404.851L277.185 406.851ZM277.621 406.294L285.809 422.887L287.602 422.001L279.414 405.409L277.621 406.294ZM287.613 422.864L295.294 406.271L293.479 405.431L285.798 422.024L287.613 422.864ZM294.387 406.851L295.593 406.851L295.593 404.851L294.387 404.851L294.387 406.851ZM294.593 405.851L294.592 424.006L296.592 424.006L296.593 405.851L294.593 405.851ZM295.592 423.006L294.386 423.006L294.386 425.006L295.592 425.006L295.592 423.006ZM295.386 424.006L295.387 408.302L293.387 408.302L293.386 424.006L295.386 424.006ZM293.478 407.884L286.267 423.588L288.084 424.423L295.295 408.719L293.478 407.884ZM287.175 423.006L286.084 423.006L286.084 425.006L287.175 425.006L287.175 423.006ZM286.983 423.568L279.29 407.737L277.491 408.611L285.184 424.443L286.983 423.568ZM277.391 408.174L277.39 424.005L279.39 424.005L279.391 408.174L277.391 408.174ZM278.39 423.005L277.184 423.005L277.184 425.005L278.39 425.005L278.39 423.005ZM301.514 422.419L302.514 422.419L302.514 421.419L301.514 421.419L301.514 422.419ZM301.514 424.006L301.514 425.006L302.514 425.006L302.514 424.006L301.514 424.006ZM299.8 424.006L298.8 424.006L298.8 425.006L299.8 425.006L299.8 424.006ZM299.8 422.419L299.8 421.419L298.8 421.419L298.8 422.419L299.8 422.419ZM300.514 422.419L300.514 424.006L302.514 424.006L302.514 422.419L300.514 422.419ZM301.514 423.006L299.8 423.006L299.8 425.006L301.514 425.006L301.514 423.006ZM300.8 424.006L300.8 422.419L298.8 422.419L298.8 424.006L300.8 424.006ZM299.8 423.419L301.514 423.419L301.514 421.419L299.8 421.419L299.8 423.419ZM312.862 424.006L311.862 424.006L311.862 425.006L312.862 425.006L312.862 424.006ZM312.862 405.852L312.862 404.852L311.862 404.852L311.862 405.852L312.862 405.852ZM323.692 405.852L324.692 405.852L324.692 404.852L323.692 404.852L323.692 405.852ZM323.692 406.994L323.692 407.994L324.692 407.995L324.692 406.995L323.692 406.994ZM314.195 406.994L314.195 405.994L313.195 405.994L313.195 406.994L314.195 406.994ZM314.195 424.006L314.195 425.006L315.195 425.006L315.195 424.006L314.195 424.006ZM313.862 424.006L313.862 405.852L311.862 405.852L311.862 424.006L313.862 424.006ZM312.862 406.852L323.692 406.852L323.692 404.852L312.862 404.852L312.862 406.852ZM322.692 405.852L322.692 406.994L324.692 406.995L324.692 405.852L322.692 405.852ZM323.692 405.994L314.195 405.994L314.195 407.994L323.692 407.994L323.692 405.994ZM313.195 406.994L313.195 424.006L315.195 424.006L315.195 406.994L313.195 406.994ZM314.195 423.006L312.862 423.006L312.862 425.006L314.195 425.006L314.195 423.006ZM326.35 424.006L326.35 425.006L327.004 425.006L327.266 424.408L326.35 424.006ZM324.928 424.006L324.017 423.594L323.378 425.006L324.928 425.006L324.928 424.006ZM333.142 405.852L333.142 404.852L332.497 404.852L332.231 405.44L333.142 405.852ZM334.729 405.852L335.64 405.438L335.373 404.852L334.729 404.852L334.729 405.852ZM342.981 424.007L342.981 425.007L344.534 425.007L343.891 423.593L342.981 424.007ZM341.394 424.007L340.479 424.411L340.743 425.007L341.394 425.007L341.394 424.007ZM338.703 417.913L339.618 417.509L339.354 416.913L338.703 416.913L338.703 417.913ZM330.565 417.913L329.62 417.587L329.163 418.913L330.565 418.913L330.565 417.913ZM330.959 416.77L330.959 415.77L330.245 415.77L330.013 416.444L330.959 416.77ZM338.208 416.77L338.208 417.77L339.741 417.77L339.123 416.367L338.208 416.77ZM333.853 406.893L334.768 406.49L333.851 404.408L332.938 406.492L333.853 406.893ZM326.35 423.006L324.928 423.006L324.928 425.006L326.35 425.006L326.35 423.006ZM325.839 424.418L334.054 406.264L332.231 405.44L324.017 423.594L325.839 424.418ZM333.142 406.852L334.729 406.852L334.729 404.852L333.142 404.852L333.142 406.852ZM333.819 406.266L342.071 424.42L343.891 423.593L335.64 405.438L333.819 406.266ZM342.981 423.007L341.394 423.007L341.394 425.007L342.981 425.007L342.981 423.007ZM342.309 423.603L339.618 417.509L337.788 418.317L340.479 424.411L342.309 423.603ZM338.703 416.913L330.565 416.913L330.565 418.913L338.703 418.913L338.703 416.913ZM331.511 418.238L331.904 417.096L330.013 416.444L329.62 417.587L331.511 418.238ZM330.959 417.77L338.208 417.77L338.208 415.77L330.959 415.77L330.959 417.77ZM339.123 416.367L334.768 406.49L332.938 407.296L337.293 417.174L339.123 416.367ZM332.938 406.492L325.434 423.605L327.266 424.408L334.769 407.295L332.938 406.492ZM346.237 424.007L345.237 424.007L345.237 425.007L346.237 425.007L346.237 424.007ZM346.237 405.852L346.237 404.852L345.237 404.852L345.237 405.852L346.237 405.852ZM357.066 405.853L358.066 405.853L358.066 404.853L357.066 404.853L357.066 405.853ZM357.066 406.995L357.066 407.995L358.066 407.995L358.066 406.995L357.066 406.995ZM347.57 406.995L347.57 405.995L346.57 405.995L346.57 406.995L347.57 406.995ZM347.57 424.007L347.57 425.007L348.57 425.007L348.57 424.007L347.57 424.007ZM347.237 424.007L347.237 405.852L345.237 405.852L345.237 424.007L347.237 424.007ZM346.237 406.852L357.066 406.853L357.066 404.853L346.237 404.852L346.237 406.852ZM356.066 405.852L356.066 406.995L358.066 406.995L358.066 405.853L356.066 405.852ZM357.066 405.995L347.57 405.995L347.57 407.995L357.066 407.995L357.066 405.995ZM346.57 406.995L346.57 424.007L348.57 424.007L348.57 406.995L346.57 406.995ZM347.57 423.007L346.237 423.007L346.237 425.007L347.57 425.007L347.57 423.007ZM359.725 424.007L359.725 425.007L360.378 425.007L360.64 424.408L359.725 424.007ZM358.303 424.007L357.392 423.595L356.753 425.007L358.303 425.007L358.303 424.007ZM366.517 405.853L366.517 404.853L365.872 404.853L365.606 405.44L366.517 405.853ZM368.104 405.853L369.014 405.439L368.748 404.853L368.104 404.853L368.104 405.853ZM376.355 424.007L376.355 425.007L377.908 425.007L377.266 423.593L376.355 424.007ZM374.769 424.007L373.854 424.411L374.117 425.007L374.769 425.007L374.769 424.007ZM372.077 417.913L372.992 417.509L372.729 416.913L372.077 416.913L372.077 417.913ZM363.94 417.913L362.994 417.587L362.537 418.913L363.94 418.913L363.94 417.913ZM364.333 416.771L364.333 415.771L363.62 415.771L363.388 416.445L364.333 416.771ZM371.582 416.771L371.582 417.771L373.116 417.771L372.497 416.367L371.582 416.771ZM367.228 406.894L368.143 406.49L367.225 404.409L366.312 406.492L367.228 406.894ZM359.725 423.007L358.303 423.007L358.303 425.007L359.725 425.007L359.725 423.007ZM359.214 424.419L367.428 406.265L365.606 405.44L357.392 423.595L359.214 424.419ZM366.517 406.853L368.104 406.853L368.104 404.853L366.517 404.853L366.517 406.853ZM367.193 406.266L375.445 424.421L377.266 423.593L369.014 405.439L367.193 406.266ZM376.355 423.007L374.769 423.007L374.769 425.007L376.355 425.007L376.355 423.007ZM375.683 423.603L372.992 417.509L371.162 418.317L373.854 424.411L375.683 423.603ZM372.077 416.913L363.94 416.913L363.94 418.913L372.077 418.913L372.077 416.913ZM364.885 418.239L365.279 417.096L363.388 416.445L362.994 417.587L364.885 418.239ZM364.333 417.771L371.582 417.771L371.582 415.771L364.333 415.771L364.333 417.771ZM372.497 416.367L368.143 406.49L366.313 407.297L370.667 417.174L372.497 416.367ZM366.312 406.492L358.809 423.605L360.64 424.408L368.144 407.295L366.312 406.492ZM379.611 424.007L378.611 424.007L378.611 425.007L379.611 425.007L379.611 424.007ZM379.611 405.853L379.611 404.853L378.611 404.853L378.611 405.853L379.611 405.853ZM384.042 417.101L383.059 417.285L383.238 418.241L384.198 418.089L384.042 417.101ZM383.813 415.882L383.676 414.892L382.637 415.036L382.83 416.067L383.813 415.882ZM380.944 407.034L380.944 406.034L379.944 406.034L379.944 407.034L380.944 407.034ZM380.944 424.007L380.944 425.007L381.944 425.007L381.944 424.007L380.944 424.007ZM380.611 424.007L380.611 405.853L378.611 405.853L378.611 424.007L380.611 424.007ZM379.611 406.853L387.229 406.853L387.229 404.853L379.611 404.853L379.611 406.853ZM387.229 406.853C388.858 406.853 389.894 407.237 390.523 407.829C391.141 408.41 391.535 409.35 391.535 410.842L393.535 410.842C393.535 409.009 393.045 407.454 391.894 406.372C390.754 405.3 389.137 404.853 387.229 404.853L387.229 406.853ZM391.535 410.842C391.535 412.136 391 413.188 389.819 414.059C388.588 414.965 386.647 415.676 383.885 416.113L384.198 418.089C387.099 417.629 389.404 416.848 391.005 415.669C392.654 414.453 393.535 412.824 393.535 410.842L391.535 410.842ZM385.025 416.917L384.796 415.698L382.83 416.067L383.059 417.285L385.025 416.917ZM383.951 416.873C386.426 416.53 388.413 415.922 389.804 414.972C391.247 413.988 392.05 412.628 392.05 410.944L390.05 410.944C390.05 411.884 389.646 412.659 388.677 413.32C387.656 414.017 386.025 414.566 383.676 414.892L383.951 416.873ZM392.05 410.944C392.05 409.478 391.67 408.197 390.736 407.293C389.809 406.395 388.505 406.034 387.013 406.034L387.013 408.034C388.212 408.034 388.927 408.325 389.345 408.73C389.757 409.129 390.05 409.803 390.05 410.944L392.05 410.944ZM387.013 406.034L380.944 406.034L380.944 408.034L387.013 408.034L387.013 406.034ZM379.944 407.034L379.944 424.007L381.944 424.007L381.944 407.034L379.944 407.034ZM380.944 423.007L379.611 423.007L379.611 425.007L380.944 425.007L380.944 423.007ZM409.26 424.008L408.26 424.008L408.26 425.008L409.26 425.008L409.26 424.008ZM409.26 407.859L410.26 407.859L410.261 404.7L408.443 407.284L409.26 407.859ZM397.898 424.008L397.898 425.008L398.417 425.008L398.716 424.583L397.898 424.008ZM396.438 424.008L395.438 424.008L395.438 425.008L396.438 425.008L396.438 424.008ZM396.438 405.853L396.438 404.853L395.438 404.853L395.438 405.853L396.438 405.853ZM397.771 405.853L398.771 405.853L398.771 404.853L397.771 404.853L397.771 405.853ZM397.771 422.002L396.771 422.002L396.771 425.161L398.589 422.577L397.771 422.002ZM409.134 405.853L409.134 404.853L408.614 404.853L408.316 405.278L409.134 405.853ZM410.594 405.853L411.594 405.853L411.594 404.853L410.594 404.853L410.594 405.853ZM410.593 424.008L410.593 425.008L411.593 425.008L411.593 424.008L410.593 424.008ZM410.26 424.008L410.26 407.859L408.26 407.859L408.26 424.008L410.26 424.008ZM408.443 407.284L397.08 423.432L398.716 424.583L410.078 408.435L408.443 407.284ZM397.898 423.008L396.438 423.008L396.438 425.008L397.898 425.008L397.898 423.008ZM397.438 424.008L397.438 405.853L395.438 405.853L395.438 424.008L397.438 424.008ZM396.438 406.853L397.771 406.853L397.771 404.853L396.438 404.853L396.438 406.853ZM396.771 405.853L396.771 422.002L398.771 422.002L398.771 405.853L396.771 405.853ZM398.589 422.577L409.951 406.429L408.316 405.278L396.953 421.426L398.589 422.577ZM409.134 406.853L410.593 406.853L410.594 404.853L409.134 404.853L409.134 406.853ZM409.594 405.853L409.593 424.008L411.593 424.008L411.594 405.853L409.594 405.853ZM410.593 423.008L409.26 423.008L409.26 425.008L410.593 425.008L410.593 423.008ZM415.448 424.008L414.448 424.008L414.448 425.008L415.448 425.008L415.448 424.008ZM415.449 405.854L415.449 404.854L414.449 404.854L414.449 405.854L415.449 405.854ZM416.782 405.854L417.782 405.854L417.782 404.854L416.782 404.854L416.782 405.854ZM416.782 414.106L415.782 414.106L415.782 415.106L416.782 415.106L416.782 414.106ZM428.144 414.106L428.144 415.106L429.144 415.106L429.144 414.106L428.144 414.106ZM428.144 405.854L428.144 404.854L427.144 404.854L427.144 405.854L428.144 405.854ZM429.477 405.854L430.477 405.854L430.477 404.854L429.477 404.854L429.477 405.854ZM429.477 424.008L429.477 425.008L430.477 425.008L430.477 424.008L429.477 424.008ZM428.144 424.008L427.144 424.008L427.144 425.008L428.144 425.008L428.144 424.008ZM428.144 415.248L429.144 415.248L429.144 414.248L428.144 414.248L428.144 415.248ZM416.782 415.248L416.782 414.248L415.782 414.248L415.782 415.248L416.782 415.248ZM416.781 424.008L416.781 425.008L417.781 425.008L417.781 424.008L416.781 424.008ZM416.448 424.008L416.449 405.854L414.449 405.854L414.448 424.008L416.448 424.008ZM415.449 406.854L416.782 406.854L416.782 404.854L415.449 404.854L415.449 406.854ZM415.782 405.854L415.782 414.106L417.782 414.106L417.782 405.854L415.782 405.854ZM416.782 415.106L428.144 415.106L428.144 413.106L416.782 413.106L416.782 415.106ZM429.144 414.106L429.144 405.854L427.144 405.854L427.144 414.106L429.144 414.106ZM428.144 406.854L429.477 406.854L429.477 404.854L428.144 404.854L428.144 406.854ZM428.477 405.854L428.477 424.008L430.477 424.008L430.477 405.854L428.477 405.854ZM429.477 423.008L428.144 423.008L428.144 425.008L429.477 425.008L429.477 423.008ZM429.144 424.008L429.144 415.248L427.144 415.248L427.144 424.008L429.144 424.008ZM428.144 414.248L416.782 414.248L416.782 416.248L428.144 416.248L428.144 414.248ZM415.782 415.248L415.781 424.008L417.781 424.008L417.782 415.248L415.782 415.248ZM416.781 423.008L415.448 423.008L415.448 425.008L416.781 425.008L416.781 423.008ZM434.167 424.008L434.167 425.008L434.82 425.008L435.083 424.41L434.167 424.008ZM432.745 424.008L431.834 423.596L431.195 425.008L432.745 425.008L432.745 424.008ZM440.959 405.854L440.959 404.854L440.314 404.854L440.048 405.442L440.959 405.854ZM442.546 405.854L443.456 405.44L443.19 404.854L442.546 404.854L442.546 405.854ZM450.798 424.009L450.798 425.009L452.351 425.009L451.708 423.595L450.798 424.009ZM449.211 424.008L448.296 424.412L448.559 425.008L449.211 425.008L449.211 424.008ZM446.52 417.915L447.434 417.511L447.171 416.915L446.52 416.915L446.52 417.915ZM438.382 417.915L437.436 417.589L436.98 418.915L438.382 418.915L438.382 417.915ZM438.775 416.772L438.775 415.772L438.062 415.772L437.83 416.446L438.775 416.772ZM446.024 416.772L446.024 417.772L447.558 417.772L446.939 416.369L446.024 416.772ZM441.67 406.895L442.585 406.492L441.668 404.41L440.754 406.494L441.67 406.895ZM434.167 423.008L432.745 423.008L432.745 425.008L434.167 425.008L434.167 423.008ZM433.656 424.42L441.87 406.266L440.048 405.442L431.834 423.596L433.656 424.42ZM440.959 406.854L442.546 406.854L442.546 404.854L440.959 404.854L440.959 406.854ZM441.636 406.268L449.887 424.422L451.708 423.595L443.456 405.44L441.636 406.268ZM450.798 423.009L449.211 423.008L449.211 425.008L450.798 425.009L450.798 423.009ZM450.126 423.604L447.434 417.511L445.605 418.319L448.296 424.412L450.126 423.604ZM446.52 416.915L438.382 416.915L438.382 418.915L446.519 418.915L446.52 416.915ZM439.327 418.24L439.721 417.098L437.83 416.446L437.436 417.589L439.327 418.24ZM438.775 417.772L446.024 417.772L446.024 415.772L438.775 415.772L438.775 417.772ZM446.939 416.369L442.585 406.492L440.755 407.298L445.109 417.175L446.939 416.369ZM440.754 406.494L433.251 423.607L435.083 424.41L442.586 407.297L440.754 406.494ZM224.101 453.004L223.101 453.004L223.101 454.004L224.101 454.004L224.101 453.004ZM224.101 434.85L224.101 433.85L223.101 433.85L223.101 434.85L224.101 434.85ZM225.421 434.85L226.421 434.85L226.421 433.85L225.421 433.85L225.421 434.85ZM225.421 443.229L224.421 443.229L224.421 444.229L225.421 444.229L225.421 443.229ZM231.705 443.229L231.705 444.229L232.67 444.229L232.705 443.265L231.705 443.229ZM231.692 444.372L232.692 444.35L232.671 443.372L231.693 443.372L231.692 444.372ZM225.421 444.372L225.421 443.372L224.421 443.372L224.421 444.372L225.421 444.372ZM225.421 453.004L225.421 454.004L226.421 454.004L226.421 453.004L225.421 453.004ZM225.101 453.004L225.101 434.85L223.101 434.85L223.101 453.004L225.101 453.004ZM224.101 435.85L225.421 435.85L225.421 433.85L224.101 433.85L224.101 435.85ZM224.421 434.85L224.421 443.229L226.421 443.229L226.421 434.85L224.421 434.85ZM225.421 444.229L231.705 444.229L231.705 442.229L225.421 442.229L225.421 444.229ZM232.705 443.265C232.802 440.545 233.433 438.678 234.444 437.502C235.427 436.358 236.895 435.723 239.018 435.723L239.018 433.723C236.469 433.723 234.382 434.506 232.928 436.198C231.501 437.857 230.812 440.243 230.706 443.193L232.705 443.265ZM239.018 435.723C241.241 435.723 242.749 436.403 243.733 437.626C244.75 438.89 245.343 440.9 245.343 443.826L247.343 443.826C247.343 440.684 246.715 438.142 245.291 436.372C243.833 434.561 241.678 433.723 239.018 433.723L239.018 435.723ZM245.343 443.826C245.343 446.824 244.748 448.888 243.726 450.187C242.739 451.44 241.233 452.132 239.018 452.132L239.018 454.132C241.686 454.132 243.842 453.272 245.297 451.424C246.716 449.621 247.343 447.032 247.343 443.826L245.343 443.826ZM239.018 452.132C236.855 452.132 235.371 451.478 234.386 450.3C233.371 449.086 232.753 447.158 232.692 444.35L230.693 444.393C230.759 447.425 231.425 449.877 232.852 451.583C234.309 453.325 236.424 454.132 239.018 454.132L239.018 452.132ZM231.693 443.372L225.421 443.372L225.421 445.372L231.692 445.372L231.693 443.372ZM224.421 444.372L224.421 453.004L226.421 453.004L226.421 444.372L224.421 444.372ZM225.421 452.004L224.101 452.004L224.101 454.004L225.421 454.004L225.421 452.004ZM239.018 452.989C241.231 452.989 243.027 452.206 244.227 450.547C245.383 448.948 245.883 446.672 245.883 443.877L243.883 443.877C243.883 446.49 243.405 448.27 242.606 449.375C241.851 450.42 240.715 450.989 239.018 450.989L239.018 452.989ZM245.883 443.877C245.883 441.114 245.383 438.861 244.224 437.278C243.022 435.637 241.226 434.866 239.018 434.866L239.018 436.866C240.72 436.866 241.856 437.43 242.61 438.46C243.406 439.547 243.883 441.299 243.883 443.877L245.883 443.877ZM239.018 434.866C236.772 434.866 234.942 435.63 233.714 437.269C232.526 438.853 232.013 441.11 232.013 443.877L234.013 443.877C234.013 441.302 234.5 439.554 235.314 438.468C236.088 437.437 237.26 436.866 239.018 436.866L239.018 434.866ZM232.013 443.877C232.013 446.675 232.525 448.955 233.71 450.556C234.937 452.213 236.767 452.989 239.018 452.989L239.018 450.989C237.265 450.989 236.093 450.413 235.318 449.366C234.501 448.262 234.013 446.487 234.013 443.877L232.013 443.877ZM251.503 451.418L252.503 451.418L252.503 450.418L251.503 450.418L251.503 451.418ZM251.503 453.005L251.503 454.005L252.503 454.005L252.503 453.005L251.503 453.005ZM249.789 453.005L248.789 453.005L248.789 454.005L249.789 454.005L249.789 453.005ZM249.789 451.418L249.789 450.418L248.789 450.418L248.789 451.418L249.789 451.418ZM250.503 451.418L250.503 453.005L252.503 453.005L252.503 451.418L250.503 451.418ZM251.503 452.005L249.789 452.005L249.789 454.005L251.503 454.005L251.503 452.005ZM250.789 453.005L250.789 451.418L248.789 451.418L248.789 453.005L250.789 453.005ZM249.789 452.418L251.503 452.418L251.503 450.418L249.789 450.418L249.789 452.418ZM255.558 453.005L255.558 454.005L256.211 454.005L256.474 453.407L255.558 453.005ZM254.136 453.005L253.225 452.593L252.586 454.005L254.136 454.005L254.136 453.005ZM262.35 434.851L262.35 433.851L261.705 433.851L261.439 434.439L262.35 434.851ZM263.937 434.851L264.848 434.437L264.581 433.851L263.937 433.851L263.937 434.851ZM272.189 453.005L272.189 454.005L273.742 454.005L273.099 452.591L272.189 453.005ZM270.602 453.005L269.687 453.409L269.95 454.005L270.602 454.005L270.602 453.005ZM267.911 446.911L268.825 446.507L268.562 445.911L267.911 445.911L267.911 446.911ZM259.773 446.911L258.827 446.586L258.371 447.911L259.773 447.911L259.773 446.911ZM260.167 445.769L260.167 444.769L259.453 444.769L259.221 445.443L260.167 445.769ZM267.416 445.769L267.416 446.769L268.949 446.769L268.331 445.365L267.416 445.769ZM263.061 435.892L263.976 435.488L263.059 433.407L262.145 435.49L263.061 435.892ZM255.558 452.005L254.136 452.005L254.136 454.005L255.558 454.005L255.558 452.005ZM255.047 453.417L263.261 435.263L261.439 434.439L253.225 452.593L255.047 453.417ZM262.35 435.851L263.937 435.851L263.937 433.851L262.35 433.851L262.35 435.851ZM263.027 435.265L271.278 453.419L273.099 452.591L264.848 434.437L263.027 435.265ZM272.189 452.005L270.602 452.005L270.602 454.005L272.189 454.005L272.189 452.005ZM271.517 452.601L268.825 446.507L266.996 447.315L269.687 453.409L271.517 452.601ZM267.911 445.911L259.773 445.911L259.773 447.911L267.911 447.911L267.911 445.911ZM260.718 447.237L261.112 446.094L259.221 445.443L258.827 446.586L260.718 447.237ZM260.167 446.769L267.416 446.769L267.416 444.769L260.167 444.769L260.167 446.769ZM268.331 445.365L263.976 435.488L262.146 436.295L266.501 446.172L268.331 445.365ZM262.145 435.49L254.642 452.603L256.474 453.407L263.977 436.293L262.145 435.49ZM276.524 451.418L277.524 451.418L277.524 450.418L276.524 450.418L276.524 451.418ZM276.524 453.005L276.524 454.005L277.524 454.005L277.524 453.005L276.524 453.005ZM274.81 453.005L273.81 453.005L273.81 454.005L274.81 454.005L274.81 453.005ZM274.81 451.418L274.81 450.418L273.81 450.418L273.81 451.418L274.81 451.418ZM275.524 451.418L275.524 453.005L277.524 453.005L277.524 451.418L275.524 451.418ZM276.524 452.005L274.81 452.005L274.81 454.005L276.524 454.005L276.524 452.005ZM275.81 453.005L275.81 451.418L273.81 451.418L273.81 453.005L275.81 453.005ZM274.81 452.418L276.524 452.418L276.524 450.418L274.81 450.418L274.81 452.418Z" fill="#BADEFF"/>
<path d="M79.7342 66.5018L420.313 66.508L413.671 103.508L87.3233 103.502L79.7342 66.5018Z" stroke="#BADEFF" stroke-width="2"/>
<path d="M87.5082 66.002L87.5087 35.6144L245.56 19.5048L255.458 19.505L413.509 35.6203L413.508 66.0079L87.5082 66.002Z" stroke="#BADEFF" stroke-width="2"/>
<rect x="-0.999982" y="-1.00002" width="201" height="14" transform="matrix(1.8069e-05 -1 -1 -1.8069e-05 106.504 307.502)" stroke="#BADEFF" stroke-width="2"/>
<rect x="-0.999982" y="-1.00002" width="201" height="14" transform="matrix(1.8069e-05 -1 -1 -1.8069e-05 124.504 307.503)" stroke="#BADEFF" stroke-width="2"/>
<rect x="-0.999982" y="-1.00002" width="201" height="14" transform="matrix(1.8069e-05 -1 -1 -1.8069e-05 162.504 307.503)" stroke="#BADEFF" stroke-width="2"/>
<rect x="-0.999982" y="-1.00002" width="201" height="14" transform="matrix(1.8069e-05 -1 -1 -1.8069e-05 180.504 307.504)" stroke="#BADEFF" stroke-width="2"/>
<rect x="-0.999982" y="-1.00002" width="201" height="14" transform="matrix(1.8069e-05 -1 -1 -1.8069e-05 332.504 307.506)" stroke="#BADEFF" stroke-width="2"/>
<rect x="-0.999982" y="-1.00002" width="201" height="14" transform="matrix(1.8069e-05 -1 -1 -1.8069e-05 350.504 307.507)" stroke="#BADEFF" stroke-width="2"/>
<rect x="-0.999982" y="-1.00002" width="201" height="14" transform="matrix(1.8069e-05 -1 -1 -1.8069e-05 388.504 307.507)" stroke="#BADEFF" stroke-width="2"/>
<rect x="-0.999982" y="-1.00002" width="201" height="14" transform="matrix(1.8069e-05 -1 -1 -1.8069e-05 406.504 307.508)" stroke="#BADEFF" stroke-width="2"/>
<rect x="79.5036" y="312.502" width="341" height="13" stroke="#BADEFF" stroke-width="2"/>
<rect x="59.5034" y="326.501" width="381" height="14" stroke="#BADEFF" stroke-width="2"/>
<path d="M250.008 77.741L251.863 83.4512L252.088 84.1422L252.814 84.1422L258.818 84.1423L253.961 87.6714L253.373 88.0984L253.598 88.7894L255.453 94.4997L250.596 90.9705L250.008 90.5434L249.42 90.9704L244.562 94.4995L246.418 88.7893L246.642 88.0983L246.055 87.6712L241.197 84.142L247.201 84.1421L247.928 84.1421L248.153 83.4512L250.008 77.741Z" stroke="#BADEFF" stroke-width="2"/>
<g filter="url(#filter0_d_223_245)">
<path d="M207.422 190.416C209.978 189.456 212.719 188.962 215.488 188.962L244.506 188.962L244.506 201.483L215.488 201.482C214.559 201.482 213.637 201.648 212.776 201.971C211.915 202.295 211.13 202.77 210.466 203.372C209.802 203.974 209.273 204.691 208.911 205.484C208.548 206.277 208.361 207.129 208.361 207.991C208.361 208.853 208.548 209.705 208.91 210.499C209.273 211.292 209.802 212.009 210.466 212.611C211.13 213.213 211.915 213.688 212.776 214.011C213.637 214.335 214.558 214.501 215.488 214.501L249.043 214.501L240.245 227.021L215.488 227.021C212.718 227.021 209.977 226.526 207.421 225.566C204.865 224.606 202.546 223.2 200.594 221.43C198.643 219.661 197.098 217.562 196.045 215.257C194.992 212.952 194.451 210.483 194.451 207.991C194.451 205.499 194.992 203.03 196.045 200.725C197.098 198.42 198.643 196.322 200.595 194.552C202.546 192.782 204.866 191.376 207.422 190.416Z" fill="#BADEFF" stroke="#BADEFF"/>
<path d="M256.785 193.026L256.785 201.58L250.119 201.58L250.119 192.954L250.119 189.145L262.078 189.145L262.078 192.526L257.285 192.526L256.785 192.526L256.785 193.026Z" fill="#BADEFF" stroke="#BADEFF"/>
<path d="M270.715 193.034L270.715 201.58L265.189 201.58L265.189 192.954L265.189 189.145L288.408 189.146L288.408 193.035L288.408 201.581L282.813 201.58L282.813 193.035L282.813 192.535L282.313 192.535L280.025 192.535L279.525 192.535L279.525 193.035L279.525 201.58L273.836 201.58L273.837 193.034L273.837 192.534L273.337 192.534L271.215 192.534L270.715 192.534L270.715 193.034Z" fill="#BADEFF" stroke="#BADEFF"/>
<path d="M295.973 201.413L304.493 189.124L310.104 189.124L301.564 201.414L295.973 201.413Z" fill="#BADEFF" stroke="#BADEFF"/>
<path d="M295.183 199.097L291.189 189.145L301.968 189.146L295.183 199.097Z" fill="#BADEFF" stroke="#BADEFF"/>
<path d="M275.129 227.08L291.038 204.176L300.548 204.176L284.639 227.08L275.129 227.08Z" fill="#BADEFF" stroke="#BADEFF" stroke-width="1.00134"/>
<path d="M260.296 227.199L276.205 204.295L285.715 204.296L269.805 227.199L260.296 227.199Z" fill="#BADEFF" stroke="#BADEFF" stroke-width="1.00134"/>
<path d="M245.463 226.909L261.372 204.006L270.882 204.006L254.972 226.909L245.463 226.909Z" fill="#BADEFF" stroke="#BADEFF" stroke-width="1.00134"/>
</g>
<defs>
<filter id="filter0_d_223_245" x="189.951" y="188.462" width="125.11" height="47.2379" filterUnits="userSpaceOnUse" color-interpolation-filters="sRGB">
<feFlood flood-opacity="0" result="BackgroundImageFix"/>
<feColorMatrix in="SourceAlpha" type="matrix" values="0 0 0 0 0 0 0 0 0 0 0 0 0 0 0 0 0 0 127 0" result="hardAlpha"/>
<feOffset dy="4"/>
<feGaussianBlur stdDeviation="2"/>
<feComposite in2="hardAlpha" operator="out"/>
<feColorMatrix type="matrix" values="0 0 0 0 0 0 0 0 0 0 0 0 0 0 0 0 0 0 0.25 0"/>
<feBlend mode="normal" in2="BackgroundImageFix" result="effect1_dropShadow_223_245"/>
<feBlend mode="normal" in="SourceGraphic" in2="effect1_dropShadow_223_245" result="shape"/>
</filter>
</defs>
</svg>
